<?xml version="1.0" encoding="UTF-8" standalone="no"?>
<!DOCTYPE svg PUBLIC "-//W3C//DTD SVG 1.1//EN" "http://www.w3.org/Graphics/SVG/1.1/DTD/svg11.dtd">
<svg width="100%" height="100%" viewBox="0 0 1024 1024" version="1.1" xmlns="http://www.w3.org/2000/svg" xmlns:xlink="http://www.w3.org/1999/xlink" xml:space="preserve" xmlns:serif="http://www.serif.com/" style="fill-rule:evenodd;clip-rule:evenodd;stroke-linejoin:round;stroke-miterlimit:2;">
    <g id="b" transform="matrix(2.31877,0,0,2.31877,-84.3989,-93.5388)">
        <g id="c">
            <g>
                <path d="M309.88,389.13C307.94,390.71 307.45,392.67 307.49,394.99C307.55,397.79 307.24,400.6 307.12,403.4C307.07,404.5 307.03,405.67 306.56,406.62C305.57,408.61 305.78,410.72 305.56,412.79C305.34,414.89 305.2,417 305.01,419.14C305.79,419.14 305.97,418.54 306.26,418.14C309.03,414.39 311.77,410.63 314.51,406.87C315.08,406.09 315.65,405.32 316.45,404.77C317.74,403.89 319.32,403.82 320.5,404.59C321.73,405.4 322.25,406.75 321.96,408.37C321.79,409.35 321.27,410.15 320.71,410.93C319.35,412.82 317.99,414.71 316.62,416.61C317.17,417.04 317.51,416.51 317.86,416.33C320.55,414.98 323.22,413.6 325.89,412.21C326.82,411.73 327.77,411.4 328.83,411.46C331.67,411.61 333.13,414.36 331.66,416.79C331.03,417.83 330.03,418.41 328.99,418.96C322.92,422.11 316.79,425.15 310.57,427.99C310.26,428.13 309.97,428.29 309.32,428.62C310.78,428.83 311.93,429 313.08,429.15C326.41,430.88 336.98,437.39 345.25,447.82C347.26,450.36 348.82,453.17 349.54,456.38C350.24,459.55 349.96,462.52 347.83,465.1C347.36,465.67 347.2,466.3 347.09,466.97C346.94,467.92 346.82,468.87 346.63,469.81C345.17,476.84 340.1,481.29 332.91,481.82C328.04,482.18 323.19,481.75 318.35,481.24C308.14,480.17 297.98,478.61 287.73,477.87C284.93,477.67 282.12,477.55 279.32,477.38C278.91,477.36 278.5,477.34 278.09,477.29C273.03,476.71 270.86,473.78 271.86,468.77C272.24,466.89 272.77,465.05 273.26,463.2C273.44,462.51 273.52,461.94 272.9,461.34C270.23,458.73 269.48,455.35 269.31,451.78C269.13,448.21 269.53,444.66 269.76,441.11C270.05,436.46 270.37,431.81 270.84,427.18C271.35,422.14 272.03,417.12 272.71,412.1C272.8,411.4 272.8,410.99 272.22,410.53C268.78,407.83 268.18,404.22 268.93,400.18C269.39,397.72 269.37,397.73 266.85,397.69C260.34,397.57 253.83,397.58 247.33,397.69C246.85,397.69 246.37,397.69 245.89,397.7C245.29,397.7 245.01,397.94 245.17,398.59C245.35,399.32 245.47,400.06 245.61,400.8C246.32,404.59 245.47,407.88 242.4,410.39C241.78,410.89 241.64,411.36 241.76,412.13C243.23,421.61 244.09,431.15 244.68,440.73C244.92,444.63 245.27,448.52 245.09,452.43C244.94,455.82 244.03,458.91 241.54,461.37C241.03,461.87 240.97,462.32 241.17,463.01C241.8,465.18 242.39,467.36 242.74,469.6C243.36,473.55 241.68,476.06 237.78,477.02C236.03,477.45 234.24,477.51 232.48,477.57C222.61,477.92 212.84,479.3 203.05,480.45C197.07,481.16 191.09,481.94 185.04,481.92C183.26,481.92 181.48,481.9 179.72,481.56C173.27,480.29 169.01,476.05 167.76,469.6C167.64,469 167.51,468.39 167.46,467.78C167.36,466.53 166.93,465.48 166.16,464.43C164.29,461.87 164.26,458.94 165,455.97C165.69,453.21 167,450.72 168.72,448.47C176.27,438.55 186.01,432.03 198.34,429.62C200.46,429.21 202.61,428.97 204.85,428.63C204.33,428.01 203.63,427.88 203.04,427.61C197.02,424.82 191.08,421.86 185.18,418.81C184.06,418.23 183.09,417.51 182.55,416.32C181.54,414.1 182.88,411.75 185.31,411.47C186.52,411.33 187.59,411.69 188.65,412.24C191.61,413.78 194.58,415.29 197.78,416.63C197.51,416.22 197.25,415.79 196.97,415.39C195.85,413.83 194.73,412.28 193.6,410.73C193.11,410.06 192.71,409.34 192.5,408.54C192.1,407.04 192.62,405.56 193.79,404.7C194.94,403.86 196.53,403.84 197.84,404.67C198.73,405.23 199.34,406.06 199.95,406.89C202.65,410.6 205.36,414.3 208.07,418.01C208.37,418.43 208.7,418.82 209.39,419.09C209.3,417.69 209.23,416.29 209.1,414.89C208.93,413.19 208.63,411.49 208.82,409.77C208.87,409.35 208.76,408.97 208.58,408.59C207.64,406.64 207.37,404.53 207.26,402.4C207.09,399.12 206.99,395.84 206.89,392.55C206.88,392.12 206.84,391.77 206.55,391.42C205.94,390.7 205.37,389.94 204.68,389.07C203.34,390.32 202.04,391.49 200.78,392.71C196.43,396.93 191.11,398.52 185.21,398.39C179.44,398.26 175.18,395.61 172.51,390.44C170.67,386.88 169.83,383.13 170.16,379.14C170.21,378.5 170.16,377.96 169.84,377.39C168.47,374.95 167.98,372.25 167.74,369.51C167.14,362.48 166.82,355.43 166.53,348.38C166.04,336.88 165.91,325.37 166.06,313.86C166.28,297.27 167.29,280.73 169.44,264.28C170.69,254.7 172.44,245.21 175.58,236.03C177.68,229.89 180.51,224.15 185.06,219.39C188.37,215.92 192.3,213.34 196.63,211.35C199.12,210.21 201.65,209.18 204.15,208.07C206.41,207.07 208.57,205.9 210.32,204.23C210.45,203.71 210.12,203.54 209.88,203.31C206.64,200.25 205.78,196.48 206.56,192.23C207.12,189.16 208.48,186.39 210.03,183.72C210.4,183.07 210.99,182.45 210.08,181.78C210.64,180.55 209.63,180.06 208.96,179.39C208.19,178.61 207.43,177.82 206.66,177.04C206.16,176.53 205.67,176.85 205.16,177.06C202.23,178.26 199.23,179.15 196.05,179.41C187.37,180.12 179.95,177.62 174.27,170.79C169.92,165.56 167.03,159.51 164.89,153.11C160.41,139.69 158.67,125.91 159.97,111.8C160.68,104.05 162.41,96.53 165.75,89.45C167.81,85.08 170.43,81.08 173.99,77.76C178.85,73.22 184.46,70.57 191.27,71.09C195.61,71.42 199.48,73.09 203.09,75.43C203.71,75.84 204.33,76.26 204.92,76.66C205.5,76.29 205.5,75.69 205.67,75.18C208.32,67.53 213.85,63.19 221.61,61.68C230.1,60.03 238.1,61.25 245.26,66.44C245.41,66.55 245.62,66.57 245.84,66.65C246.28,66 246.08,65.3 246.08,64.65C246.15,59.1 246.15,53.55 246.63,48.02C246.72,47 246.83,45.97 247.07,44.98C247.7,42.44 249.34,40.98 251.94,40.66C255.35,40.24 258.78,40.24 262.19,40.62C265.26,40.96 267.05,42.6 267.54,45.66C267.81,47.35 267.92,49.06 268.01,50.77C268.28,56.03 268.44,61.3 268.4,66.55C269.07,66.81 269.36,66.3 269.71,66.04C275.08,62.27 281.1,60.84 287.58,61.03C290.54,61.12 293.45,61.57 296.24,62.57C302.12,64.67 306.31,68.53 308.48,74.45C308.74,75.16 309,75.86 309.26,76.57C310.03,76.57 310.47,75.97 311.02,75.61C314.55,73.27 318.33,71.57 322.58,71.11C327.92,70.53 332.75,72 337.12,75.04C341.9,78.37 345.33,82.85 347.96,87.98C351.51,94.89 353.42,102.3 354.26,109.97C355.96,125.69 354.04,140.99 348.55,155.82C347.02,159.94 344.99,163.81 342.62,167.52C334.89,179.65 322.16,181.68 311.39,177.75C308.86,176.83 307.21,176.85 305.74,179.09C305.59,179.31 305.34,179.47 305.16,179.67C304.75,180.12 303.87,180.89 304.01,180.96C305.38,181.71 303.59,181.99 303.84,182.49C304.11,183.04 304.37,183.59 304.67,184.12C306.21,186.88 307.54,189.72 308,192.9C308.58,196.89 307.58,200.36 304.66,203.21C304.42,203.44 304.11,203.63 304.09,204.1C305.51,205.65 307.37,206.67 309.29,207.56C311.71,208.68 314.16,209.74 316.62,210.77C327.03,215.1 333.9,222.77 337.86,233.22C340.59,240.42 342.37,247.87 343.64,255.44C347.5,278.55 348.54,301.87 348.46,325.25C348.41,339.37 347.83,353.47 346.89,367.55C346.66,371.04 346.29,374.52 344.47,377.64C344.26,378 344.16,378.35 344.22,378.8C344.82,383.4 343.63,387.62 341.3,391.55C338.76,395.84 334.9,398.06 330,398.33C323.8,398.67 318.2,397.09 313.63,392.65C312.4,391.46 311.14,390.3 309.86,389.1L309.88,389.13Z" style="fill:rgb(28,29,30);fill-rule:nonzero;"/>
                <path d="M268.57,208.54C275.97,214.26 285.27,211.85 289.66,203.94C291.84,205.03 294.08,206.04 296.6,206.07C297.17,206.07 297.39,206.56 297.66,206.94C299.95,210.04 302.96,212.26 306.31,214.06C308.66,215.33 311.06,216.5 313.53,217.5C322.1,221 327.71,227.27 330.95,235.85C333.7,243.13 335.36,250.67 336.64,258.31C338.41,268.93 339.33,279.63 340.06,290.37C341.29,308.3 341.27,326.24 340.67,344.19C340.41,351.92 339.91,359.65 339.48,367.38C339.41,368.68 339.21,369.97 339.01,371.25C338.61,373.86 337.13,375.57 334.66,376.49C332.46,377.3 330.18,377.76 327.88,378.09C324.48,378.57 321.06,378.76 317.63,378.61C317.02,378.58 316.4,378.54 315.8,378.41C314.15,378.08 313.9,377.8 313.6,376.17C313.25,374.27 313.27,372.35 313.31,370.43C313.42,364.2 313.6,357.96 313.68,351.73C313.86,337.89 313.68,324.05 313.21,310.22C312.99,303.79 312.5,297.36 312.13,290.93C312.08,290.11 312,289.29 311.65,288.53C311,287.12 309.69,286.24 308.26,286.28C306.74,286.33 305.46,287.36 304.96,288.92C304.66,289.86 304.68,290.81 304.75,291.77C306.44,315.99 306.63,340.23 306.01,364.49C305.97,366 305.85,367.51 305.93,369.01C306.13,372.65 305.46,376.23 305.35,379.85C305.31,381.01 305.02,382.15 304.61,383.25C303.56,386.03 301.59,387.73 298.71,388.44C295.97,389.12 293.18,389.43 290.39,389.65C283.28,390.2 276.16,390.27 269.03,390.25C268.07,390.25 267.14,390.25 266.27,389.67C265.36,389.07 264.29,389.18 263.27,389.4C259.26,390.3 255.26,390.31 251.25,389.4C250.09,389.14 248.92,389.11 247.88,389.82C247.27,390.24 246.6,390.24 245.91,390.24C237.41,390.24 228.92,390.23 220.46,389.27C218.97,389.1 217.48,388.83 216.02,388.47C212.02,387.48 209.68,385.01 209.31,380.91C209,377.52 208.52,374.14 208.51,370.7C208.48,363.16 208.19,355.63 208.14,348.09C208.05,333.63 208.33,319.18 208.92,304.73C209.09,300.49 209.43,296.25 209.67,292.01C209.72,291.12 209.75,290.22 209.62,289.35C209.37,287.67 208.07,286.47 206.46,286.3C204.9,286.13 203.33,287.08 202.77,288.68C202.5,289.44 202.35,290.28 202.3,291.09C201.75,299.77 201.24,308.46 201.04,317.16C200.64,334.08 200.57,351 201.08,367.92C201.15,370.39 201.2,372.85 201,375.32C200.8,377.78 200.32,378.37 197.9,378.53C192.12,378.9 186.41,378.44 180.81,376.84C177.59,375.92 175.6,373.95 175.33,370.47C175.18,368.63 174.92,366.79 174.81,364.95C173.77,347.51 173.18,330.05 173.5,312.57C173.8,295.64 174.83,278.76 177.26,261.99C178.53,253.24 180.22,244.58 183.38,236.27C185.12,231.69 187.42,227.43 190.97,223.95C193.44,221.52 196.31,219.69 199.43,218.22C202.27,216.87 205.15,215.58 207.95,214.15C211.4,212.39 214.49,210.13 216.79,206.95C217.23,206.35 217.7,206.03 218.47,206C220.35,205.92 222.13,205.37 223.73,204.41C224.71,203.82 225.05,204.1 225.58,204.99C228.29,209.46 232.35,211.65 237.54,211.67C240.14,211.67 242.55,210.88 244.64,209.33C245.44,208.73 245.95,208.5 246.86,209.28C249.06,211.16 251.71,211.2 254.23,210.2C256.33,209.36 258.14,209.36 260.26,210.2C263.27,211.38 266.2,210.97 268.59,208.55L268.57,208.54Z" style="fill:rgb(208,174,252);fill-rule:nonzero;"/>
                <path d="M166.97,119.48C167.08,111.59 168.19,102.6 171.83,94.07C173.7,89.68 176.16,85.67 179.83,82.52C182.89,79.89 186.33,78.24 190.5,78.5C193.09,78.67 195.43,79.57 197.67,80.81C199.6,81.88 201.28,83.29 202.95,84.7C206.88,88.01 210.15,86.97 211.44,82.04C211.88,80.39 212.31,78.73 212.89,77.12C214.22,73.46 216.71,70.94 220.38,69.75C226.63,67.72 232.79,67.96 238.7,71.04C240.61,72.04 242.25,73.36 243.39,75.23C244.29,76.71 245.91,77.48 246.96,78.84C247.5,79.55 248.57,79.54 249.46,79.56C251.85,79.61 254.25,79.61 256.65,79.56C259.17,79.5 261.71,79.67 264.24,79.61C266.09,79.57 267.53,79.09 268.86,77.53C269.9,76.31 271,75.09 272.1,73.89C274.54,71.21 277.7,69.77 281.19,69.04C285.28,68.19 289.36,68.26 293.37,69.48C297.52,70.75 300.38,73.39 301.73,77.55C302.18,78.91 302.54,80.31 302.94,81.69C303.13,82.35 303.26,83.03 303.52,83.65C304.73,86.53 307.42,87.42 310.08,85.78C311,85.21 311.82,84.45 312.65,83.74C314.98,81.79 317.49,80.17 320.4,79.21C324.34,77.91 328.09,78.3 331.67,80.38C335.32,82.5 337.98,85.59 340.14,89.16C343.12,94.08 344.99,99.46 345.98,105.08C349.17,123.01 347.2,140.39 339.97,157.14C338.88,159.66 337.45,161.99 335.91,164.27C331.01,171.53 323.73,173.26 316.1,171.57C314.35,171.18 312.72,170.46 311.07,169.8C307.46,168.35 305.43,168.76 302.77,171.61C300.23,174.34 297.47,176.74 294.22,178.6C290.5,180.73 286.36,181.37 282.25,182.04C275.02,183.22 267.81,182.87 260.6,181.54C258.4,181.13 255.99,181.14 253.78,181.54C244.69,183.23 235.7,183.1 226.69,180.98C221.51,179.76 217.22,177.17 213.5,173.48C212.72,172.71 211.97,171.91 211.21,171.12C209.12,168.99 206.69,168.41 203.9,169.58C201.37,170.63 198.84,171.64 196.07,171.97C189.04,172.79 183.25,170.74 178.99,164.89C175.36,159.9 172.96,154.32 171.14,148.48C168.49,139.97 166.97,129.75 166.95,119.47L166.97,119.48Z" style="fill:rgb(255,195,41);fill-rule:nonzero;"/>
                <path d="M213.68,194.22C213.82,191.48 214.96,189.07 216.21,186.7C216.58,185.99 217.09,186.29 217.61,186.5C222.15,188.29 226.89,189.3 231.69,190.12C236.8,190.99 241.9,190.9 247.03,190.53C250.31,190.29 253.58,190.03 256.72,188.95C257.15,188.8 257.5,188.86 257.9,189C261.43,190.24 265.15,190.4 268.82,190.67C278.24,191.38 287.37,189.94 296.24,186.75C298.02,186.11 298.04,186.07 298.82,187.73C299.34,188.84 299.81,189.99 300.22,191.14C300.49,191.91 300.72,192.72 300.81,193.53C301,195.21 300.88,196.91 299.35,197.98C297.87,199.02 296.23,198.76 294.65,198.09C293.7,197.69 292.88,197.06 292.07,196.42C291.48,195.96 290.9,195.45 290.26,195.08C287.87,193.68 285.03,194.61 283.95,197.17C283.61,197.98 283.44,198.87 283.19,199.72C282.44,202.28 280.72,203.8 278.11,204.2C275.51,204.59 273.61,203.41 272.29,201.21C271.9,200.56 271.59,199.88 271.23,199.21C270.42,197.71 269.27,196.75 267.46,196.88C265.67,197.01 264.65,198.15 263.94,199.65C263.58,200.4 263.56,201.24 263.4,202.04C263.15,203.25 262.47,203.5 261.54,202.76C261.38,202.64 261.27,202.45 261.13,202.3C258.87,199.91 255.61,199.87 253.4,202.22C253.07,202.57 252.83,202.98 252.3,203.08C251.77,203.18 251.33,203.15 251.2,202.52C251.06,201.85 250.94,201.18 250.8,200.51C250.59,199.47 250.09,198.59 249.3,197.88C247.55,196.3 245.12,196.52 243.74,198.43C243.22,199.15 242.89,199.99 242.45,200.76C240.95,203.4 238.96,204.6 236.47,204.2C233.7,203.76 231.91,202.16 231.22,199.39C231.02,198.6 230.84,197.78 230.51,197.04C229.43,194.61 226.63,193.7 224.31,195.03C223.6,195.43 222.98,195.98 222.33,196.49C221.41,197.2 220.48,197.91 219.36,198.28C216.55,199.23 213.47,198.35 213.68,194.21L213.68,194.22Z" style="fill:rgb(164,97,255);fill-rule:nonzero;"/>
                <path d="M339.87,468.59C339.21,471.4 337.54,473.04 335.04,473.88C333.81,474.3 332.51,474.42 331.2,474.46C325.71,474.62 320.27,473.98 314.84,473.36C308.32,472.61 301.8,471.87 295.29,471.07C290.33,470.46 285.33,470.41 280.36,469.97C280.02,469.94 279.67,469.96 279.39,469.69C279.37,469.57 279.3,469.43 279.33,469.31C279.67,468.06 279.51,466.41 280.47,465.68C281.38,464.99 282.79,465.94 283.99,466.07C286.78,466.38 289.56,466.8 292.35,466.94C300.21,467.31 308.07,467.57 315.93,467.86C322.77,468.11 329.6,468.35 336.44,468.58C337.52,468.62 338.6,468.58 339.86,468.58L339.87,468.59Z" style="fill:rgb(149,150,151);fill-rule:nonzero;"/>
                <path d="M235.1,469.8C233.56,470.06 232.21,470.2 230.85,470.24C223.66,470.47 216.54,471.37 209.4,472.19C200.91,473.16 192.46,474.58 183.87,474.47C182.35,474.45 180.86,474.33 179.41,473.87C177.25,473.19 175.77,471.76 174.91,469.68C174.59,468.9 174.82,468.52 175.7,468.55C178.51,468.63 181.31,468.52 184.12,468.4C190.21,468.12 196.3,468.06 202.39,467.77C210.46,467.4 218.54,467.37 226.59,466.57C228.7,466.36 230.79,466.01 232.87,465.58C233.8,465.39 234.29,465.47 234.49,466.47C234.7,467.53 235.16,468.55 235.13,469.81L235.1,469.8Z" style="fill:rgb(149,150,151);fill-rule:nonzero;"/>
                <path d="M213.74,395.64C221.04,397.2 228.23,397.42 235.41,397.6C237.37,397.65 237.37,397.65 237.81,399.52C238,400.32 238.18,401.12 238.31,401.93C238.62,403.91 238.23,404.63 236.38,405.48C234.55,406.32 232.57,406.57 230.59,406.73C226.35,407.07 222.11,407.26 217.88,406.66C215.53,406.32 214.9,405.72 214.58,403.44C214.22,400.88 214.02,398.3 213.74,395.64Z" style="fill:rgb(235,224,252);fill-rule:nonzero;"/>
                <path d="M300.62,395.8C300.51,398.53 300.3,401.16 299.86,403.77C299.58,405.47 298.63,406.4 296.89,406.64C292.6,407.22 288.3,407.06 284.01,406.74C282.17,406.6 280.34,406.38 278.6,405.7C276.28,404.8 275.9,404.13 276.24,401.66C276.79,397.67 276.79,397.68 280.78,397.56C287.2,397.36 293.62,397.14 299.94,395.81C300.12,395.77 300.31,395.81 300.63,395.81L300.62,395.8Z" style="fill:rgb(235,224,252);fill-rule:nonzero;"/>
                <path d="M177.23,383.55C183.66,385.58 190.02,386.22 196.74,386.08C195.57,387.79 194.16,388.9 192.52,389.66C189.99,390.84 187.28,391.24 184.5,390.96C182.43,390.75 180.7,389.84 179.44,388.15C178.47,386.84 177.73,385.41 177.23,383.55Z" style="fill:rgb(254,194,41);fill-rule:nonzero;"/>
                <path d="M317.71,386.08C324.45,386.2 330.78,385.61 336.95,383.62C336.58,387.22 333.98,390.28 330.68,390.85C327.07,391.47 321.33,390.8 317.72,386.08L317.71,386.08Z" style="fill:rgb(254,194,41);fill-rule:nonzero;"/>
                <path d="M267.62,290.26L267.62,303.61C267.62,304.36 267.66,305.11 267.42,305.85C266.87,307.5 265.57,308.5 263.92,308.5C262.27,308.5 260.92,307.49 260.44,305.83C260.29,305.31 260.25,304.75 260.25,304.21C260.25,294.9 260.26,285.59 260.29,276.28C260.29,275.74 260.36,275.18 260.51,274.66C261.02,272.93 262.46,271.91 264.2,272.01C265.9,272.1 267.27,273.31 267.57,275.06C267.68,275.66 267.65,276.29 267.65,276.9L267.65,290.25L267.63,290.25L267.62,290.26Z" style="fill:rgb(16,18,17);fill-rule:nonzero;"/>
                <path d="M254.28,290.29L254.28,303.23C254.28,304.05 254.27,304.89 254.1,305.68C253.72,307.42 252.28,308.52 250.55,308.5C248.82,308.48 247.41,307.36 247.05,305.61C246.91,304.95 246.91,304.25 246.91,303.57C246.88,294.74 246.86,285.91 246.85,277.08C246.85,276.33 246.88,275.57 247.03,274.84C247.41,273.09 248.82,272 250.57,272.02C252.31,272.04 253.72,273.16 254.07,274.91C254.2,275.57 254.2,276.27 254.2,276.95C254.21,281.4 254.2,285.85 254.2,290.3L254.29,290.3L254.28,290.29Z" style="fill:rgb(16,18,18);fill-rule:nonzero;"/>
                <path d="M245.76,340.01L245.76,327.71C245.76,327.03 245.76,326.33 245.91,325.67C246.29,323.98 247.8,322.81 249.47,322.82C251.06,322.83 252.43,323.92 252.92,325.54C253.12,326.21 253.14,326.88 253.13,327.57C253.02,336.05 252.92,344.52 252.8,353C252.8,353.48 252.77,353.96 252.66,354.42C252.22,356.26 250.77,357.38 248.96,357.32C247.18,357.26 245.77,356.01 245.49,354.15C245.4,353.55 245.43,352.92 245.42,352.31L245.42,340.01L245.76,340.01Z" style="fill:rgb(16,18,17);fill-rule:nonzero;"/>
                <path d="M261.4,339.75C261.4,335.51 261.42,331.27 261.4,327.04C261.39,325.32 261.95,323.94 263.56,323.18C265.46,322.28 267.7,323.23 268.43,325.21C268.69,325.92 268.77,326.66 268.78,327.43C268.86,335.9 268.96,344.38 269.04,352.85C269.04,353.33 269.02,353.81 268.94,354.28C268.61,356.15 267.22,357.32 265.39,357.33C263.56,357.33 262.16,356.17 261.82,354.31C261.71,353.71 261.69,353.09 261.69,352.47C261.68,348.23 261.69,344 261.69,339.76L261.41,339.76L261.4,339.75Z" style="fill:rgb(16,18,17);fill-rule:nonzero;"/>
                <path d="M267.62,240.51L267.62,251.19C267.62,251.87 267.62,252.57 267.46,253.22C267.05,254.87 265.68,255.96 264.06,256.02C262.47,256.08 261.06,255.05 260.49,253.44C260.25,252.78 260.25,252.1 260.24,251.41C260.14,244.43 260.03,237.44 259.94,230.46C259.93,229.64 259.88,228.82 260.11,228.01C260.61,226.26 261.96,225.21 263.71,225.25C265.43,225.29 266.82,226.44 267.17,228.19C267.29,228.79 267.29,229.42 267.3,230.03C267.31,233.52 267.3,237.01 267.3,240.51L267.62,240.51Z" style="fill:rgb(16,18,17);fill-rule:nonzero;"/>
                <path d="M247.15,240.54L247.15,230.06C247.15,229.3 247.19,228.55 247.43,227.83C247.97,226.12 249.41,225.14 251.17,225.26C252.87,225.38 254.2,226.62 254.47,228.38C254.54,228.85 254.53,229.34 254.53,229.81C254.45,236.79 254.37,243.78 254.28,250.76C254.27,251.58 254.25,252.42 254.07,253.21C253.69,254.9 252.15,256.05 250.48,256.01C248.79,255.97 247.35,254.77 247.03,253.05C246.91,252.38 246.91,251.69 246.91,251.01C246.9,247.52 246.91,244.03 246.91,240.54L247.16,240.54L247.15,240.54Z" style="fill:rgb(16,18,17);fill-rule:nonzero;"/>
                <path d="M217.62,136.71C217.66,138.77 216.68,140.17 215.12,140.63C213.54,141.1 211.88,140.53 211.02,139.08C210.6,138.39 210.33,137.59 210.1,136.81C208.83,132.48 207.62,128.12 206.34,123.79C205.51,120.96 204.58,118.16 203.02,115.63C201.5,113.17 200.76,113.08 198.62,115.08C196.96,116.63 195.59,118.44 194.35,120.33C190.58,126.13 186.92,132 184.83,138.68C184.69,139.13 184.48,139.58 184.21,139.97C183.34,141.29 181.86,141.8 180.45,141.32C179.14,140.87 178.28,139.61 178.34,138.13C178.36,137.52 178.51,136.91 178.68,136.32C181.17,127.42 185.48,119.47 191.2,112.25C192.48,110.63 193.94,109.19 195.66,108.02C200.06,105.04 204.47,105.66 207.88,109.75C209.16,111.29 210.1,113.03 210.93,114.85C212.32,117.91 213.27,121.13 214.18,124.36C215.17,127.85 216.19,131.33 217.18,134.82C217.38,135.54 217.53,136.28 217.63,136.7L217.62,136.71Z" style="fill:rgb(16,18,17);fill-rule:nonzero;"/>
                <path d="M336.2,137.93C336.23,139.55 335.34,140.87 334.05,141.32C332.64,141.81 331.11,141.32 330.29,139.99C329.9,139.36 329.65,138.63 329.4,137.92C326.75,130.34 322.59,123.6 317.82,117.21C317.17,116.34 316.39,115.54 315.58,114.81C313.75,113.17 313.03,113.27 311.7,115.28C310.79,116.66 310.13,118.16 309.53,119.7C308.36,122.71 307.59,125.83 306.69,128.92C305.89,131.68 305.09,134.44 304.26,137.19C304.06,137.84 303.82,138.5 303.47,139.07C302.56,140.52 300.95,141.09 299.37,140.61C297.81,140.14 296.79,138.73 296.86,137.02C296.88,136.41 297.04,135.8 297.2,135.21C298.57,130.41 299.94,125.6 301.36,120.81C302.18,118.05 303.19,115.36 304.58,112.82C305.37,111.37 306.27,110 307.45,108.83C310.43,105.88 314.11,105.35 317.79,107.35C319.62,108.35 321.17,109.72 322.48,111.3C328.79,118.87 333.4,127.35 335.97,136.9C336.08,137.29 336.15,137.7 336.2,137.9L336.2,137.93Z" style="fill:rgb(16,18,17);fill-rule:nonzero;"/>
                <path d="M257.29,168.81C249.63,168.8 242.14,167.8 234.99,164.88C233.41,164.23 231.84,163.54 230.45,162.52C229.96,162.16 229.44,161.78 229.06,161.32C228.2,160.29 228.01,159.1 228.63,157.87C229.2,156.74 230.13,156.08 231.42,156.1C232.86,156.12 234.25,156.35 235.62,156.91C242.34,159.66 249.31,161.15 256.6,161.23C264.02,161.31 271.16,159.97 278.05,157.24C279.59,156.63 281.12,156.12 282.8,156.08C284.27,156.05 285.31,156.68 285.94,157.96C286.55,159.2 286.22,160.62 285.09,161.69C284.19,162.54 283.13,163.17 282.02,163.72C276.3,166.55 270.19,167.95 263.87,168.49C261.69,168.68 259.49,168.7 257.31,168.79L257.29,168.81Z" style="fill:rgb(16,18,17);fill-rule:nonzero;"/>
                <path d="M257.21,141.44C253.75,141.63 250.4,141.71 247.09,141.02C245.07,140.6 243.11,140 241.41,138.77C238.62,136.75 238.09,133.96 239.96,131.06C240.9,129.6 242.19,128.47 243.62,127.51C246.82,125.35 250.32,123.81 253.95,122.57C256.22,121.79 258.55,121.84 260.8,122.64C264.22,123.85 267.55,125.29 270.59,127.31C272.14,128.34 273.55,129.53 274.57,131.11C276.36,133.9 275.85,136.72 273.18,138.69C270.72,140.5 267.84,141.08 264.89,141.4C262.3,141.68 259.7,141.59 257.2,141.44L257.21,141.44Z" style="fill:rgb(17,18,17);fill-rule:nonzero;"/>
                <path d="M257.19,138.87C253.71,138.8 250.21,139.08 246.78,138.16C245.52,137.82 244.27,137.44 243.18,136.72C241.4,135.54 241.13,134.1 242.36,132.36C243.2,131.18 244.26,130.16 245.53,129.48C248.42,127.96 251.22,126.3 254.55,125.69C257.08,125.22 259.52,125.41 261.84,126.15C264.82,127.1 267.71,128.42 270.21,130.39C271.02,131.02 271.76,131.75 272.3,132.63C273.29,134.24 273.09,135.42 271.54,136.52C270.88,136.99 270.13,137.37 269.36,137.64C266.96,138.51 264.44,138.87 261.9,138.86C260.33,138.86 258.75,138.87 257.18,138.86L257.19,138.87Z" style="fill:rgb(252,191,183);fill-rule:nonzero;"/>
            </g>
        </g>
    </g>
</svg>
