<?xml version="1.0" encoding="UTF-8" standalone="no"?>
<!DOCTYPE svg PUBLIC "-//W3C//DTD SVG 1.1//EN" "http://www.w3.org/Graphics/SVG/1.1/DTD/svg11.dtd">
<svg width="100%" height="100%" viewBox="0 0 1024 1024" version="1.1" xmlns="http://www.w3.org/2000/svg" xmlns:xlink="http://www.w3.org/1999/xlink" xml:space="preserve" xmlns:serif="http://www.serif.com/" style="fill-rule:evenodd;clip-rule:evenodd;stroke-linejoin:round;stroke-miterlimit:2;">
    <g transform="matrix(2.19632,0,0,2.19632,-53.0138,-46.0158)">
        <g id="b">
            <g id="c">
                <g>
                    <path d="M215.86,197.18C211.6,196.15 207.59,195.05 203.68,193.63C195.51,190.66 187.88,186.71 181.16,181.15C166.47,169.01 159.32,153.39 159.85,134.33C160.19,122.05 163.83,110.63 169.4,99.78C176.58,85.78 186.41,73.81 197.81,63.08C198.81,62.14 199.81,61.21 200.81,60.27C200.85,60.24 200.83,60.15 200.86,59.93C198.04,57.76 196.1,54.82 194.87,51.41C189.97,37.83 198.41,23.61 212.7,21.31C217.08,20.61 221.33,20.96 225.37,22.77C231.37,25.45 234.63,30.05 234.75,36.72C234.75,37.05 234.8,37.38 234.84,37.82C236.23,37.4 237.52,36.95 238.83,36.64C243.8,35.45 248.83,35.07 253.92,35.66C255.9,35.89 257.86,35.99 259.85,35.74C266.4,34.95 272.83,35.45 279.08,37.7C279.2,37.74 279.34,37.7 279.49,37.7C279.94,37.09 279.71,36.37 279.76,35.72C280.21,29.87 283.12,25.66 288.34,23.12C300.84,17.04 318.21,24.08 320.72,40.03C321.58,45.46 320.52,50.51 317.78,55.24C316.71,57.09 315.24,58.61 313.56,59.99C314.15,60.6 314.62,61.16 315.16,61.66C325.72,71.35 334.97,82.12 342.22,94.54C347.79,104.08 351.93,114.17 353.71,125.12C356.79,143.99 352.71,160.92 339.63,175.24C332.28,183.28 323.18,188.77 313.12,192.75C308.72,194.49 304.2,195.84 299.6,196.93C299.34,196.99 299.05,196.97 298.87,197.28C298.72,197.8 299.15,198.14 299.37,198.54C301.03,201.47 302.51,204.48 302.99,207.86C303.08,208.5 303.37,208.84 303.95,209.03C304.99,209.37 306.02,209.75 307.06,210.06C310.14,210.98 313.25,211.84 316.19,213.15C331.26,219.84 340.03,231.28 342.05,247.73C342.89,254.54 342.86,261.4 343.22,268.24C343.75,278.3 344.66,288.32 345.92,298.32C346.6,303.69 347.37,309.04 348.07,314.4C348.27,315.96 348.37,317.54 348.25,319.12C348.08,321.37 347.2,323.28 345.18,324.39C344.14,324.96 344.17,325.58 344.46,326.52C345.55,330.14 345.66,333.81 344.77,337.48C343.16,344.15 337.9,348.85 331.48,349.45C324.61,350.08 318.33,346.52 315.4,340.33C313.64,336.61 313.23,332.71 313.88,328.7C314.07,327.52 313.89,326.93 312.7,326.39C308.74,324.58 307.44,321.02 307.09,317.02C306.7,312.57 307.04,308.12 307.09,303.67C307.11,302.09 307.2,300.52 307.24,298.95C307.25,298.56 307.41,298.13 307.04,297.79C306.48,297.77 306.12,298.02 306.1,298.61C306.08,299.16 306.1,299.71 306.11,300.25C306.43,334.03 306.75,367.8 307.08,401.58C307.1,403.91 307.05,406.23 307.23,408.56C307.37,410.35 306.85,411.98 305.05,412.85C304.47,413.13 304.31,413.53 304.32,414.15C304.35,417.15 304.33,420.16 304.33,423.19C304.95,423.42 305.15,422.85 305.42,422.53C308.03,419.45 310.62,416.34 313.22,413.25C313.79,412.57 314.34,411.86 314.96,411.23C316.71,409.44 318.72,409.18 320.24,410.51C321.76,411.84 321.81,413.83 320.28,415.85C319.41,416.99 318.43,418.05 317.49,419.14C316.69,420.07 315.86,420.97 314.75,422.22C317.39,421.69 319.61,421.23 321.84,420.8C323.25,420.53 324.66,420.23 326.09,420.1C328.32,419.9 329.87,421.05 330.16,422.97C330.47,425 329.3,426.63 327.06,427.09C325.25,427.46 323.42,427.7 321.59,427.97C320.91,428.07 320.24,428.14 319.48,428.51C321.45,429.17 323.31,429.71 325.12,430.41C332.63,433.29 338.69,438 343.19,444.7C348.21,452.18 348.68,460.18 345.69,468.44C345.02,470.29 344.63,472.01 344.79,473.93C344.87,474.87 344.78,475.85 344.64,476.79C343.96,481.47 341.24,484.44 336.81,485.9C334.18,486.77 331.45,487.02 328.71,487.11C318.89,487.44 309.14,486.59 299.42,485.26C291.48,484.17 283.59,482.85 275.79,481.01C273.92,480.57 272.1,479.99 270.39,479.1C267.75,477.73 266.24,475.58 265.97,472.62C265.84,471.19 265.81,469.75 265.77,468.31C265.75,467.62 265.7,466.8 266.15,466.33C267.42,464.99 266.84,463.62 266.51,462.17C266.15,460.57 266.03,458.92 266.04,457.27C266.08,452.81 266.46,448.37 266.89,443.94C267.55,437.18 267.79,430.41 267.91,423.63C267.95,421.66 267.8,419.68 268.13,417.65C265.9,417.25 263.76,416.83 261.6,416.5C260.03,416.26 258.59,415.21 257.1,415.26C255.68,415.31 254.3,416.25 252.79,416.49C250.64,416.84 248.49,417.25 246.23,417.65C246.66,419.72 246.54,421.76 246.52,423.8C246.42,432.79 247.31,441.72 248.04,450.67C248.28,453.61 248.33,456.55 248.25,459.5C248.22,460.74 248.01,461.96 247.63,463.13C247.31,464.1 247.21,464.91 247.94,465.77C248.47,466.39 248.64,467.24 248.64,468.09C248.64,469.73 248.61,471.37 248.37,473.01C247.96,475.82 246.49,477.78 244.01,479.09C241.93,480.19 239.69,480.82 237.42,481.31C226.64,483.64 215.77,485.42 204.78,486.43C198.56,487 192.34,487.32 186.1,487.13C183.29,487.04 180.5,486.81 177.79,485.97C172.62,484.37 169.65,480.6 169.67,475.19C169.67,472.58 169.32,470.18 168.45,467.67C164.73,457 167.57,447.75 175.16,439.74C180.03,434.6 185.98,431.2 192.75,429.23C193.47,429.02 194.19,428.82 195.03,428.59C193.46,427.84 191.84,427.97 190.32,427.63C189.25,427.39 188.15,427.32 187.09,427.06C185.12,426.58 183.96,424.97 184.18,423.16C184.41,421.24 185.98,419.95 188.12,420.11C190.92,420.32 193.65,421.06 196.4,421.58C197.33,421.76 198.26,421.97 199.23,422.17C199.15,421.4 198.57,421.06 198.18,420.61C196.89,419.1 195.56,417.62 194.28,416.11C193.61,415.32 193.07,414.44 193.02,413.36C192.95,412.02 193.44,410.94 194.6,410.23C195.75,409.52 196.94,409.54 198.11,410.18C198.97,410.65 199.6,411.38 200.21,412.12C202.79,415.23 205.37,418.34 207.96,421.44C208.52,422.11 209.13,422.73 209.73,423.38C210.29,422.93 210.05,422.42 210.05,421.99C210.05,419.46 210.02,416.92 210.05,414.39C210.05,413.64 209.91,413.15 209.16,412.76C207.59,411.94 207.1,410.43 207.14,408.77C207.65,387.33 207.57,365.88 207.89,344.44C208.11,329.57 208.2,314.71 208.33,299.84C208.33,299.06 208.77,297.97 207.3,297.75C207,298.49 207.15,299.24 207.18,299.95C207.35,304.67 207.58,309.4 207.52,314.13C207.5,315.99 207.33,317.82 206.9,319.63C206.15,322.81 204.49,325.3 201.39,326.59C200.49,326.96 200.36,327.46 200.5,328.32C201,331.4 200.97,334.46 200.1,337.48C198.16,344.24 192.56,349.03 186.01,349.5C177.46,350.12 170.61,344.52 169.31,335.91C168.83,332.74 169.02,329.62 169.95,326.56C170.25,325.58 170.2,324.99 169.19,324.41C166.81,323.03 166.07,320.7 166.08,318.1C166.08,315.28 166.56,312.5 166.97,309.73C169.67,291.62 171.18,273.41 171.78,255.11C171.98,248.93 172.58,242.8 174.87,236.97C179.67,224.75 188.48,216.67 200.72,212.21C203.55,211.18 206.45,210.35 209.33,209.5C210.62,209.12 211.4,208.54 211.6,207.05C211.96,204.3 213.24,201.85 214.54,199.43C214.9,198.77 215.27,198.12 215.79,197.21L215.86,197.18Z" style="fill:rgb(16,18,17);fill-rule:nonzero;"/>
                    <path d="M257.24,192.32C255.31,191.98 253.47,192.35 251.63,192.45C241.47,193.02 231.36,192.56 221.34,190.74C210.88,188.83 200.93,185.49 191.88,179.8C182.73,174.04 175.56,166.5 171.2,156.49C167.49,147.99 166.53,139.08 167.55,129.94C168.97,117.14 173.93,105.64 180.71,94.86C188.41,82.63 198.15,72.2 209.13,62.88C209.65,62.44 210.19,62.01 210.67,61.52C211.79,60.39 212.12,59.03 211.58,57.55C211.01,55.97 209.93,54.7 208.17,54.7C205.41,54.71 203.89,53.1 202.75,50.96C198.32,42.68 201.79,31.51 212.7,28.83C215.62,28.11 218.54,28.17 221.41,29.14C227.34,31.15 229.6,37.45 226.32,42.8C226.03,43.27 225.7,43.72 225.52,44.23C224.84,46.11 225.97,48.15 227.93,48.44C229.36,48.66 230.81,48.57 232.09,47.71C238.95,43.08 246.65,42.06 254.67,42.42C256.38,42.5 258.08,42.53 259.8,42.42C265.61,42.04 271.28,42.74 276.77,44.73C278.58,45.39 280.3,46.24 281.87,47.36C282.91,48.1 284.03,48.47 285.31,48.52C286.8,48.58 288.05,48.2 288.79,46.83C289.47,45.57 289.28,44.3 288.44,43.16C287.22,41.48 286.83,39.57 286.81,37.54C286.78,33.86 288.47,31.23 291.76,29.69C299.36,26.13 310.91,29.77 313.27,40.2C314.14,44.04 313.56,47.7 311.66,51.12C310.52,53.18 309.03,54.71 306.36,54.7C304.6,54.7 303.55,55.95 302.94,57.53C302.32,59.13 302.79,60.49 303.97,61.64C304.56,62.21 305.2,62.73 305.83,63.26C317.47,73.21 327.68,84.4 335.51,97.63C340.71,106.42 344.63,115.72 346.4,125.83C348.54,138.01 347.31,149.72 341.24,160.68C336.28,169.62 329,176.23 320.2,181.25C311.72,186.09 302.57,189.03 293,190.76C281.88,192.77 270.68,193.09 259.43,192.19C258.66,192.13 257.93,192.28 257.27,192.31L257.24,192.32Z" style="fill:rgb(233,204,152);fill-rule:nonzero;"/>
                    <path d="M199.67,289.54C199.95,297.29 200.37,304.89 200.39,312.49C200.39,314.13 200.41,315.78 200.13,317.41C199.79,319.39 199.21,319.96 197.25,320.33C196.65,320.45 196.03,320.57 195.42,320.59C188.69,320.79 182.01,320.31 175.4,319.04C173.26,318.63 173.18,318.57 173.44,316.34C174,311.51 174.66,306.7 175.29,301.88C176.5,292.64 177.53,283.39 178.05,274.09C178.46,266.7 178.86,259.32 179.2,251.93C179.9,237 186.99,226.33 200.45,219.83C204.28,217.98 208.36,216.79 212.28,215.18C212.71,215 213.05,215.03 213.4,215.34C218.06,219.6 223.26,218.95 228.57,216.94C229.65,216.53 230.7,215.99 231.68,215.37C232.61,214.79 233.11,214.98 233.63,215.9C234.3,217.09 235.16,218.16 236.13,219.14C240.11,223.14 245.44,224.09 250.45,221.56C251.59,220.98 252.69,220.64 253.96,220.72C255.53,220.81 257.05,220.36 258.66,220.5C261.13,220.72 263.39,221.35 265.72,222.23C270.84,224.17 276.09,222.27 279.71,217.63C280.41,216.73 280.71,215.17 281.85,215.08C282.78,215 283.8,215.93 284.78,216.42C287.78,217.94 290.94,218.64 294.31,218.38C296.71,218.2 298.89,217.46 300.63,215.78C301.33,215.1 301.87,215.05 302.77,215.4C307.16,217.11 311.67,218.53 315.85,220.76C327.52,227 333.99,236.64 335.12,249.86C335.72,256.96 335.81,264.09 336.24,271.2C336.76,279.82 337.51,288.41 338.6,296.97C339.4,303.29 340.3,309.59 341.06,315.91C341.38,318.62 341.57,318.59 338.76,319.11C332.27,320.31 325.73,320.85 319.14,320.6C315.24,320.45 314.34,319.58 314.16,315.65C313.92,310.65 314.14,305.65 314.41,300.66C315.04,288.68 315.13,276.7 314.77,264.71C314.74,263.82 314.75,262.92 314.5,262.06C314,260.35 312.68,259.28 311.1,259.28C309.59,259.28 308.39,260.26 307.8,261.9C307.49,262.77 307.55,263.66 307.56,264.54C307.65,270.7 307.98,276.87 307.87,283.03C307.83,285.15 307.67,287.27 307.67,289.4C307.67,290.43 307.22,290.75 306.32,291.08C302.17,292.58 297.86,293.29 293.53,293.94C287.64,294.83 281.76,295.74 275.82,296.2C267.36,296.86 258.89,297.49 250.38,296.98C244.5,296.63 238.62,296.29 232.78,295.59C226.33,294.81 219.89,293.9 213.51,292.65C211.83,292.32 210.23,291.71 208.6,291.2C206.46,290.54 206.88,290.69 206.8,288.66C206.5,280.85 206.8,273.04 206.88,265.23C206.88,264.41 206.95,263.58 206.88,262.77C206.71,260.87 205.34,259.43 203.68,259.29C201.93,259.14 200.34,260.44 199.91,262.39C199.84,262.72 199.82,263.07 199.81,263.41C199.68,272.18 199.16,280.94 199.69,289.55L199.67,289.54Z" style="fill:rgb(0,255,221);fill-rule:nonzero;"/>
                    <path d="M215.46,299.94C219.15,301.08 222.66,301.14 225.98,302.36C227.86,303.06 230.01,303.08 232.04,303.34C239.26,304.24 246.51,304.42 253.78,304.44C260.08,304.45 266.39,304.48 272.68,304.18C277.74,303.94 282.85,303.67 287.76,302.49C291.08,301.69 294.43,301.09 297.74,300.27C298.07,300.19 298.4,300.09 298.76,300.23C299.1,300.85 298.95,301.55 298.95,302.22C299.24,331.19 299.52,360.17 299.81,389.14C299.86,394.48 299.91,399.83 300.04,405.17C300.07,406.38 299.7,406.98 298.56,407.44C294.06,409.22 289.38,410.16 284.6,410.65C278.02,411.32 271.47,410.96 264.96,409.85C264.62,409.79 264.29,409.7 263.95,409.66C263.09,409.56 262.86,409.07 262.9,408.25C263.01,405.58 263.05,402.91 263.13,400.24C263.77,380.32 264.41,360.39 265.05,340.47C265.32,332.19 265.59,323.91 265.86,315.62C265.92,313.78 264.95,312.44 263.1,312.1C259.23,311.39 255.33,311.39 251.46,312.08C249.49,312.43 248.59,313.68 248.66,315.74C249.32,336.42 249.98,357.09 250.63,377.77C250.94,387.63 251.26,397.49 251.56,407.35C251.63,409.51 251.6,409.5 249.43,409.87C239.87,411.47 230.35,411.48 220.9,409.06C219.38,408.67 217.87,408.19 216.42,407.61C214.07,406.68 214.5,407.02 214.51,404.87C214.55,396.99 214.61,389.12 214.69,381.24C214.94,355.14 215.2,329.05 215.45,302.95L215.45,299.96L215.46,299.94Z" style="fill:rgb(195,255,250);fill-rule:nonzero;"/>
                    <path d="M216.65,415.31C224.27,417.6 231.8,418.3 239.47,418.1C239.14,424.25 239.52,430.19 239.78,436.12C240.03,441.93 240.68,447.71 241.12,453.51C241.3,455.9 241.43,458.28 240.96,460.67C240.63,462.34 239.69,463.29 238.1,463.81C235.92,464.53 233.65,464.62 231.42,464.83C226.93,465.25 222.41,465.49 217.91,465.81C210.95,466.31 204,466.91 197.03,467.28C191.01,467.6 184.98,467.65 178.96,467.4C178.75,467.4 178.55,467.38 178.35,467.35C175.78,467.01 175.51,466.66 174.81,464.14C172.76,456.74 174.97,450.54 179.98,445.08C185.35,439.22 192.16,436.17 199.89,434.94C204.29,434.24 208.7,433.86 213.17,434.45C216.64,434.91 218.78,432.47 218.06,429.03C217.22,425 216.78,420.93 216.66,416.82C216.65,416.42 216.66,416.01 216.66,415.3L216.65,415.31Z" style="fill:rgb(161,133,87);fill-rule:nonzero;"/>
                    <path d="M326.53,467.46C316.95,467.43 307.4,466.69 297.86,465.89C293.64,465.54 289.4,465.26 285.17,464.97C282.65,464.79 280.12,464.62 277.63,464.13C274.5,463.52 273.5,462.33 273.34,459.1C273.12,454.71 273.47,450.34 273.91,445.98C274.78,437.39 275.13,428.79 275.04,420.16C275.04,419.82 275.04,419.47 275.01,419.13C274.95,418.46 275.19,418.09 275.91,418.11C276.32,418.12 276.73,418.11 277.14,418.11C283.53,418.19 289.84,417.5 296.01,415.81C296.27,415.74 296.54,415.67 296.81,415.61C297.64,415.41 297.94,415.77 297.87,416.58C297.55,420.53 297.48,424.5 296.51,428.38C296.11,430 296.07,431.62 297.27,433.05C298.13,434.06 299.12,434.66 300.47,434.54C301.42,434.45 302.37,434.24 303.32,434.22C311.57,434.01 319.58,435.03 326.93,439.11C332.02,441.94 335.98,445.89 338.65,451.12C341.07,455.84 340.68,460.63 339.25,465.49C339,466.35 338.45,466.85 337.55,467.07C336.47,467.34 335.39,467.45 334.3,467.45C331.7,467.46 329.1,467.45 326.5,467.45L326.53,467.46Z" style="fill:rgb(161,133,87);fill-rule:nonzero;"/>
                    <path d="M293.6,211.33C290.83,211.33 289.13,210.65 287.47,209.81C286.19,209.16 284.94,208.43 283.62,207.88C280.49,206.57 278.06,207.32 276.12,210.11C275.42,211.12 274.83,212.22 274.1,213.2C271.76,216.32 268.85,216.68 265.76,214.29C265.17,213.83 264.63,213.29 264.08,212.78C262.39,211.2 260.49,210.82 258.45,211.97C257.57,212.47 256.92,212.46 256.04,211.97C254,210.82 252.08,211.2 250.41,212.8C249.52,213.65 248.65,214.52 247.54,215.1C245.18,216.34 243.08,216.03 241.19,214.14C240.41,213.36 239.85,212.42 239.25,211.5C238.73,210.7 238.24,209.86 237.6,209.16C236.1,207.51 234.24,206.92 232.03,207.51C230.42,207.94 229.02,208.8 227.57,209.56C225.62,210.58 223.62,211.46 221.34,211.34C220.86,211.31 220.38,211.3 219.92,211.18C218.73,210.87 218.33,210.37 218.34,209.14C218.34,208.53 218.46,207.92 218.59,207.32C219.22,204.33 220.78,201.74 222.19,199.08C222.61,198.3 223.23,198.55 223.79,198.64C226.5,199.05 229.22,199.35 231.94,199.58C239.87,200.25 247.8,200.23 255.73,199.54C256.55,199.47 257.35,199.39 258.18,199.46C268.92,200.45 279.64,200.26 290.32,198.67C291.91,198.43 291.89,198.46 292.78,199.98C293.82,201.75 294.73,203.59 295.42,205.53C295.65,206.17 295.84,206.83 295.98,207.5C296.57,210.51 295.82,211.38 293.61,211.35L293.6,211.33Z" style="fill:rgb(254,255,255);fill-rule:nonzero;"/>
                    <path d="M338.26,474.48C338.12,477.5 337.06,478.82 334.19,479.33C330,480.08 325.75,480.19 321.51,480.04C307.11,479.52 292.91,477.43 278.84,474.4C277.44,474.1 276.06,473.68 274.71,473.2C273.06,472.61 273.02,472.44 273.16,470.34C279.59,472.28 286.26,472.14 292.84,472.69C303,473.55 313.17,474.33 323.36,474.63C327.6,474.76 331.84,474.91 336.08,474.49C336.74,474.42 337.42,474.22 338.26,474.49L338.26,474.48Z" style="fill:rgb(249,243,223);fill-rule:nonzero;"/>
                    <path d="M241.34,470.27C241.36,472.57 241.37,472.59 239.65,473.24C236.49,474.43 233.17,474.96 229.89,475.59C220.27,477.45 210.59,478.9 200.82,479.61C194.95,480.03 189.06,480.38 183.17,479.76C181.74,479.61 180.31,479.44 178.95,478.95C177.87,478.56 177.06,477.88 176.59,476.81C175.72,474.81 176.07,474.27 178.2,474.47C185.6,475.16 192.99,474.61 200.36,474.19C209.18,473.69 217.98,473 226.79,472.31C231.62,471.93 236.51,471.9 241.33,470.28L241.34,470.27Z" style="fill:rgb(249,243,223);fill-rule:nonzero;"/>
                    <path d="M338.73,331.34C338.7,333.82 338.3,335.9 337.26,337.8C335.69,340.66 333.32,342.34 330,342.39C326.57,342.43 323.94,340.89 322.21,337.93C320.49,334.98 320.51,331.8 321.08,328.56C321.24,327.65 321.95,327.84 322.52,327.83C325.81,327.78 329.09,327.64 332.36,327.28C333.79,327.12 335.23,327.04 336.64,326.78C337.76,326.57 338.13,327.07 338.27,328.02C338.45,329.24 338.81,330.43 338.72,331.35L338.73,331.34Z" style="fill:rgb(233,204,152);fill-rule:nonzero;"/>
                    <path d="M193.76,332.01C193.81,334.05 193.35,335.97 192.37,337.74C190.65,340.81 188.01,342.43 184.49,342.38C181.09,342.34 178.67,340.59 177.15,337.61C175.54,334.47 175.55,331.18 176.27,327.8C176.49,326.79 176.95,326.65 177.83,326.77C182.58,327.39 187.35,327.79 192.15,327.8L192.36,327.8C193.03,327.75 193.37,328.08 193.44,328.74C193.55,329.83 193.66,330.91 193.77,332L193.76,332.01Z" style="fill:rgb(233,204,152);fill-rule:nonzero;"/>
                    <path d="M257.09,355.91C256.95,351.67 256.79,347.44 256.66,343.2C256.42,335.48 256.2,327.75 255.98,320.02C255.96,319.22 255.71,318.33 257.08,318.36C258.43,318.4 258.59,318.44 258.56,319.85C258.45,324.02 258.31,328.19 258.17,332.36C257.94,339.2 257.71,346.03 257.46,352.86C257.42,353.88 257.32,354.9 257.24,355.92L257.1,355.89L257.09,355.91Z" style="fill:rgb(249,249,249);fill-rule:nonzero;"/>
                    <path d="M203.29,164.19C194.36,163.91 187.08,160.45 182.34,152.66C176.82,143.6 179.14,132.1 187.56,125.63C187.99,125.3 188.44,124.97 188.89,124.67C194.65,120.81 200.88,119.81 207.47,121.9C214.85,124.25 220.6,128.81 224.78,135.34C225.63,136.67 226.29,138.1 226.78,139.6C227.28,141.12 227.55,142.61 226.82,144.19C226.46,144.97 226.52,145.93 226.31,146.79C223.97,156.03 217.81,161.31 208.8,163.6C207,164.06 205.16,164.19 203.28,164.18L203.29,164.19Z" style="fill:rgb(16,18,17);fill-rule:nonzero;"/>
                    <path d="M309.17,164.16C302.62,163.91 295.71,160.72 290.93,153.51C289.48,151.32 288.56,148.9 288.07,146.31C287.88,145.31 287.75,144.3 287.39,143.32C286.98,142.19 287.25,141.03 287.61,139.9C288.94,135.75 291.43,132.36 294.55,129.4C298.96,125.21 304.02,122.21 310.09,121.17C319.05,119.63 328,124.24 332.44,132.04C336.82,139.72 335.76,149.13 329.82,155.91C325.14,161.25 318.54,164.15 309.16,164.16L309.17,164.16Z" style="fill:rgb(16,18,17);fill-rule:nonzero;"/>
                    <path d="M254.46,147.19C252.7,146.72 251.3,146.83 249.99,146.43C248.67,146.03 247.37,145.61 246.25,144.8C243.88,143.07 243.67,140.6 245.69,138.46C246.56,137.54 247.62,136.94 248.77,136.46C254.49,134.05 260.21,134.09 265.91,136.53C267.05,137.02 268.1,137.65 268.94,138.59C270.8,140.67 270.56,143.12 268.26,144.78C266.55,146.01 264.57,146.52 262.51,146.81C261.79,146.91 260.99,146.71 260.22,147.39C262.87,150.57 265.65,153.54 269.53,155.22C270.15,155.49 270.81,155.7 271.48,155.84C274.91,156.61 276.76,155.02 276.52,151.49C276.46,150.67 276.27,149.87 276.2,149.05C276.14,148.37 276.4,147.82 277.1,147.63C277.9,147.42 278.49,147.78 278.7,148.53C279.48,151.32 279.67,154.09 277.87,156.6C276.9,157.95 275.5,158.63 273.84,158.75C271.5,158.92 269.38,158.23 267.35,157.16C264.01,155.4 261.46,152.73 259.06,149.9C258.49,149.23 257.94,148.55 257.4,147.89C256.5,148.25 256.22,148.99 255.75,149.55C253.44,152.28 251.03,154.89 247.92,156.73C245.77,158 243.49,158.89 240.93,158.75C238.5,158.62 236.8,157.45 235.85,155.21C234.95,153.09 235.14,150.92 235.69,148.76C235.9,147.96 236.44,147.38 237.34,147.6C238.23,147.81 238.5,148.56 238.3,149.37C238.01,150.52 237.93,151.67 238.03,152.83C238.22,155.07 239.71,156.3 241.93,156.02C242.8,155.91 243.68,155.68 244.51,155.37C248.62,153.79 251.47,150.69 254.46,147.16L254.46,147.19Z" style="fill:rgb(16,18,17);fill-rule:nonzero;"/>
                    <path d="M303.92,52.72C303.03,52.68 302.14,52.72 301.28,52.43C300.65,52.21 300.19,51.78 300.26,51.07C300.34,50.27 300.89,49.87 301.66,49.85C302.13,49.84 302.61,49.94 303.08,50.04C304.7,50.37 306.03,49.85 307.2,48.74C308.96,47.07 309.96,45.01 310.28,42.64C310.4,41.8 310.28,40.91 311.43,40.83C312.28,40.77 312.97,41.78 312.79,42.98C312.42,45.38 311.58,47.61 310.02,49.51C309.19,50.52 308.23,51.39 307.09,52.05C306.1,52.62 305.05,52.8 303.93,52.72L303.92,52.72Z" style="fill:rgb(19,20,19);fill-rule:nonzero;"/>
                    <path d="M210.21,52.76C209.09,52.9 207.72,52.39 206.48,51.44C203.78,49.38 202.37,46.58 201.78,43.31C201.68,42.77 201.68,42.21 201.9,41.69C202.13,41.16 202.54,40.76 203.16,40.83C203.77,40.89 204.13,41.29 204.21,41.91C204.24,42.11 204.21,42.32 204.23,42.52C204.45,44.7 205.32,46.59 206.77,48.21C208.09,49.68 209.63,50.43 211.69,49.99C213.27,49.65 214.06,50.04 214.2,50.95C214.35,51.93 213.6,52.5 211.9,52.66C211.49,52.7 211.08,52.71 210.2,52.76L210.21,52.76Z" style="fill:rgb(19,20,19);fill-rule:nonzero;"/>
                    <path d="M190.8,127.46C188.39,131.15 186.96,135.12 187.02,139.61C187.14,148.02 193.16,155.42 201.41,157.03C208.57,158.43 214.77,156.24 220.3,151.73C220.8,151.32 221.29,150.89 221.9,150.57C221.16,152.51 219.89,154.06 218.45,155.5C209.36,164.58 192.62,163.03 185.37,152.44C179.9,144.46 181.34,134.29 188.81,128.09C189.28,127.7 189.79,127.35 190.28,126.98C190.7,126.87 190.83,127.07 190.79,127.46L190.8,127.46Z" style="fill:rgb(254,255,255);fill-rule:nonzero;"/>
                    <path d="M190.8,127.46C190.72,127.2 190.55,127.05 190.29,126.98C190.47,126.49 190.95,126.45 191.5,126.1C191.49,126.83 191.26,127.2 190.8,127.46Z" style="fill:rgb(127,140,140);fill-rule:nonzero;"/>
                    <path d="M292.3,150.16C293.59,151.21 294.58,152.12 295.67,152.89C301.18,156.79 307.22,158.57 313.91,156.81C324.65,153.98 330.18,142.84 326.2,132.3C325.46,130.35 324.41,128.55 323.39,126.71C325.39,127.6 326.89,129.05 328.23,130.67C333.28,136.73 333.8,145.05 329.59,151.73C321.74,164.19 302.36,164.81 293.78,152.88C293.24,152.12 292.71,151.35 292.31,150.16L292.3,150.16Z" style="fill:rgb(254,255,255);fill-rule:nonzero;"/>
                </g>
            </g>
        </g>
    </g>
</svg>
