<?xml version="1.0" encoding="UTF-8" standalone="no"?>
<!DOCTYPE svg PUBLIC "-//W3C//DTD SVG 1.1//EN" "http://www.w3.org/Graphics/SVG/1.1/DTD/svg11.dtd">
<svg width="100%" height="100%" viewBox="0 0 1024 1024" version="1.1" xmlns="http://www.w3.org/2000/svg" xmlns:xlink="http://www.w3.org/1999/xlink" xml:space="preserve" xmlns:serif="http://www.serif.com/" style="fill-rule:evenodd;clip-rule:evenodd;stroke-linejoin:round;stroke-miterlimit:2;">
    <g id="b" transform="matrix(2.16646,0,0,2.16646,-45.6421,-27.8193)">
        <g id="c">
            <g>
                <path d="M206.13,193.77C202.11,192.2 198.54,190.65 195.12,188.76C190.06,185.97 185.37,182.68 180.92,179.01C171.27,171.04 165.14,160.77 161.17,149.06C157.72,138.84 155.95,128.37 156.36,117.57C156.4,116.51 156.07,115.95 155.14,115.52C143.32,109.97 135.99,100.3 130.85,88.73C125.63,76.99 123.16,64.64 123.42,51.78C123.54,45.8 124.33,39.9 126.24,34.2C130.38,21.85 139.04,14.97 151.85,13.23C158.25,12.36 164.56,12.97 170.74,14.85C178.29,17.15 184.05,21.71 187.91,28.63C189.58,31.62 190.95,34.76 192.4,37.86C193.59,40.4 194.83,42.92 196.37,45.27C196.86,46.01 197.36,46.76 197.96,47.41C199.15,48.7 199.79,48.74 201.31,47.78C212.63,40.63 224.8,35.47 237.81,32.32C243.17,31.02 248.62,30.65 254.12,30.8C255.5,30.84 256.6,32.26 257.62,31.87C258.83,31.41 259.94,30.87 261.27,30.81C269.11,30.44 276.67,31.91 284.1,34.24C294.4,37.47 304.17,41.86 313.3,47.65C315.11,48.8 315.91,48.69 317.25,46.98C318.95,44.81 320.24,42.4 321.44,39.93C322.54,37.65 323.58,35.34 324.68,33.06C325.36,31.64 326.06,30.23 326.81,28.85C330.57,21.98 336.21,17.34 343.67,15C351.2,12.64 358.84,12.15 366.58,13.91C377.61,16.42 384.76,23.2 388.45,33.79C390.02,38.28 390.9,42.93 391.2,47.65C392.27,64.39 388.95,80.19 380.87,94.95C380.48,95.67 380.03,96.36 379.61,97.07C374.89,104.96 368.63,111.22 360.27,115.21C358.81,115.9 358.41,116.75 358.45,118.35C358.88,133.24 355.49,147.28 348.81,160.54C345.44,167.22 340.84,172.98 335.22,177.91C327.85,184.38 319.65,189.51 310.5,193.1C310.06,193.27 309.55,193.31 309.16,193.79C309.79,194.38 310.62,194.57 311.37,194.88C323.23,199.73 332.79,207.51 340.29,217.81C348.27,228.76 351.38,241.21 350.87,254.61C350.65,260.49 350.02,266.36 349.59,272.23C349.51,273.27 349.36,274.29 348.63,275.09C348.1,275.66 348.16,276.34 348.14,277.02C347.87,285.44 347.6,293.86 347.34,302.29C347.25,305.37 347.13,308.45 346.54,311.49C346.25,312.98 345.81,314.45 344.85,315.64C344.1,316.57 343.95,317.55 343.96,318.68C344,321.97 343.84,325.26 343.2,328.5C342.25,333.33 340.09,337.55 336.49,340.95C328.55,348.46 317.41,347.18 311.36,338.07C310.52,336.81 309.79,335.49 309.26,334.08C307.31,328.9 306.72,323.57 307.92,318.14C308.19,316.94 307.82,316.2 307.26,315.33C306.93,314.82 306.55,314.77 306.04,314.92C305.52,315.08 304.99,315.25 304.46,315.37C303.89,315.5 303.69,315.86 303.7,316.41C303.71,316.89 303.7,317.37 303.7,317.85C303.51,347.45 303.32,377.04 303.11,406.64C303.11,407.75 303.13,408.75 304.05,409.62C304.84,410.37 304.72,411.51 304.69,412.54C304.63,415.28 304.58,418.02 304.53,420.76C304.52,421.51 304.53,422.26 304.87,423.05C305.32,420.13 305.76,417.2 306.22,414.28C306.67,411.44 307.12,408.6 307.61,405.77C307.75,404.97 307.94,404.16 308.37,403.44C309.2,402.06 310.69,401.39 312.23,401.72C313.65,402.02 314.71,403.19 314.95,404.72C315.13,405.89 314.91,407.05 314.7,408.19C313.85,412.9 312.97,417.6 312.08,422.41C312.69,422.37 313.02,421.94 313.4,421.62C315.36,420.01 317.31,418.39 319.27,416.78C320.01,416.17 320.75,415.55 321.55,415.03C323.37,413.84 325.49,414.15 326.69,415.74C327.85,417.26 327.64,419.31 326.09,420.73C325.19,421.56 324.18,422.28 323.19,423.02C320.9,424.74 318.59,426.45 316.29,428.16C316.62,428.89 317.25,428.71 317.73,428.79C322,429.57 326.12,430.79 329.94,432.88C339.56,438.14 343.55,446.5 343.21,457.2C343.15,458.93 342.67,460.59 341.8,462.09C341.33,462.9 341.19,463.72 341.19,464.63C341.19,466.68 341.26,468.74 340.84,470.77C339.4,477.68 335.47,482.33 328.58,484.27C325.53,485.13 322.39,485.43 319.23,485.46C312.08,485.53 305.02,484.56 298.01,483.31C292.42,482.31 286.84,481.27 281.35,479.79C279.36,479.26 277.42,478.6 275.6,477.62C271.72,475.52 269.48,472.27 268.81,467.91C268.24,464.23 268.39,460.53 268.36,456.83C268.36,456.13 268.45,455.38 268.92,454.9C269.78,454.03 269.67,453.14 269.41,452.08C268.6,448.71 268.68,445.28 268.88,441.86C269.28,435.23 270.16,428.64 271.04,422.06C271.32,419.96 271.63,417.86 272.05,415.78C272.25,414.8 271.86,414.59 271.05,414.46C269.83,414.26 268.62,414.03 267.42,413.75C264.37,413.04 262.98,411.28 263.11,408.21C264.01,385.89 264.16,363.56 264.18,341.22C264.18,334.23 263.85,327.25 263.14,320.3C262.98,318.76 262.96,318.72 261.49,318.71C258.68,318.68 255.87,318.75 253.07,318.68C251.97,318.66 251.67,319.12 251.6,320.11C251.2,325.85 250.67,331.58 250.66,337.34C250.61,361.05 250.73,384.75 251.64,408.44C251.75,411.2 250.43,412.98 247.73,413.65C246.4,413.98 245.05,414.21 243.7,414.46C242.94,414.6 242.58,414.72 242.75,415.76C244.19,424.62 245.38,433.5 245.92,442.47C246.13,445.91 246.03,449.32 245.25,452.68C245.08,453.41 245.07,453.95 245.62,454.53C246.26,455.2 246.46,456.11 246.47,457.01C246.49,460.84 246.52,464.68 245.86,468.48C245.11,472.78 242.7,475.82 238.86,477.8C235.72,479.41 232.31,480.2 228.9,480.93C219.46,482.95 209.99,484.81 200.32,485.38C195.65,485.65 191,485.54 186.45,484.35C179.29,482.48 174.58,476.97 173.78,469.62C173.7,468.87 173.59,468.12 173.6,467.37C173.6,464.97 173.29,462.73 172.33,460.43C170.75,456.63 171.39,452.61 172.38,448.71C174.69,439.62 180.74,434.05 189.31,430.9C191.95,429.93 194.65,429.2 197.44,428.77C197.76,428.72 198.13,428.75 198.4,428.41C198.43,427.83 197.87,427.71 197.53,427.46C194.97,425.51 192.38,423.6 189.81,421.66C189.27,421.25 188.72,420.82 188.28,420.3C187.13,418.95 187.09,417.11 188.11,415.75C189.17,414.35 191.1,413.87 192.71,414.75C193.6,415.24 194.41,415.89 195.21,416.54C197.6,418.47 199.96,420.44 202.47,422.51C202.79,421.86 202.6,421.35 202.5,420.87C201.52,416.32 200.67,411.74 199.94,407.15C199.91,406.95 199.85,406.75 199.83,406.54C199.52,404.04 200.62,402.14 202.61,401.73C204.76,401.29 206.54,402.64 207.08,405.21C207.43,406.88 207.69,408.58 207.95,410.27C208.53,413.99 209.1,417.71 209.64,421.44C209.73,422.05 209.89,422.63 210.24,423.35C210.47,419.82 210.31,416.48 210.1,413.13C210,411.59 210.04,410.11 211.32,408.97C211.92,408.43 211.68,407.68 211.67,407.03C211.65,399.84 211.62,392.64 211.58,385.45C211.45,363.18 211.31,340.92 211.17,318.65C211.17,318.31 211.2,317.96 211.16,317.62C211.09,316.96 211.48,316.08 210.85,315.69C210.12,315.24 209.2,315.04 208.34,314.88C207.74,314.77 206.67,316.36 206.73,317.2C206.76,317.6 206.95,317.99 207.02,318.39C208.19,325.17 207.34,331.64 203.75,337.59C201.52,341.29 198.41,344.03 194.19,345.23C189.25,346.64 184.66,345.63 180.53,342.72C175.19,338.96 172.42,333.59 171.38,327.25C170.89,324.26 170.89,321.25 170.87,318.23C170.87,317.62 170.98,317 170.54,316.46C168.26,313.71 167.85,310.35 167.71,306.99C167.36,298.23 167.13,289.46 166.85,280.7C166.82,279.74 166.8,278.78 166.76,277.82C166.71,276.66 166.73,275.51 165.84,274.55C165.44,274.12 165.29,273.45 165.26,272.82C164.98,266.93 164.19,261.09 163.95,255.2C162.99,231.39 173.39,213.58 192.74,200.46C196.78,197.72 201.23,195.76 206.08,193.8L206.13,193.77Z" style="fill:rgb(16,18,17);fill-rule:nonzero;"/>
                <path d="M278.11,190.73C275.58,190.73 273.04,190.72 270.51,190.73C269.67,190.73 268.96,190.63 268.27,190C267.37,189.18 266.19,189.02 264.98,189.25C264.71,189.3 264.44,189.36 264.18,189.43C259.71,190.58 255.25,190.61 250.78,189.43C249.09,188.98 247.52,189.03 246.19,190.34C245.74,190.79 245.19,190.72 244.65,190.72C239.31,190.69 233.96,190.8 228.63,190.42C228.36,190.4 228.05,190.46 227.81,190.36C224.78,189.05 221.5,189.2 218.33,188.87C211.24,188.15 204.8,185.62 198.62,182.26C193.79,179.63 189.32,176.49 185.15,172.91C179.51,168.08 175.04,162.34 171.83,155.63C166.83,145.17 164.06,134.16 163.7,122.58C163.25,108.45 167.15,95.54 174.8,83.71C181.27,73.7 189.47,65.33 199.05,58.28C213.18,47.88 228.94,41.26 246.16,38.05C248.65,37.59 251.19,37.42 253.72,37.43C254.83,37.43 255.95,37.38 256.8,36.56C257.36,36.03 257.7,36.28 258.17,36.66C258.82,37.19 259.62,37.41 260.47,37.41C270.36,37.41 279.66,40.23 288.78,43.65C306.36,50.24 321.46,60.48 333.58,74.9C340.71,83.38 346.17,92.81 349.01,103.6C352.32,116.16 351.69,128.69 348.39,141.15C346.93,146.66 344.94,151.97 342.32,157.04C339.76,162.01 336.52,166.49 332.47,170.36C324.84,177.63 316.14,183.18 306.2,186.77C302.42,188.13 298.49,188.56 294.55,189.09C292.13,189.42 289.61,189.17 287.31,190.3C286.97,190.47 286.5,190.38 286.09,190.41C283.42,190.61 280.76,190.69 278.08,190.71L278.11,190.73Z" style="fill:rgb(250,249,247);fill-rule:nonzero;"/>
                <path d="M301.49,198.73C302.12,198.37 302.51,198.53 302.88,198.69C310.55,202.05 318.02,205.76 324.41,211.3C332.27,218.12 338.4,226.12 341.37,236.26C343.29,242.83 343.99,249.54 343.44,256.37C343.12,260.33 342.83,264.29 342.49,268.24C342.32,270.21 341.8,272.13 341.56,274.11C340.38,283.99 340.19,293.91 339.93,303.84C339.88,305.62 339.67,307.39 339.53,309.16C339.38,311.12 338.38,312.22 336.41,312.64C334.46,313.06 332.49,313.32 330.52,313.45C325.94,313.75 321.35,313.96 316.79,313.27C314.42,312.91 313.64,312.11 313.08,309.81C312.74,308.39 312.79,306.95 312.83,305.52C312.96,300.11 313.18,294.7 313.32,289.3C313.5,282.59 313.32,275.87 313.26,269.16C313.26,268.19 313.15,267.24 312.8,266.34C312.25,264.93 310.87,263.95 309.47,264.02C307.97,264.1 306.91,264.87 306.29,266.25C305.86,267.22 305.86,268.24 305.87,269.28C305.91,275.1 305.93,280.93 306,286.75C306.08,293.54 305.36,300.3 305.44,307.08C305.44,307.63 305.5,308.23 304.75,308.36C303.98,308.49 303.15,309.22 302.45,308.42C301,306.78 299.17,306.99 297.31,307.2C290.45,308 283.58,308.78 276.72,309.6C270.94,310.29 265.14,310.65 259.33,311.06C255.9,311.3 252.49,310.88 249.08,310.62C244.03,310.24 239,309.7 233.97,309.14C228.53,308.54 223.1,307.86 217.67,307.21C215.82,306.99 213.99,306.72 212.53,308.39C211.84,309.18 211,308.5 210.23,308.35C209.49,308.2 209.56,307.6 209.54,307.05C209.14,295.62 208.63,284.19 208.92,272.75C208.95,271.65 208.99,270.56 209.08,269.47C209.15,268.57 209.04,267.68 208.83,266.82C208.44,265.19 207,264.02 205.46,264.01C203.95,263.99 202.57,264.98 202.07,266.53C201.86,267.17 201.77,267.87 201.74,268.55C201.42,277.04 201.34,285.53 201.71,294.02C201.87,297.72 202.02,301.41 202.16,305.11C202.22,306.69 202.09,308.26 201.85,309.82C201.55,311.75 200.44,312.88 198.54,313.23C197.8,313.37 197.05,313.52 196.31,313.56C190.76,313.79 185.22,313.85 179.72,312.88C179.12,312.77 178.52,312.59 177.92,312.46C176.47,312.14 175.74,311.22 175.5,309.77C174.9,306.1 174.88,302.4 174.82,298.71C174.69,290.76 174.4,282.82 173.41,274.94C172.74,269.65 172.03,264.37 171.6,259.05C170.57,246.37 172.27,234.3 179.55,223.5C184.85,215.65 191.72,209.46 199.9,204.71C203.57,202.57 207.41,200.77 211.29,199.04C211.88,198.78 212.47,198.32 213.33,198.69C213.22,200.43 212.68,202.13 212.34,203.84C211.63,207.39 210.75,210.91 210.29,214.52C210.03,216.57 209.87,218.61 210.36,220.64C211.37,224.86 214.57,226.74 218.74,225.55C220.86,224.94 222.8,223.91 224.69,222.81C232.33,218.39 239.99,214 247.81,209.9C248.54,209.52 249.32,209.22 249.99,208.76C251.07,208.02 251.97,208.14 252.93,208.98C253.65,209.61 254.45,210.15 255.25,210.67C256.72,211.61 258.22,211.6 259.69,210.64C260.32,210.23 261,209.85 261.52,209.33C262.8,208.03 264.01,208.16 265.53,209.02C269.63,211.35 273.84,213.51 277.96,215.81C282.26,218.21 286.51,220.71 290.81,223.13C292.42,224.03 294.06,224.89 295.84,225.44C300.46,226.87 303.93,224.75 304.69,220.01C305.2,216.83 304.58,213.73 303.99,210.64C303.23,206.68 302.34,202.75 301.5,198.76L301.49,198.73Z" style="fill:rgb(97,16,255);fill-rule:nonzero;"/>
                <path d="M357.83,108.17C357.19,107.23 357.25,106.3 357.07,105.45C354.81,94.84 350.29,85.24 344.02,76.44C343.23,75.33 343.15,74.6 343.86,73.38C346.04,69.58 346.97,65.36 347.39,61.04C347.64,58.44 347.59,55.84 347.49,53.24C347.34,49.27 347.3,45.3 348.15,41.37C349.35,35.82 352.14,31.21 356.35,27.45C358.38,25.63 360.85,24.62 363.43,23.85C364.8,23.44 366.26,23.27 367.34,22.17C367.86,21.64 368.38,22.08 368.85,22.27C373.49,24.09 377.03,27.18 379.45,31.54C381.37,34.99 382.52,38.72 383.14,42.59C385.34,56.17 383.56,69.33 378.78,82.15C376.42,88.49 373.09,94.28 368.83,99.54C365.83,103.24 362.05,105.86 357.82,108.18L357.83,108.17Z" style="fill:rgb(253,211,205);fill-rule:nonzero;"/>
                <path d="M157.3,108.3C153.33,106.09 149.79,103.83 146.96,100.57C140.03,92.58 135.82,83.25 133.27,73.09C131.1,64.46 130.24,55.71 131.16,46.82C131.66,41.96 132.65,37.22 134.8,32.79C137.17,27.9 140.83,24.38 145.87,22.32C146.64,22 147.34,21.75 148.07,22.55C148.62,23.16 149.5,23.31 150.3,23.51C159.95,25.95 164.72,32.8 166.87,41.96C167.63,45.18 167.5,48.49 167.41,51.78C167.3,56.23 167.15,60.68 168.11,65.07C168.77,68.09 169.58,71.08 171.24,73.71C171.9,74.76 171.65,75.37 171.04,76.22C166.38,82.71 162.68,89.7 160.1,97.27C158.91,100.77 158.03,104.35 157.32,108.3L157.3,108.3Z" style="fill:rgb(253,211,205);fill-rule:nonzero;"/>
                <path d="M218.79,317.04C226.74,318.2 234.67,318.62 242.61,318.72C244.3,318.74 244.34,318.76 244.21,320.41C242.54,342.64 243.48,364.89 243.7,387.14C243.76,393.24 244.18,399.32 244.79,405.38C244.9,406.48 244.58,406.79 243.57,406.99C236.41,408.44 229.22,409.11 221.93,408.26C221.79,408.24 221.66,408.24 221.52,408.22C219.92,408.047 219.117,407.15 219.11,405.53C218.94,376.91 218.77,348.28 218.61,319.66C218.61,318.85 218.47,318.03 218.78,317.02L218.79,317.04Z" style="fill:rgb(237,250,216);fill-rule:nonzero;"/>
                <path d="M296.14,317.03C296.46,317.87 296.33,318.56 296.33,319.23C296.14,347.99 295.95,376.76 295.76,405.52C295.74,407.97 295.74,407.95 293.35,408.23C285.93,409.1 278.6,408.45 271.3,406.99C269.99,406.73 270.04,406.05 270.14,405.1C270.73,399.58 271.07,394.04 271.19,388.5C271.57,370.63 271.73,352.75 271.56,334.88C271.51,330.02 271.12,325.17 270.65,320.33C270.5,318.77 270.52,318.73 272.11,318.71C280.12,318.61 288.11,318.19 296.15,317.02L296.14,317.03Z" style="fill:rgb(237,250,216);fill-rule:nonzero;"/>
                <path d="M297.87,414.26C297.48,419.97 297.17,425.42 297.14,430.89C297.14,431.57 297.1,432.27 297.18,432.94C297.47,435.16 299.51,436.7 301.62,436.05C305.05,435 308.51,435.01 311.99,435.36C316.57,435.82 321.05,436.75 325.26,438.7C332.5,442.05 335.89,447.85 335.91,455.71C335.91,458.74 334.96,459.87 331.99,460.59C330.32,461 328.61,461.15 326.9,461.17C319.5,461.28 312.12,460.71 304.75,460.19C299.7,459.84 294.65,459.44 289.62,458.79C287.31,458.49 285.02,458.08 282.8,457.36C279.28,456.22 277.23,453.84 276.58,450.18C276.06,447.25 276.14,444.31 276.35,441.37C276.87,433.99 277.84,426.66 278.93,419.35C279.11,418.16 278.7,416.52 279.6,415.88C280.35,415.35 281.84,415.91 282.99,415.88C287.51,415.78 292.02,415.57 296.43,414.45C296.82,414.35 297.23,414.33 297.85,414.24L297.87,414.26Z" style="fill:rgb(176,255,251);fill-rule:nonzero;"/>
                <path d="M216.99,414.25C219.19,414.54 221.15,415.14 223.17,415.34C226.85,415.7 230.52,416.14 234.23,415.75C235.11,415.66 235.51,415.75 235.66,416.84C236.58,423.83 237.61,430.81 238.24,437.83C238.57,441.51 238.9,445.2 238.49,448.9C237.94,453.83 235.94,456.27 231.17,457.64C226.93,458.86 222.55,459.17 218.2,459.57C210.56,460.28 202.91,460.76 195.25,461.1C191.63,461.26 188,461.35 184.38,460.89C180.04,460.34 178.6,458.69 178.95,454.36C179.55,446.98 183.02,441.55 189.95,438.59C196.56,435.78 203.46,434.69 210.62,435.41C211.36,435.49 212.09,435.73 212.81,435.93C215.5,436.68 217.67,435.22 217.79,432.41C217.88,430.23 217.76,428.03 217.65,425.84C217.47,422.02 217.45,418.2 217,414.25L216.99,414.25Z" style="fill:rgb(176,255,251);fill-rule:nonzero;"/>
                <path d="M217.51,217.91C217.3,215.35 218.02,212.89 218.38,210.4C218.97,206.27 219.68,202.15 220.35,198.03C220.59,196.57 220.59,196.56 221.98,196.74C232.6,198.15 243.27,198.43 253.97,197.93C256.23,197.82 258.49,197.84 260.75,197.92C268.28,198.2 275.82,198.36 283.34,197.73C286.41,197.47 289.48,197.21 292.53,196.78C294.73,196.47 294.32,196.63 294.63,198.44C295.43,203.09 296.1,207.77 296.86,212.43C297.15,214.24 297.43,216.03 297.5,218.1C295.99,217.71 294.91,217.01 293.8,216.38C287.2,212.61 280.66,208.76 273.93,205.22C271.33,203.85 268.71,202.5 266.08,201.19C265.23,200.77 264.32,200.41 263.4,200.17C261.53,199.67 260,200.37 259.08,202.04C258.92,202.34 258.85,202.7 258.66,202.97C257.95,204 256.91,203.99 256.21,202.94C256.06,202.72 256.02,202.43 255.89,202.19C254.89,200.3 253.32,199.59 251.26,200.22C249.42,200.78 247.71,201.65 246.01,202.54C239.05,206.21 232.13,209.96 225.34,213.95C223.39,215.09 221.42,216.19 219.43,217.27C218.85,217.58 218.3,218.07 217.49,217.91L217.51,217.91Z" style="fill:rgb(244,251,220);fill-rule:nonzero;"/>
                <path d="M162.26,20.57C169.41,21.49 175.68,23.83 180.02,29.9C181.38,31.8 182.43,33.87 183.42,35.98C184.72,38.77 186.01,41.57 187.59,44.21C188.5,45.74 189.47,47.23 190.44,48.72C191.41,50.21 192.62,51.51 193.91,52.9C187.58,57.7 181.79,63.01 176.53,69.1C175.27,66.13 174.95,63.22 174.78,60.29C174.61,57.21 174.72,54.13 174.8,51.05C174.91,46.86 174.73,42.7 173.68,38.62C171.95,31.92 168.41,26.34 163.26,21.76C162.92,21.45 162.42,21.28 162.25,20.58L162.26,20.57Z" style="fill:rgb(250,249,247);fill-rule:nonzero;"/>
                <path d="M321.03,52.85C324.85,48.88 327.42,44.29 329.77,39.56C330.74,37.6 331.67,35.61 332.62,33.64C336.16,26.34 342.14,22.38 349.98,20.99C350.82,20.84 351.65,20.51 352.52,20.65C352.57,21.07 352.29,21.2 352.1,21.37C344.11,28.2 340.32,36.97 340.05,47.37C339.99,49.63 340.11,51.89 340.14,54.15C340.2,58.4 340.27,62.65 339.16,66.8C338.99,67.45 338.77,68.08 338.47,69.05C336.54,67.04 334.82,65.15 333,63.36C331.1,61.49 329.14,59.66 327.14,57.9C325.19,56.19 323.14,54.58 321.03,52.85Z" style="fill:rgb(250,249,247);fill-rule:nonzero;"/>
                <path d="M275.92,462.26C282.43,466.02 289.53,466.28 296.51,466.96C304.07,467.7 311.65,468.15 319.23,468.48C324.09,468.69 328.94,468.82 333.74,467.83C333.85,467.81 333.99,467.88 334.11,467.91C334.24,471.69 331.5,475.47 327.59,476.83C324.98,477.74 322.25,477.97 319.51,478.02C313.61,478.13 307.77,477.4 301.96,476.44C295.82,475.43 289.72,474.27 283.69,472.74C282.23,472.37 280.8,471.91 279.45,471.24C277.6,470.33 276.46,468.93 276.19,466.84C276,465.42 275.79,464 275.92,462.25L275.92,462.26Z" style="fill:rgb(254,255,255);fill-rule:nonzero;"/>
                <path d="M238.97,462.21C239.05,464.38 238.97,466.2 238.46,467.99C237.99,469.64 236.8,470.62 235.33,471.33C233.66,472.14 231.88,472.66 230.08,473.06C220.19,475.29 210.27,477.31 200.12,477.95C196.49,478.18 192.86,478.15 189.28,477.36C184.13,476.23 181.38,473.27 180.58,467.95C181.62,467.6 182.58,468.16 183.57,468.27C187.4,468.7 191.23,468.69 195.06,468.51C204.3,468.1 213.52,467.49 222.72,466.56C225.51,466.28 228.3,465.91 231.04,465.3C233.72,464.71 236.29,463.83 238.96,462.2L238.97,462.21Z" style="fill:rgb(254,255,255);fill-rule:nonzero;"/>
                <path d="M336.54,320.23C336.59,325.5 335.97,330.43 332.45,334.55C331.42,335.76 330.2,336.74 328.77,337.45C325.28,339.18 321.71,338.59 319.01,335.76C316.25,332.86 315.11,329.23 314.52,325.39C314.33,324.11 314.33,322.8 314.26,321.5C314.22,320.75 314.43,320.4 315.33,320.53C321.12,321.36 326.93,321.17 332.73,320.66C333.95,320.55 335.15,320.38 336.53,320.22L336.54,320.23Z" style="fill:rgb(250,249,247);fill-rule:nonzero;"/>
                <path d="M178.55,320.27C185.81,321.18 193.1,321.5 200.6,320.44C200.76,326.12 199.78,331.39 195.91,335.72C193.26,338.68 189.53,339.22 185.99,337.38C183.4,336.04 181.62,333.92 180.34,331.33C178.81,328.23 178.09,323.86 178.54,320.26L178.55,320.27Z" style="fill:rgb(250,249,247);fill-rule:nonzero;"/>
                <path d="M214.51,123.19C214.4,127.27 213.72,132.06 211.69,136.57C208.02,144.7 201.65,149.16 192.79,149.48C182.54,149.86 174.35,143.11 172.71,132.94C171.74,126.92 172.87,121.21 175.67,115.84C177.19,112.93 179.44,110.79 182.34,109.11C186.36,106.79 190.47,104.91 195.08,104.21C197.33,103.87 199.59,103.87 201.84,104.09C203.63,104.26 205.32,104.82 206.84,105.82C207.64,106.34 208.42,106.81 209.45,106.88C210.61,106.95 211.16,107.95 211.66,108.84C213.01,111.26 213.68,113.92 214.09,116.64C214.38,118.53 214.56,120.45 214.52,123.19L214.51,123.19Z" style="fill:rgb(16,18,17);fill-rule:nonzero;"/>
                <path d="M300.43,122.18C300.43,118.53 300.89,114.95 302.09,111.48C302.5,110.31 302.98,109.18 303.69,108.16C304.08,107.59 304.53,106.93 305.25,106.93C306.59,106.93 307.55,106.15 308.6,105.53C310.42,104.45 312.42,104.09 314.49,103.99C320.87,103.67 326.51,105.74 332.04,108.78C339.26,112.76 341.57,119.35 342.39,126.8C342.96,132.04 341.97,137.08 338.78,141.42C334.3,147.51 328.15,150.11 320.71,149.36C311.7,148.46 305.8,143.41 302.61,135.07C301.03,130.93 300.41,126.61 300.44,122.18L300.43,122.18Z" style="fill:rgb(16,18,17);fill-rule:nonzero;"/>
                <path d="M286.67,163.29C280.04,163.16 274.21,160.63 268.8,156.94C265.72,154.85 263.04,152.31 260.79,149.34C259.63,147.8 258.68,146.15 258.1,144.29C258,143.96 257.89,143.58 257.5,143.54C257.08,143.49 257,143.87 256.85,144.19C251.72,155.28 242.52,160.9 230.95,163.06C226.94,163.81 222.89,163.24 219.19,161.23C218.71,160.97 218.24,160.68 217.82,160.34C217.34,159.95 217.24,159.41 217.52,158.86C217.81,158.28 218.34,158.18 218.92,158.32C219.12,158.37 219.3,158.46 219.48,158.56C224.21,161.26 229.17,161.12 234.19,159.64C241.64,157.45 247.77,153.31 252.4,147.02C254.17,144.62 254.39,143.09 250.63,142.59C248.25,142.28 245.94,141.63 243.77,140.58C237.75,137.66 236.86,132.15 241.69,127.5C244.64,124.66 248.3,123.11 252.2,122.21C259.36,120.56 265.89,122.21 271.86,126.36C273.05,127.18 274.05,128.22 274.86,129.43C277.25,132.99 276.6,136.79 273.14,139.36C271.06,140.9 268.65,141.66 266.17,142.23C265.04,142.49 263.88,142.66 262.76,142.95C261.33,143.33 260.94,144.22 261.56,145.56C261.76,145.99 262.03,146.4 262.32,146.78C268.27,154.76 276.13,159.53 286.06,160.61C289.15,160.95 292.2,160.37 294.98,158.79C295.22,158.65 295.45,158.5 295.7,158.4C296.32,158.15 296.92,158.15 297.34,158.77C297.84,159.52 297.45,160.09 296.85,160.52C294.55,162.15 291.92,162.83 289.17,163.15C288.36,163.24 287.53,163.24 286.66,163.28L286.67,163.29Z" style="fill:rgb(16,18,17);fill-rule:nonzero;"/>
                <path d="M211.34,85.92C214.54,85.91 217,88.63 217.01,92.18C217.02,95.88 214.82,98.57 211.77,98.59C208.36,98.61 204.78,95.17 204.73,91.81C204.68,88.57 207.65,85.93 211.34,85.92Z" style="fill:rgb(17,19,18);fill-rule:nonzero;"/>
                <path d="M297.93,92.21C297.87,89.56 299.06,87.47 301.35,86.38C303.77,85.24 306.2,85.93 308.22,87.64C310.26,89.36 310.71,91.95 309.5,94.33C308.63,96.04 307.28,97.26 305.53,98.02C302.36,99.39 299.45,98.09 298.31,94.83C298.01,93.97 297.95,93.1 297.92,92.21L297.93,92.21Z" style="fill:rgb(16,18,17);fill-rule:nonzero;"/>
                <path d="M180.8,142.58C176.97,138.99 175.45,134.86 175.16,130.21C174.95,126.83 175.58,123.56 176.57,120.32C177.66,116.78 179.65,113.99 182.75,111.96C184.28,110.95 185.83,109.99 187.85,109.14C185.48,120.37 183.18,131.29 180.81,142.57L180.8,142.58Z" style="fill:rgb(254,255,255);fill-rule:nonzero;"/>
                <path d="M327.28,109.26C329.5,110.19 331.28,111.41 333.07,112.67C337.44,115.76 338.67,120.43 339.48,125.26C340.12,129.02 339.85,132.77 338.41,136.37C337.42,138.84 336.32,140.46 334.38,142.2C333.68,141.07 327.57,112.92 327.27,109.26L327.28,109.26Z" style="fill:rgb(254,255,255);fill-rule:nonzero;"/>
            </g>
        </g>
    </g>
</svg>
