<?xml version="1.0" encoding="UTF-8" standalone="no"?>
<!DOCTYPE svg PUBLIC "-//W3C//DTD SVG 1.1//EN" "http://www.w3.org/Graphics/SVG/1.1/DTD/svg11.dtd">
<svg width="100%" height="100%" viewBox="0 0 1024 1024" version="1.1" xmlns="http://www.w3.org/2000/svg" xmlns:xlink="http://www.w3.org/1999/xlink" xml:space="preserve" xmlns:serif="http://www.serif.com/" style="fill-rule:evenodd;clip-rule:evenodd;stroke-linejoin:round;stroke-miterlimit:2;">
    <g transform="matrix(0.301695,0,0,0.301695,-248.668,-353.322)">
        <path d="M1739.43,1707.46C1731.16,1695.29 1725,1683.46 1716.27,1673.9C1688.81,1643.9 1660.12,1615.09 1632.45,1585.3C1619.53,1571.39 1607.45,1556.64 1595.83,1541.59C1591.39,1535.82 1588.83,1528.36 1586.44,1521.33C1583.1,1511.5 1590.34,1505.94 1596.86,1501.18C1633.18,1474.64 1669.76,1448.46 1706.2,1422.07C1755.2,1386.6 1804.01,1350.9 1853.12,1315.6C1882.12,1294.75 1911.67,1274.66 1940.75,1253.92C1956.99,1242.34 1972.35,1229.49 1988.88,1218.37C2007.14,1206.09 2025.14,1192.13 2045.37,1184.44C2065.37,1176.82 2087.95,1174.25 2109.63,1172.71C2197.34,1166.46 2282.94,1178.97 2366.88,1204.4C2444.81,1228.01 2517.68,1262.54 2585.96,1306.62C2622.01,1329.89 2656.43,1355.72 2692.61,1378.77C2729.1,1402 2767,1423 2804,1445.48C2829.26,1460.83 2853,1478.93 2879.16,1492.48C2916.93,1511.99 2956.64,1526.66 3000.72,1522.8C3013.9,1521.64 3019.02,1528.73 3016.11,1541.91C3011.28,1563.77 3003.79,1585.44 3002.31,1607.52C3001.11,1625.32 3005.25,1644.17 3010.55,1661.52C3014.55,1674.44 3023.06,1686.41 3031.38,1697.44C3051.38,1723.98 3079.05,1739.85 3110.65,1748.49C3128,1753.23 3145.94,1755.83 3163.65,1759.34C3169.11,1760.42 3174.65,1761 3180.05,1762.34C3199.05,1767.18 3203.3,1782.34 3190.57,1797.34C3168.77,1822.99 3162.32,1852.92 3172.34,1884.57C3187.91,1933.72 3223.9,1961.67 3272.81,1974.25C3284.23,1977.19 3295.81,1979.55 3307.26,1982.36C3315.59,1984.36 3324.88,1987.43 3324.85,1997.13C3324.85,2002.97 3320.05,2010.07 3315.37,2014.39C3294.63,2033.56 3279.74,2055.84 3274.08,2083.86C3272.87,2089.86 3270.34,2095.66 3269.54,2101.7C3262.76,2152.57 3288.33,2188.04 3335.18,2203.79C3349.18,2208.51 3364.25,2210.17 3378.88,2212.99C3384.33,2214.04 3389.96,2214.16 3395.44,2215.06C3414.24,2218.17 3419.75,2233.06 3409.38,2248.87C3402.74,2259.01 3396.82,2270.24 3393.55,2281.87C3389.27,2297 3386.02,2312.87 3385.71,2328.56C3384.93,2368.2 3405.01,2396.56 3442.8,2408.71C3461.48,2414.71 3481.31,2417.23 3500.67,2421.05C3509.21,2422.74 3518.86,2422.94 3522.12,2432.88C3525.38,2442.82 3519.72,2449.38 3512.91,2456.35C3502.09,2467.42 3492.99,2480.11 3490.81,2496.2C3488.87,2510.49 3484.58,2525.07 3485.9,2539.09C3490.33,2586.38 3505.1,2629.2 3547.74,2656.61C3556.98,2662.55 3567.74,2666.1 3577.11,2671.91C3582.17,2675.05 3589.22,2680.79 3589.04,2685.09C3588.81,2690.35 3583.04,2697.36 3577.79,2700.09C3546.23,2716.58 3541.14,2750.29 3553.2,2781.04C3569.87,2823.57 3603.55,2846.36 3642.56,2864.13C3647.56,2866.42 3652.67,2868.67 3657.46,2871.41C3667.75,2877.27 3668.07,2890.63 3658.72,2898.12C3649.37,2905.61 3639.13,2912.45 3631.86,2921.62C3620.16,2936.37 3616.57,2957.94 3623.46,2979.02C3632.56,3006.86 3655.18,3020.4 3676.15,3036.12C3692.48,3048.36 3692.43,3058.42 3676.09,3070.48C3662.81,3080.19 3650.12,3090.68 3638.09,3101.91C3633.48,3106.25 3630.35,3113.39 3628.99,3119.78C3621.54,3154.97 3627.85,3188.48 3643.77,3220.25C3652.33,3237.31 3661.77,3253.92 3671.1,3270.6C3681.43,3289.1 3675.63,3302.9 3655.1,3308.35C3644.42,3311.18 3633.55,3313.64 3623.29,3317.6C3606.85,3323.94 3598.01,3337.73 3591.29,3353.2C3583.29,3371.61 3580.79,3391.1 3585.6,3410.13C3590.16,3428.13 3598.24,3445.28 3605.09,3462.67C3608.61,3471.6 3613.53,3480.02 3616.55,3489.1C3619.78,3498.78 3614.48,3510.88 3603.89,3517.26C3581.14,3530.97 3558.51,3545.09 3534.76,3556.87C3507.25,3570.52 3486.28,3591.2 3466.63,3613.74C3453.88,3628.36 3442.25,3643.98 3429.27,3658.38C3414.27,3675.02 3398,3690.49 3383.03,3707.15C3376.98,3713.88 3372.92,3722.39 3367.96,3730.1C3348.76,3759.96 3330.96,3790.87 3309.96,3819.41C3286.17,3851.74 3260.55,3882.9 3233.75,3912.8C3210.04,3939.25 3183.7,3963.37 3158.34,3988.33C3152.24,3994.33 3146.04,4000.68 3138.76,4004.96C3130.68,4009.71 3130.41,4016.12 3129.76,4024.05C3127.4,4055.2 3125.76,4086.52 3120.94,4117.33C3117.06,4142.9 3110.89,4168.07 3102.49,4192.53C3089.95,4228.53 3076.08,4264.37 3054.62,4296.43C3035.08,4325.65 3016.57,4355.71 2995.12,4383.43C2978.5,4404.93 2959.29,4424.84 2939.01,4442.98C2911.47,4467.73 2882.68,4491.07 2852.76,4512.89C2825.18,4532.89 2795.76,4550.58 2763.26,4562.1C2752.48,4565.93 2741.64,4567.1 2731.04,4560.98C2721.9,4555.71 2718.59,4546.15 2723.29,4536.63C2739,4504.79 2755.21,4473.18 2770.46,4441.12C2778.99,4423.2 2786.68,4404.81 2793.53,4386.18C2801.43,4364.69 2810.42,4343.18 2814.44,4320.83C2818.53,4298.14 2817.44,4274.47 2818.07,4251.22C2818.54,4233.86 2810.8,4220.07 2797.51,4209.22C2794.34,4206.64 2790.89,4204.4 2785.6,4200.59C2773.26,4204.35 2757.47,4209.35 2741.6,4214C2656.33,4238.95 2568.78,4249.86 2480.5,4255.9C2378.63,4262.9 2276.63,4264.15 2174.71,4257.9C2073.3,4251.71 1971.91,4244.74 1870.71,4236.29C1818.77,4231.96 1767.14,4223.81 1715.43,4216.97C1709.33,4216.02 1703.5,4213.78 1698.35,4210.38C1690.95,4205.6 1691.1,4196.9 1699.28,4193.48C1707.15,4190.22 1715.67,4188.85 1724.17,4189.48C1758.17,4192.42 1791.95,4196.77 1825.88,4200.05C1894.11,4206.66 1962.28,4214.46 2030.65,4218.85C2091.91,4222.79 2153.1,4217.02 2213.89,4208.75C2309.81,4195.75 2403.31,4172.39 2494.95,4141.31C2577.35,4113.37 2657.25,4079.87 2732.04,4035.06C2747.66,4025.71 2762.49,4015.06 2777.63,4004.92C2782.81,4001.45 2782.79,3985.53 2776.41,3980.29C2768.26,3973.6 2759.41,3967.14 2749.83,3962.96C2732.11,3955.23 2713.6,3949.32 2695.5,3942.44C2691.04,3940.75 2686.19,3939.05 2682.72,3935.98C2673.85,3928.15 2676.32,3918.48 2688.04,3915.58C2694.33,3914.03 2701.11,3914.18 2707.69,3914.04C2727.96,3913.62 2747.97,3912.33 2765.53,3900.41C2776.37,3893.05 2778.24,3871.49 2767.06,3864.27C2756.28,3857.27 2743.82,3852.48 2731.51,3848.52C2721.04,3845.15 2709.67,3844.65 2698.83,3842.29C2694.47,3841.3 2690.36,3839.45 2686.73,3836.84C2680.11,3832.07 2680.61,3821.32 2688.06,3817.89C2695.51,3814.46 2703.76,3812.67 2711.78,3810.65C2731.64,3805.65 2751.02,3800.23 2767.07,3786.09C2789.21,3766.6 2783.74,3747.09 2758.4,3737.77C2742.04,3731.77 2723.8,3730.92 2706.47,3727.43C2700.47,3726.22 2694.18,3724.9 2688.88,3722.05C2680.01,3717.28 2679.58,3705.26 2688.44,3700.43C2701.44,3693.35 2715.2,3687.66 2728.69,3681.5C2751.48,3671.11 2768.08,3654.71 2778.07,3631.61C2782.79,3620.7 2778.7,3597.91 2768.57,3589.27C2759.57,3581.57 2749.15,3575.46 2739.26,3568.79C2736.68,3567.06 2733.06,3566.49 2731.1,3564.32C2727.17,3559.97 2721.1,3554.68 2721.43,3550.15C2721.76,3545.62 2728.03,3539.95 2733.02,3537.72C2749.39,3530.38 2767.02,3525.72 2782.95,3517.57C2807.65,3504.96 2826.39,3485.91 2837.56,3459.8C2850.05,3430.61 2856.32,3399.93 2849.64,3369.19C2842.77,3337.58 2831.26,3306.91 2820.9,3276.13C2815.75,3260.55 2809.43,3245.38 2801.99,3230.75C2790.43,3208.36 2778.8,3185.75 2764.51,3165.1C2752.02,3147.05 2736.75,3130.61 2721.02,3115.19C2697.56,3092.19 2668.02,3088.27 2636.78,3093.19C2624.09,3095.19 2611.52,3098.36 2598.78,3099.36C2592.45,3099.86 2585.21,3097.82 2579.48,3094.82C2572.17,3090.99 2571.67,3080.49 2577.03,3074.07C2593.22,3054.74 2610.36,3036.07 2625.11,3015.71C2633.36,3004.31 2639.11,2990.49 2643.35,2976.93C2656.78,2933.61 2660.08,2887.78 2652.99,2842.98C2648.17,2811.76 2639.89,2781.05 2626.54,2752.1C2609.17,2714.44 2587.78,2679.27 2559.67,2648.58C2531.73,2618.07 2503.36,2587.96 2475.09,2557.76C2473.35,2555.91 2470.77,2554.84 2468.09,2553.1C2468.09,2579.03 2469.01,2603.94 2467.84,2628.77C2466.5,2657.34 2455.84,2683.37 2443.16,2708.77C2437.7,2719.68 2433.16,2730.66 2422.27,2737.33C2407.79,2746.22 2389.61,2740.64 2383.77,2724.76C2377.27,2707.1 2371.88,2689.03 2365.77,2671.22C2355.38,2640.79 2344.88,2610.4 2334.29,2580.04C2331.13,2570.98 2327.91,2561.9 2324.03,2553.14C2312.29,2526.6 2300.76,2499.95 2288.08,2473.86C2279.14,2455.46 2269.46,2437.25 2258.31,2420.14C2243.09,2396.77 2226.98,2373.87 2209.69,2352C2195.37,2333.88 2180.19,2315.95 2162.86,2300.84C2141.2,2281.97 2117.32,2265.55 2093.72,2249.02C2055.72,2222.39 2017.39,2196.21 1978.72,2170.48C1942.57,2146.48 1905.96,2123.2 1869.26,2100.05C1827.91,2073.97 1786.46,2048.05 1744.64,2022.74C1717.5,2006.31 1689.96,1990.57 1662.01,1975.5C1614.01,1949.72 1565.16,1925.5 1517.37,1899.3C1474.18,1875.66 1432.37,1849.51 1399.21,1812.3C1376.73,1787.06 1356.56,1759.5 1354.3,1724.11C1353.73,1715.22 1358.19,1704.24 1363.91,1697.11C1377.1,1680.56 1395.18,1676.11 1416.72,1678.11C1476.37,1683.82 1535.02,1695.11 1593.82,1705.95C1636.67,1713.82 1679.9,1718.87 1723.54,1711.74C1725.59,1711.4 1727.64,1711.04 1729.65,1710.52C1731.66,1710 1733.63,1709.37 1739.43,1707.46ZM2376.43,4205.64L2377.12,4209.01C2419.63,4202.21 2462.36,4196.57 2504.59,4188.36C2590.14,4171.74 2672.11,4144 2748.12,4101.02C2786.97,4079.02 2824.72,4054.84 2861.39,4029.37C2886.93,4011.63 2910.63,3990.96 2933.61,3969.91C2957.76,3947.79 2980.79,3924.3 3002.97,3900.18C3020.73,3880.86 3036.71,3859.86 3053.05,3839.28C3064.05,3825.41 3074.73,3811.23 3084.85,3796.69C3095.38,3781.56 3105.44,3766.1 3115.02,3750.31C3125.49,3733.1 3135.46,3715.56 3145.14,3697.88C3156.43,3677.26 3167.62,3656.56 3177.99,3635.48C3185.84,3619.53 3192.45,3602.96 3199.43,3586.59C3209.31,3563.39 3219.83,3540.42 3228.62,3516.81C3238.31,3490.81 3247.37,3464.41 3254.85,3437.68C3265.06,3401.22 3273.75,3364.34 3282.62,3327.53C3286.5,3311.42 3289.78,3295.12 3292.34,3278.75C3298.34,3240.46 3305.77,3202.25 3308.87,3163.75C3314.76,3090.59 3316.94,3017.22 3305.42,2944.24C3300.15,2910.85 3294.13,2877.57 3288.99,2844.15C3283.37,2807.57 3272.74,2772.35 3261.28,2737.31C3253.69,2714.11 3246.42,2690.81 3238.81,2667.62C3235.28,2656.85 3231.74,2646.04 3227.38,2635.62C3217.53,2612.01 3207.11,2588.62 3197.01,2565.13C3189.84,2548.43 3183.3,2531.45 3175.6,2515C3161.7,2485.32 3147.18,2455.94 3132.87,2426.46C3122.87,2405.83 3113.17,2385.02 3102.58,2364.69C3089.52,2339.61 3075.63,2314.96 3062.17,2290.09C3051.93,2271.14 3042.17,2251.89 3031.51,2233.2C3017.1,2208.06 3002.16,2183.2 2987.08,2158.45C2977.83,2143.28 2968.25,2128.29 2958.19,2113.64C2944.5,2093.64 2930.29,2074.07 2916.19,2054.41C2903.19,2036.41 2890.49,2018.13 2876.86,2000.6C2858.23,1976.6 2838.86,1953.29 2819.79,1929.69C2799.79,1904.96 2780.47,1879.69 2759.63,1855.69C2735.23,1827.6 2709.99,1800.19 2684.24,1773.33C2650.14,1737.75 2615.56,1702.64 2580.49,1667.99C2554.16,1641.99 2526.83,1617.08 2499.66,1591.99C2460.66,1555.99 2421.66,1519.99 2382.14,1484.49C2343.63,1449.93 2305.7,1414.56 2265.31,1382.32C2225.37,1350.44 2183.7,1320.46 2140.86,1292.62C2106.92,1270.55 2072.39,1248.48 2033.48,1235.43C2028.27,1233.68 2020.39,1233.29 2016.24,1236.04C1992.24,1251.94 1968.99,1268.86 1945.62,1285.65C1900.4,1318.13 1855.24,1350.69 1810.14,1383.33C1774.24,1409.33 1738.41,1435.44 1702.66,1461.65C1676.33,1480.93 1650.25,1500.55 1623.79,1519.65C1618.7,1523.32 1619.55,1525.97 1622.98,1529.51C1624.63,1531.21 1626.54,1532.66 1628.15,1534.39C1648.6,1556.39 1668.76,1578.75 1689.52,1600.5C1717.07,1629.37 1748.4,1654.78 1767.84,1690.84C1775.98,1705.93 1773.32,1721.43 1758.31,1729.42C1752.29,1732.8 1745.82,1735.3 1739.1,1736.87C1693.72,1746.18 1648.29,1742.54 1603.1,1735.51C1554.36,1727.93 1505.93,1718.42 1457.17,1710.93C1438.42,1708.05 1419.17,1708.33 1400.17,1707.34C1391.68,1706.9 1387.26,1711.5 1387.06,1719.74C1386.95,1724.57 1386.97,1729.69 1388.37,1734.22C1395.73,1757.96 1410.02,1777.86 1426.52,1795.68C1452.59,1823.85 1483.52,1846.52 1516.97,1865.03C1564.65,1891.38 1613.48,1915.65 1661.19,1941.95C1707.38,1967.4 1753.33,1993.36 1798.36,2020.79C1849.23,2051.79 1899.03,2084.49 1949.14,2116.7C1983.58,2138.82 2018.14,2160.8 2051.95,2183.83C2095.7,2213.63 2138.95,2244.19 2182.1,2274.83C2210.63,2295.1 2239.1,2315.47 2266.75,2336.96C2298.98,2362.04 2330.6,2387.96 2361.75,2414.31C2394.17,2441.73 2426.25,2469.6 2457.54,2498.31C2483.54,2522.14 2508.82,2546.79 2533.15,2572.31C2559.03,2599.43 2584.65,2626.99 2608.06,2656.23C2628.53,2681.79 2644.36,2710.58 2658.32,2740.58C2673.37,2773.02 2683.56,2807.51 2688.56,2842.92C2696.95,2901.31 2692.38,2959.18 2664.84,3012.77C2656.38,3029.25 2643.67,3043.55 2632.84,3058.77C2630.75,3061.77 2628.48,3064.53 2625.07,3069.02C2630.28,3068.46 2633.27,3068.26 2636.23,3067.81C2684.53,3060.45 2726.11,3074.64 2760.67,3108.4C2787.49,3134.61 2807.41,3166.14 2825.27,3198.91C2843.49,3232.38 2857.12,3267.85 2868.8,3303.98C2876.45,3327.15 2882.72,3350.76 2887.57,3374.68C2894.27,3408.94 2899.98,3443.47 2904.06,3478.13C2908.72,3517.77 2911.83,3557.64 2914.38,3597.49C2919.57,3678.45 2920.38,3759.63 2916.81,3840.68C2915.87,3862.16 2914.53,3883.39 2907.1,3903.68C2903.82,3912.68 2900.46,3921.87 2895.44,3929.92C2874.11,3964.04 2845.26,3991.43 2813.72,4015.68C2769.06,4050.03 2720.28,4078.02 2669.43,4102.11C2588.18,4140.61 2503.77,4170.73 2417.14,4194.72C2403.6,4198.43 2390,4202 2376.43,4205.64ZM2456.13,4230.22C2467.25,4229.41 2487.58,4227.89 2507.92,4226.46C2655.14,4216.1 2794.79,4178.77 2925.43,4109.33C2981.74,4079.4 3035.83,4045.95 3086.43,4007.04C3122.36,3979.4 3156.65,3949.86 3187.56,3916.62C3205.01,3897.87 3222.41,3879.01 3238.67,3859.24C3254.67,3839.73 3269.89,3819.43 3284.32,3798.69C3298.56,3778.25 3311.62,3756.96 3324.75,3735.77C3338.55,3713.5 3352.42,3691.22 3365.16,3668.33C3376.16,3648.64 3385.69,3628.15 3395.6,3607.88C3406.53,3585.52 3417.67,3563.23 3427.74,3540.48C3435.79,3522.32 3442.62,3503.6 3449.54,3484.97C3460.25,3456.13 3471.23,3427.36 3480.87,3398.16C3488.07,3376.31 3494.13,3354 3499.28,3331.57C3505.69,3303.66 3512.28,3275.63 3515.88,3247.29C3523.55,3187.44 3524.74,3127.19 3521.76,3066.94C3520.84,3048.21 3519.35,3029.27 3515.53,3010.94C3509.53,2982.05 3501.11,2953.65 3494.04,2924.94C3489.33,2905.84 3485.35,2886.56 3480.7,2867.45C3478.48,2858.1 3475.76,2848.87 3472.56,2839.8C3467.31,2825.23 3460.74,2811.11 3455.95,2796.4C3449.04,2775.19 3443.3,2753.6 3436.95,2732.22C3433.6,2721.02 3430.52,2709.68 3426.27,2698.82C3415.43,2671.16 3404.24,2643.64 3392.7,2616.25C3386.3,2601.14 3379.15,2586.31 3371.63,2571.72C3361,2551.13 3349.71,2530.88 3338.69,2510.5C3332.19,2498.5 3325.67,2486.5 3319.12,2474.5C3308.21,2454.45 3297.12,2434.5 3286.41,2414.34C3279.03,2400.46 3272.17,2386.29 3265.05,2372.27C3253.95,2350.39 3242.69,2328.59 3231.75,2306.64C3224.58,2292.25 3217.97,2277.58 3210.88,2263.15C3200.07,2241.15 3188.95,2219.25 3178.17,2197.21C3170.8,2182.14 3164.17,2166.73 3156.52,2151.78C3145.87,2130.78 3134.62,2110.18 3123.71,2089.36C3113.71,2070.3 3103.71,2051.22 3093.92,2032.06C3080.16,2005.17 3066.19,1978.37 3053.01,1951.19C3045.15,1934.99 3038.96,1917.99 3031.41,1901.63C3020.11,1877.15 3008.41,1852.87 2996.61,1828.63C2990.33,1815.72 2984.03,1802.79 2976.9,1790.36C2962.64,1765.5 2948.05,1740.83 2933.13,1716.36C2923.56,1700.6 2913.76,1684.93 2903.21,1669.8C2887.45,1647.19 2871.07,1624.99 2854.7,1602.8C2841.3,1584.64 2828.32,1566.08 2813.7,1548.9C2794.7,1526.52 2775.42,1504.18 2754.28,1483.9C2717.99,1449.02 2681.86,1413.61 2642.5,1382.41C2607.91,1354.99 2569.5,1332.11 2531.83,1308.88C2469.61,1270.56 2402.68,1242.71 2332.15,1223.58C2258.73,1203.66 2184.21,1193.78 2108.15,1200.12C2089.9,1201.64 2071.83,1205.39 2054.64,1207.96C2098.57,1232.78 2142.85,1255.8 2184.99,1282.24C2217.78,1302.82 2248.61,1326.77 2278.99,1350.87C2307.42,1373.43 2334.33,1397.93 2361.53,1421.99C2391.03,1448.07 2420.29,1474.4 2449.32,1500.99C2477.43,1526.61 2505.27,1552.52 2533.2,1578.33C2558.83,1602.01 2584.74,1625.41 2609.95,1649.53C2632.95,1671.53 2655.39,1694.18 2677.68,1716.93C2700.68,1740.35 2723.48,1763.93 2745.68,1788.05C2762.59,1806.4 2778.51,1825.64 2794.75,1844.59C2811.16,1863.75 2827.61,1882.89 2843.69,1902.32C2858.27,1919.92 2872.69,1937.69 2886.63,1955.79C2903.3,1977.43 2919.47,1999.46 2935.76,2021.39C2946.52,2035.89 2957.19,2050.46 2967.76,2065.11C2977.3,2078.43 2986.93,2091.71 2995.82,2105.46C3006.97,2122.68 3017.49,2140.33 3028.15,2157.87C3039.46,2176.49 3050.83,2195.08 3061.79,2213.87C3069.2,2226.58 3075.79,2239.75 3083.02,2252.58C3092.85,2270.08 3103.4,2287.2 3112.76,2304.95C3123.94,2326.13 3134.08,2347.86 3144.88,2369.24C3160.88,2400.88 3177.64,2432.12 3192.88,2464.09C3208.94,2497.7 3224.09,2531.76 3238.75,2566C3251.27,2595.24 3263.08,2624.77 3274.19,2654.6C3284,2680.95 3292.89,2707.67 3301.26,2734.52C3308.26,2756.83 3314.39,2779.43 3319.91,2802.15C3326.08,2827.6 3332.78,2853.1 3336.3,2878.98C3342.05,2921.25 3347.38,2963.76 3349.3,3006.33C3351.99,3065.98 3353.4,3125.83 3343.68,3185.24C3339.55,3210.5 3337.24,3236.07 3332.88,3261.24C3327.96,3289.77 3322.12,3318.15 3315.88,3346.42C3310.29,3371.61 3304.23,3396.75 3297.19,3421.57C3288.67,3451.57 3279.54,3481.49 3269.48,3511.04C3260.09,3538.62 3249.21,3565.7 3238.82,3592.94C3235.28,3602.23 3231.7,3611.56 3227.32,3620.47C3217.54,3640.34 3207.37,3660.02 3197.12,3679.64C3186.66,3699.64 3176.65,3719.98 3165.12,3739.35C3152.39,3760.67 3138.49,3781.35 3124.38,3801.78C3108.48,3824.78 3092.7,3848.05 3075.17,3869.84C3056.61,3893.03 3036.88,3915.25 3016.05,3936.43C2988.39,3964.43 2960.54,3992.51 2930.2,4017.43C2897.63,4044.19 2862.87,4068.52 2827.68,4091.81C2761.92,4135.45 2689.93,4168.9 2614.17,4191.02C2559.19,4207.1 2503.05,4218.75 2456.13,4230.22ZM3373.23,2240.48C3339.17,2236.58 3307.5,2228.48 3279.95,2208.7C3253.95,2190.05 3236.33,2165.38 3233.95,2133.18C3232.61,2115.31 3235.95,2096.9 3238.74,2078.98C3242.47,2055.07 3254.66,2034.73 3269.08,2015.71C3271.76,2012.18 3274.85,2008.97 3278.21,2005.08C3246.02,1996.45 3216.21,1987 3190.63,1967.2C3158.37,1942.2 3139.57,1909.6 3133.38,1869.63C3128.64,1839.09 3139.12,1812.3 3156.07,1786.81C3152,1786.07 3148.63,1785.33 3145.22,1784.81C3098.5,1778.15 3055.14,1763.51 3019.05,1731.67C2994.71,1710.2 2976.55,1683.98 2972.14,1651.95C2968.78,1627.51 2971.38,1602.13 2972.65,1577.23C2973.11,1568.05 2977.35,1559.07 2980.04,1549.39C2911.12,1542.55 2851.37,1515.71 2795.41,1478.84C2798.34,1482.96 2801.67,1486.38 2804.79,1489.99C2820.84,1508.62 2837.23,1526.99 2852.74,1546.05C2867.13,1563.77 2880.87,1582.05 2894.31,1600.51C2907.97,1619.25 2921.23,1638.28 2934.09,1657.61C2945.09,1674.1 2955.38,1691.07 2965.78,1707.95C2979.36,1729.95 2993.33,1751.78 3006.01,1774.31C3016.88,1793.64 3026.33,1813.79 3036.15,1833.69C3049.71,1861.17 3063.45,1888.56 3076.28,1916.37C3083.86,1932.78 3089.28,1950.17 3096.73,1966.66C3103.18,1980.99 3110.84,1994.79 3118.35,2008.66C3131.84,2033.49 3145.84,2058.04 3159.19,2082.95C3166.78,2097.12 3173.35,2111.82 3180.62,2126.17C3191.4,2147.44 3202.62,2168.49 3213.2,2189.85C3220.79,2205.18 3227.35,2221.02 3234.89,2236.37C3245.41,2257.77 3256.54,2278.86 3267.15,2300.21C3277.34,2320.73 3286.75,2341.64 3297.3,2361.97C3310.3,2387.05 3324.3,2411.62 3337.65,2436.55C3351.5,2462.48 3364.97,2488.61 3378.73,2514.55C3391.94,2539.55 3406.23,2563.96 3418.35,2589.45C3431.24,2616.59 3443.35,2644.23 3453.6,2672.45C3465.3,2704.71 3474.22,2737.97 3485.01,2770.57C3491.92,2791.47 3500.76,2811.74 3507.36,2832.72C3512.83,2850.13 3516.36,2868.16 3520.61,2885.93C3524.34,2901.35 3528,2916.78 3531.61,2932.22C3539.25,2965.06 3549.88,2997.56 3553.77,3030.84C3562.03,3101.43 3561.64,3172.33 3550.32,3242.84C3546.76,3265.02 3543.52,3287.26 3539.32,3309.33C3535.78,3327.97 3531.32,3346.45 3526.82,3364.9C3523.56,3378.29 3520.27,3391.74 3515.82,3404.74C3505.35,3435.14 3494.52,3465.43 3483.09,3495.47C3476.43,3512.97 3468.23,3529.87 3460.89,3547.11C3456.41,3557.63 3452.24,3568.27 3447.94,3578.85L3449.65,3580.77C3488.2,3543.77 3537.3,3523.23 3581.31,3495.77C3577.15,3486.11 3574.42,3477.49 3569.95,3469.88C3559.22,3451.58 3552.68,3431.88 3549.34,3411.17C3545.82,3389.33 3547.52,3367.72 3555.93,3346.91C3562.85,3329.78 3572,3313.72 3587.93,3304.02C3603.02,3294.83 3619.74,3288.33 3636.58,3280.25C3635.96,3278.02 3635.07,3275.87 3633.94,3273.85C3622.62,3256.35 3613.15,3237.72 3605.67,3218.27C3594.67,3189.21 3587.67,3159.86 3593.5,3129.27C3597.91,3106.02 3602.63,3081.88 3627.11,3068.89C3634.11,3065.16 3639.76,3058.77 3647.11,3052.69C3617.24,3033.85 3592.85,3010.83 3585.47,2975.89C3577.84,2939.7 3592,2910.23 3618.68,2887.67C3601.4,2876.44 3584.43,2866.54 3568.68,2854.96C3539.5,2833.48 3520.17,2804.67 3512.68,2769.21C3507.22,2743.44 3512.85,2719.21 3530.01,2698.37C3533.12,2694.6 3536.79,2691.3 3541.01,2686.94C3496.26,2663.37 3468.76,2628.07 3456.37,2580.74C3443.98,2533.41 3446.1,2488.18 3476.72,2446.88C3358.71,2430.72 3318.09,2346.37 3373.23,2240.48ZM2769.3,4523.77L2771.25,4525.33C2783.69,4518.02 2796.25,4510.9 2808.56,4503.38C2846.88,4479.82 2882.4,4451.97 2914.42,4420.38C2930.79,4404.39 2946.26,4387.5 2960.76,4369.8C2975.18,4352.12 2988.3,4333.3 3000.96,4314.3C3012.57,4297.11 3023.25,4279.3 3032.96,4260.97C3041.47,4244.63 3047.32,4226.97 3055.09,4210.17C3071,4175.88 3078.56,4139.17 3086.09,4102.57C3089.63,4085.3 3091.28,4067.65 3093.61,4050.14C3093.98,4047.41 3093.39,4044.55 3093.17,4040.14C3008.59,4100.84 2919.9,4149.78 2823.26,4186.93C2826.96,4190.39 2829.52,4192.23 2831.35,4194.61C2838.14,4203.46 2847.98,4211.61 2850.76,4221.61C2861.96,4262.09 2859.26,4303.54 2849,4343.44C2841,4374.39 2827.38,4403.96 2815.18,4433.7C2809.53,4447.47 2801.1,4460.08 2794.29,4473.4C2785.79,4490.07 2777.63,4507 2769.3,4523.77ZM2751.17,3704.67C2759.98,3707.75 2767.65,3709.82 2774.77,3713.08C2782.24,3716.49 2789.95,3720.08 2796.21,3725.25C2816.03,3741.57 2821.67,3756.34 2814.21,3777.76C2809.11,3792.4 2797.93,3803.76 2784.66,3812.25C2777,3817.15 2768.95,3821.43 2760.73,3826.2C2761.52,3826.82 2762.36,3827.38 2763.25,3827.86C2788.91,3837.3 2809.77,3850.86 2810.7,3882.02C2810.8,3885.67 2812.26,3889.62 2811.29,3892.89C2806.08,3910.33 2791.19,3918.05 2776.65,3925.89C2771.36,3928.74 2765.79,3931.09 2758.8,3934.4C2763.33,3936.65 2766.04,3938.03 2768.8,3939.4C2784.91,3947.18 2801.57,3954.14 2811.01,3971.02C2811.57,3972.02 2817.37,3971.86 2818.82,3970.38C2832.82,3955.96 2847.82,3942.18 2859.69,3926.15C2870.14,3912.06 2879.78,3896.53 2879.56,3877.39C2879.43,3866.29 2880.31,3855.17 2880.88,3844.07C2887.08,3723.61 2881.64,3603.54 2868.97,3483.71C2868.74,3481.54 2867.92,3479.44 2866.78,3474.97C2846.78,3514.12 2814.78,3536.68 2777.59,3553.31C2778.44,3554.6 2779.39,3555.82 2780.43,3556.96C2781.98,3558.3 2783.74,3559.41 2785.29,3560.76C2800.29,3573.83 2812.87,3588.68 2815.23,3609.29C2819.11,3643.18 2800.9,3666.64 2776.76,3686.71C2769,3693.11 2760.23,3698.35 2751.17,3704.67ZM2277.17,2383.8C2276.47,2384.58 2275.77,2385.35 2275.08,2386.13C2281.22,2395.06 2288.08,2403.57 2293.36,2412.99C2307.31,2437.99 2321.56,2462.99 2333.8,2488.86C2348.34,2519.64 2361.76,2550.94 2374.05,2582.76C2383.05,2606.1 2389.32,2630.49 2396.92,2654.37C2401.18,2667.76 2405.65,2681.08 2410.46,2695.76C2427.46,2666.36 2432.36,2635.46 2435.54,2604.48C2436.88,2591.42 2433.73,2577.8 2431.86,2564.53C2429.34,2546.53 2426.23,2528.7 2423.01,2510.85C2422.57,2508.42 2420.37,2505.95 2418.37,2504.2C2389.52,2478.96 2360.7,2453.67 2331.57,2428.74C2313.68,2413.45 2295.3,2398.76 2277.15,2383.8L2277.17,2383.8Z" style="fill-rule:nonzero;"/>
    </g>
    <g transform="matrix(0.301695,0,0,0.301695,-248.668,-353.322)">
        <path d="M2376.43,4205.64C2390,4202 2403.6,4198.43 2417.14,4194.64C2503.77,4170.64 2588.14,4140.53 2669.43,4102.03C2720.28,4077.94 2769.06,4049.95 2813.72,4015.6C2845.26,3991.35 2874.11,3963.96 2895.44,3929.84C2900.44,3921.84 2903.82,3912.58 2907.1,3903.6C2914.53,3883.29 2915.87,3862.06 2916.81,3840.6C2920.38,3759.55 2919.57,3678.37 2914.38,3597.41C2911.83,3557.56 2908.72,3517.69 2904.06,3478.05C2899.98,3443.39 2894.27,3408.86 2887.57,3374.6C2882.72,3350.68 2876.45,3327.07 2868.8,3303.9C2857.12,3267.77 2843.49,3232.3 2825.27,3198.83C2807.41,3166.06 2787.49,3134.53 2760.67,3108.32C2726.11,3074.56 2684.53,3060.37 2636.23,3067.73C2633.23,3068.18 2630.28,3068.38 2625.07,3068.94C2628.48,3064.45 2630.75,3061.64 2632.84,3058.69C2643.65,3043.42 2656.36,3029.12 2664.84,3012.69C2692.38,2959.1 2696.95,2901.23 2688.56,2842.84C2683.56,2807.43 2673.37,2772.94 2658.32,2740.5C2644.32,2710.5 2628.53,2681.71 2608.06,2656.15C2584.65,2626.91 2559.06,2599.35 2533.15,2572.23C2508.82,2546.73 2483.51,2522.08 2457.54,2498.23C2426.25,2469.53 2394.17,2441.66 2361.75,2414.23C2330.58,2387.86 2298.96,2361.96 2266.75,2336.88C2239.14,2315.39 2210.63,2295.02 2182.1,2274.75C2138.94,2244.1 2095.7,2213.54 2051.95,2183.75C2018.13,2160.75 1983.58,2138.75 1949.14,2116.62C1899.03,2084.41 1849.23,2051.68 1798.36,2020.71C1753.36,1993.28 1707.36,1967.32 1661.19,1941.87C1613.48,1915.57 1564.65,1891.3 1516.97,1864.95C1483.49,1846.44 1452.59,1823.77 1426.52,1795.6C1410.02,1777.78 1395.73,1757.88 1388.37,1734.14C1386.97,1729.61 1386.95,1724.49 1387.06,1719.66C1387.26,1711.42 1391.68,1706.82 1400.17,1707.26C1419.17,1708.26 1438.44,1707.97 1457.17,1710.85C1505.93,1718.34 1554.36,1727.85 1603.1,1735.43C1648.27,1742.43 1693.7,1746.1 1739.1,1736.79C1745.82,1735.22 1752.29,1732.72 1758.31,1729.34C1773.31,1721.34 1775.98,1705.85 1767.84,1690.76C1748.4,1654.7 1717.07,1629.29 1689.52,1600.42C1668.76,1578.67 1648.6,1556.35 1628.15,1534.31C1626.54,1532.58 1624.63,1531.13 1622.98,1529.43C1619.55,1525.89 1618.7,1523.24 1623.79,1519.57C1650.25,1500.47 1676.33,1480.85 1702.66,1461.57C1738.43,1435.38 1774.26,1409.28 1810.14,1383.25C1855.24,1350.58 1900.4,1318.02 1945.62,1285.57C1968.99,1268.78 1992.28,1251.86 2016.24,1235.96C2020.39,1233.21 2028.24,1233.6 2033.48,1235.35C2072.39,1248.4 2106.92,1270.47 2140.86,1292.54C2183.7,1320.38 2225.37,1350.36 2265.31,1382.24C2305.7,1414.48 2343.63,1449.85 2382.14,1484.41C2421.64,1519.88 2460.65,1555.9 2499.66,1591.91C2526.83,1616.99 2554.16,1641.91 2580.49,1667.91C2615.58,1702.51 2650.17,1737.62 2684.24,1773.25C2709.99,1800.11 2735.24,1827.52 2759.63,1855.61C2780.47,1879.61 2799.81,1904.9 2819.79,1929.61C2838.86,1953.21 2858.23,1976.61 2876.86,2000.52C2890.49,2018.05 2903.22,2036.29 2916.19,2054.33C2930.33,2073.99 2944.54,2093.6 2958.19,2113.56C2968.25,2128.21 2977.83,2143.2 2987.08,2158.37C3002.16,2183.13 3017.08,2207.98 3031.51,2233.12C3042.22,2251.81 3051.93,2271.06 3062.17,2290.01C3075.63,2314.88 3089.52,2339.53 3102.58,2364.61C3113.17,2384.94 3122.85,2405.75 3132.87,2426.38C3147.18,2455.86 3161.7,2485.24 3175.6,2514.92C3183.3,2531.37 3189.84,2548.35 3197.01,2565.05C3207.11,2588.55 3217.53,2611.93 3227.38,2635.54C3231.74,2645.99 3235.28,2656.8 3238.81,2667.54C3246.42,2690.73 3253.69,2714.03 3261.28,2737.23C3272.74,2772.23 3283.37,2807.49 3288.99,2844.07C3294.13,2877.49 3300.15,2910.77 3305.42,2944.16C3316.94,3017.16 3314.76,3090.51 3308.87,3163.67C3305.77,3202.21 3298.32,3240.42 3292.34,3278.67C3289.78,3295.04 3286.5,3311.34 3282.62,3327.45C3273.75,3364.26 3265.06,3401.14 3254.85,3437.6C3247.37,3464.33 3238.31,3490.69 3228.62,3516.73C3219.83,3540.34 3209.31,3563.31 3199.43,3586.51C3192.43,3602.88 3185.84,3619.45 3177.99,3635.4C3167.62,3656.48 3156.43,3677.18 3145.14,3697.8C3135.46,3715.48 3125.49,3733.02 3115.02,3750.23C3105.44,3765.99 3095.38,3781.45 3084.85,3796.61C3074.73,3811.15 3064.07,3825.33 3053.05,3839.2C3036.71,3859.78 3020.73,3880.78 3002.97,3900.1C2980.79,3924.22 2957.76,3947.71 2933.61,3969.83C2910.61,3990.88 2886.93,4011.55 2861.39,4029.29C2824.72,4054.76 2786.97,4078.96 2748.12,4100.94C2672.12,4143.94 2590.12,4171.66 2504.59,4188.28C2462.36,4196.49 2419.59,4202.13 2377.12,4208.93L2376.43,4205.64ZM2755.9,2368.34L2754.47,2369.87C2739.68,2358.87 2724.94,2347.87 2710.08,2336.95C2668.83,2306.71 2624.45,2281.95 2578.02,2260.57C2522.34,2234.99 2463.79,2218.13 2404.77,2202.69C2397.77,2200.86 2390.47,2199.32 2383.32,2199.37C2376.4,2199.43 2369.07,2201.53 2367.65,2210.13C2366.08,2219.68 2373.31,2222.89 2380.35,2225.07C2392.94,2228.95 2405.73,2232.21 2418.48,2235.55C2496.17,2255.89 2570.54,2284.18 2639.33,2326.27C2695.26,2360.49 2746.13,2400.91 2791.33,2448.42C2799.57,2457.08 2814.78,2459.97 2823.77,2453.56C2833.54,2446.56 2828.51,2437.43 2826.25,2428.87C2826.01,2427.85 2825.66,2426.87 2825.19,2425.93C2811.12,2400.24 2797.88,2374.05 2782.75,2349C2760.14,2311.56 2733.13,2277.4 2703.59,2245C2676.69,2215.49 2648.15,2187.9 2615.91,2164.59C2567.79,2129.62 2514.47,2102.43 2457.91,2084.02C2399.08,2064.94 2338.91,2053.21 2276.91,2051.24C2270.01,2051.03 2263.13,2052.1 2256.62,2054.4C2253.38,2055.58 2249.35,2061.01 2249.69,2064.07C2250.11,2067.81 2254.17,2071.96 2257.69,2074.27C2260.57,2076.13 2265.05,2075.67 2268.83,2075.97C2285.83,2077.34 2302.93,2077.66 2319.74,2080.08C2417.04,2094.08 2507.9,2125.08 2588.38,2183.08C2620.12,2205.9 2649.12,2232.3 2674.81,2261.77C2691.59,2281.05 2708.22,2300.51 2723.81,2320.77C2735.5,2335.92 2745.29,2352.45 2755.9,2368.34ZM2076.69,1814.29C2098.22,1814.64 2118.79,1810.01 2138.45,1801.54C2168.07,1788.79 2190.13,1767.95 2202.16,1737.86C2213.16,1710.39 2199.37,1669.93 2173.43,1651.27C2145.07,1630.86 2113.43,1621.27 2078.52,1625.79C2029.21,1632.19 1987.91,1650.35 1967.6,1700.79C1957.75,1725.23 1964.1,1760.19 1984.21,1778.99C2010.3,1803.33 2041.33,1814.39 2076.69,1814.29Z" style="fill:rgb(162,238,255);fill-rule:nonzero;"/>
    </g>
    <g transform="matrix(0.301695,0,0,0.301695,-248.668,-353.322)">
        <path d="M2456.13,4230.22C2503.05,4218.75 2559.19,4207.1 2614.05,4191.11C2689.81,4168.99 2761.8,4135.54 2827.56,4091.9C2862.75,4068.61 2897.56,4044.28 2930.08,4017.52C2960.42,3992.59 2988.27,3964.52 3015.93,3936.52C3036.76,3915.34 3056.49,3893.12 3075.05,3869.93C3092.58,3848.14 3108.36,3824.93 3124.26,3801.87C3138.37,3781.42 3152.26,3760.76 3165,3739.44C3176.57,3720.07 3186.58,3699.76 3197,3679.73C3207.25,3660.11 3217.42,3640.43 3227.2,3620.56C3231.58,3611.65 3235.2,3602.32 3238.7,3593.03C3249.09,3565.79 3259.97,3538.71 3269.36,3511.13C3279.42,3481.58 3288.55,3451.69 3297.07,3421.66C3304.07,3396.84 3310.17,3371.66 3315.76,3346.51C3322.03,3318.24 3327.87,3289.86 3332.76,3261.33C3337.12,3236.12 3339.43,3210.55 3343.56,3185.33C3353.28,3125.92 3351.87,3066.07 3349.18,3006.42C3347.26,2963.85 3341.93,2921.34 3336.18,2879.07C3332.66,2853.19 3325.96,2827.69 3319.79,2802.24C3314.27,2779.52 3308.1,2756.92 3301.14,2734.61C3292.77,2707.76 3283.88,2681.04 3274.07,2654.69C3262.97,2624.89 3251.16,2595.36 3238.63,2566.09C3223.97,2531.85 3208.82,2497.79 3192.76,2464.18C3177.48,2432.18 3160.69,2400.97 3144.76,2369.33C3133.96,2347.95 3123.82,2326.22 3112.64,2305.04C3103.28,2287.29 3092.73,2270.17 3082.9,2252.67C3075.69,2239.84 3069.08,2226.67 3061.67,2213.96C3050.67,2195.13 3039.34,2176.54 3028.03,2157.96C3017.37,2140.42 3006.85,2122.77 2995.7,2105.55C2986.81,2091.8 2977.18,2078.55 2967.64,2065.2C2957.14,2050.53 2946.47,2035.96 2935.64,2021.48C2919.35,1999.55 2903.18,1977.48 2886.51,1955.88C2872.51,1937.78 2858.15,1920.01 2843.57,1902.41C2827.49,1882.98 2811.04,1863.84 2794.63,1844.68C2778.39,1825.73 2762.47,1806.49 2745.56,1788.14C2723.34,1764.02 2700.5,1740.44 2677.56,1717.02C2655.27,1694.27 2632.83,1671.65 2609.83,1649.62C2584.62,1625.5 2558.71,1602.1 2533.08,1578.42C2505.15,1552.61 2477.31,1526.7 2449.2,1501.08C2420.1,1474.56 2390.84,1448.23 2361.41,1422.08C2334.21,1398.02 2307.3,1373.52 2278.87,1350.96C2248.49,1326.86 2217.66,1302.96 2184.87,1282.33C2142.73,1255.89 2098.45,1232.87 2054.52,1208.05C2071.71,1205.48 2089.78,1201.73 2108.03,1200.21C2184.14,1193.87 2258.66,1203.75 2332.03,1223.67C2402.56,1242.8 2469.49,1270.67 2531.71,1308.97C2569.42,1332.2 2607.79,1355.08 2642.38,1382.5C2681.74,1413.7 2717.87,1449.11 2754.16,1483.99C2775.3,1504.3 2794.59,1526.64 2813.58,1548.99C2828.16,1566.17 2841.14,1584.73 2854.58,1602.89C2870.95,1625.07 2887.33,1647.27 2903.09,1669.89C2913.64,1685.02 2923.44,1700.69 2933.01,1716.45C2947.89,1740.95 2962.48,1765.62 2976.78,1790.45C2983.91,1802.88 2990.21,1815.81 2996.49,1828.72C3008.27,1852.97 3019.99,1877.25 3031.29,1901.72C3038.84,1918.08 3045.03,1935.08 3052.89,1951.28C3066.07,1978.46 3080.04,2005.28 3093.8,2032.15C3103.61,2051.31 3113.59,2070.39 3123.59,2089.45C3134.5,2110.27 3145.75,2130.92 3156.4,2151.87C3164,2166.82 3170.68,2182.23 3178.05,2197.3C3188.83,2219.3 3199.95,2241.21 3210.76,2263.24C3217.85,2277.67 3224.46,2292.34 3231.63,2306.73C3242.57,2328.73 3253.83,2350.48 3264.93,2372.36C3272.05,2386.36 3278.93,2400.55 3286.29,2414.43C3297,2434.59 3308.09,2454.54 3319,2474.59C3325.54,2486.59 3332.06,2498.59 3338.57,2510.59C3349.57,2530.97 3360.88,2551.22 3371.51,2571.81C3379.03,2586.4 3386.18,2601.23 3392.58,2616.34C3404.17,2643.67 3415.36,2671.2 3426.15,2698.91C3430.4,2709.77 3433.48,2721.11 3436.83,2732.31C3443.23,2753.69 3448.97,2775.31 3455.83,2796.49C3460.62,2811.2 3467.19,2825.32 3472.44,2839.89C3475.64,2848.95 3478.36,2858.18 3480.58,2867.54C3485.23,2886.65 3489.21,2905.93 3493.92,2925.03C3500.99,2953.72 3509.38,2982.12 3515.41,3011.03C3519.23,3029.33 3520.72,3048.27 3521.64,3067.03C3524.64,3127.28 3523.43,3187.53 3515.76,3247.38C3512.13,3275.72 3505.57,3303.75 3499.16,3331.66C3494.01,3354.09 3487.95,3376.4 3480.75,3398.25C3471.11,3427.45 3460.13,3456.25 3449.42,3485.06C3442.5,3503.69 3435.67,3522.41 3427.62,3540.57C3417.55,3563.32 3406.41,3585.57 3395.48,3607.97C3385.57,3628.24 3376,3648.73 3365.04,3668.42C3352.3,3691.31 3338.43,3713.59 3324.63,3735.86C3311.5,3757.05 3298.44,3778.34 3284.2,3798.78C3269.77,3819.52 3254.59,3839.78 3238.55,3859.33C3222.29,3879.1 3204.89,3897.96 3187.44,3916.71C3156.53,3949.95 3122.24,3979.49 3086.31,4007.13C3035.71,4046.04 2981.62,4079.49 2925.31,4109.42C2794.67,4178.86 2655.02,4216.19 2507.8,4226.55C2487.58,4227.89 2467.25,4229.41 2456.13,4230.22Z" style="fill:rgb(162,255,178);fill-rule:nonzero;"/>
    </g>
    <g transform="matrix(0.301695,0,0,0.301695,-248.668,-353.322)">
        <path d="M3373.23,2240.48C3318.09,2346.37 3358.71,2430.72 3476.65,2446.87C3446.03,2488.17 3443.89,2533.34 3456.3,2580.73C3468.71,2628.12 3496.19,2663.36 3540.94,2686.93C3536.72,2691.29 3533.05,2694.59 3529.94,2698.36C3512.78,2719.16 3507.15,2743.43 3512.61,2769.2C3520.12,2804.66 3539.45,2833.47 3568.61,2854.95C3584.34,2866.53 3601.31,2876.43 3618.61,2887.66C3591.93,2910.22 3577.77,2939.66 3585.4,2975.88C3592.78,3010.82 3617.17,3033.88 3647.04,3052.68C3639.69,3058.76 3634.04,3065.15 3627.04,3068.88C3602.56,3081.88 3597.84,3106.01 3593.43,3129.26C3587.61,3159.86 3594.6,3189.21 3605.6,3218.26C3613.08,3237.71 3622.55,3256.34 3633.87,3273.84C3635,3275.86 3635.89,3278.01 3636.51,3280.24C3619.67,3288.32 3602.95,3294.82 3587.86,3304.01C3571.96,3313.71 3562.81,3329.77 3555.86,3346.9C3547.45,3367.71 3545.75,3389.32 3549.27,3411.16C3552.61,3431.84 3559.15,3451.57 3569.88,3469.87C3574.35,3477.48 3577.08,3486.1 3581.24,3495.76C3537.24,3523.24 3488.13,3543.76 3449.58,3580.76L3447.87,3578.84C3452.17,3568.26 3456.34,3557.62 3460.82,3547.1C3468.16,3529.86 3476.36,3512.96 3483.02,3495.46C3494.45,3465.46 3505.28,3435.13 3515.75,3404.73C3520.23,3391.73 3523.52,3378.28 3526.75,3364.89C3531.24,3346.44 3535.75,3327.96 3539.25,3309.32C3543.43,3287.25 3546.67,3265.01 3550.25,3242.83C3561.57,3172.33 3561.96,3101.43 3553.7,3030.83C3549.81,2997.55 3539.18,2965.05 3531.54,2932.21C3527.95,2916.77 3524.28,2901.34 3520.54,2885.92C3516.25,2868.15 3512.76,2850.12 3507.29,2832.71C3500.69,2811.71 3491.85,2791.46 3484.94,2770.56C3474.15,2737.96 3465.23,2704.7 3453.53,2672.44C3443.28,2644.21 3431.17,2616.57 3418.28,2589.44C3406.16,2563.95 3391.87,2539.51 3378.66,2514.54C3364.9,2488.54 3351.43,2462.43 3337.58,2436.54C3324.26,2411.61 3310.26,2387.04 3297.23,2361.96C3286.68,2341.63 3277.23,2320.72 3267.08,2300.2C3256.47,2278.85 3245.34,2257.76 3234.82,2236.36C3227.28,2221.01 3220.72,2205.17 3213.13,2189.84C3202.55,2168.48 3191.33,2147.43 3180.55,2126.16C3173.28,2111.81 3166.71,2097.11 3159.12,2082.94C3145.77,2058.03 3131.77,2033.48 3118.28,2008.65C3110.77,1994.83 3103.11,1981.03 3096.66,1966.65C3089.24,1950.16 3083.79,1932.77 3076.21,1916.36C3063.38,1888.55 3049.64,1861.16 3036.08,1833.68C3026.26,1813.78 3016.81,1793.68 3005.94,1774.3C2993.26,1751.77 2979.29,1729.96 2965.71,1707.94C2955.31,1691.06 2945.01,1674.09 2934.02,1657.6C2921.16,1638.27 2907.9,1619.23 2894.24,1600.5C2880.8,1582.04 2867.06,1563.76 2852.67,1546.04C2837.16,1526.96 2820.77,1508.61 2804.72,1489.98C2801.6,1486.37 2798.27,1482.98 2795.34,1478.83C2851.34,1515.7 2911.05,1542.54 2979.97,1549.38C2977.28,1559.06 2973.04,1568.04 2972.58,1577.22C2971.31,1602.12 2968.71,1627.5 2972.07,1651.94C2976.48,1683.94 2994.64,1710.19 3018.98,1731.66C3055.07,1763.5 3098.43,1778.14 3145.15,1784.8C3148.56,1785.29 3151.93,1786.03 3156,1786.8C3139,1812.29 3128.57,1839.08 3133.31,1869.62C3139.5,1909.62 3158.31,1942.21 3190.56,1967.19C3216.14,1986.99 3245.95,1996.44 3278.14,2005.07C3274.78,2008.96 3271.69,2012.17 3269.01,2015.7C3254.59,2034.7 3242.4,2055.06 3238.67,2078.97C3235.88,2096.89 3232.54,2115.3 3233.88,2133.17C3236.3,2165.37 3253.88,2190.04 3279.88,2208.69C3307.5,2228.47 3339.17,2236.58 3373.23,2240.48Z" style="fill:rgb(69,123,255);fill-rule:nonzero;"/>
    </g>
    <g transform="matrix(0.301695,0,0,0.301695,-248.668,-353.322)">
        <path d="M2769.3,4523.77C2777.63,4506.96 2785.79,4490.07 2794.3,4473.37C2801.11,4460.05 2809.54,4447.44 2815.19,4433.67C2827.39,4403.93 2841.05,4374.36 2849.01,4343.41C2859.27,4303.51 2862.01,4262.06 2850.77,4221.58C2847.99,4211.58 2838.15,4203.44 2831.36,4194.58C2829.53,4192.2 2826.97,4190.36 2823.27,4186.9C2919.91,4149.75 3008.6,4100.81 3093.18,4040.11C3093.4,4044.55 3093.99,4047.41 3093.62,4050.11C3091.29,4067.62 3089.62,4085.27 3086.1,4102.54C3078.58,4139.17 3071.02,4175.85 3055.1,4210.14C3047.33,4226.9 3041.48,4244.6 3032.97,4260.94C3023.26,4279.27 3012.58,4297.08 3000.97,4314.27C2988.31,4333.27 2975.19,4352.09 2960.77,4369.77C2946.27,4387.47 2930.8,4404.36 2914.43,4420.35C2882.41,4451.94 2846.89,4479.79 2808.57,4503.35C2796.26,4510.87 2783.7,4517.99 2771.26,4525.3L2769.3,4523.77Z" style="fill:rgb(139,255,178);fill-rule:nonzero;"/>
    </g>
    <g transform="matrix(0.301695,0,0,0.301695,-248.668,-353.322)">
        <path d="M2751.17,3704.67C2760.23,3698.35 2768.99,3693.11 2776.75,3686.67C2800.89,3666.6 2819.1,3643.14 2815.22,3609.25C2812.86,3588.64 2800.3,3573.79 2785.28,3560.72C2783.73,3559.37 2781.97,3558.26 2780.42,3556.92C2779.38,3555.78 2778.43,3554.56 2777.58,3553.27C2814.8,3536.64 2846.81,3514.08 2866.77,3474.93C2867.91,3479.4 2868.77,3481.5 2868.96,3483.67C2881.63,3603.5 2887.07,3723.57 2880.87,3844.03C2880.3,3855.13 2879.42,3866.25 2879.55,3877.35C2879.77,3896.49 2870.13,3912.02 2859.68,3926.11C2847.78,3942.11 2832.81,3955.92 2818.81,3970.34C2817.36,3971.82 2811.56,3971.99 2811,3970.98C2801.56,3954.1 2784.9,3947.14 2768.79,3939.36C2766.04,3938.03 2763.33,3936.65 2758.79,3934.36C2765.79,3931.05 2771.35,3928.7 2776.64,3925.85C2791.18,3918.01 2806.07,3910.29 2811.28,3892.85C2812.28,3889.58 2810.79,3885.63 2810.69,3881.98C2809.76,3850.87 2788.9,3837.26 2763.24,3827.82C2762.35,3827.34 2761.51,3826.78 2760.72,3826.16C2768.94,3821.39 2776.99,3817.16 2784.65,3812.21C2797.92,3803.71 2809.1,3792.36 2814.2,3777.72C2821.66,3756.3 2816.02,3741.53 2796.2,3725.21C2789.94,3720.06 2782.2,3716.45 2774.76,3713.04C2767.65,3709.82 2760,3707.75 2751.17,3704.67Z" style="fill:rgb(139,255,178);fill-rule:nonzero;"/>
    </g>
    <g transform="matrix(0.301695,0,0,0.301695,-248.668,-353.322)">
        <path d="M2277.15,2383.8C2295.3,2398.8 2313.68,2413.45 2331.55,2428.74C2360.68,2453.67 2389.5,2478.96 2418.35,2504.2C2420.35,2505.95 2422.55,2508.42 2422.99,2510.85C2426.21,2528.7 2429.32,2546.58 2431.84,2564.53C2433.71,2577.8 2436.84,2591.42 2435.52,2604.48C2432.34,2635.48 2427.43,2666.36 2410.44,2695.76C2405.63,2681.08 2401.16,2667.76 2396.9,2654.37C2389.3,2630.49 2383.03,2606.1 2374.03,2582.76C2361.77,2551.01 2348.35,2519.71 2333.78,2488.86C2321.54,2462.98 2307.29,2438.03 2293.34,2412.99C2288.09,2403.57 2281.2,2395.06 2275.06,2386.13C2275.75,2385.35 2276.45,2384.58 2277.15,2383.8Z" style="fill:rgb(69,123,255);fill-rule:nonzero;"/>
    </g>
    <g transform="matrix(0.301695,0,0,0.301695,-248.668,-353.322)">
        <path d="M2755.9,2368.34C2745.29,2352.45 2735.5,2335.92 2723.9,2320.8C2708.34,2300.54 2691.71,2281.08 2674.9,2261.8C2649.21,2232.33 2620.21,2205.93 2588.47,2183.11C2507.99,2125.06 2417.13,2094.11 2319.83,2080.11C2303.02,2077.69 2285.9,2077.37 2268.92,2076C2265.14,2075.7 2260.66,2076.16 2257.78,2074.3C2254.22,2071.99 2250.16,2067.84 2249.78,2064.1C2249.44,2061.04 2253.47,2055.61 2256.71,2054.43C2263.22,2052.13 2270.1,2051.06 2277,2051.27C2338.92,2053.27 2399.13,2064.97 2458,2084.05C2514.56,2102.46 2567.88,2129.65 2616,2164.62C2648.24,2187.93 2676.78,2215.52 2703.68,2245.03C2733.22,2277.43 2760.23,2311.59 2782.84,2349.03C2797.97,2374.08 2811.21,2400.27 2825.28,2425.96C2825.75,2426.89 2826.1,2427.88 2826.34,2428.9C2828.6,2437.46 2833.63,2446.63 2823.86,2453.59C2814.86,2460 2799.66,2457.11 2791.42,2448.45C2746.22,2400.94 2695.35,2360.52 2639.42,2326.3C2570.63,2284.21 2496.26,2255.92 2418.57,2235.58C2405.82,2232.24 2393.03,2228.98 2380.44,2225.1C2373.44,2222.92 2366.17,2219.71 2367.74,2210.16C2369.16,2201.56 2376.49,2199.46 2383.41,2199.4C2390.56,2199.4 2397.87,2200.89 2404.86,2202.72C2463.86,2218.16 2522.43,2235.02 2578.11,2260.6C2624.54,2281.93 2668.92,2306.74 2710.17,2336.98C2725.03,2347.87 2739.77,2358.92 2754.56,2369.9L2755.9,2368.34Z" style="fill-rule:nonzero;"/>
    </g>
    <g transform="matrix(0.301695,0,0,0.301695,-248.668,-353.322)">
        <path d="M2076.69,1814.31C2041.33,1814.39 2010.3,1803.31 1984.21,1778.95C1964.1,1760.15 1957.75,1725.19 1967.6,1700.75C1987.91,1650.35 2029.21,1632.19 2078.52,1625.75C2113.44,1621.22 2145.07,1630.82 2173.43,1651.23C2199.37,1669.89 2213.15,1710.35 2202.16,1737.82C2190.16,1767.91 2168.07,1788.75 2138.45,1801.5C2118.79,1810 2098.22,1814.64 2076.69,1814.31ZM2148.78,1672.16C2120.03,1734.08 2073.78,1762.55 2001.48,1747.54C2009.02,1755.91 2014.08,1763.3 2020.76,1768.65C2054.69,1795.78 2106.03,1788.6 2134.01,1770.27C2149.49,1760.13 2161.56,1747.17 2166.95,1729.89C2173.8,1708 2167.42,1688.53 2148.78,1672.16Z" style="fill-rule:nonzero;"/>
    </g>
    <g transform="matrix(0.301695,0,0,0.301695,-248.668,-353.322)">
        <path d="M2148.78,1672.16C2167.42,1688.53 2173.78,1707.95 2166.95,1729.89C2161.56,1747.17 2149.49,1760.13 2134.01,1770.27C2106.01,1788.6 2054.69,1795.78 2020.76,1768.65C2014.08,1763.3 2009.02,1755.91 2001.48,1747.54C2073.77,1762.55 2120,1734.08 2148.78,1672.16Z" style="fill:white;fill-rule:nonzero;"/>
    </g>
    <g transform="matrix(0.301695,0,0,0.301695,-248.668,-353.322)">
        <path d="M2389.71,1819.77L2383.02,1746.44C2382.02,1735.79 2374.29,1725.44 2362.52,1725.94C2352.25,1726.4 2340.98,1735 2342.02,1746.44L2348.71,1819.77C2349.71,1830.42 2357.45,1840.77 2369.21,1840.27C2379.48,1839.81 2390.76,1831.21 2389.71,1819.77Z" style="fill:rgb(243,255,139);fill-rule:nonzero;"/>
    </g>
    <g transform="matrix(0.301695,0,0,0.301695,-248.668,-353.322)">
        <path d="M2570.33,1805.83C2559.23,1806.33 2549.83,1814.83 2549.83,1826.33L2549.83,1933C2549.83,1943.72 2559.26,1954 2570.33,1953.5C2581.4,1953 2590.83,1944.5 2590.83,1933L2590.83,1826.33C2590.83,1815.61 2581.4,1805.34 2570.33,1805.83Z" style="fill:rgb(243,255,139);fill-rule:nonzero;"/>
    </g>
    <g transform="matrix(0.301695,0,0,0.301695,-248.668,-353.322)">
        <path d="M2490.33,1732.5C2479.23,1733 2469.83,1741.5 2469.83,1753L2469.83,1826.33C2469.83,1837.06 2479.26,1847.33 2490.33,1846.83C2501.4,1846.33 2510.83,1837.83 2510.83,1826.33L2510.83,1753C2510.83,1742.28 2501.4,1732 2490.33,1732.5Z" style="fill:rgb(243,255,139);fill-rule:nonzero;"/>
    </g>
    <g transform="matrix(0.301695,0,0,0.301695,-248.668,-353.322)">
        <path d="M2728.16,2021.32C2726.76,2015 2725.56,2008.63 2724.65,2002.22C2724.58,2001.59 2724.29,1999.22 2724.23,1998.62C2724.03,1996.72 2723.84,1994.83 2723.68,1992.93C2723.39,1989.46 2723.17,1985.93 2723.02,1982.49C2722.42,1968.22 2723.02,1953.92 2724.8,1939.75C2726.12,1929.06 2714.42,1918.75 2704.3,1919.25C2692.06,1919.8 2685.21,1928.25 2683.8,1939.75C2680.13,1970.62 2681.76,2001.9 2688.63,2032.22C2690.94,2042.7 2703.63,2049.82 2713.84,2046.54C2724.86,2043 2730.64,2032.55 2728.16,2021.32Z" style="fill:rgb(243,255,139);fill-rule:nonzero;"/>
    </g>
    <g transform="matrix(0.301695,0,0,0.301695,-248.668,-353.322)">
        <path d="M2577,1992.5C2565.89,1993 2556.5,2001.5 2556.5,2013L2556.5,2086.33C2556.5,2097.06 2565.93,2107.33 2577,2106.83C2588.07,2106.33 2597.5,2097.83 2597.5,2086.33L2597.5,2013C2597.5,2002.28 2588.07,1992 2577,1992.5Z" style="fill:rgb(243,255,139);fill-rule:nonzero;"/>
    </g>
    <g transform="matrix(0.301695,0,0,0.301695,-248.668,-353.322)">
        <path d="M2938.62,2220.11C2921.84,2179.69 2908.95,2137.76 2900.12,2094.89C2897.96,2084.37 2884.96,2077.32 2874.91,2080.58C2863.77,2084.18 2858.27,2094.52 2860.59,2105.79C2869.41,2148.66 2882.3,2190.59 2899.09,2231.01C2901.23,2236.17 2903.49,2240.32 2908.51,2243.26C2912.9,2245.83 2919.38,2246.92 2924.31,2245.33C2933.8,2242.26 2943,2230.71 2938.62,2220.11Z" style="fill:rgb(243,255,139);fill-rule:nonzero;"/>
    </g>
    <g transform="matrix(0.301695,0,0,0.301695,-248.668,-353.322)">
        <path d="M2837.33,2220.68C2831.66,2204.92 2827.01,2188.82 2823.4,2172.47C2821.64,2164.47 2820.14,2156.4 2818.89,2148.26C2818.8,2147.66 2818.34,2144.38 2818.24,2143.8C2818.07,2142.41 2817.89,2141.02 2817.73,2139.62C2817.22,2135.23 2816.8,2130.83 2816.43,2126.42C2815.54,2115.76 2807.64,2105.42 2795.93,2105.92C2785.59,2106.38 2774.48,2114.98 2775.43,2126.42C2778.27,2162.3 2785.79,2197.65 2797.8,2231.58C2801.41,2241.65 2811.93,2249.49 2823.01,2245.9C2832.93,2242.69 2841.21,2231.49 2837.33,2220.68Z" style="fill:rgb(243,255,139);fill-rule:nonzero;"/>
    </g>
    <g transform="matrix(0.301695,0,0,0.301695,-248.668,-353.322)">
        <path d="M2928.76,2468C2927.18,2463.46 2925.87,2458.84 2924.82,2454.15C2924.38,2452.15 2924.02,2450.15 2923.67,2448.09C2924.15,2450.72 2923.24,2444.41 2923.17,2443.58C2922.79,2438.79 2922.7,2433.98 2922.91,2429.18C2923.01,2426.77 2923.24,2424.39 2923.43,2421.99C2923.43,2421.75 2923.48,2421.54 2923.51,2421.34C2923.65,2420.4 2923.81,2419.46 2923.98,2418.53C2925.82,2408.01 2921.16,2395.93 2909.66,2393.31C2899.66,2391.04 2886.42,2396.31 2884.44,2407.63C2880.25,2431.51 2881.29,2455.85 2889.23,2478.9C2892.71,2489.02 2903.45,2496.78 2914.45,2493.22C2924.47,2490 2932.5,2478.88 2928.76,2468Z" style="fill:rgb(243,255,139);fill-rule:nonzero;"/>
    </g>
    <g transform="matrix(0.301695,0,0,0.301695,-248.668,-353.322)">
        <path d="M3063.67,2399.17C3052.56,2399.66 3043.17,2408.17 3043.17,2419.67L3043.17,2519.67C3043.17,2530.39 3052.6,2540.67 3063.67,2540.17C3074.74,2539.67 3084.17,2531.17 3084.17,2519.67L3084.17,2419.67C3084.17,2408.94 3074.74,2398.67 3063.67,2399.17Z" style="fill:rgb(243,255,139);fill-rule:nonzero;"/>
    </g>
    <g transform="matrix(0.301695,0,0,0.301695,-248.668,-353.322)">
        <path d="M2183.67,1459.17C2172.56,1459.66 2163.17,1468.17 2163.17,1479.67L2163.17,1526.33C2163.17,1537.06 2172.6,1547.33 2183.67,1546.83C2194.74,1546.33 2204.17,1537.83 2204.17,1526.33L2204.17,1479.67C2204.17,1468.94 2194.74,1458.67 2183.67,1459.17Z" style="fill:rgb(243,255,139);fill-rule:nonzero;"/>
    </g>
    <g transform="matrix(0.301695,0,0,0.301695,-248.668,-353.322)">
        <path d="M2336.45,1594.29C2334.78,1586.54 2333.34,1578.74 2332.24,1570.89C2332.16,1570.18 2331.82,1567.51 2331.8,1567.3C2331.58,1565.37 2331.38,1563.45 2331.19,1561.52C2330.79,1557.35 2330.46,1553.17 2330.19,1548.98C2329.26,1532.55 2329.56,1516.08 2331.07,1499.69C2332.07,1488.98 2320.94,1478.69 2310.57,1479.19C2298.63,1479.73 2291.12,1488.19 2290.07,1499.69C2286.99,1535 2289.28,1570.57 2296.88,1605.19C2299.14,1615.68 2311.97,1622.78 2322.09,1619.5C2333.19,1615.92 2338.87,1605.53 2336.45,1594.29Z" style="fill:rgb(243,255,139);fill-rule:nonzero;"/>
    </g>
    <g transform="matrix(0.301695,0,0,0.301695,-248.668,-353.322)">
        <path d="M2030.33,1312.5C2019.23,1313 2009.83,1321.5 2009.83,1333L2009.83,1439.67C2009.83,1450.39 2019.26,1460.67 2030.33,1460.17C2041.4,1459.67 2050.83,1451.17 2050.83,1439.67L2050.83,1333C2050.83,1322.28 2041.4,1312 2030.33,1312.5Z" style="fill:rgb(243,255,139);fill-rule:nonzero;"/>
    </g>
    <g transform="matrix(0.301695,0,0,0.301695,-248.668,-353.322)">
        <path d="M2123.67,1352.5C2112.56,1353 2103.17,1361.5 2103.17,1373L2103.17,1426.33C2103.17,1437.06 2112.6,1447.33 2123.67,1446.83C2134.74,1446.33 2144.17,1437.83 2144.17,1426.33L2144.17,1373C2144.17,1362.28 2134.74,1352 2123.67,1352.5Z" style="fill:rgb(243,255,139);fill-rule:nonzero;"/>
    </g>
</svg>
