<?xml version="1.0" encoding="UTF-8" standalone="no"?>
<!DOCTYPE svg PUBLIC "-//W3C//DTD SVG 1.1//EN" "http://www.w3.org/Graphics/SVG/1.1/DTD/svg11.dtd">
<svg width="100%" height="100%" viewBox="0 0 1024 1024" version="1.1" xmlns="http://www.w3.org/2000/svg" xmlns:xlink="http://www.w3.org/1999/xlink" xml:space="preserve" xmlns:serif="http://www.serif.com/" style="fill-rule:evenodd;clip-rule:evenodd;stroke-linejoin:round;stroke-miterlimit:2;">
    <g transform="matrix(2.32992,0,0,2.32992,-87.7247,-76.3559)">
        <g id="b">
            <g id="c">
                <g>
                    <path d="M303.84,209.69C303.53,210.5 303.78,211.05 304.52,211.54C317.43,220.33 326.17,232.73 333.87,245.94C342.27,260.36 347.79,275.95 351.84,292.09C353.22,297.6 354.64,303.11 355.35,308.76C355.8,312.33 355.99,315.87 354.04,319.14C353.81,319.52 353.76,319.9 353.95,320.31C354.6,321.65 354.22,322.99 353.96,324.33C352.61,331.35 349.52,337.39 343.94,342C339.92,345.32 335.38,347.41 330.07,347.39C323.88,347.37 318.77,344.89 314.78,340.22C311.78,336.71 309.99,332.58 309.19,328.04C309,326.94 308.78,326.16 307.55,325.79C306.17,325.38 305.2,324.27 304.27,323.09C303.77,323.81 303.95,324.43 303.95,325.01C303.93,346.11 303.49,367.21 304.15,388.31C304.33,394.2 304.1,400.09 303.87,405.98C303.83,406.88 303.82,407.83 303.28,408.55C302.51,409.59 302.51,410.7 302.65,411.87C303.04,415.13 303.43,418.39 303.81,421.63C304.62,421.89 304.84,421.24 305.18,420.89C308.98,417.13 312.76,413.36 316.55,409.59C317.18,408.96 317.85,408.37 318.68,408C320.24,407.3 321.8,407.55 322.85,408.65C323.91,409.75 324.09,411.3 323.34,412.84C322.97,413.59 322.41,414.19 321.81,414.76C319.89,416.6 317.97,418.45 315.9,420.43C316.44,420.69 316.88,420.56 317.29,420.46C321.96,419.38 326.7,418.68 331.41,417.8C332.21,417.65 333.05,417.6 333.86,417.65C335.46,417.75 336.73,418.89 337.05,420.39C337.4,422.01 336.68,423.57 335.18,424.36C334.45,424.75 333.64,424.92 332.83,425.06C328.6,425.8 324.36,426.54 320.12,427.28C320.27,427.92 320.83,427.84 321.26,427.97C324.09,428.82 326.8,429.96 329.37,431.4C338.84,436.73 344.18,444.93 346.13,455.5C346.88,459.59 346.76,463.69 346.46,467.79C346.26,470.56 345.14,471.46 342.37,471.99C340.17,472.41 338.01,472.16 335.83,472.07C327.27,471.73 318.72,471.4 310.16,471.08C301.6,470.77 293.05,470.48 284.54,469.46C279.64,468.87 274.8,467.99 269.99,466.87C267.78,466.36 267.03,465.44 266.8,463.19C266.28,458.14 266.29,453.06 266.46,448C266.81,437.94 267.1,427.87 267.93,417.83C267.96,417.42 267.96,417.01 268.01,416.6C268.09,415.92 267.77,415.64 267.13,415.49C266.06,415.25 265.01,414.95 263.96,414.63C261.42,413.83 260.59,412.51 260.89,409.86C260.96,409.25 260.95,408.63 260.96,408.02C260.97,382.67 260.98,357.32 260.99,331.97C260.99,330.383 260.22,329.46 258.68,329.2C258.34,329.14 258,328.99 257.67,329.01C256.51,329.09 255.23,329.03 254.3,329.67C253.46,330.25 253.96,331.46 253.96,332.37C253.94,357.58 253.96,382.79 253.97,408.01C253.97,408.83 254.04,409.65 254.08,410.47C254.16,412.46 253.38,413.72 251.48,414.41C250.39,414.81 249.26,415.12 248.13,415.36C247.14,415.57 246.83,416.03 246.91,417.06C247.2,420.82 247.45,424.58 247.61,428.34C248.07,438.6 248.71,448.87 248.33,459.15C248.28,460.52 248.31,461.89 248.09,463.25C247.71,465.56 247.06,466.38 244.84,466.89C239.97,468.02 235.05,468.91 230.09,469.5C221.58,470.51 213.02,470.78 204.46,471.1C195.29,471.45 186.12,471.82 176.95,472.25C175.15,472.34 173.4,472.13 171.65,471.89C169.92,471.65 168.76,470.41 168.53,468.56C166.46,451.9 172.9,434.14 193.87,427.92C194.2,427.82 194.53,427.76 194.9,427.32C192.18,426.84 189.56,426.37 186.94,425.91C185.19,425.6 183.43,425.32 181.68,424.99C181.08,424.88 180.47,424.71 179.92,424.46C178.37,423.77 177.52,422.2 177.78,420.63C178.07,418.91 179.38,417.73 181.17,417.61C182.83,417.5 184.43,417.96 186.05,418.25C190.02,418.96 193.98,419.76 197.95,420.51C198.21,420.56 198.49,420.54 198.78,420.55C198.81,419.84 198.2,419.64 197.85,419.29C196.23,417.71 194.58,416.16 192.94,414.61C192.23,413.94 191.63,413.2 191.33,412.27C190.9,410.94 191.03,409.69 192.04,408.64C193.04,407.61 194.26,407.36 195.62,407.76C196.71,408.08 197.54,408.78 198.33,409.56C202.02,413.23 205.71,416.9 209.41,420.57C209.84,420.99 210.28,421.4 210.7,421.8C211.06,421.48 211.13,421.15 211.17,420.81C211.5,418.09 211.82,415.37 212.13,412.65C212.3,411.09 212.42,409.61 211.45,408.13C210.75,407.06 210.96,405.61 210.91,404.31C210.54,393.76 210.84,383.21 211.01,372.66C211.28,356.35 210.82,340.05 210.89,323.74C210.89,323.61 210.85,323.47 210.83,323.32C210.17,323.09 210.12,323.78 209.79,324.03C209.19,324.48 208.69,325.22 208.03,325.4C206.19,325.91 205.85,327.23 205.5,328.85C204.39,334.06 202.09,338.68 198.08,342.29C191.64,348.08 182.67,349.05 174.97,344.72C167.97,340.79 163.63,334.77 161.57,327.06C161.15,325.48 160.4,323.83 160.68,322.25C161.05,320.19 160.44,318.48 159.81,316.63C158.79,313.63 159.18,310.52 159.69,307.47C161.27,298.07 163.67,288.87 166.5,279.78C171.39,264.07 178.05,249.19 187.45,235.61C190.42,231.33 193.61,227.22 197.05,223.3C200.86,218.96 205.05,215.03 209.87,211.82C211.09,211.01 211.07,210.99 211.16,209.56C210.52,209.51 210.26,210.06 209.87,210.38C202.68,216.36 194.36,219.52 185.09,220.19C181.29,220.46 177.56,219.87 174,218.52C164.93,215.07 160.18,206.89 160.9,196.82C161.33,190.86 163.18,185.3 165.99,180.04C166.31,179.45 166.8,178.93 166.88,178.17C166.37,177.84 165.85,178.08 165.35,178.14C157.78,179.08 150.44,178.28 143.49,175.02C136,171.51 130.54,166.05 128.35,157.9C126.22,149.99 127.48,142.36 131.28,135.22C136.63,125.17 145.16,119.25 156.17,116.73C159.18,116.04 162.24,115.81 165.3,115.61C165.47,114.9 164.92,114.72 164.63,114.41C157.87,107.19 155.43,98.54 156.38,88.86C156.95,83 158.74,77.49 161.75,72.39C163.22,69.9 164.97,67.63 167.05,65.61C174.37,58.52 184.34,56.75 193.64,60.88C195.69,61.79 197.59,62.99 199.84,64.35C199.76,63.14 199.69,62.23 199.63,61.32C199.26,55.21 200.46,49.46 203.6,44.18C208.52,35.88 217.66,31.62 227.22,33.06C237.49,34.6 245.51,39.99 252.17,47.69C253.88,49.66 255.32,51.83 256.56,54.13C256.81,54.6 256.92,55.18 257.51,55.51C258.02,55.07 258.2,54.41 258.53,53.85C264.28,44.04 272.44,37.22 283.4,33.96C288.79,32.35 294.23,32.3 299.55,34.28C307.2,37.13 311.71,42.87 314.08,50.47C315.37,54.58 315.61,58.8 315.17,63.07C315.14,63.4 314.99,63.72 315.19,64.08C316.01,64.1 316.52,63.46 317.14,63.08C320.99,60.73 325.07,59.03 329.62,58.75C337.99,58.23 344.68,61.6 349.98,67.89C355.02,73.89 357.61,80.95 358.52,88.67C359.21,94.57 358.45,100.28 356.07,105.75C354.72,108.86 352.86,111.63 350.56,114.12C350.2,114.51 349.82,114.89 349.15,115.59C350.8,115.7 352.06,115.75 353.32,115.88C362.9,116.87 371.39,120.29 378.06,127.44C384.95,134.82 388.26,143.57 387.33,153.72C386.67,160.92 383.3,166.72 377.66,171.19C372.01,175.67 365.45,177.82 358.33,178.39C354.91,178.66 351.49,178.53 348.06,177.97C347.94,178.74 348.44,179.17 348.7,179.67C352.07,185.99 354.24,192.62 354.02,199.88C353.72,209.73 347.42,217.32 337.8,219.5C331.38,220.96 325.15,220.14 319,218.11C313.75,216.37 308.92,213.85 304.75,210.16C304.5,209.94 304.28,209.65 303.86,209.68L303.84,209.69Z" style="fill:rgb(16,18,17);fill-rule:nonzero;"/>
                    <path d="M212.7,218.19C213.75,219.58 214.72,220.91 216.07,221.89C219.56,224.43 223.49,224.93 227.62,224.3C231.84,223.65 235.56,221.8 238.97,219.15C239.57,219.6 239.71,220.29 240.02,220.86C242.47,225.28 246.04,228.43 250.67,230.42C252.55,231.23 254.51,231.43 256.5,230.95C257.12,230.8 257.67,230.75 258.3,230.92C260.59,231.53 262.79,231.15 264.89,230.14C269.35,228.01 272.83,224.83 275.09,220.39C275.27,220.03 275.46,219.66 275.66,219.28C276.45,219.26 276.87,219.88 277.41,220.25C280.63,222.45 284.13,223.98 288.01,224.4C293.8,225.03 298.73,223.45 302.18,218.15C303.57,219.12 304.78,220.19 305.91,221.33C311.47,226.94 316.53,232.96 321.05,239.43C330.6,253.09 337.19,268.16 341.95,284.06C344.42,292.32 346.59,300.67 347.97,309.2C348.19,310.56 348.24,311.93 348.19,313.3C348.13,315.2 347.77,315.67 345.96,316.27C343.34,317.14 340.61,317.41 337.89,317.71C330.6,318.5 323.29,318.91 315.97,319.36C314.81,319.43 313.64,319.42 312.48,319.4C310.54,319.36 310.3,319.17 309.95,317.2C309.62,315.31 309.35,313.41 309.11,311.51C308.67,308.05 308.28,304.58 307.83,301.11C307.75,300.51 307.61,299.89 307.37,299.33C306.71,297.81 305.16,297.01 303.5,297.25C301.99,297.47 300.72,298.67 300.53,300.24C300.42,301.11 300.49,302.02 300.6,302.9C301.06,306.64 301.56,310.37 302.04,314.1C302.28,315.95 302.29,316 300.44,316.33C290.8,318.02 281.27,320.29 271.58,321.7C268.88,322.09 266.13,322.24 263.41,322.48C262.51,322.56 261.64,322.32 260.77,322.13C258.96,321.73 257.14,321.33 255.3,321.9C252.4,322.8 249.46,322.37 246.54,322.09C241.36,321.6 236.25,320.57 231.15,319.55C225.45,318.41 219.73,317.35 214.02,316.24C212.6,315.96 212.61,315.94 212.78,314.57C213.29,310.43 213.79,306.28 214.29,302.14C214.34,301.73 214.42,301.32 214.41,300.92C214.33,298.93 213.02,297.44 211.21,297.24C209.24,297.02 207.57,298.17 207.19,300.23C206.81,302.31 206.64,304.44 206.36,306.54C205.92,309.87 205.48,313.19 205.03,316.51C204.99,316.78 204.92,317.05 204.86,317.31C204.42,319.21 204.3,319.35 202.43,319.38C200.92,319.4 199.41,319.39 197.91,319.3C191.28,318.87 184.65,318.51 178.04,317.81C175.32,317.52 172.59,317.23 169.93,316.58C166.99,315.86 166.46,315.19 166.61,312.14C166.76,308.92 167.42,305.76 168.11,302.62C171.21,288.62 175.26,274.94 181.15,261.82C187.55,247.56 196.16,234.79 206.86,223.43C208.64,221.54 210.45,219.69 212.66,218.2L212.7,218.19Z" style="fill:rgb(247,183,155);fill-rule:nonzero;"/>
                    <path d="M274.69,191.83C270.16,191.75 265.66,191.4 261.21,190.56C260.19,190.37 259.19,190.2 258.19,190.63C257.95,190.73 257.62,190.87 257.41,190.8C254.22,189.68 251.2,191.14 248.11,191.42C236.95,192.42 226.04,191.7 215.84,186.6C203.27,180.33 196.28,170.08 194.79,156.1C193.79,146.67 195.72,137.7 199.23,129.02C204.12,116.95 211.64,106.68 220.94,97.67C230.98,87.93 242.48,80.38 255.37,74.96C256.6,74.44 257.71,74.18 259.08,74.76C280.29,83.76 297.46,97.59 309.72,117.23C314.62,125.08 318.12,133.54 319.63,142.72C321.1,151.62 320.65,160.35 316.84,168.67C312.44,178.27 304.95,184.54 295.22,188.3C288.62,190.85 281.72,191.76 274.69,191.82L274.69,191.83Z" style="fill:rgb(244,244,154);fill-rule:nonzero;"/>
                    <path d="M214.22,194.29C211.56,197.74 209.01,201.33 205.72,204.25C199.78,209.54 192.7,212.21 184.83,212.85C182.77,213.02 180.73,212.76 178.72,212.27C172.13,210.66 168.44,206.12 168.24,199.34C168.17,196.86 168.53,194.42 169.19,192.03C170.74,186.44 173.1,181.23 176.68,176.61C177.56,175.47 178.49,174.37 179.32,173.2C180.36,171.75 180.36,170.22 179.4,169.03C178.44,167.83 177.02,167.67 175.31,168.23C166.72,171.05 158.05,172.52 149.19,169.41C147.44,168.8 145.76,168.03 144.18,167.06C136.82,162.54 133.79,155.76 135.05,147.29C136.76,135.8 145.02,127.03 156.76,124.22C163.28,122.66 169.88,122.07 176.47,123.92C178.84,124.59 180.84,122.95 181.02,120.83C181.27,117.88 180.89,116.79 178.22,115.35C175.56,113.91 173.04,112.28 170.84,110.19C166.63,106.2 164.23,101.28 163.73,95.55C163.04,87.54 165.06,80.2 169.79,73.67C170.51,72.68 171.35,71.76 172.23,70.9C177.26,65.99 184,64.77 190.44,67.56C193.48,68.88 196.18,70.76 198.7,72.89C200.58,74.48 202.41,76.14 204.27,77.76C204.73,78.16 205.19,78.59 205.7,78.92C207.33,80 209.11,79.87 210.41,78.62C211.63,77.45 211.92,75.72 210.95,74.1C209.79,72.14 208.86,70.1 208.24,67.92C206.73,62.68 206.32,57.4 208.06,52.14C210.18,45.72 214.32,41.43 221.24,40.4C225.13,39.82 228.92,40.52 232.49,42.05C242.16,46.2 248.84,53.3 252.82,63C253.29,64.14 253.58,65.34 253.72,66.57C253.81,67.38 253.54,67.83 252.79,68.12C251.39,68.67 250,69.26 248.64,69.9C228.18,79.51 211.5,93.49 199.37,112.67C193.79,121.49 189.84,131 188.07,141.33C186.63,149.69 186.8,157.99 189.32,166.14C193.06,178.22 200.72,187.02 211.91,192.82C212.58,193.17 213.25,193.5 213.91,193.85C214.02,193.91 214.08,194.06 214.23,194.24L214.22,194.29Z" style="fill:rgb(253,213,207);fill-rule:nonzero;"/>
                    <path d="M300.69,194.23C301.22,193.58 301.92,193.44 302.52,193.13C316.98,185.65 325.32,173.87 327.33,157.7C328.61,147.33 326.75,137.37 323.06,127.71C318.47,115.71 311.39,105.28 302.59,95.98C291.28,84.03 278.02,74.86 262.87,68.45C260.96,67.64 260.97,67.64 261.35,65.62C261.6,64.26 262.03,62.97 262.61,61.72C266.95,52.39 273.65,45.48 283.35,41.73C286.65,40.45 290.11,39.9 293.64,40.42C300.38,41.41 304.6,45.48 306.69,51.75C309.17,59.18 307.99,66.33 304.49,73.2C304.24,73.69 303.9,74.13 303.69,74.63C303.07,76.13 303.43,77.74 304.61,78.75C305.82,79.79 307.21,79.98 308.63,79.27C309.29,78.94 309.88,78.44 310.45,77.95C312.69,76.03 314.87,74.06 317.13,72.17C319.34,70.32 321.76,68.76 324.41,67.6C330.86,64.78 337.57,65.97 342.64,70.86C346.98,75.05 349.35,80.3 350.62,86.1C351.59,90.51 351.68,94.93 350.52,99.33C348.74,106.09 344.45,110.85 338.55,114.32C337.61,114.87 336.6,115.34 335.7,115.95C333.59,117.39 333.04,120.62 334.54,122.7C335.56,124.1 336.96,124.35 338.57,123.88C342.1,122.85 345.72,122.69 349.36,122.93C355,123.3 360.54,124.22 365.54,127.05C374.11,131.9 379.21,139.13 380.03,149.06C380.63,156.26 377.95,162.05 372,166.23C367.8,169.18 363.06,170.63 357.99,171.01C352.88,171.39 347.87,170.87 343.02,169.14C341.61,168.64 340.13,168.48 338.7,167.97C336.47,167.18 334.32,169.51 334.92,171.83C335.19,172.87 335.88,173.63 336.55,174.41C340.46,179.01 343.28,184.22 345.14,189.95C346.1,192.9 346.69,195.9 346.65,199.02C346.55,206.42 342.21,211.4 334.9,212.55C331.6,213.07 328.35,212.86 325.11,212.14C317.39,210.41 310.79,206.81 305.72,200.61C304,198.51 302.25,196.42 300.7,194.21L300.69,194.23Z" style="fill:rgb(253,213,207);fill-rule:nonzero;"/>
                    <path d="M217.81,324.2C220.88,324.87 223.67,325.5 226.48,326.08C232.71,327.38 238.94,328.69 245.29,329.33C246.23,329.42 246.67,329.77 246.57,330.73C246.53,331.14 246.57,331.55 246.57,331.96C246.57,356.49 246.59,381.01 246.59,405.54L246.59,406.57C246.57,408.21 246.54,408.14 245.02,408.63C239.53,410.39 234.07,409.83 228.6,408.53C225.74,407.85 222.86,407.22 220.09,406.21C218.36,405.58 218.38,405.58 218.31,403.78C217.99,394.81 218.18,385.83 218.35,376.86C218.61,363.29 218.5,349.73 218.28,336.17C218.22,332.61 217.97,329.05 217.8,325.5C217.78,325.17 217.8,324.83 217.8,324.21L217.81,324.2Z" style="fill:rgb(253,200,189);fill-rule:nonzero;"/>
                    <path d="M297.13,324.27C296.98,327.59 296.89,330.73 296.69,333.86C296.46,337.49 296.49,341.12 296.46,344.75C296.36,358.31 296.31,371.88 296.71,385.44C296.89,391.6 296.85,397.77 296.55,403.93C296.47,405.61 296.48,405.63 294.84,406.2C289.65,408.01 284.28,409.1 278.84,409.78C275.52,410.2 272.33,409.18 269.13,408.42C268.59,408.29 268.32,407.98 268.35,407.4C268.38,406.92 268.35,406.44 268.35,405.96C268.35,381.23 268.37,356.5 268.37,331.77C268.37,331.36 268.39,330.95 268.37,330.54C268.32,329.78 268.64,329.45 269.42,329.36C278.41,328.35 287.24,326.44 296.04,324.39C296.3,324.33 296.58,324.33 297.12,324.28L297.13,324.27Z" style="fill:rgb(253,200,189);fill-rule:nonzero;"/>
                    <path d="M295.84,413.17C296.02,415.1 296.26,416.79 296.33,418.49C296.5,422.8 297.17,427.05 297.67,431.33C297.78,432.29 298.08,433.21 298.63,434.01C299.65,435.51 301.39,436.13 302.93,435.27C305.9,433.61 309.1,433.53 312.31,433.8C317.99,434.28 323.28,436.02 328.01,439.28C332.62,442.45 335.8,446.69 337.62,451.98C338.88,455.65 339.42,459.41 339.24,463.28C339.17,464.89 339.14,464.99 337.62,464.89C330.79,464.45 323.96,464.3 317.13,464.01C314.67,463.91 312.21,463.78 309.75,463.73C303.73,463.61 297.73,463.25 291.73,462.82C286.49,462.45 281.27,461.79 276.04,461.23C273.98,461.01 273.87,460.9 273.86,458.86C273.84,454.68 273.7,450.5 273.89,446.33C274.32,437.17 274.67,428.02 274.65,418.85C274.65,417.28 274.69,417.22 276.04,417.25C282.15,417.36 287.93,415.72 293.67,413.89C294.31,413.69 294.95,413.47 295.84,413.17Z" style="fill:rgb(137,98,73);fill-rule:nonzero;"/>
                    <path d="M240.94,450.43C240.94,452.92 240.96,456.14 240.94,459.36C240.93,460.82 240.77,461.02 239.33,461.18C235.26,461.64 231.18,462.09 227.1,462.45C218.03,463.27 208.94,463.58 199.84,463.83C193.35,464.01 186.86,464.45 180.36,464.6C179.2,464.63 178.04,464.79 176.89,464.89C176.09,464.96 175.6,464.73 175.58,463.79C175.27,452.78 179.64,441.52 192.39,436.27C196.4,434.62 200.6,433.68 204.97,433.71C207.39,433.73 209.72,434.09 211.91,435.22C213.59,436.08 215.34,435.52 216.34,433.92C216.74,433.28 217.02,432.59 217.12,431.82C217.6,428.37 218.07,424.92 218.36,421.44C218.55,419.12 218.73,416.81 218.81,414.48C218.85,413.28 219.03,413.18 220.2,413.55C223.98,414.75 227.76,415.95 231.69,416.6C233.99,416.98 236.27,417.33 238.62,417.26C240.1,417.21 240.12,417.28 240.17,418.72C240.28,422.21 240.45,425.7 240.44,429.18C240.42,436.03 241.12,442.86 240.96,450.44L240.94,450.43Z" style="fill:rgb(137,98,73);fill-rule:nonzero;"/>
                    <path d="M244.8,211.9C244.82,211.63 244.85,211.35 244.85,211.08C244.83,209.6 244.31,208.35 242.88,207.75C241.49,207.16 240.2,207.47 239.13,208.59C237.9,209.87 236.71,211.2 235.4,212.41C232.29,215.29 228.71,217.16 224.35,217.11C220.44,217.07 218.31,214.89 218.63,211C219.04,206.03 221.3,201.87 224.74,198.31C225.31,197.72 225.9,197.71 226.61,197.87C232.75,199.18 238.98,199.34 245.21,198.97C249.17,198.74 253.13,198.38 256.96,197.25C257.3,197.15 257.59,197.17 257.94,197.25C267.87,199.61 277.87,199.74 287.89,197.94C289.16,197.71 289.93,198 290.74,198.9C293.7,202.2 295.59,206.02 296.27,210.39C296.9,214.44 294.64,217.06 290.55,217.11C286.19,217.16 282.61,215.3 279.5,212.42C278.25,211.26 277.09,209.99 275.92,208.74C274.82,207.57 273.51,207.13 272.02,207.76C270.52,208.4 269.96,209.71 270.08,211.29C270.52,216.69 267.46,220.04 263.28,222.57C261.6,223.59 259.52,223.92 257.54,223.89C252.41,223.82 248.53,221.44 245.93,217.05C245,215.49 244.68,213.73 244.79,211.91L244.8,211.9Z" style="fill:rgb(247,228,218);fill-rule:nonzero;"/>
                    <path d="M168.56,323.89C178.72,325.71 188.83,326.02 199.17,326.77C198.36,330.04 196.99,332.8 194.89,335.17C189.84,340.86 182.89,341.59 176.7,337.15C172.39,334.06 169.24,329 168.56,323.88L168.56,323.89Z" style="fill:rgb(249,249,178);fill-rule:nonzero;"/>
                    <path d="M315.82,326.76C326.1,326.02 336.22,325.69 346.4,323.88C346.27,325.3 345.83,326.48 345.39,327.66C343.71,332.19 340.79,335.73 336.62,338.16C331.48,341.16 325.87,340.54 321.42,336.59C318.69,334.17 316.66,330.67 315.82,326.76Z" style="fill:rgb(249,249,178);fill-rule:nonzero;"/>
                    <path d="M297.76,164.92C295.95,164.44 294.23,164.26 292.65,163.59C292.02,163.33 291.62,163.62 291.21,164.03C290.73,164.52 290.26,165.02 289.71,165.43C289.15,165.84 288.53,165.81 288.06,165.25C287.65,164.77 287.74,164.25 288.07,163.74C288.44,163.17 289.1,162.84 289.39,162.11C287.97,161.17 286.72,160.01 285.49,158.75C284.65,159.29 283.85,159.81 283.03,160.31C282.39,160.69 281.69,160.83 281.2,160.14C280.63,159.35 280.98,158.55 281.73,158.26C284.14,157.34 284.09,155.75 283.21,153.79C283.04,153.42 283.01,152.99 282.9,152.6C282.86,152.48 282.75,152.39 282.61,152.22C281.66,152.47 280.69,152.76 279.7,152.97C278.99,153.12 278.27,153.03 278.02,152.2C277.78,151.37 278.32,150.86 279.02,150.65C280.57,150.18 282.08,149.61 283.8,149.86C284.92,150.02 285.36,150.52 285.56,151.48C285.6,151.68 285.64,151.88 285.66,152.09C286.05,155.76 288.17,158.24 291.25,159.97C295.18,162.18 299.4,162.65 303.78,161.79C307.04,161.15 310.05,159.87 312.72,157.85C313.15,157.52 313.61,157.19 314.11,157.01C314.86,156.74 315.67,157.18 315.6,157.91C315.44,159.59 316.37,160.91 316.81,162.39C316.91,162.72 317.03,163.04 317.15,163.36C317.44,164.19 317.31,164.9 316.43,165.2C315.62,165.48 315.13,164.93 314.85,164.25C314.37,163.06 313.93,161.86 313.43,160.54C312.44,161.1 311.57,161.61 310.67,162.08C310.1,162.38 309.96,162.83 309.98,163.43C310,164.39 309.99,165.35 309.94,166.31C309.9,167.08 309.5,167.66 308.68,167.65C307.85,167.64 307.51,167.04 307.5,166.26C307.49,165.44 307.5,164.63 307.5,163.66C305.25,164.05 303.2,164.81 301.03,164.88C300.43,164.9 300.28,165.38 300.11,165.84C299.85,166.55 299.61,167.26 299.29,167.94C298.96,168.63 298.4,169.02 297.63,168.66C296.98,168.36 296.8,167.77 297.01,167.1C297.21,166.45 297.46,165.81 297.77,164.93L297.76,164.92Z" style="fill:rgb(17,19,18);fill-rule:nonzero;"/>
                    <path d="M207.43,163.49C207.43,164.63 207.47,165.44 207.42,166.24C207.38,166.98 207.07,167.62 206.22,167.63C205.37,167.63 205.08,167.01 204.98,166.27C204.96,166.13 204.94,165.99 204.96,165.86C205.37,163.19 204.36,161.39 201.5,160.68C200.91,161.17 200.97,162.14 200.59,162.9C200.38,163.33 200.26,163.8 200.06,164.23C199.75,164.9 199.26,165.44 198.46,165.17C197.53,164.87 197.53,164.06 197.76,163.3C198.01,162.45 198.38,161.63 198.66,160.79C198.95,159.9 199.4,159.08 199.32,158.04C199.25,157.04 200.09,156.59 201.02,157.05C201.75,157.41 202.37,157.98 203.06,158.42C209.08,162.23 215.45,163.44 222.21,160.64C225.95,159.09 228.57,156.45 229.26,152.24C229.64,149.91 229.91,149.67 232.31,149.73C233.6,149.76 234.85,150.22 236.06,150.7C236.7,150.95 237.04,151.46 236.84,152.18C236.64,152.94 236,153.07 235.37,152.96C234.31,152.76 233.26,152.45 232.25,152.19C231.74,152.67 231.96,153.3 231.72,153.77C230.72,155.75 230.81,157.29 233.17,158.23C233.93,158.53 234.25,159.34 233.69,160.12C233.2,160.8 232.4,160.78 231.88,160.27C230.09,158.51 228.67,158.94 227.26,160.75C226.81,161.32 226.09,161.68 225.44,162.18C225.93,162.73 226.44,163.19 226.82,163.74C227.2,164.29 227.22,164.92 226.67,165.41C226.19,165.84 225.66,165.74 225.16,165.41C224.99,165.3 224.79,165.18 224.69,165.02C223.64,163.4 222.29,163.37 220.63,164.06C219.58,164.5 218.4,164.63 217.2,164.92C217.46,165.77 217.74,166.52 217.92,167.3C218.05,167.87 217.88,168.39 217.27,168.65C216.58,168.94 216.03,168.68 215.72,168.08C215.35,167.35 215.08,166.57 214.81,165.8C214.61,165.25 214.38,164.86 213.69,164.82C211.64,164.72 209.66,164.18 207.44,163.49L207.43,163.49Z" style="fill:rgb(17,19,18);fill-rule:nonzero;"/>
                    <path d="M257.84,163.63C254.95,163.61 252.8,162.99 250.98,161.54C248.06,159.21 248.6,155.9 252.07,154.51C254.03,153.73 260.76,153.71 262.76,154.48C264.31,155.08 265.53,156.02 265.76,157.79C265.98,159.48 265.07,160.67 263.82,161.62C261.9,163.08 259.69,163.68 257.85,163.63L257.84,163.63Z" style="fill:rgb(16,18,17);fill-rule:nonzero;"/>
                    <path d="M257.38,178.18C253.15,178.26 249.12,177.29 245.22,175.69C244.65,175.46 244.06,175.27 243.67,174.74C243.27,174.2 243.13,173.6 243.51,173.03C243.84,172.53 244.39,172.39 244.96,172.54C245.35,172.64 245.74,172.79 246.11,172.96C253.65,176.31 261.2,176.33 268.75,172.98C269.18,172.79 269.64,172.6 270.1,172.51C270.68,172.4 271.18,172.6 271.48,173.15C271.75,173.63 271.62,174.07 271.39,174.51C271.04,175.17 270.39,175.4 269.75,175.66C265.79,177.29 261.7,178.27 257.38,178.17L257.38,178.18Z" style="fill:rgb(18,19,18);fill-rule:nonzero;"/>
                </g>
            </g>
        </g>
    </g>
</svg>
