<?xml version="1.0" encoding="UTF-8" standalone="no"?>
<!DOCTYPE svg PUBLIC "-//W3C//DTD SVG 1.1//EN" "http://www.w3.org/Graphics/SVG/1.1/DTD/svg11.dtd">
<svg width="100%" height="100%" viewBox="0 0 1024 1024" version="1.1" xmlns="http://www.w3.org/2000/svg" xmlns:xlink="http://www.w3.org/1999/xlink" xml:space="preserve" xmlns:serif="http://www.serif.com/" style="fill-rule:evenodd;clip-rule:evenodd;stroke-linejoin:round;stroke-miterlimit:2;">
    <g transform="matrix(1,0,0,1,-2033.05,-2114.92)">
        <g transform="matrix(0.415134,0,0,0.415134,1488.64,1527.06)">
            <path d="M3068.66,3710C3091.57,3717 3112.86,3723.21 3133.93,3730.08C3164.09,3739.92 3192.75,3753.08 3216.68,3774.28C3228.6,3784.82 3239.29,3797.28 3240.34,3814.73C3241.91,3840.91 3225.51,3855.56 3205.27,3866.51C3172.21,3884.4 3136.19,3885.85 3100.56,3878.81C3050.29,3868.87 3000.45,3856.58 2950.66,3844.37C2928.66,3838.98 2907.18,3831.6 2885.66,3824.61C2858.9,3815.94 2838.57,3797.51 2818.66,3778.79C2813.52,3773.96 2809.66,3767.74 2803.66,3760.18C2791.35,3761.37 2776,3762.98 2760.66,3764.34C2665.76,3772.7 2570.33,3773.11 2475.37,3765.54C2427.96,3761.8 2380.71,3755.99 2333.43,3750.79C2325.64,3749.94 2320.08,3750.18 2313.51,3756.64C2278.11,3791.47 2234.09,3809.37 2185.82,3817.18C2121.43,3827.61 2056.71,3835.31 1991.34,3834.31C1960.97,3833.85 1930.76,3830.75 1901.92,3820.11C1887.4,3814.76 1874.05,3807.74 1864.72,3794.45C1853.16,3778.01 1860.39,3766.45 1870.54,3755.65C1889.37,3735.59 1914.54,3726.45 1940.22,3720.39C1972.31,3712.81 2005.05,3707.95 2037.51,3701.95C2041.09,3701.29 2044.72,3700.95 2048.33,3698.56C2026.56,3692.56 2004.72,3686.86 1983.04,3680.56C1909.04,3659.05 1837.04,3632.48 1768.4,3597.33C1722.39,3573.95 1678.76,3546.16 1638.13,3514.33C1603.38,3486.94 1570.84,3457.05 1541.31,3423.76C1515.09,3394.2 1491.31,3363.29 1470.86,3329.4C1454.29,3301.88 1440.34,3273.47 1431.39,3242.64C1423.12,3214.16 1415.29,3185.72 1409.58,3156.43C1401.18,3113.31 1404.78,3070.65 1407.35,3027.82C1409.25,2996.27 1412.22,2964.67 1417.05,2933.44C1422.59,2897.58 1430.13,2861.99 1437.9,2826.53C1443.08,2802.93 1449.64,2779.6 1456.57,2756.45C1463.97,2731.72 1472.83,2707.45 1480.49,2682.77C1485.87,2665.44 1490.99,2647.97 1495.01,2630.28C1503.25,2593.91 1511.51,2557.51 1518.14,2520.84C1522.39,2497.33 1523.47,2473.27 1526.5,2449.52C1527.83,2439.03 1532.71,2428.59 1532.12,2418.35C1529.99,2381.43 1525.72,2344.64 1523.25,2307.73C1521.33,2279.2 1521.96,2250.67 1532.25,2223.33C1539.31,2204.57 1544.91,2185.06 1553.95,2167.33C1565.14,2145.33 1578.44,2124.33 1592.27,2103.91C1605.74,2083.99 1620.33,2064.71 1635.7,2046.21C1653.22,2025.12 1671.7,2004.76 1690.61,1984.91C1707.7,1966.99 1725.97,1950.18 1743.61,1932.83C1745.04,1931.19 1746.34,1929.45 1747.52,1927.63C1718.21,1920.63 1694.45,1908.37 1681.52,1879.22C1669.04,1851.15 1674.2,1824.68 1684.06,1797.22C1668.97,1793.82 1654.56,1791.22 1640.54,1787.16C1633.54,1785.16 1626.74,1781.28 1620.66,1777.08C1613.21,1771.95 1612.72,1761.08 1618.75,1754.61C1620.36,1752.88 1622.31,1751.45 1623.96,1749.74C1637.4,1735.8 1637.18,1735.54 1620.72,1723.67C1614.17,1718.95 1607.59,1713.79 1602.53,1707.59C1591.04,1693.49 1591.53,1686.53 1603.08,1671.9C1605.18,1669.25 1607.5,1666.77 1610.08,1663.83C1606.83,1662.9 1603.69,1662 1600.55,1661.12C1586.03,1657.05 1580.61,1645.62 1588.47,1632.76C1597.63,1617.76 1607.88,1603.43 1618.12,1589.13C1626.4,1577.56 1635.7,1566.71 1643.96,1555.13C1668.18,1521.21 1700.75,1498.74 1739.33,1484.19C1820.72,1453.49 1903.33,1455.3 1986.46,1475.29C2037.27,1487.48 2085.86,1507.55 2130.46,1534.78C2161.72,1553.78 2190.06,1576.66 2217.15,1601.17C2219.54,1603.33 2224.5,1604.29 2227.76,1603.56C2267.11,1594.71 2301.65,1575.02 2336.57,1555.78C2370.09,1537.32 2404.72,1520.87 2438.93,1503.7C2442.08,1502.3 2445.41,1501.37 2448.82,1500.94C2466.15,1497.94 2473.67,1506.68 2468.41,1523.48C2466.86,1528.41 2465.56,1533.48 2463.67,1538.24C2461.97,1542.52 2459.61,1546.54 2457.67,1550.43L2618.31,1550.43C2624.07,1523.03 2634.99,1516.86 2657.78,1526.78C2664.71,1529.72 2671.14,1533.73 2676.84,1538.65C2688.52,1549.04 2699.11,1560.65 2710.72,1571.14C2715.11,1575.14 2720.72,1578.9 2726.37,1580.14C2747.12,1584.75 2768.12,1588.25 2788.58,1592.14C2813.69,1523.08 2862.31,1478.53 2925.21,1447.49C2972.87,1423.97 3023.38,1413.79 3076.27,1416.49C3133.08,1419.4 3184.84,1437.34 3228.06,1474.94C3253.46,1496.87 3272.75,1525 3284.06,1556.59C3295.78,1588.97 3303.55,1621.64 3298.67,1655.92C3295.13,1680.82 3287.87,1704.61 3274.52,1726.77C3262.74,1746.3 3249.61,1764.5 3232.29,1778.83C3217.46,1791.1 3200.29,1800.6 3184.2,1811.3C3182.01,1812.75 3179.7,1814.04 3177.01,1815.66C3193.32,1823 3209.01,1829.66 3224.3,1837.01C3267.21,1857.5 3307.2,1883.61 3343.23,1914.64C3367.23,1935.27 3389.44,1957.93 3414,1977.76C3435.5,1995.12 3450.48,2017.76 3468.1,2038.24C3477.64,2049.33 3483.82,2063.49 3490.63,2076.72C3500.21,2095.35 3510.44,2113.86 3517.63,2133.44C3524.82,2153.02 3528.63,2173.66 3533.77,2193.87C3540.76,2220.54 3542.46,2248.33 3538.77,2275.65C3537.63,2284.02 3535.02,2292.25 3532.43,2300.34C3525.08,2323.27 3527.21,2346.29 3531.43,2369.34C3535.67,2392.62 3539.6,2416.01 3544.99,2439.04C3551.06,2464.98 3557.9,2490.79 3565.73,2516.26C3574.1,2543.49 3583.86,2570.26 3593.32,2597.19C3603.95,2627.42 3614.32,2657.77 3625.9,2687.63C3636.28,2714.4 3647.45,2740.92 3659.56,2766.94C3676.39,2803.11 3682.18,2841.24 3683.8,2880.62C3686.64,2946.81 3685.01,3013.11 3678.94,3079.08C3676.73,3102.64 3673.17,3126.15 3668.67,3149.38C3663.08,3178.18 3657.52,3207.18 3648.98,3235.18C3637.08,3274.18 3623.7,3312.84 3608.49,3350.66C3598.16,3376.32 3584.82,3400.99 3570.65,3424.82C3550.72,3458.34 3529.42,3491.2 3499.65,3517.23C3495.72,3520.66 3489.97,3521.91 3485.5,3524.83C3477.86,3529.83 3470.3,3534.99 3463.16,3540.65C3430.29,3566.65 3394.39,3587.78 3356.84,3606.09C3266.08,3650.36 3170.42,3681.09 3073.42,3708.09C3072.32,3708.3 3071.43,3708.82 3068.66,3710ZM1643.43,1765.49C1647.64,1766.89 1650.67,1768.25 1653.84,1768.89C1668.35,1771.81 1683,1774.11 1697.4,1777.47C1708.23,1780.01 1712.03,1788.16 1709.21,1798.8C1706.73,1808.12 1704.27,1817.52 1702.88,1827.04C1696.35,1871.77 1712.55,1901.48 1758.66,1906.72C1766.14,1907.64 1773.49,1909.37 1780.59,1911.88C1783.59,1912.88 1787.27,1916.42 1787.66,1919.21C1788.06,1922.15 1785.66,1926.35 1783.19,1928.67C1760.84,1949.87 1737.6,1970.17 1715.88,1991.98C1699.83,2008.1 1685.22,2025.72 1670.73,2043.3C1651.79,2066.3 1632.73,2089.3 1615.37,2113.4C1603.01,2130.77 1592.04,2149.09 1582.56,2168.19C1572.59,2187.81 1564.13,2208.16 1557.26,2229.07C1549.02,2254.64 1550.35,2281.52 1551.56,2308.07C1552.96,2338.65 1555.56,2369.25 1555.33,2399.82C1554.95,2445.5 1553.56,2491.26 1542.7,2536.03C1540.39,2545.56 1536.86,2554.83 1534.91,2564.42C1532.13,2578.04 1531.22,2592.08 1527.84,2605.52C1521.84,2629.59 1514.61,2653.39 1507.69,2677.25C1497.41,2712.66 1486.61,2747.93 1476.69,2783.44C1469.97,2807.39 1463.69,2831.5 1458.41,2855.82C1452.85,2881.6 1448.83,2907.72 1444.02,2933.67C1442.28,2943.07 1440.02,2952.37 1438.44,2961.79C1437.95,2964.66 1438.92,2967.79 1439.1,2970.79C1439.41,2976.04 1439.96,2981.3 1439.81,2986.54C1439.55,2995.4 1438.06,3004.27 1438.43,3013.08C1439.55,3040.08 1442.72,3067.17 1442.5,3094.19C1442.17,3136.13 1440.65,3177.75 1451.63,3219.07C1458.69,3245.63 1467.81,3271.07 1481.32,3294.69C1496.12,3320.59 1510.55,3347.05 1528.49,3370.69C1553.25,3403.36 1581.55,3433.12 1611.99,3460.98C1650.53,3496.19 1692.52,3527.43 1737.31,3554.23C1795.31,3589.1 1857.25,3616.05 1921.19,3638.14C2022.91,3673.3 2127.55,3696.79 2233.57,3714.42C2322.7,3729.24 2412.28,3740.23 2502.51,3746.11C2624.44,3754.16 2746.89,3748.75 2867.64,3730C2978.38,3712.78 3086.64,3685.06 3192.64,3648.7C3274.25,3620.7 3353.95,3588.7 3425.92,3540.13C3447.68,3525.43 3469.25,3510.44 3485.19,3488.92C3487.57,3485.71 3491.11,3480.97 3494.05,3481.01C3507.83,3481.23 3512.99,3470.22 3518.23,3461.74C3536.42,3432.34 3554.73,3402.81 3569.96,3371.84C3584.9,3341.48 3597.22,3309.68 3608.64,3277.78C3617.38,3253.39 3623.76,3228.06 3629.64,3202.78C3636.64,3172.85 3643.21,3142.72 3647.64,3112.33C3652.54,3079.01 3656.43,3045.38 3657.87,3011.75C3660.1,2959.85 3662.02,2907.86 3654.59,2855.99C3651.02,2831.1 3650.36,2806.68 3635.65,2783.87C3623.48,2765.02 3617.18,2742.27 3609.17,2720.87C3604.65,2708.87 3602.47,2695.96 3598.27,2683.8C3593.97,2671.37 3588.05,2659.5 3583.6,2647.11C3575.42,2624.38 3567.75,2601.47 3559.95,2578.61C3556.11,2567.32 3552.28,2556.02 3548.77,2544.61C3539.84,2515.61 3530.3,2486.79 3522.55,2457.49C3516.87,2436.03 3513.66,2413.91 3509.31,2392.1C3508.98,2390.44 3508.22,2388.87 3507.88,2387.21C3502.74,2362.78 3495.67,2338.51 3502.02,2313.15C3505.57,2298.98 3510.59,2284.93 3512.02,2270.53C3514.92,2242.02 3513.14,2213.53 3504.37,2185.92C3497.9,2165.56 3491.92,2145.02 3484.57,2124.99C3470.76,2087.25 3449.7,2052.57 3422.57,2022.92C3404.93,2003.57 3387.66,1983.57 3367.9,1966.55C3336.48,1939.48 3304.01,1913.41 3270.32,1889.23C3235.78,1864.45 3198.49,1844.12 3157.4,1831.29C3150.84,1829.23 3143.96,1821.64 3141.4,1815C3138.13,1806.57 3148.12,1803.85 3153.75,1801.28C3185.52,1786.8 3214.09,1768.89 3235.27,1739.88C3250.75,1718.68 3264.49,1696.8 3269.07,1670.99C3277.7,1622.44 3270.23,1576.54 3244.44,1533.53C3229.52,1508.65 3210.99,1487.33 3186.69,1472.63C3110.42,1426.48 3030.81,1427.38 2950.06,1460C2916.97,1473.28 2887.11,1493.5 2862.49,1519.29C2847.13,1535.38 2834.49,1554.2 2821.87,1572.7C2817.99,1578.41 2816.15,1587.46 2817.35,1594.28C2820,1609.28 2818.94,1611.77 2804.04,1611.99C2775.91,1612.41 2748.38,1608.21 2721.16,1601.61C2707.75,1598.44 2695.65,1591.19 2686.52,1580.87C2675.33,1568.54 2662.47,1557.73 2648.47,1544.49C2645.11,1562.65 2635.18,1568.75 2621.76,1569.63C2609.39,1570.44 2596.95,1570.47 2584.55,1570.43C2543.9,1570.3 2503.17,1566.63 2462.71,1573.97C2457.59,1574.78 2452.37,1574.67 2447.29,1573.65C2433.03,1571.01 2426.22,1555.73 2432.83,1542.73C2434.97,1538.52 2436.21,1533.87 2437.83,1529.42L2435,1527C2409.22,1541 2383.15,1554.58 2357.72,1569.24C2318.36,1591.93 2277.96,1611.73 2233.65,1623.24C2218.9,1627.08 2208.39,1622.24 2197.92,1613.64C2179.98,1598.99 2162.92,1582.98 2143.92,1569.98C2085.73,1530.34 2022.18,1502.74 1952.67,1489.81C1891.17,1478.36 1829.99,1478.15 1769.67,1496.74C1738.67,1506.31 1708.43,1518.74 1686.5,1543.48C1665.19,1567.48 1646.58,1593.89 1627.08,1619.48C1622.29,1625.77 1618.66,1632.95 1613.97,1640.59C1623.78,1641.12 1632.07,1640.67 1639.97,1642.21C1654.1,1644.97 1657.07,1653.3 1647.73,1663.54C1642.28,1669.54 1635.67,1674.54 1629.25,1679.54C1620.09,1686.7 1619.75,1694.35 1628.89,1701.54C1636.39,1707.4 1644.19,1712.9 1651.66,1718.8C1661.19,1726.32 1664.04,1739.53 1657.66,1749.52C1654,1755 1648.84,1759.44 1643.43,1765.49ZM2831.17,3757.08C2835.03,3761.39 2837.6,3765.08 2840.93,3767.85C2860.81,3784.42 2879.98,3802.1 2905.93,3809.15C2943.06,3819.21 2979.93,3830.45 3017.3,3839.35C3051.68,3847.53 3086.5,3854.04 3121.37,3859.84C3143.04,3863.45 3164.68,3860.23 3185.18,3851.84C3209.64,3841.84 3220.1,3822.63 3209.3,3803.84C3203.63,3793.98 3194.09,3785.35 3184.47,3778.92C3145.4,3752.79 3101.12,3739.39 3055.82,3728.97C3031.74,3723.44 3008.02,3722.97 2983.57,3729.33C2955.29,3736.63 2926.32,3741.33 2897.57,3746.54C2875.71,3750.56 2853.66,3753.57 2831.17,3757.08ZM2289.64,3746.2C2286.36,3745.07 2284.57,3744.2 2282.64,3743.83C2232.44,3734.93 2182.25,3725.95 2132,3717.36C2122.24,3715.7 2112,3713.94 2102.35,3715.05C2065.74,3719.28 2029.12,3723.82 1992.77,3729.88C1960.9,3735.21 1929.23,3742.47 1901.44,3760.27C1894.6,3764.65 1884.44,3769.32 1886.92,3779.27C1888.44,3785.47 1894.79,3792.02 1900.7,3795.32C1922.19,3807.32 1946.4,3811.7 1970.4,3811.68C2014.11,3811.68 2057.99,3810.75 2101.48,3806.68C2149.63,3802.22 2198.36,3798.74 2243.28,3777.2C2260,3769.2 2275.62,3760.2 2289.64,3746.2Z" style="fill-rule:nonzero;"/>
        </g>
        <g transform="matrix(0.415134,0,0,0.415134,1488.64,1527.06)">
            <path d="M1643.43,1765.49C1648.84,1759.49 1653.99,1754.95 1657.53,1749.49C1663.95,1739.49 1661.1,1726.29 1651.53,1718.77C1644.06,1712.87 1636.26,1707.37 1628.76,1701.51C1619.62,1694.37 1619.96,1686.72 1629.12,1679.51C1635.54,1674.51 1642.12,1669.51 1647.6,1663.51C1656.94,1653.27 1653.97,1644.94 1639.84,1642.18C1631.94,1640.64 1623.65,1641.09 1613.84,1640.56C1618.53,1632.92 1622.16,1625.74 1626.95,1619.45C1646.45,1593.86 1665.06,1567.45 1686.37,1543.45C1708.3,1518.76 1738.49,1506.28 1769.54,1496.71C1829.89,1478.12 1891.07,1478.33 1952.54,1489.78C2022.05,1502.71 2085.6,1530.31 2143.79,1569.95C2162.86,1582.95 2179.88,1598.95 2197.79,1613.61C2208.26,1622.17 2218.79,1627.05 2233.52,1623.21C2277.83,1611.71 2318.23,1591.91 2357.59,1569.21C2383.02,1554.55 2409.09,1541.01 2434.87,1526.97L2437.77,1529.5C2436.12,1533.95 2434.88,1538.6 2432.77,1542.81C2426.16,1555.81 2432.97,1571.09 2447.23,1573.73C2452.31,1574.76 2457.53,1574.86 2462.65,1574.05C2503.11,1566.71 2543.84,1570.38 2584.49,1570.51C2596.89,1570.51 2609.33,1570.51 2621.7,1569.71C2635.12,1568.83 2645.05,1562.71 2648.41,1544.57C2662.41,1557.81 2675.27,1568.62 2686.46,1580.95C2695.59,1591.27 2707.69,1598.52 2721.1,1601.69C2748.32,1608.29 2775.85,1612.49 2803.98,1612.07C2818.88,1611.85 2819.98,1609.41 2817.29,1594.36C2816.09,1587.54 2817.93,1578.49 2821.81,1572.78C2834.39,1554.28 2847.07,1535.46 2862.43,1519.37C2887.05,1493.58 2916.91,1473.36 2950,1460.08C3030.75,1427.46 3110.36,1426.56 3186.63,1472.71C3210.93,1487.41 3229.46,1508.71 3244.38,1533.61C3270.17,1576.61 3277.64,1622.52 3269.01,1671.07C3264.43,1696.88 3250.69,1718.76 3235.21,1739.96C3214.03,1768.96 3185.46,1786.88 3153.69,1801.36C3148.06,1803.93 3138.07,1806.65 3141.34,1815.08C3143.91,1821.72 3150.79,1829.31 3157.34,1831.37C3198.43,1844.2 3235.72,1864.53 3270.26,1889.31C3303.95,1913.49 3336.42,1939.56 3367.84,1966.63C3387.6,1983.63 3404.84,2003.63 3422.51,2023C3449.64,2052.65 3470.7,2087.33 3484.51,2125.07C3491.86,2145.07 3497.84,2165.64 3504.31,2186C3513.08,2213.62 3514.86,2242.1 3511.96,2270.61C3510.5,2285.01 3505.48,2299.06 3501.96,2313.23C3495.61,2338.59 3502.68,2362.86 3507.82,2387.29C3508.16,2388.95 3508.92,2390.52 3509.25,2392.18C3513.6,2413.99 3516.81,2436.11 3522.49,2457.57C3530.24,2486.87 3539.78,2515.7 3548.71,2544.69C3552.22,2556.08 3556.05,2567.38 3559.89,2578.69C3567.69,2601.55 3575.36,2624.46 3583.54,2647.19C3587.99,2659.58 3593.91,2671.45 3598.21,2683.88C3602.41,2696.04 3604.59,2708.88 3609.11,2720.95C3617.11,2742.31 3623.42,2765.06 3635.59,2783.95C3650.3,2806.76 3650.96,2831.18 3654.53,2856.07C3661.96,2907.94 3660.04,2959.93 3657.81,3011.83C3656.37,3045.46 3652.48,3079.09 3647.58,3112.41C3643.11,3142.8 3636.53,3172.93 3629.58,3202.86C3623.68,3228.13 3617.3,3253.46 3608.58,3277.86C3597.16,3309.76 3584.84,3341.56 3569.9,3371.92C3554.67,3402.92 3536.36,3432.42 3518.17,3461.82C3512.93,3470.3 3507.77,3481.31 3493.99,3481.09C3491.05,3481.09 3487.51,3485.79 3485.13,3489C3469.19,3510.52 3447.62,3525.51 3425.86,3540.21C3353.86,3588.8 3274.19,3620.79 3192.58,3648.78C3086.58,3685.14 2978.35,3712.86 2867.58,3730.08C2746.82,3748.84 2624.36,3754.25 2502.42,3746.21C2412.19,3740.33 2322.61,3729.34 2233.48,3714.52C2127.48,3696.89 2022.82,3673.4 1921.1,3638.24C1857.16,3616.15 1795.27,3589.24 1737.22,3554.33C1692.46,3527.49 1650.51,3496.23 1612,3461C1581.56,3433.14 1553.26,3403.38 1528.5,3370.71C1510.56,3347.03 1496.13,3320.57 1481.33,3294.71C1467.82,3271.06 1458.7,3245.65 1451.64,3219.09C1440.64,3177.77 1442.18,3136.15 1442.51,3094.21C1442.73,3067.21 1439.51,3040.15 1438.44,3013.1C1438.07,3004.29 1439.56,2995.42 1439.82,2986.56C1439.97,2981.32 1439.42,2976.06 1439.11,2970.81C1438.93,2967.81 1437.96,2964.71 1438.45,2961.81C1440.05,2952.39 1442.29,2943.09 1444.03,2933.69C1448.84,2907.74 1452.86,2881.62 1458.42,2855.84C1463.67,2831.52 1469.98,2807.41 1476.7,2783.46C1486.65,2747.95 1497.45,2712.68 1507.7,2677.27C1514.62,2653.41 1521.8,2629.61 1527.85,2605.54C1531.23,2592.1 1532.14,2578.06 1534.92,2564.44C1536.87,2554.85 1540.4,2545.58 1542.71,2536.05C1553.57,2491.28 1554.96,2445.52 1555.34,2399.84C1555.6,2369.27 1552.97,2338.67 1551.57,2308.09C1550.36,2281.5 1549.03,2254.62 1557.27,2229.09C1564.14,2208.18 1572.6,2187.83 1582.57,2168.21C1592.05,2149.11 1603.02,2130.79 1615.38,2113.42C1632.77,2089.28 1651.8,2066.29 1670.74,2043.32C1685.23,2025.74 1699.84,2008.12 1715.89,1992C1737.61,1970.19 1760.89,1949.89 1783.2,1928.69C1785.65,1926.37 1788.07,1922.17 1787.67,1919.23C1787.28,1916.44 1783.59,1912.94 1780.6,1911.9C1773.5,1909.39 1766.15,1907.66 1758.67,1906.74C1712.56,1901.5 1696.36,1871.74 1702.89,1827.06C1704.28,1817.54 1706.74,1808.14 1709.22,1798.82C1712.04,1788.18 1708.22,1780.03 1697.41,1777.49C1683.01,1774.13 1668.36,1771.83 1653.85,1768.91C1650.67,1768.25 1647.64,1766.89 1643.43,1765.49ZM2814.33,2629.65L2814.45,2632.46C2838.13,2630.46 2862.03,2629.83 2885.45,2626.14C2959.78,2614.4 3031.36,2592.44 3101.45,2565.32C3140.71,2550.14 3178.56,2531.32 3207.57,2500.85C3237.41,2469.51 3263.17,2434.24 3290.29,2400.35C3302.35,2385.27 3313.17,2369.19 3324.91,2353.84C3329.57,2347.76 3334.39,2341.18 3328.12,2334.77C3321.85,2328.36 3313.8,2330.15 3308.12,2336.77C3300.88,2345.24 3294.44,2354.39 3287.66,2363.25C3272.41,2383.16 3257.3,2403.19 3241.86,2422.95C3227.03,2441.95 3213.29,2462.06 3196.52,2479.18C3167.95,2508.4 3133,2530.62 3094.42,2544.09C3049.05,2560.09 3003.42,2575.42 2957.25,2588.86C2904.15,2604.32 2849.93,2614.28 2794.11,2610.86C2790.69,2610.65 2786.31,2611.26 2784.04,2609.42C2773.4,2600.84 2761.65,2603.72 2750.39,2605.88C2706.48,2614.31 2666.83,2632.15 2633.47,2662.3C2607.64,2685.66 2593.13,2715.38 2590.47,2749.97C2589.55,2761.87 2592.95,2774.18 2594.86,2786.22C2599.27,2813.95 2614.19,2836.7 2632.52,2856.53C2658.92,2885.1 2691.92,2904.38 2728.99,2916.39C2785.5,2934.69 2840.08,2932.75 2891.71,2900.6C2914.46,2886.43 2938.92,2877.93 2966.01,2880.48C2993.1,2883.03 3020.3,2885.48 3047.09,2890.05C3091.23,2897.57 3134.99,2907.05 3180.09,2907.81C3244.03,2908.81 3305.48,2898.37 3363.6,2870.81C3415.12,2846.37 3461.82,2815 3505.86,2778.65C3534.28,2755.19 3544.17,2724.28 3552.6,2691.49C3554.23,2685.14 3551.6,2680 3544.34,2678.37C3537.58,2676.86 3531.59,2677.64 3528.94,2684.85C3525.54,2694.11 3522.81,2703.61 3519.85,2713.02C3515.13,2728.02 3509.62,2743.23 3497.68,2753.55C3476.88,2771.55 3455.15,2788.55 3432.92,2804.74C3399.45,2829.22 3362.81,2849.02 3324,2863.61C3257.47,2888.54 3188.95,2891.83 3119.31,2881.17C3074.04,2874.23 3028.88,2866.4 2983.47,2860.5C2945.61,2855.58 2909.73,2861.83 2876.88,2883.5C2858.14,2895.88 2836.68,2903.54 2814.34,2905.85C2772.71,2910.22 2734.52,2899.02 2698.75,2878.85C2678.52,2867.46 2659.6,2853.75 2646.5,2834C2637.76,2820.83 2628.29,2807.52 2622.89,2792.89C2614.25,2769.67 2614.29,2744.09 2623.01,2720.89C2631.48,2697.68 2647.28,2677.85 2668.01,2664.41C2698.23,2644.56 2727.43,2622.07 2767.85,2629.21C2782.92,2631.88 2798.82,2629.65 2814.33,2629.65ZM3083.1,2127.51C3084.23,2098.76 3077.18,2071.51 3066.51,2045.35C3055.51,2018.57 3040.24,1994.18 3021.6,1971.77C2998.6,1944.16 2971.29,1922.3 2937.65,1910.16C2894.06,1894.43 2850.43,1890.34 2813.86,1926.58C2799.58,1940.73 2784.86,1956.68 2791.12,1980.36C2792.31,1984.87 2794.44,1989.15 2795.53,1993.68C2802.6,2023.02 2814.34,2050.61 2829.11,2076.68C2840.11,2096.06 2854.41,2113.54 2865.6,2132.81C2873.75,2146.81 2890.51,2154.53 2893.44,2172.14C2893.68,2173.61 2896.44,2174.76 2898.16,2175.87C2905.51,2180.61 2913.22,2184.87 2920.22,2190.07C2943.69,2207.47 2968.52,2221.41 2998.55,2223.24C3029.89,2225.15 3055.64,2209.47 3069.31,2187.74C3081,2169.17 3082.89,2148.54 3083.1,2127.51ZM1575.56,2569.6C1572.81,2578.19 1569.96,2585.12 1568.49,2592.34C1567.49,2597.5 1566.13,2604.34 1568.56,2608.21C1585.97,2635.56 1604.27,2662.35 1622.38,2689.26C1643.93,2721.26 1670.38,2749.26 1698.03,2775.76C1736.7,2812.83 1778.58,2845.97 1825.36,2872.68C1891.73,2910.57 1962.82,2924.81 2038.75,2918.85C2071.02,2916.32 2103.52,2915.49 2135.87,2916.12C2147.87,2916.35 2160.87,2921.01 2171.48,2927.12C2190.92,2938.34 2208.55,2952.67 2227.55,2964.74C2271.78,2992.85 2319.68,3001.51 2370.92,2989.51C2403.76,2981.82 2431.32,2964.29 2455.92,2941.99C2478.41,2921.63 2496.92,2897.53 2505.92,2868.66C2520.3,2822.59 2507.59,2781.9 2473.23,2748.66C2444.1,2720.47 2409.11,2701.79 2369.38,2693.72C2296.13,2678.84 2227.38,2650.93 2159.96,2620.24C2083.04,2585.24 2008.18,2545.93 1939.25,2496.55C1921.71,2483.99 1903.25,2471.61 1892.54,2451.55C1891.19,2449.03 1888.11,2445.84 1885.75,2445.77C1880.35,2445.56 1874.96,2446.55 1869.99,2448.67C1868.89,2449.17 1869.35,2457.67 1871.62,2460.35C1883.91,2474.76 1895.62,2490.11 1910.08,2502.13C1946.66,2532.59 1987.39,2557.28 2029.45,2579.26C2077.98,2604.62 2127.06,2629.14 2177.04,2651.48C2234.77,2677.28 2293.86,2699.63 2356.21,2712.67C2403.06,2722.47 2443.05,2744.12 2470.93,2785.24C2488.51,2811.17 2490.72,2852.34 2473.93,2879.88C2456.93,2907.78 2436.13,2932.18 2408.14,2949.55C2362.42,2977.92 2313.83,2983.4 2265.71,2958.96C2234.58,2943.16 2206.54,2921.22 2177.28,2901.78C2169.63,2896.69 2162.51,2891.58 2152.74,2896.4C2150.74,2897.4 2148.02,2896.93 2145.63,2896.95C2110.16,2897.27 2074.63,2896.62 2039.23,2898.1C1992.76,2900.05 1947.02,2898.49 1902.49,2883.05C1865.94,2870.39 1831.55,2853.57 1801.2,2829.72C1769.2,2804.55 1736.85,2779.39 1707.6,2751.16C1683.6,2727.97 1662.76,2701.16 1642.6,2674.37C1624.93,2650.91 1610.02,2625.37 1594.1,2600.6C1587.82,2590.74 1582.11,2580.56 1575.56,2569.6ZM2100.46,2254.34C2112.39,2252.78 2124.53,2252.14 2136.22,2249.49C2182.37,2239.03 2221.66,2215.57 2256.75,2184.49C2278.26,2165.41 2297.28,2144.32 2310.49,2118.49C2315.42,2108.87 2321.06,2099.35 2324.18,2089.11C2330.12,2069.64 2331.32,2049.18 2324.31,2030.02C2313.97,2001.79 2293.19,1982.51 2265.56,1970.94C2235.56,1958.39 2204.8,1952.59 2173.17,1963.94C2157.12,1969.71 2141.51,1976.85 2126.04,1984.1C2101.69,1995.52 2081.25,2012.41 2061.51,2030.49C2036.35,2053.49 2015.58,2079.54 2003.51,2111.64C1998.99,2123.64 1997.51,2136.83 1993.02,2148.88C1986.02,2167.59 1994.11,2184.28 1999.95,2200.53C2003.64,2210.8 2012.22,2220.35 2020.8,2227.64C2043.5,2246.93 2071,2253.7 2100.46,2254.34ZM2609.64,2323.44C2607.27,2324.87 2606.12,2325.64 2604.9,2326.27C2550.07,2354.95 2491.61,2365.55 2430.17,2361.41C2424.35,2361.01 2418.34,2360.18 2412.73,2361.22C2410.03,2361.72 2406.39,2365.98 2406.18,2368.75C2405.97,2371.52 2408.92,2375.39 2411.54,2377.42C2413.74,2379.12 2417.42,2379.13 2420.49,2379.42C2492.49,2386.7 2561.08,2376.48 2625.05,2340.87C2629.7,2338.29 2637.15,2337.27 2641.97,2339.07C2664.77,2347.58 2686.97,2357.8 2709.65,2366.5C2739.85,2378.05 2770.23,2389.71 2803.52,2387.37C2827.82,2385.66 2850.97,2379.31 2872.19,2367.23C2880.12,2362.72 2879.58,2354.93 2870.93,2352.59C2864.61,2350.89 2856.58,2351.76 2850.36,2354.16C2821.72,2365.22 2792.69,2371.68 2762.67,2361.54C2737.34,2352.99 2712.51,2342.94 2687.56,2333.29C2679.66,2330.29 2672.09,2326.34 2662.42,2321.94C2683.17,2318.72 2701.34,2316.73 2719.13,2312.94C2743.86,2307.67 2766.88,2298.62 2784.78,2279.3C2794.68,2268.61 2797.39,2256.53 2789.02,2246.15C2785.34,2241.59 2779.36,2238.85 2774.29,2235.49C2769.81,2232.49 2762.39,2230.78 2761.12,2226.9C2758.27,2218.17 2751.91,2217.32 2745.23,2216.28C2688.28,2207.42 2631.23,2206.07 2574.32,2216.04C2545.86,2221.04 2517.47,2227.04 2494.05,2245.62C2474.17,2261.36 2471.62,2281.62 2495.19,2296.06C2506.53,2303.08 2518.97,2308.15 2531.99,2311.06C2556.78,2316.3 2582.06,2319.19 2609.64,2323.44ZM1758.07,1700.89C1761.07,1712.27 1763.07,1728.71 1769.65,1743.12C1781.99,1770.34 1802.07,1792.12 1825.08,1811.12C1842.84,1825.84 1869.99,1828.32 1884.66,1813.2C1906.12,1791.08 1925.74,1767.2 1946.05,1743.92C1958.51,1729.65 1970.34,1714.8 1983.26,1700.92C1999.73,1683.3 2017.26,1666.68 2033.69,1649.03C2036.28,1646.25 2036.89,1636.72 2035.99,1636.36C2026.15,1632.36 2025.86,1621.92 2020.55,1615.07C2010.11,1601.62 1995.9,1594.41 1980.73,1589.14C1915.44,1566.47 1854.11,1572.99 1798.97,1616.65C1773.62,1636.8 1760.88,1664.12 1758.07,1700.89ZM3067.9,1512.1C3053.34,1514.51 3038.34,1515.45 3024.32,1519.66C2997.11,1527.81 2970.01,1536.98 2954.79,1564.42C2951.36,1570.62 2951.34,1574.61 2957.36,1579.11C2960.24,1581.27 2961.5,1585.73 2963.19,1589.29C2964.46,1591.95 2965.05,1594.93 2966.19,1597.63C2976.19,1620.36 2995.94,1634.63 3013.43,1650.54C3038.54,1673.43 3065.24,1694.54 3090.28,1717.54C3111.73,1737.2 3134.28,1742.17 3157.54,1728.22C3174.64,1717.96 3189.47,1704.22 3198.86,1686.62C3206.86,1671.55 3214.95,1655.22 3217.28,1638.62C3221.57,1608.09 3206.62,1582.38 3185.89,1561.72C3153.78,1529.68 3113.8,1514.07 3067.9,1512.1Z" style="fill:rgb(216,146,61);fill-rule:nonzero;"/>
        </g>
        <g transform="matrix(0.415134,0,0,0.415134,1488.64,1527.06)">
            <path d="M2831.17,3757.08C2853.66,3753.57 2875.71,3750.56 2897.58,3746.6C2926.36,3741.38 2955.33,3736.69 2983.58,3729.39C3008.03,3723.08 3031.75,3723.5 3055.83,3729.03C3101.13,3739.45 3145.41,3752.85 3184.48,3778.98C3194.1,3785.41 3203.64,3794.04 3209.31,3803.9C3220.11,3822.66 3209.65,3841.9 3185.19,3851.9C3164.69,3860.26 3143.05,3863.48 3121.38,3859.9C3086.51,3854.1 3051.69,3847.59 3017.31,3839.41C2979.91,3830.51 2943.07,3819.27 2905.94,3809.21C2879.94,3802.16 2860.78,3784.48 2840.94,3767.91C2837.6,3765.07 2835,3761.39 2831.17,3757.08Z" style="fill:rgb(163,118,47);fill-rule:nonzero;"/>
        </g>
        <g transform="matrix(0.415134,0,0,0.415134,1488.64,1527.06)">
            <path d="M2289.64,3746.2C2275.64,3760.2 2260.02,3769.2 2243.31,3777.2C2198.39,3798.74 2149.66,3802.2 2101.51,3806.68C2058.02,3810.68 2014.14,3811.6 1970.43,3811.68C1946.43,3811.68 1922.22,3807.33 1900.73,3795.32C1894.82,3792.02 1888.47,3785.47 1886.95,3779.27C1884.51,3769.34 1894.63,3764.67 1901.47,3760.27C1929.26,3742.47 1960.93,3735.21 1992.8,3729.88C2029.15,3723.82 2065.8,3719.28 2102.38,3715.05C2112.06,3713.94 2122.27,3715.7 2132.03,3717.36C2182.28,3725.95 2232.47,3734.93 2282.67,3743.83C2284.57,3744.17 2286.36,3745.07 2289.64,3746.2Z" style="fill:rgb(163,118,47);fill-rule:nonzero;"/>
        </g>
        <g transform="matrix(0.415134,0,0,0.415134,1488.64,1527.06)">
            <path d="M2814.33,2629.65C2798.82,2629.65 2782.92,2631.88 2767.87,2629.22C2727.45,2622.08 2698.25,2644.57 2668.03,2664.42C2647.3,2677.86 2631.5,2697.69 2623.03,2720.9C2614.31,2744.1 2614.27,2769.68 2622.91,2792.9C2628.31,2807.53 2637.78,2820.84 2646.52,2834.01C2659.62,2853.76 2678.52,2867.47 2698.77,2878.86C2734.54,2898.99 2772.77,2910.19 2814.36,2905.86C2836.7,2903.55 2858.16,2895.89 2876.9,2883.51C2909.75,2861.87 2945.63,2855.62 2983.49,2860.51C3028.9,2866.41 3074.06,2874.24 3119.33,2881.18C3188.97,2891.84 3257.49,2888.55 3324.02,2863.62C3362.82,2849.03 3399.45,2829.23 3432.9,2804.76C3455.13,2788.57 3476.9,2771.56 3497.66,2753.57C3509.6,2743.25 3515.11,2728.04 3519.83,2713.04C3522.83,2703.63 3525.52,2694.13 3528.92,2684.87C3531.57,2677.66 3537.56,2676.87 3544.32,2678.39C3551.59,2680.02 3554.21,2685.16 3552.58,2691.51C3544.15,2724.3 3534.26,2755.21 3505.84,2778.67C3461.84,2815.02 3415.1,2846.39 3363.58,2870.83C3305.46,2898.4 3244.01,2908.83 3180.07,2907.83C3134.99,2907.11 3091.23,2897.59 3047.07,2890.07C3020.28,2885.5 2993.07,2883.07 2965.99,2880.5C2938.91,2877.93 2914.44,2886.45 2891.69,2900.62C2840.06,2932.77 2785.48,2934.71 2728.97,2916.41C2691.9,2904.41 2658.9,2885.12 2632.5,2856.55C2614.17,2836.72 2599.25,2813.97 2594.84,2786.24C2592.93,2774.24 2589.53,2761.89 2590.45,2749.99C2593.13,2715.4 2607.64,2685.68 2633.45,2662.32C2666.81,2632.17 2706.45,2614.32 2750.37,2605.9C2761.63,2603.74 2773.37,2600.9 2784.02,2609.44C2786.29,2611.28 2790.67,2610.67 2794.09,2610.88C2849.91,2614.27 2904.09,2604.31 2957.23,2588.88C3003.39,2575.44 3049.03,2560.07 3094.4,2544.11C3132.98,2530.64 3167.93,2508.42 3196.5,2479.2C3213.27,2462.08 3227.01,2441.96 3241.84,2422.97C3257.28,2403.21 3272.39,2383.18 3287.64,2363.27C3294.42,2354.41 3300.86,2345.27 3308.1,2336.79C3313.75,2330.18 3321.88,2328.47 3328.1,2334.79C3334.32,2341.11 3329.55,2347.79 3324.89,2353.86C3313.15,2369.21 3302.33,2385.29 3290.27,2400.37C3263.15,2434.26 3237.39,2469.53 3207.55,2500.87C3178.55,2531.33 3140.69,2550.16 3101.43,2565.34C3031.35,2592.46 2959.77,2614.42 2885.43,2626.16C2862.01,2629.85 2838.11,2630.46 2814.43,2632.48L2814.33,2629.65Z" style="fill-rule:nonzero;"/>
        </g>
        <g transform="matrix(0.415134,0,0,0.415134,1488.64,1527.06)">
            <path d="M3083.1,2127.51C3082.89,2148.51 3080.98,2169.17 3069.31,2187.73C3055.64,2209.46 3029.89,2225.14 2998.55,2223.23C2968.55,2221.4 2943.69,2207.46 2920.22,2190.06C2913.22,2184.86 2905.51,2180.6 2898.16,2175.86C2896.44,2174.75 2893.68,2173.6 2893.44,2172.13C2890.51,2154.52 2873.75,2146.82 2865.6,2132.8C2854.41,2113.53 2840.1,2096.05 2829.11,2076.67C2814.34,2050.61 2802.6,2023.02 2795.53,1993.67C2794.44,1989.14 2792.31,1984.86 2791.12,1980.35C2784.86,1956.67 2799.58,1940.72 2813.86,1926.57C2850.43,1890.33 2894.06,1894.42 2937.65,1910.15C2971.29,1922.29 2998.65,1944.15 3021.6,1971.76C3040.24,1994.17 3055.6,2018.56 3066.51,2045.34C3077.18,2071.48 3084.23,2098.76 3083.1,2127.51ZM2833.84,1963.31C2855.84,1955.46 2878.19,1953.52 2900.77,1959.7C2953.56,1974.16 2980.77,2023.48 2988.1,2074.94C2990.45,2090.67 2988.28,2106.76 2981.84,2121.3C2977.07,2131.96 2971.04,2142.49 2963.52,2151.3C2956.47,2159.61 2946.73,2165.64 2936.9,2173.72C2944.9,2179.09 2952.7,2185.14 2961.22,2189.81C2978.78,2199.44 2997.7,2206.03 3017.64,2200.1C3041.88,2192.89 3051.24,2172.1 3055.93,2149.85C3060.06,2130.3 3057.93,2110.61 3052.77,2090.85C3045.86,2064.2 3036.07,2039.23 3022.18,2015.46C3003.75,1983.9 2979.57,1958.07 2948.18,1939.67C2920.18,1923.22 2889.98,1914.89 2857.27,1924.6C2842.21,1929.09 2831.69,1946.3 2833.84,1963.31Z" style="fill-rule:nonzero;"/>
        </g>
        <g transform="matrix(0.415134,0,0,0.415134,1488.64,1527.06)">
            <path d="M1575.56,2569.6C1582.11,2580.6 1587.82,2590.74 1594.12,2600.6C1610.04,2625.36 1624.95,2650.91 1642.62,2674.37C1662.8,2701.14 1683.62,2727.97 1707.62,2751.16C1736.87,2779.39 1769.2,2804.55 1801.22,2829.72C1831.57,2853.57 1865.96,2870.39 1902.51,2883.05C1947.04,2898.49 1992.78,2900.05 2039.25,2898.1C2074.67,2896.62 2110.18,2897.27 2145.65,2896.95C2148.04,2896.95 2150.78,2897.38 2152.76,2896.4C2162.53,2891.58 2169.65,2896.69 2177.3,2901.78C2206.56,2921.22 2234.6,2943.16 2265.73,2958.96C2313.85,2983.4 2362.44,2977.96 2408.16,2949.55C2436.16,2932.18 2456.94,2907.78 2473.95,2879.88C2490.73,2852.34 2488.52,2811.17 2470.95,2785.24C2443.07,2744.12 2403.08,2722.47 2356.23,2712.67C2293.88,2699.67 2234.79,2677.28 2177.06,2651.48C2127.06,2629.14 2078,2604.62 2029.47,2579.26C1987.41,2557.26 1946.68,2532.59 1910.1,2502.13C1895.67,2490.13 1883.93,2474.76 1871.64,2460.35C1869.37,2457.69 1868.91,2449.17 1870.01,2448.67C1874.98,2446.55 1880.37,2445.56 1885.77,2445.77C1888.13,2445.84 1891.21,2449.03 1892.56,2451.55C1903.28,2471.64 1921.73,2484.02 1939.27,2496.55C2008.2,2545.93 2083.06,2585.25 2159.98,2620.24C2227.44,2650.93 2296.15,2678.84 2369.4,2693.72C2409.13,2701.79 2444.12,2720.47 2473.25,2748.66C2507.61,2781.91 2520.32,2822.6 2505.94,2868.66C2496.94,2897.53 2478.44,2921.66 2455.94,2941.99C2431.3,2964.29 2403.74,2981.82 2370.94,2989.51C2319.7,3001.51 2271.8,2992.85 2227.57,2964.74C2208.57,2952.67 2190.94,2938.34 2171.5,2927.12C2160.93,2921.02 2147.9,2916.36 2135.89,2916.12C2103.54,2915.49 2071.04,2916.32 2038.77,2918.85C1962.84,2924.85 1891.77,2910.57 1825.38,2872.68C1778.6,2845.97 1736.72,2812.83 1698.05,2775.76C1670.38,2749.23 1643.95,2721.28 1622.4,2689.26C1604.29,2662.35 1585.99,2635.56 1568.58,2608.21C1566.15,2604.39 1567.46,2597.5 1568.51,2592.34C1570,2585.12 1572.81,2578.19 1575.56,2569.6Z" style="fill-rule:nonzero;"/>
        </g>
        <g transform="matrix(0.415134,0,0,0.415134,1488.64,1527.06)">
            <path d="M2100.46,2254.34C2070.95,2253.7 2043.46,2246.93 2020.79,2227.65C2012.21,2220.36 2003.63,2210.81 1999.94,2200.54C1994.1,2184.29 1986.06,2167.6 1993.01,2148.89C1997.49,2136.89 1999.01,2123.67 2003.5,2111.65C2015.58,2079.55 2036.35,2053.54 2061.5,2030.5C2081.24,2012.42 2101.68,1995.5 2126.03,1984.11C2141.5,1976.86 2157.11,1969.72 2173.16,1963.95C2204.79,1952.58 2235.59,1958.38 2265.55,1970.95C2293.18,1982.52 2313.96,2001.8 2324.3,2030.03C2331.3,2049.19 2330.11,2069.65 2324.17,2089.12C2321.05,2099.36 2315.41,2108.88 2310.48,2118.5C2297.27,2144.29 2278.25,2165.38 2256.74,2184.5C2221.65,2215.63 2182.36,2239.09 2136.21,2249.5C2124.53,2252.14 2112.39,2252.78 2100.46,2254.34ZM2138.84,2227.15C2115.19,2201.02 2118.65,2195.5 2121.19,2173.79C2122.62,2161.61 2128.64,2149.92 2132.97,2138.15C2145.02,2105.42 2163.28,2076.5 2188.75,2052.71C2212.19,2030.82 2239.33,2018.25 2272.27,2027.83C2281.21,2030.43 2289.44,2035.47 2298.83,2039.77C2296.39,2021.99 2285.36,2009.94 2272.55,2000.77C2232.73,1972.12 2194.24,1972.84 2155.16,2001.12C2148.22,2006.12 2141.3,2010.78 2131.46,2007.52C2128.24,2006.45 2122.8,2009.3 2119.46,2011.8C2084.3,2038.1 2052.61,2067.39 2033.2,2108.08C2023.2,2129.08 2015.09,2150.52 2018.97,2173.86C2021.69,2190.25 2028.39,2205.45 2043.3,2215.77C2072.76,2236.12 2104.44,2234.62 2138.84,2227.15Z" style="fill-rule:nonzero;"/>
        </g>
        <g transform="matrix(0.415134,0,0,0.415134,1488.64,1527.06)">
            <path d="M2609.64,2323.44C2582.06,2319.19 2556.78,2316.3 2531.99,2311.05C2518.97,2308.14 2506.53,2303.07 2495.19,2296.05C2471.62,2281.64 2474.19,2261.35 2494.05,2245.61C2517.47,2227.05 2545.86,2221.01 2574.32,2216.03C2631.26,2206.03 2688.32,2207.41 2745.23,2216.27C2751.91,2217.27 2758.23,2218.16 2761.12,2226.89C2762.39,2230.77 2769.81,2232.53 2774.29,2235.48C2779.36,2238.84 2785.34,2241.58 2789.02,2246.14C2797.39,2256.52 2794.68,2268.6 2784.78,2279.29C2766.88,2298.61 2743.86,2307.66 2719.13,2312.93C2701.34,2316.72 2683.13,2318.71 2662.42,2321.93C2672.09,2326.33 2679.66,2330.23 2687.56,2333.28C2712.56,2342.93 2737.34,2352.98 2762.67,2361.53C2792.67,2371.67 2821.67,2365.21 2850.36,2354.15C2856.58,2351.75 2864.61,2350.88 2870.93,2352.58C2879.58,2354.92 2880.12,2362.71 2872.19,2367.22C2850.97,2379.3 2827.82,2385.65 2803.52,2387.36C2770.23,2389.7 2739.85,2378.04 2709.65,2366.49C2686.92,2357.79 2664.77,2347.57 2641.97,2339.06C2637.15,2337.26 2629.7,2338.28 2625.05,2340.86C2561.05,2376.47 2492.46,2386.69 2420.49,2379.41C2417.42,2379.1 2413.74,2379.09 2411.54,2377.41C2408.92,2375.41 2405.98,2371.57 2406.18,2368.74C2406.38,2365.91 2410.03,2361.74 2412.73,2361.21C2418.34,2360.21 2424.35,2361 2430.17,2361.4C2491.61,2365.54 2550.07,2354.94 2604.9,2326.26C2606.12,2325.64 2607.27,2324.87 2609.64,2323.44ZM2639.35,2301.23C2654.87,2299.56 2680.35,2297.9 2705.44,2293.79C2727.06,2290.26 2748.22,2284.34 2763.6,2266.28C2768.87,2260.08 2767.73,2257.09 2761.3,2253.99C2735.98,2241.81 2711.3,2228.09 2681.57,2229.85C2665.41,2230.85 2649.11,2229.39 2632.98,2230.55C2595.19,2233.28 2557.41,2236.85 2522.74,2254.23C2515.2,2258.01 2505.92,2261.57 2506.51,2271.96C2507.1,2282.35 2516.94,2283.63 2524.42,2286.34C2558.36,2298.63 2593.9,2299.48 2639.35,2301.23Z" style="fill-rule:nonzero;"/>
        </g>
        <g transform="matrix(0.415134,0,0,0.415134,1488.64,1527.06)">
            <path d="M1758.07,1700.89C1760.88,1664.12 1773.62,1636.8 1798.97,1616.72C1854.11,1573.06 1915.44,1566.54 1980.73,1589.21C1995.9,1594.48 2010.11,1601.69 2020.55,1615.14C2025.86,1621.99 2026.15,1632.48 2035.99,1636.43C2036.89,1636.79 2036.28,1646.32 2033.69,1649.1C2017.26,1666.75 1999.69,1683.37 1983.26,1700.99C1970.34,1714.82 1958.51,1729.67 1946.05,1743.99C1925.74,1767.23 1906.12,1791.15 1884.66,1813.27C1869.99,1828.39 1842.84,1825.91 1825.08,1811.19C1802.08,1792.12 1781.99,1770.39 1769.65,1743.19C1763.12,1728.71 1761.06,1712.27 1758.07,1700.89ZM2012.07,1636.15C2000.76,1627.25 1991.89,1616.86 1980.62,1611.98C1923.77,1587.35 1869.09,1592.16 1819.57,1630.39C1802.36,1643.68 1789.38,1661.48 1786.57,1684.73C1783.79,1707.73 1789.29,1728.26 1801.67,1747.86C1813.05,1765.86 1826.29,1781.72 1842.85,1795.12C1857.41,1806.91 1864.98,1801.65 1873.85,1791.87C1892.03,1771.72 1908.6,1750.14 1926.27,1729.52C1941.7,1711.52 1957.56,1693.89 1973.56,1676.41C1985.24,1663.65 1997.47,1651.39 2012.1,1636.15L2012.07,1636.15Z" style="fill-rule:nonzero;"/>
        </g>
        <g transform="matrix(0.415134,0,0,0.415134,1488.64,1527.06)">
            <path d="M3067.9,1512.1C3113.8,1514.1 3153.78,1529.68 3185.9,1561.74C3206.63,1582.4 3221.58,1608.11 3217.29,1638.64C3214.96,1655.22 3206.91,1671.55 3198.87,1686.64C3189.48,1704.24 3174.65,1717.98 3157.55,1728.24C3134.33,1742.24 3111.74,1737.24 3090.29,1717.56C3065.29,1694.56 3038.55,1673.45 3013.44,1650.56C2995.95,1634.63 2976.2,1620.38 2966.2,1597.65C2965.01,1594.95 2964.42,1591.97 2963.2,1589.31C2961.51,1585.75 2960.2,1581.31 2957.37,1579.13C2951.37,1574.63 2951.37,1570.64 2954.8,1564.44C2970.02,1537 2997.12,1527.83 3024.33,1519.68C3038.34,1515.45 3053.34,1514.51 3067.9,1512.1ZM2979.18,1565L2979.78,1568C2991.4,1569.88 2993.22,1576.92 2991.16,1586.37C2990.69,1588.55 2990.85,1591.7 2992.16,1593.27C2999.4,1602.27 3006.31,1611.64 3014.72,1619.4C3033.22,1636.47 3052.5,1652.7 3071.53,1669.18C3087.73,1683.18 3103.62,1697.61 3120.58,1710.63C3124.78,1713.85 3134.09,1714.99 3138.58,1712.53C3161.89,1699.83 3179.39,1678.59 3187.4,1653.28C3199.72,1615.09 3184.07,1589.97 3156.65,1567.45C3111.06,1530 3059.39,1523.58 3005.16,1548.85C2995.93,1553.17 2987.79,1559.6 2979.18,1565Z" style="fill-rule:nonzero;"/>
        </g>
        <g transform="matrix(0.415134,0,0,0.415134,1488.64,1527.06)">
            <path d="M2833.84,1963.31C2831.69,1946.31 2842.21,1929.09 2857.31,1924.6C2890.02,1914.89 2920.17,1923.22 2948.22,1939.67C2979.57,1958.07 3003.75,1983.9 3022.22,2015.46C3036.11,2039.23 3045.9,2064.2 3052.81,2090.85C3057.95,2110.65 3060.1,2130.34 3055.97,2149.85C3051.28,2172.05 3041.97,2192.85 3017.68,2200.1C2997.74,2206.03 2978.82,2199.44 2961.26,2189.81C2952.74,2185.14 2944.98,2179.09 2936.94,2173.72C2946.77,2165.64 2956.51,2159.61 2963.56,2151.3C2971.08,2142.45 2977.11,2131.92 2981.88,2121.3C2988.32,2106.76 2990.49,2090.67 2988.14,2074.94C2980.83,2023.48 2953.6,1974.16 2900.81,1959.7C2878.19,1953.52 2855.82,1955.46 2833.84,1963.31Z" style="fill:white;fill-rule:nonzero;"/>
        </g>
        <g transform="matrix(0.415134,0,0,0.415134,1488.64,1527.06)">
            <path d="M2138.84,2227.15C2104.44,2234.62 2072.76,2236.15 2043.3,2215.72C2028.39,2205.4 2021.69,2190.2 2018.97,2173.81C2015.09,2150.47 2023.16,2129.08 2033.2,2108.03C2052.61,2067.34 2084.3,2038.03 2119.46,2011.75C2122.8,2009.25 2128.24,2006.4 2131.46,2007.47C2141.3,2010.73 2148.22,2006.1 2155.16,2001.07C2194.24,1972.79 2232.73,1972.07 2272.55,2000.72C2285.36,2009.94 2296.39,2021.99 2298.83,2039.72C2289.44,2035.42 2281.21,2030.38 2272.27,2027.78C2239.33,2018.2 2212.19,2030.78 2188.75,2052.66C2163.28,2076.45 2145.02,2105.37 2132.97,2138.1C2128.64,2149.87 2122.62,2161.56 2121.19,2173.74C2118.65,2195.5 2115.19,2201 2138.84,2227.15Z" style="fill:white;fill-rule:nonzero;"/>
        </g>
        <g transform="matrix(0.415134,0,0,0.415134,1488.64,1527.06)">
            <path d="M2639.35,2301.23C2593.9,2299.48 2558.35,2298.63 2524.42,2286.34C2516.94,2283.63 2507.08,2282.22 2506.51,2271.96C2505.94,2261.7 2515.2,2258.01 2522.74,2254.23C2557.41,2236.85 2595.19,2233.28 2632.98,2230.55C2649.11,2229.39 2665.41,2230.8 2681.57,2229.85C2711.26,2228.09 2735.98,2241.85 2761.3,2253.99C2767.73,2257.09 2768.87,2260.08 2763.6,2266.28C2748.22,2284.34 2727.06,2290.28 2705.44,2293.79C2680.36,2297.9 2654.87,2299.56 2639.35,2301.23Z" style="fill:rgb(255,187,190);fill-rule:nonzero;"/>
        </g>
        <g transform="matrix(0.415134,0,0,0.415134,1488.64,1527.06)">
            <path d="M2012.1,1636.15C1997.47,1651.39 1985.24,1663.65 1973.56,1676.41C1957.56,1693.89 1941.7,1711.53 1926.27,1729.52C1908.6,1750.14 1892.03,1771.72 1873.85,1791.87C1865.02,1801.65 1857.45,1806.87 1842.85,1795.12C1826.29,1781.72 1813.05,1765.86 1801.67,1747.86C1789.29,1728.26 1783.79,1707.77 1786.57,1684.73C1789.37,1661.48 1802.35,1643.73 1819.57,1630.39C1869.09,1592.16 1923.77,1587.39 1980.62,1611.98C1991.92,1616.86 2000.79,1627.25 2012.1,1636.15Z" style="fill:rgb(255,136,136);fill-rule:nonzero;"/>
        </g>
        <g transform="matrix(0.415134,0,0,0.415134,1488.64,1527.06)">
            <path d="M2979.18,1565C2987.79,1559.57 2995.93,1553.14 3005.08,1548.88C3059.31,1523.61 3110.98,1530.03 3156.57,1567.48C3183.99,1590 3199.64,1615.12 3187.32,1653.31C3179.32,1678.62 3161.81,1699.86 3138.5,1712.56C3134.05,1715.02 3124.74,1713.88 3120.5,1710.66C3103.5,1697.66 3087.65,1683.22 3071.45,1669.21C3052.45,1652.73 3033.14,1636.5 3014.64,1619.43C3006.23,1611.67 2999.32,1602.25 2992.08,1593.3C2990.81,1591.73 2990.65,1588.58 2991.08,1586.4C2993.14,1576.95 2991.32,1569.91 2979.7,1568.03L2979.18,1565Z" style="fill:rgb(255,136,136);fill-rule:nonzero;"/>
        </g>
    </g>
</svg>
