<?xml version="1.0" encoding="UTF-8" standalone="no"?>
<!DOCTYPE svg PUBLIC "-//W3C//DTD SVG 1.1//EN" "http://www.w3.org/Graphics/SVG/1.1/DTD/svg11.dtd">
<svg width="100%" height="100%" viewBox="0 0 1024 1024" version="1.1" xmlns="http://www.w3.org/2000/svg" xmlns:xlink="http://www.w3.org/1999/xlink" xml:space="preserve" xmlns:serif="http://www.serif.com/" style="fill-rule:evenodd;clip-rule:evenodd;stroke-linejoin:round;stroke-miterlimit:2;">
    <g transform="matrix(2.3099,0,0,2.3099,-82.626,-94.8239)">
        <g id="b">
            <g id="c">
                <g>
                    <path d="M194.47,419.47C188.69,416.24 182.91,413.01 177.13,409.78C176.23,409.28 175.34,408.78 174.63,408C173.44,406.69 173.15,405.09 173.85,403.64C174.59,402.11 176.11,401.34 177.94,401.55C178.99,401.67 179.9,402.15 180.8,402.64C182.77,403.73 184.73,404.83 187.02,406.11C186.72,405.2 186.22,404.88 185.85,404.48C185.15,403.72 184.44,402.98 184,402.03C183.25,400.43 183.55,398.62 184.74,397.49C185.96,396.33 187.69,396.13 189.3,396.96C190.23,397.44 190.93,398.2 191.64,398.94C195.77,403.24 199.9,407.54 204.02,411.84C204.63,412.47 205.18,413.15 205.83,413.88C206.43,413.24 206.18,412.76 206.21,412.33C206.23,412.13 206.2,411.92 206.19,411.71C205.95,407.21 206.12,402.7 205.22,398.22C204.6,395.14 204.68,391.95 204.73,388.79C204.98,372.42 205.24,356.05 205.5,339.67C205.51,338.8 205.5,337.92 205.5,336.74C204.72,337.42 204.48,338.12 204.11,338.72C202.05,342.04 199.44,344.79 195.91,346.57C189.67,349.73 183.29,348.19 179.21,342.5C176.72,339.03 175.55,335.03 174.67,330.92C173.37,324.87 172.88,318.72 172.69,312.56C172.35,301.54 172.12,290.51 172.66,279.48C172.78,276.95 172.93,274.42 173.09,271.89C173.14,271.16 173.02,270.61 172.38,270.12C169.78,268.07 168.52,265.21 167.73,262.1C167.1,259.64 166.82,257.11 166.67,254.58C166.27,247.9 166.73,241.28 168.67,234.85C172.19,223.19 179.71,215.07 190.75,210.06C195.57,207.87 200.58,206.28 205.61,204.74C207.57,204.14 209.52,203.51 211.47,202.45C210.88,201.96 210.23,201.93 209.62,201.79C200.18,199.66 190.98,196.84 182.31,192.45C175.03,188.76 168.49,184.08 163.25,177.75C157.25,170.51 153.79,162.1 152.09,152.93C150.34,143.49 150.46,133.97 151.01,124.46C151.93,108.52 154.1,92.7 156.25,76.89C156.79,72.96 157.53,69.05 158.16,65.13C158.43,63.43 158.41,63.42 156.66,63.46C155.56,63.49 154.47,63.58 153.37,63.55C150.95,63.48 149.86,62.53 149,60.26C148.35,58.55 148.12,56.84 148.18,55.04C148.24,53.33 148.18,51.61 148.23,49.9C148.26,48.85 148.06,47.95 147.52,46.99C146.04,44.38 147.68,41.41 150.68,41.1C151.49,41.02 152.32,41.06 153.14,41.07C187.05,41.39 220.96,41.78 254.87,42.01C268.5,42.1 282.13,41.85 295.76,41.73C318.09,41.52 340.43,41.29 362.76,41.07C363.31,41.07 363.86,41.04 364.4,41.13C367.18,41.56 368.76,44.43 367.37,46.85C366.74,47.95 366.61,48.99 366.63,50.15C366.65,51.86 366.54,53.58 366.68,55.29C366.84,57.27 366.28,59.08 365.62,60.88C364.91,62.8 363.36,63.53 361.42,63.56C359.85,63.58 358.29,63.56 356.7,63.56C356.27,64.08 356.64,64.61 356.72,65.11C359.29,80.58 361.3,96.13 362.83,111.74C363.92,122.86 364.73,134 363.78,145.18C363.08,153.37 361.29,161.27 357.56,168.65C352.8,178.05 345.53,185.03 336.52,190.29C328.3,195.09 319.41,198.22 310.24,200.6C308,201.18 305.74,201.7 303.24,202.31C304.83,203.34 306.36,203.84 307.89,204.33C313.03,205.98 318.25,207.4 323.18,209.67C327.81,211.8 332.21,214.29 335.91,217.84C342,223.67 345.62,230.87 347.21,239.07C348.62,246.32 348.75,253.63 347.37,260.92C346.68,264.57 345.34,267.9 342.3,270.27C341.62,270.8 341.7,271.43 341.75,272.11C342.62,282.71 342.48,293.33 342.38,303.95C342.32,310.94 342.06,317.92 341.18,324.86C340.64,329.15 339.84,333.38 338.3,337.44C337.57,339.37 336.63,341.19 335.39,342.85C331.4,348.14 325.28,349.63 319.3,346.77C316.07,345.22 313.54,342.86 311.53,339.93C310.91,339.03 310.36,338.09 309.73,337.08C309.05,337.62 309.37,338.35 309.38,338.95C309.58,353.06 309.8,367.17 310.03,381.28C310.1,385.94 310.15,390.6 309.94,395.25C309.86,397.1 309.67,398.94 309.27,400.75C308.33,404.99 308.99,409.29 308.59,414.04C309.52,413.13 310.1,412.58 310.65,412.01C314.73,407.76 318.8,403.5 322.89,399.26C323.51,398.62 324.13,397.97 324.83,397.43C326.63,396.06 328.65,396.1 330.08,397.44C331.53,398.79 331.71,400.81 330.47,402.68C329.98,403.42 329.32,404.04 328.77,404.73C328.54,405.02 328.09,405.17 328.17,405.89C329.9,404.93 331.54,404.01 333.2,403.12C334.1,402.63 334.99,402.09 335.95,401.76C338.02,401.03 340.03,401.76 340.93,403.47C341.8,405.1 341.36,407.09 339.76,408.44C339.14,408.96 338.42,409.38 337.7,409.78C332.14,412.88 326.57,415.95 321.01,419.05C320.8,419.17 320.49,419.21 320.41,419.73C322.3,419.82 324.17,419.75 326.03,420.02C334.11,421.19 339.98,425.46 343.57,432.71C347.14,439.91 348.2,447.56 346.9,455.5C346.74,456.49 346.8,456.94 347.84,457.46C349.14,458.11 350.27,459.08 351.65,459.69C352.86,460.23 353.32,461.5 353.23,462.81C352.99,466.57 352.89,470.35 352.19,474.05C351.43,478.09 349.03,480.79 345.14,482.16C341.02,483.61 336.72,484.04 332.41,484.19C321.11,484.58 309.81,484.27 298.52,483.59C292.57,483.23 286.63,482.74 280.7,482.2C278.86,482.03 277.02,481.8 275.23,481.32C270.87,480.17 268.57,477.2 268.51,472.66C268.48,470.52 268.99,468.45 269.4,466.37C269.57,465.5 269.73,464.62 270,463.77C270.84,461.04 270.77,458.36 270.32,455.51C269.58,450.84 269.95,446.08 270.24,441.36C270.84,431.72 271.49,422.08 272.1,412.45C272.18,411.21 272.23,409.98 272.83,408.86C273.09,408.37 273.06,407.99 272.71,407.55C270.33,404.55 269.83,400.96 269.62,397.3C269.37,392.92 269.35,388.54 269.37,384.15C269.43,364.07 268.82,344.01 268.01,323.95C267.91,321.52 268.36,321.22 265.36,321.7C265.22,321.72 265.09,321.75 264.95,321.74C259.55,321.39 254.14,321.89 248.74,321.57C247.03,321.47 246.94,321.4 246.86,323.25C246.61,328.79 246.44,334.34 246.23,339.88C245.57,357.61 245.37,375.36 245.37,393.1C245.37,395.98 245.2,398.85 244.65,401.68C244.25,403.73 243.58,405.66 242.27,407.29C241.76,407.92 241.72,408.43 242.11,409.11C242.53,409.84 242.56,410.68 242.61,411.5C243.12,419.29 243.65,427.08 244.15,434.87C244.37,438.22 244.59,441.57 244.74,444.92C244.94,449.51 245.15,454.1 243.92,458.6C243.74,459.25 243.96,459.82 244.09,460.41C244.72,463.36 245.34,466.3 245.98,469.24C246.29,470.66 246.33,472.1 246.24,473.54C246,477.1 244.21,479.57 240.88,480.88C238.95,481.63 236.9,481.91 234.86,482.1C226.75,482.86 218.62,483.51 210.48,483.87C201.37,484.28 192.27,484.44 183.15,484.19C179.73,484.09 176.32,483.76 172.96,483.04C172.63,482.97 172.29,482.91 171.96,482.82C165.54,481.16 162.89,478.09 162.27,471.5C162.02,468.84 161.77,466.18 161.59,463.52C161.42,460.99 162.15,459.94 164.56,459.07C165.85,458.61 166.52,457.2 167.96,456.91C168.3,456.84 168.06,456.17 167.99,455.77C166.58,448.26 167.61,441.02 170.6,434.07C173.75,426.75 179.18,421.99 187.08,420.27C189.49,419.74 191.96,419.64 194.45,419.43L194.47,419.47Z" style="fill:rgb(16,18,17);fill-rule:nonzero;"/>
                    <path d="M257.45,61.54C270.39,61.8 283.34,62.06 296.28,62.3C308.27,62.53 320.25,62.74 332.24,62.97C337.38,63.07 342.51,63.18 347.65,63.29C349.19,63.32 349.23,63.33 349.36,64.87C350.43,77.43 352.39,89.88 353.8,102.4C355.27,115.4 356.58,128.42 356,141.54C355.76,147.03 354.98,152.44 353.37,157.71C350.25,167.96 344.08,175.9 335.13,181.73C327.89,186.45 319.94,189.55 311.68,191.9C300.17,195.17 288.42,196.93 276.47,197.43C271.68,197.63 266.88,197.68 262.09,197.69C261.26,197.69 260.5,197.58 259.72,197.21C258.23,196.5 256.64,196.5 255.16,197.21C254.38,197.59 253.61,197.68 252.79,197.68C242.92,197.73 233.06,197.47 223.28,196.07C210.14,194.18 197.35,191.09 185.44,185.01C179.91,182.19 174.88,178.66 170.68,174.04C164.74,167.5 161.48,159.7 159.96,151.1C158.74,144.25 158.56,137.34 158.81,130.42C159.22,119.05 160.43,107.75 161.84,96.47C163.16,85.94 164.62,75.43 165.58,64.86C165.72,63.34 165.69,63.31 167.26,63.28C182.12,63.01 196.98,62.72 211.85,62.44C226.85,62.15 241.85,61.85 256.85,61.56C257.06,61.56 257.26,61.54 257.47,61.53L257.45,61.54Z" style="fill:rgb(227,255,255);fill-rule:nonzero;"/>
                    <path d="M213.59,209.61C213.66,211.03 213.69,212.18 213.77,213.33C213.92,215.52 215.09,216.84 217.26,217.27C217.73,217.36 218.21,217.39 218.69,217.4C230.33,217.69 241.97,218.07 253.61,218.23C263.45,218.37 273.29,217.93 283.13,217.71C287.31,217.61 291.48,217.52 295.66,217.41C296.41,217.39 297.17,217.36 297.9,217.19C299.8,216.77 300.88,215.57 301.1,213.66C301.25,212.38 301.29,211.09 301.38,209.65C308.55,212.83 316.02,214.91 322.91,218.44C322.97,218.47 323.03,218.51 323.09,218.54C332.39,223.28 337.58,231.04 339.47,241.1C340.59,247.06 340.69,253.08 339.59,259.08C339.48,259.68 339.31,260.28 339.16,260.88C338.65,262.97 337.37,264.36 335.34,265.08C332.54,266.07 329.67,266.64 326.71,266.8C323.63,266.96 320.55,266.73 317.48,266.51C316.63,266.45 316.45,266.08 316.39,265.4C316.32,264.58 316.24,263.76 316.11,262.95C316,262.28 315.9,261.58 315.65,260.96C315.08,259.55 313.72,258.76 312.21,258.86C310.71,258.96 309.53,259.93 309.1,261.42C308.89,262.16 308.89,262.9 308.93,263.66C309.3,270.7 309.67,277.75 310.02,284.79C310.07,285.88 310,286.98 310.07,288.08C310.22,290.45 308.99,291.96 306.89,292.5C304.94,293.01 302.98,293.68 300.89,293.61C299.02,293.54 297.23,293.13 295.47,292.54C294.56,292.23 293.68,291.87 292.77,291.56C290.04,290.63 287.39,290.76 284.82,292.13C283.61,292.78 282.4,293.42 281.19,294.05C279.54,294.91 277.8,295.5 275.95,295.78C273.04,296.22 270.35,295.73 267.99,293.9C265.63,292.06 263.46,291.73 260.68,293.6C258.62,294.99 256.27,294.89 254.1,293.57C251.27,291.85 249.76,291.79 247.16,293.75C244.04,296.1 240.66,296.37 237.03,295.37C235.44,294.93 233.88,294.34 232.52,293.42C228.41,290.64 224.2,290.28 219.69,292.41C217.7,293.35 215.49,293.8 213.28,293.57C211.27,293.36 209.24,293.05 207.34,292.25C205.72,291.57 204.87,290.33 204.84,288.59C204.81,287.02 204.84,285.44 204.91,283.87C205.24,277.24 205.6,270.6 205.95,263.97C205.98,263.42 206,262.87 205.96,262.33C205.83,260.41 204.55,259.04 202.78,258.89C200.9,258.73 199.36,259.89 198.97,261.88C198.74,263.09 198.63,264.32 198.52,265.55C198.46,266.22 198.18,266.47 197.5,266.52C192.51,266.95 187.53,267.21 182.58,266.02C177.12,264.72 175.77,263.33 175.07,257.78C174.22,250.99 174.35,244.24 176.25,237.62C178.6,229.4 183.38,223.06 191,219.01C192.75,218.08 194.53,217.19 196.35,216.41C201.94,214.02 207.76,212.21 213.57,209.62L213.59,209.61Z" style="fill:rgb(225,249,207);fill-rule:nonzero;"/>
                    <path d="M301.44,349.85C301.66,361.56 301.89,373.27 302.09,384.99C302.16,388.89 302.12,392.8 301.78,396.7C301.36,401.54 300.58,402.34 295.7,402.92C292.02,403.36 288.33,403.53 284.63,403.61C283.68,403.63 282.71,403.54 281.76,403.43C279.1,403.11 278.5,402.58 278.02,399.93C277.67,397.97 277.55,395.99 277.53,394C277.46,383.86 277.5,373.72 277.29,363.58C277.03,350.7 276.58,337.83 276.17,324.96C276.12,323.25 275.98,321.53 275.69,319.85C274.94,315.48 272.01,313.1 267.58,313.44C264.42,313.68 261.3,313.76 258.16,313.4C257.42,313.31 256.65,313.36 255.91,313.46C253.31,313.78 250.73,313.79 248.13,313.49C243.05,312.92 239.97,315.24 239.13,320.24C238.62,323.29 238.63,326.38 238.52,329.46C237.83,349.32 237.35,369.18 237.36,389.05C237.36,391.99 237.32,394.95 237.11,397.88C236.78,402.72 235.88,403.6 231.08,403.61C226.36,403.62 221.63,403.48 216.97,402.54C214.39,402.02 213.81,401.38 213.37,398.77C212.73,394.97 212.79,391.12 212.83,387.29C212.94,377.84 213.15,368.39 213.29,358.93C213.46,346.74 213.6,334.54 213.74,322.35C213.81,315.98 213.75,309.61 213.44,303.24C213.37,301.84 213.42,301.82 214.83,301.69C217.85,301.41 220.79,300.74 223.57,299.56C225.04,298.94 226.26,299.07 227.62,299.88C230.45,301.58 233.43,302.92 236.71,303.53C241.16,304.35 245.45,303.99 249.46,301.78C250.4,301.26 251.13,301.23 252.13,301.65C255.71,303.15 259.33,303.11 262.92,301.6C263.63,301.3 264.2,301.09 265.01,301.54C270.98,304.88 277.08,304.52 283.19,301.95C284.82,301.26 286.38,300.37 287.95,299.54C288.78,299.1 289.56,298.9 290.49,299.27C293.75,300.57 297.09,301.53 300.62,301.7C301.25,301.73 301.45,302.04 301.42,302.61C301.41,302.88 301.42,303.16 301.4,303.43C300.86,316.31 301.31,329.19 301.36,342.06L301.36,349.87L301.44,349.87L301.44,349.85Z" style="fill:rgb(0,255,223);fill-rule:nonzero;"/>
                    <path d="M286.97,411.58C291.29,411.58 295.58,411.3 299.81,410.41C300.77,410.21 301.07,410.56 300.99,411.45C300.78,413.97 300.66,416.5 300.35,419.01C300.1,420.99 300.05,422.97 300.14,424.95C300.36,429.69 303.74,432.1 308.3,430.81C311.71,429.84 315.06,428.59 318.61,428.15C323.55,427.54 328.32,427.8 332.43,431.14C334.39,432.73 335.77,434.75 336.77,437.02C339.12,442.33 339.98,447.86 339.16,453.63C338.73,456.68 337.46,458.2 334.4,458.71C329.39,459.54 324.34,459.69 319.27,459.46C318.52,459.42 317.77,459.3 317.02,459.3C310.52,459.37 304.02,458.99 297.53,458.69C292.01,458.44 286.47,458.15 281.01,457.17C278.64,456.74 278.53,456.53 278.25,454.16C277.61,448.61 278.31,443.1 278.64,437.58C278.77,435.46 278.89,433.35 279.04,431.24C279.45,425.65 279.71,420.05 280.02,414.45C280.127,412.523 281.14,411.573 283.06,411.6C284.36,411.61 285.66,411.6 286.96,411.6L286.97,411.58Z" style="fill:rgb(153,92,60);fill-rule:nonzero;"/>
                    <path d="M236.75,448.45C236.75,450.3 236.83,452.15 236.73,454C236.61,456.4 236.16,456.8 233.84,457.17C229.38,457.88 224.89,458.22 220.38,458.47C212.59,458.92 204.79,459.07 197,459.37C192.61,459.54 188.25,459.37 183.88,459.19C182.3,459.12 180.75,458.81 179.25,458.34C177.47,457.78 176.31,456.55 175.99,454.71C174.74,447.51 175.71,440.64 179.63,434.39C182.25,430.2 186.29,428.26 191.17,427.94C195.48,427.66 199.59,428.64 203.66,429.9C204.9,430.28 206.14,430.67 207.41,430.97C210.6,431.72 213.4,430.2 214.37,427.14C214.78,425.84 215,424.46 214.87,423.09C214.53,419.42 214.46,415.72 213.85,412.07C213.82,411.87 213.84,411.66 213.81,411.46C213.71,410.57 214.05,410.16 214.98,410.38C220.22,411.61 225.56,411.58 230.9,411.63C232.1,411.63 233.59,411.01 234.44,411.91C235.18,412.7 234.71,414.14 234.79,415.29C235.21,421.57 235.57,427.85 236.04,434.12C236.39,438.9 236.82,443.67 236.75,448.46L236.75,448.45Z" style="fill:rgb(153,92,60);fill-rule:nonzero;"/>
                    <path d="M317.33,274.52C323.21,275.11 328.8,275.2 334.23,273.75C334.71,274.56 334.53,275.26 334.53,275.92C334.37,287.63 334.64,299.35 334.21,311.05C333.95,318.03 333.55,325.01 331.75,331.81C331.22,333.8 330.54,335.74 329.4,337.47C327.51,340.32 325.13,340.88 322.16,339.17C319.82,337.83 318.23,335.79 317.01,333.45C315.12,329.81 314.24,325.88 313.73,321.85C312.76,314.28 312.98,306.68 313.06,299.07C313.06,298.53 313.22,298.17 313.64,297.86C317.17,295.23 318.15,291.49 318.15,287.34C318.15,283.91 317.83,280.5 317.58,277.09C317.53,276.34 317.43,275.6 317.33,274.51L317.33,274.52Z" style="fill:rgb(227,255,255);fill-rule:nonzero;"/>
                    <path d="M180.7,273.78C186.18,275.13 191.69,275.18 197.12,274.53C197.69,275.19 197.41,275.74 197.38,276.25C197.1,280.01 196.78,283.76 196.8,287.53C196.81,289.6 197.01,291.64 197.84,293.56C198.53,295.16 199.54,296.54 200.94,297.58C201.61,298.08 201.88,298.6 201.88,299.45C201.83,306.09 202.12,312.73 201.47,319.36C201.08,323.39 200.42,327.37 198.95,331.16C198.03,333.54 196.8,335.75 194.93,337.53C194.44,338 193.9,338.44 193.34,338.82C190,341.06 187.26,340.46 185.24,337C183.45,333.93 182.74,330.51 182.14,327.06C181.03,320.63 180.71,314.13 180.61,307.63C180.45,296.81 180.48,285.99 180.44,275.18C180.44,274.78 180.36,274.36 180.71,273.77L180.7,273.78Z" style="fill:rgb(227,255,255);fill-rule:nonzero;"/>
                    <path d="M255.25,50.16C290.3,49.83 323.24,49.51 356.19,49.2C358.96,49.17 358.59,48.83 358.62,51.54C358.63,52.76 359.15,54.34 358.42,55.13C357.58,56.04 355.95,55.43 354.68,55.41C325.72,54.87 296.75,54.39 267.79,53.7C254.63,53.39 241.5,53.92 228.35,54.09C220.82,54.19 213.29,54.39 205.75,54.54C190,54.85 174.25,55.16 158.5,55.45C155.93,55.5 156.21,55.75 156.26,53.15C156.28,51.87 155.67,50.24 156.59,49.41C157.39,48.69 158.96,49.23 160.18,49.24C183.47,49.44 206.75,49.64 230.04,49.86C239.15,49.95 248.26,50.08 255.25,50.17L255.25,50.16Z" style="fill:rgb(216,255,248);fill-rule:nonzero;"/>
                    <path d="M198.56,476.26C191.37,476.43 184.19,476.53 177.03,475.65C175.47,475.46 173.93,475.14 172.44,474.62C171.17,474.18 170.35,473.36 170.14,472C169.79,469.7 169.43,467.41 169.08,465.11C169,464.61 169.24,464.3 169.73,464.28C171.27,464.21 172.76,463.82 174.27,464.83C176.35,466.21 178.84,466.63 181.29,466.94C183.32,467.19 185.37,467.4 187.43,467.42C200.51,467.57 213.57,466.97 226.62,466.1C229.62,465.9 232.62,465.58 235.57,464.96C236.49,464.77 236.97,464.96 237.14,465.94C237.46,467.83 237.92,469.69 238.21,471.58C238.47,473.28 238.33,473.49 236.65,473.78C233.41,474.35 230.13,474.52 226.85,474.8C217.44,475.6 208,476.12 198.55,476.26L198.56,476.26Z" style="fill:rgb(244,233,221);fill-rule:nonzero;"/>
                    <path d="M314.4,476.21C308.47,476.14 300.82,475.79 293.17,475.21C288.53,474.86 283.9,474.43 279.27,473.96C276.55,473.69 276.29,473.28 276.79,470.57C277.08,469.02 277.52,467.51 277.76,465.96C277.92,464.94 278.38,464.83 279.29,464.96C295.46,467.24 311.75,467.37 328.04,467.39C330.43,467.39 332.81,467.09 335.18,466.68C337.29,466.31 339.32,465.73 341.13,464.58C342.5,463.71 343.92,464.28 345.32,464.33C345.7,464.34 345.83,464.74 345.77,465.12C345.41,467.62 345.26,470.15 344.59,472.61C344.23,473.92 343.19,474.42 342.07,474.77C339.71,475.52 337.26,475.84 334.81,476.01C328.59,476.44 322.37,476.5 314.4,476.22L314.4,476.21Z" style="fill:rgb(244,233,221);fill-rule:nonzero;"/>
                    <path d="M293.76,206.71L293.76,207.37C293.73,209.33 293.73,209.37 291.74,209.42C282.43,209.67 273.12,209.89 263.81,210.14C261.83,210.19 259.85,210.19 257.87,210.46C256.33,210.67 254.76,210.19 253.18,210.15C243.12,209.94 233.06,209.67 222.99,209.42C221.06,209.37 221.16,209.56 221.17,207.43C221.17,206.35 220.75,205.01 221.48,204.25C222.18,203.53 223.42,204.24 224.4,204.37C234.48,205.72 244.61,205.71 254.74,205.7C260.69,205.7 266.64,205.65 272.58,205.62C279.09,205.58 285.57,204.99 292.02,204.16C293.54,203.97 293.54,203.95 293.67,205.52C293.71,206 293.73,206.48 293.74,206.71L293.76,206.71Z" style="fill:rgb(243,233,221);fill-rule:nonzero;"/>
                    <path d="M313.96,134.59C317.1,132.88 320.16,132.96 323.27,133.96C324.63,134.4 325.95,134.34 327.25,133.66C327.85,133.35 328.51,133.12 329.16,132.92C335.55,130.93 340.72,135.57 339.43,142.15C338.85,145.13 337.39,147.65 335.29,149.81C332.8,152.37 329.77,154.07 326.47,155.29C322.15,156.88 317.68,157.85 313.09,158.32C311.66,158.47 310.24,158.73 308.82,158.92C307.4,159.12 305.99,159.46 304.54,159.13C303.98,159 303.47,159.2 302.95,159.39C300.37,160.34 297.71,160.98 294.95,161.08C294.17,161.11 293.88,161.42 293.67,162.08C292.95,164.43 291.41,166.16 289.35,167.37C282.35,171.46 275.11,171.86 267.74,168.43C265.41,167.35 263.49,165.65 261.99,163.56C261.42,162.76 260.87,162.56 259.94,162.85C258.22,163.4 256.42,163.34 254.64,163.32C248.54,163.27 242.44,163.24 236.35,163.12C230.59,163 224.85,162.71 219.25,161.15C217.87,160.76 216.5,160.31 215.14,159.88C214.68,159.74 214.32,159.64 213.82,159.95C209.23,162.81 204.19,164.42 198.88,165.34C196.19,165.81 193.56,165.66 190.97,164.83C189.25,164.28 187.72,163.4 186.47,162.06C183.41,158.77 183.5,154.17 186.68,150.99C188.18,149.5 190.05,148.68 192,147.99C193.42,147.49 194.85,147.03 196.13,146.19C196.85,145.72 197.14,145.17 196.85,144.29C194.56,137.47 195.41,130.76 197.78,124.17C203.26,108.9 212.13,96.22 226.04,87.43C235.91,81.19 246.6,77.87 258.36,78.54C269.14,79.15 278.67,82.67 287.03,89.8C300.74,101.5 308.96,116.36 313.66,133.46C313.73,133.72 313.8,133.98 313.96,134.56L313.96,134.59Z" style="fill:rgb(16,18,17);fill-rule:nonzero;"/>
                    <path d="M258.03,155.65C256.92,156.03 255.82,156.01 254.73,155.96C248.36,155.7 241.99,155.87 235.62,155.74C230.41,155.63 225.22,155.32 220.18,153.79C215.52,152.38 211.02,150.59 206.75,148.22C205.67,147.62 204.96,146.83 204.47,145.71C202.65,141.49 202.04,137.08 203.17,132.65C208.7,110.88 221.13,95.05 242.93,87.76C252.03,84.72 261.3,85.36 270.39,88.33C274.14,89.56 277.41,91.66 280.5,94.09C290.55,101.98 297.72,111.98 302.57,123.74C304.98,129.58 306.96,135.54 307.68,141.85C307.88,143.56 307.95,145.27 307.84,146.98C307.76,148.34 307.31,149.4 305.8,149.94C304.46,150.41 303.25,151.26 302,151.97C300.07,153.06 298.02,153.8 295.85,154.19C293.57,154.61 291.49,154.55 289.51,152.9C287.55,151.26 285,150.67 282.53,150.07C280.4,149.56 278.28,148.99 276.31,148.01C274.71,147.21 273.32,146.19 272.13,144.78C270.76,143.17 269.03,141.9 266.96,141.23C263.99,140.28 260.91,141.41 259.07,144.14C257.28,146.8 257.09,149.77 257.48,152.82C257.6,153.76 257.84,154.69 258.02,155.65L258.03,155.65Z" style="fill:rgb(253,211,205);fill-rule:nonzero;"/>
                    <path d="M277.64,163.3C269.96,163.3 264.42,157.59 264.75,150.2C264.82,148.56 265.06,148.42 266.59,149.06C266.98,149.22 267.32,149.41 267.59,149.74C270.67,153.38 274.79,155.28 279.21,156.71C280.96,157.28 282.79,157.63 284.46,158.46C285.24,158.85 286.36,159.15 286.34,160.13C286.33,160.95 285.31,161.32 284.58,161.7C282.35,162.87 279.96,163.36 277.64,163.31L277.64,163.3Z" style="fill:rgb(233,15,129);fill-rule:nonzero;"/>
                    <path d="M332.08,140.01C332.31,141.55 331.62,142.65 330.86,143.7C329.67,145.34 328.07,146.52 326.26,147.4C322.73,149.13 318.96,150.04 315,150.66C314.68,149.68 315.2,148.85 315.22,148C315.25,146.63 315.27,145.26 315.26,143.89C315.24,141.46 317.14,139.85 319.55,140.34C320.22,140.48 320.87,140.72 321.52,140.93C324.44,141.89 327.31,141.81 330.12,140.52C330.67,140.27 331.22,139.96 332.08,140.01Z" style="fill:rgb(232,15,129);fill-rule:nonzero;"/>
                    <path d="M205.98,155.68C202.15,157.28 198.51,158.52 194.54,158.16C193.49,158.06 192.02,157.89 191.83,156.72C191.63,155.43 193.13,155.17 194.08,154.74C195.88,153.93 197.76,153.28 199.38,152.12C199.91,151.74 200.33,151.79 200.83,152.21C202.34,153.49 204.05,154.48 205.98,155.67L205.98,155.68Z" style="fill:rgb(231,15,128);fill-rule:nonzero;"/>
                    <path d="M210.76,140.91C210.97,137.9 212.65,134.99 215.1,132.47C215.91,131.64 217.17,131.08 217.6,130.12C217.99,129.25 217.05,128.12 216.92,127.03C216.62,124.51 217.03,122.11 217.92,119.78C219.97,114.44 223.33,109.99 227.42,106.06C227.81,105.68 228.23,105.32 228.77,105.15C229.28,104.99 229.74,105.09 230.07,105.48C230.41,105.88 230.42,106.4 230.13,106.82C229.86,107.2 229.46,107.5 229.12,107.83C225.71,111.17 222.95,114.97 221.01,119.34C220.12,121.35 219.48,123.43 219.52,125.68C219.56,127.8 220.36,129.55 222.02,130.86C225.75,133.8 232.25,135.58 237.21,129.66C239,127.51 240.27,125.13 240.49,122.28C240.52,121.94 240.53,121.59 240.63,121.27C240.85,120.56 241.29,120.02 242.11,120.14C242.91,120.26 243.3,120.87 243.25,121.61C243.19,122.63 243.13,123.69 242.82,124.65C242.47,125.75 242.78,126.22 243.81,126.6C247.66,128 250.6,130.63 253.17,133.72C254.14,134.88 254.91,136.17 255.36,137.63C256.67,141.89 253.92,145.76 249.45,145.89C247.77,145.94 246.2,145.49 244.67,144.86C242.9,144.13 241.14,143.37 239.39,142.61C236.18,141.21 233,141.34 229.86,142.79C227.56,143.85 225.3,144.99 223.01,146.04C221.01,146.96 218.93,147.62 216.69,147.6C212.97,147.56 210.67,145.2 210.77,140.91L210.76,140.91Z" style="fill:rgb(17,18,17);fill-rule:nonzero;"/>
                    <path d="M257.54,128.38C254.63,128.27 252.4,126 252.53,123.27C252.66,120.6 255.02,118.39 257.68,118.45C260.22,118.51 262.45,120.59 262.22,123C261.92,126.22 261.3,128.45 257.53,128.37L257.54,128.38Z" style="fill:rgb(17,19,18);fill-rule:nonzero;"/>
                    <path d="M210.38,127.94C208.24,127.94 206.44,126.28 206.45,124.31C206.45,122.09 208.6,120.14 210.97,120.21C212.83,120.26 214.54,122.08 214.56,124.02C214.58,126.11 212.63,127.94 210.39,127.94L210.38,127.94Z" style="fill:rgb(17,19,18);fill-rule:nonzero;"/>
                    <path d="M222.38,134.73C219.87,135.88 217.89,137.65 216.1,139.65C215.69,140.11 215.24,140.55 215.04,141.15C214.88,141.62 214.86,142.11 215.28,142.47C215.76,142.88 216.3,142.84 216.8,142.51C217.08,142.32 217.31,142.05 217.51,141.78C219.56,139.06 222.52,137.61 225.4,136.04C225.97,135.73 226.47,135.99 226.99,136.06C229.9,136.4 232.75,136.35 235.34,134.75C236,134.34 236.58,134.41 237.27,134.68C239.58,135.58 241.76,136.7 243.74,138.21C244.17,138.54 244.6,138.9 245.07,139.16C245.67,139.49 246.27,139.43 246.73,138.87C247.21,138.28 247.05,137.68 246.57,137.21C245.44,136.1 244.12,135.23 242.73,134.48C241.41,133.77 240.05,133.14 238.58,132.42C239.41,131.27 240.2,130.19 240.96,129.1C241.32,128.58 241.73,128.7 242.22,128.9C243.74,129.52 245.26,130.14 246.58,131.16C248.65,132.76 250.58,134.5 251.96,136.75C252.94,138.34 253.5,140.06 252.33,141.75C251.12,143.51 249.24,143.33 247.47,142.95C245.66,142.56 244.01,141.68 242.32,140.92C240.19,139.96 238.03,139.12 235.67,138.95C232.84,138.74 230.27,139.61 227.76,140.78C225.53,141.83 223.39,143.05 221.08,143.94C219.73,144.46 218.36,144.86 216.9,144.87C214.33,144.87 213.08,143.53 213.42,140.98C213.73,138.68 214.8,136.69 216.27,134.93C218.79,131.9 219.29,131.88 222.38,134.75L222.38,134.73Z" style="fill:rgb(233,15,129);fill-rule:nonzero;"/>
                </g>
            </g>
        </g>
    </g>
</svg>
