<?xml version="1.0" encoding="UTF-8" standalone="no"?>
<!DOCTYPE svg PUBLIC "-//W3C//DTD SVG 1.1//EN" "http://www.w3.org/Graphics/SVG/1.1/DTD/svg11.dtd">
<svg width="100%" height="100%" viewBox="0 0 1900 1296" version="1.1" xmlns="http://www.w3.org/2000/svg" xmlns:xlink="http://www.w3.org/1999/xlink" xml:space="preserve" xmlns:serif="http://www.serif.com/" style="fill-rule:evenodd;clip-rule:evenodd;stroke-linejoin:round;stroke-miterlimit:2;">
    <g transform="matrix(1,0,0,1,-99.09,-168.67)">
        <path d="M1721.36,539C1729.65,565.91 1738.01,593.1 1746.36,620.28C1822.36,866.6 1898.38,1112.93 1974.42,1359.28C1981.88,1383.45 1989.42,1407.59 1996.84,1431.77C2000.27,1443 1996.77,1452.3 1987.84,1456.47C1978.19,1460.96 1967.33,1456.72 1963.14,1446.4C1960.9,1440.87 1959.42,1435.03 1957.65,1429.31C1885.94,1196.99 1814.22,964.673 1742.51,732.36C1730.35,692.873 1718.18,653.42 1706,614C1705.64,612.544 1704.84,611.237 1703.69,610.27L1703.69,616.69C1705.69,776.69 1707.72,936.663 1709.79,1096.61C1711.23,1210.25 1712.64,1323.9 1714.01,1437.55C1714.17,1441.87 1713.84,1446.19 1713.01,1450.43C1710.97,1458.31 1703.8,1463.86 1695.66,1463.86C1687.26,1463.86 1679.93,1457.95 1678.15,1449.74C1677.42,1445.14 1677.08,1440.48 1677.15,1435.82C1674.81,1255.02 1672.5,1074.22 1670.22,893.42C1668.67,771.1 1667.12,648.787 1665.55,526.48C1664.17,417.813 1662.78,309.147 1661.39,200.48L1661.39,197.98C1661.47,187.75 1662.28,186.58 1672,183.98C1699.78,176.59 1727.75,170.15 1756.77,171.19C1809.47,173.09 1856.01,190.19 1893.02,228.86C1939.86,277.804 1951.68,350.988 1922.64,412.19C1891.38,478.62 1837.85,517.03 1767.24,532.75C1752.35,536.11 1736.94,536.94 1721.36,539ZM1701.36,499.25C1703.68,499.63 1704.63,499.86 1705.61,499.93C1729.41,501.77 1752.93,500.11 1775.78,492.93C1829.07,476.17 1869.49,444.25 1891.24,391.75C1914.97,334.45 1896.45,271.53 1845.4,236.46C1801.79,206.51 1753.74,202.24 1703.32,214.52C1699.46,215.52 1698.45,217.16 1698.5,221.01C1699.54,295.677 1700.48,370.343 1701.33,445.01C1701.58,462.92 1701.4,480.91 1701.4,499.21L1701.36,499.25Z" style="fill-rule:nonzero;"/>
    </g>
    <g transform="matrix(1,0,0,1,-99.09,-168.67)">
        <path d="M99.09,1205.85C100.78,1190.92 102.51,1175.36 104.3,1159.85C108.833,1120.3 113.383,1080.75 117.95,1041.2C123.503,992.88 129.05,944.547 134.59,896.2C139.75,851.18 144.883,806.163 149.99,761.15C155.49,713.15 161,665.15 166.52,617.15C171.36,574.95 176.18,532.747 180.98,490.54C186.127,445.533 191.29,400.533 196.47,355.54C201.323,313.18 206.167,270.82 211,228.46C211.62,223 212.17,217.53 213,212.09C214.43,202.27 220.95,195.63 229.69,194.87C238.86,194.07 246.77,199.28 249.11,209.28C253.19,226.77 256.53,244.44 259.98,262.08C266.913,297.52 273.777,332.977 280.57,368.45C291.123,423.017 301.663,477.59 312.19,532.17C320.25,573.843 328.333,615.51 336.44,657.17C347.673,715.17 358.9,773.17 370.12,831.17C380.593,885.25 391.073,939.333 401.56,993.42C412.793,1051.42 424,1109.42 435.18,1167.42C437.58,1179.83 440.12,1192.22 442.35,1204.67C444.35,1216.06 438.45,1225.25 428.07,1227.34C418.07,1229.34 408.91,1223.34 406.58,1212.04C401.15,1185.81 396.18,1159.48 391.08,1133.17C380.567,1078.93 370.077,1024.68 359.61,970.42C355.15,947.42 350.55,924.37 346.27,901.3C345.58,897.61 344.06,896.92 340.67,896.88C286.35,896.213 232.017,895.41 177.67,894.47C172.95,894.39 171.52,895.79 171.01,900.41C165.58,949.24 159.91,998.04 154.34,1046.85C148.84,1095 143.36,1143.16 137.9,1191.31C137.24,1197.1 136.68,1202.91 135.9,1208.68C134.31,1219.86 126.06,1226.96 115.85,1226.12C106.05,1225.34 99,1217.05 99.09,1205.85ZM236.77,336.29L235.77,336.29C215.923,509.857 196.023,683.643 176.07,857.65L338.18,860.05L236.77,336.29Z" style="fill-rule:nonzero;"/>
    </g>
    <g transform="matrix(1,0,0,1,-99.09,-168.67)">
        <path d="M1016.12,254.58C1018.89,344.94 1021.65,434.82 1024.41,525.21L1031.81,525.21C1071.64,524.837 1111.47,524.483 1151.3,524.15C1154.62,524.074 1157.95,524.363 1161.21,525.01C1169.25,526.967 1174.95,534.226 1174.95,542.499C1174.95,550.806 1169.2,558.087 1161.12,560.01C1158.03,560.64 1154.88,560.952 1151.72,560.94C1111.89,561.353 1072.06,561.727 1032.23,562.06L1025.82,562.06C1025.82,565.24 1025.76,567.85 1025.82,570.45C1028.16,647.237 1030.51,724.027 1032.87,800.82C1036.77,928.073 1040.68,1055.33 1044.61,1182.59C1046.61,1247.72 1048.59,1312.84 1050.55,1377.97C1051,1393.09 1039.94,1402.89 1027,1399.06C1019.13,1396.72 1014.14,1390.06 1013.76,1380.47C1013.05,1362.82 1012.56,1345.16 1012.02,1327.47C1003.04,1034.47 994.067,741.47 985.1,448.47C983.05,381.47 980.87,314.55 979.1,247.58C978.94,241.44 980.6,235.02 982.6,229.13C985.01,222.06 990.97,218.5 998.34,217.84C1003.48,217.38 1008.66,217.37 1013.82,217.28L1217.28,213.86C1219.28,213.86 1221.28,213.79 1223.28,213.86C1234.4,214.35 1242.47,221.97 1242.67,232.13C1242.86,241.98 1235.2,249.97 1224.27,250.86C1218.97,251.29 1213.61,251.01 1208.27,251.1L1021.81,254.16C1020,254.26 1018.26,254.45 1016.12,254.58Z" style="fill-rule:nonzero;"/>
    </g>
    <g transform="matrix(1,0,0,1,-99.09,-168.67)">
        <path d="M471.16,567.89C472.64,589.28 474.02,609.37 475.43,629.47C478.25,669.68 481.16,709.89 483.81,750.12C484.096,754.256 483.51,758.405 482.09,762.3C479.33,769.58 471.66,773.7 464.02,772.97C456.38,772.24 449.67,766.78 448.23,759.09C447.164,752.518 446.473,745.891 446.16,739.24C436.16,596.633 426.16,454.03 416.16,311.43C414.74,291.15 413.29,270.87 411.94,250.59C410.94,235.67 417.94,227.07 432.88,226.83C514.25,225.54 580.41,255.3 622.88,326.54C667.8,401.92 639.37,492 560.76,531.22C544.359,539.419 526.836,545.147 508.76,548.22C507.47,548.44 506.2,548.81 504.2,549.29C506.05,551.53 507.57,553.42 509.15,555.29C560.77,615.69 612.387,676.097 664,736.51C665.66,738.375 667.152,740.383 668.46,742.51C670.176,745.345 671.084,748.596 671.084,751.91C671.084,761.867 662.891,770.06 652.934,770.06C648.565,770.06 644.34,768.483 641.04,765.62C638.809,763.616 636.739,761.439 634.85,759.11C581.483,696.683 528.127,634.237 474.78,571.77C474,570.8 473,569.88 471.16,567.89ZM467.38,514.25L472.88,514.25C496.44,514.649 519.79,509.734 541.19,499.87C603.31,471.3 625.54,402.05 590.45,343.41C562.84,297.29 520.24,273.41 468.12,265.09C462.29,264.16 456.35,264.01 449.83,263.44C455.7,347.37 461.51,430.38 467.38,514.25Z" style="fill-rule:nonzero;"/>
    </g>
    <g transform="matrix(1,0,0,1,-99.09,-168.67)">
        <path d="M1406,404.46C1373.39,405.09 1341.09,405.79 1308.79,406.24C1304.91,406.3 1304.18,408.31 1303.44,411.24C1294,448.513 1284.52,485.767 1275,523C1274.24,526.407 1273.08,529.713 1271.54,532.85C1268.4,538.642 1262.31,542.262 1255.72,542.262C1245.85,542.262 1237.72,534.137 1237.72,524.262C1237.72,523.985 1237.73,523.707 1237.74,523.43C1237.98,520.108 1238.55,516.818 1239.45,513.61C1265.69,410.537 1291.96,307.5 1318.26,204.5C1319.91,198.05 1321.34,191.5 1323.26,185.16C1326.64,174.03 1341.8,166.16 1353.04,169.42C1358.95,171.04 1363.66,175.534 1365.56,181.36C1371.94,198.88 1378.24,216.42 1384.47,233.98C1416.23,323.007 1447.94,412.053 1479.59,501.12C1481.54,506.362 1482.33,511.963 1481.92,517.54C1481.14,524.96 1475.77,529.54 1468.4,531.1C1460.79,532.74 1454.5,530.24 1449.98,524.02C1448.23,521.397 1446.85,518.538 1445.9,515.53C1433.02,479.663 1420.18,443.777 1407.39,407.87C1407,406.64 1406.41,405.45 1406,404.46ZM1393.34,368.38C1377.84,324.91 1362.85,282.88 1347.86,240.86L1346.92,240.92C1336.07,283.49 1325.22,326.07 1314.43,368.38L1393.34,368.38Z" style="fill-rule:nonzero;"/>
    </g>
    <g transform="matrix(1,0,0,1,-99.09,-168.67)">
        <path d="M754.37,261.87L748.37,261.87C726.71,262.21 705.04,262.66 683.37,262.81C679.221,262.919 675.087,262.272 671.17,260.9C663.92,258.15 659.8,250.43 660.61,242.79C661.225,235.072 666.87,228.627 674.44,227C677.038,226.417 679.688,226.102 682.35,226.06C746.83,224.993 811.313,223.97 875.8,222.99C879.289,222.857 882.782,223.149 886.2,223.86C894.266,225.778 899.967,233.1 899.85,241.39C899.806,249.669 894.056,256.901 886,258.81C882.907,259.469 879.753,259.804 876.59,259.81C850.43,260.277 824.27,260.693 798.11,261.06L791.78,261.06C791.78,263.65 791.71,265.59 791.78,267.54C795.46,358.113 799.153,448.687 802.86,539.26C805.747,609.86 808.633,680.453 811.52,751.04C811.883,756.178 811.661,761.341 810.86,766.43C809.29,774.64 801.75,780.16 793.45,780.15C785.189,780.131 777.951,774.428 776,766.4C775.359,763.646 774.99,760.836 774.9,758.01C768.167,594.677 761.463,431.343 754.79,268.01C754.71,266.17 754.54,264.36 754.37,261.87Z" style="fill-rule:nonzero;"/>
    </g>
    <g transform="matrix(1,0,0,1,-99.09,-168.67)">
        <path d="M1598.88,343.57C1600.56,392.023 1602.23,440.477 1603.88,488.93C1604.07,492.581 1603.79,496.241 1603.05,499.82C1601.1,507.881 1593.7,513.523 1585.41,513.28C1577.13,513.2 1569.94,507.4 1568.1,499.33C1567.53,496.729 1567.19,494.081 1567.1,491.42C1563.66,392.673 1560.24,293.93 1556.85,195.19C1556.74,193.027 1556.76,190.86 1556.92,188.7C1557.8,179.03 1565.27,171.87 1574.64,171.59C1583.88,171.191 1591.95,178.086 1593,187.27C1594.13,197.68 1594.24,208.21 1594.6,218.69C1596.06,260.317 1597.48,301.943 1598.85,343.57L1598.88,343.57Z" style="fill-rule:nonzero;"/>
    </g>
    <g transform="matrix(1,0,0,1,-99.09,-168.67)">
        <path d="M1701.4,499.21C1701.4,480.91 1701.58,462.92 1701.4,444.94C1700.55,370.273 1699.61,295.607 1698.57,220.94C1698.57,217.09 1699.57,215.4 1703.39,214.45C1753.81,202.17 1801.86,206.45 1845.47,236.39C1896.47,271.46 1915.04,334.39 1891.31,391.68C1869.56,444.18 1829.14,476.1 1775.85,492.86C1753,500.04 1729.48,501.7 1705.68,499.86C1704.67,499.82 1703.72,499.59 1701.4,499.21Z" style="fill:rgb(162,155,254);fill-rule:nonzero;"/>
    </g>
    <g transform="matrix(1,0,0,1,-99.09,-168.67)">
        <path d="M236.77,336.29L338.18,860.05L176.07,857.65C196.023,683.43 215.93,509.63 235.79,336.25L236.77,336.29Z" style="fill:rgb(5,196,107);fill-rule:nonzero;"/>
    </g>
    <g transform="matrix(1,0,0,1,-99.09,-168.67)">
        <path d="M467.38,514.25C461.51,430.38 455.7,347.37 449.83,263.44C456.35,264.01 462.29,264.16 468.12,265.09C520.24,273.44 562.84,297.29 590.45,343.41C625.54,402.05 603.31,471.3 541.19,499.87C519.79,509.734 496.44,514.649 472.88,514.25C471.24,514.23 469.6,514.25 467.38,514.25Z" style="fill:rgb(255,221,89);fill-rule:nonzero;"/>
    </g>
    <g transform="matrix(1,0,0,1,-99.09,-168.67)">
        <path d="M1393.35,368.38L1314.44,368.38C1325.23,326.07 1336.08,283.49 1346.93,240.92L1347.87,240.86C1362.86,282.88 1377.85,324.91 1393.35,368.38Z" style="fill:rgb(245,59,87);fill-rule:nonzero;"/>
    </g>
</svg>
