<?xml version="1.0" encoding="UTF-8" standalone="no"?>
<!DOCTYPE svg PUBLIC "-//W3C//DTD SVG 1.1//EN" "http://www.w3.org/Graphics/SVG/1.1/DTD/svg11.dtd">
<svg width="100%" height="100%" viewBox="0 0 1024 1024" version="1.1" xmlns="http://www.w3.org/2000/svg" xmlns:xlink="http://www.w3.org/1999/xlink" xml:space="preserve" xmlns:serif="http://www.serif.com/" style="fill-rule:evenodd;clip-rule:evenodd;stroke-linejoin:round;stroke-miterlimit:2;">
    <g transform="matrix(2.25374,0,0,2.25374,-68.1846,-68.4174)">
        <g id="b">
            <g id="c">
                <g>
                    <path d="M327.25,421.74C332.18,422.69 336.41,425 339.88,428.57C346.37,435.25 350.38,443.2 351.63,452.47C351.89,454.39 351.76,456.3 351.19,458.16C350.97,458.87 350.94,459.45 351.5,460.04C351.81,460.37 352,460.86 352.14,461.31C354.73,469.75 350.91,478.01 342.82,481.56C338.67,483.38 334.26,483.93 329.82,484.26C320.03,484.99 310.24,484.84 300.47,483.8C293.45,483.06 286.49,481.95 279.75,479.75C277.26,478.94 274.91,477.84 272.81,476.26C268.69,473.16 267.51,468.8 267.55,463.93C267.55,463.6 267.57,463.16 267.77,462.94C269.13,461.41 268.26,459.96 267.8,458.41C266.49,454.07 266.63,449.6 267.01,445.16C267.79,435.87 269.18,426.67 270.83,417.5C270.9,417.1 270.94,416.69 271.02,416.28C271.12,415.71 270.96,415.35 270.34,415.26C268.88,415.04 267.82,414.26 267.17,412.93C266.98,412.53 266.61,412.37 266.24,412.17C264.64,411.35 264.11,409.96 264.23,408.24C264.45,405.1 264.67,401.95 264.86,398.81C265.84,382.26 266.55,365.7 266.93,349.12C267.15,339.85 266.78,330.63 265.94,321.42C265.79,319.77 265.8,319.77 264.13,319.78C261.6,319.8 259.09,320.27 256.55,320.1C254.57,319.97 252.59,319.87 250.61,319.78C249.41,319.73 249.18,319.59 249.02,321.18C248.05,330.81 247.72,340.44 247.99,350.12C248.37,363.75 248.82,377.37 249.6,390.99C249.91,396.32 250.1,401.66 250.64,406.98C250.76,408.2 251.08,409.6 250.25,410.57C248.91,412.14 247.42,413.6 245.78,414.9C245.2,415.36 244.07,414.91 243.89,415.81C243.75,416.5 244.06,417.28 244.19,418.02C245.63,426.18 246.87,434.37 247.68,442.62C248.14,447.32 248.51,452.05 247.53,456.74C247.45,457.14 247.39,457.55 247.25,457.94C246.64,459.72 245.92,461.38 247.17,463.3C247.92,464.45 247.33,465.97 247.15,467.33C246.52,471.93 244.18,475.33 240.11,477.58C237.21,479.18 234.1,480.21 230.9,480.99C221.68,483.25 212.3,484.31 202.84,484.59C195.65,484.8 188.45,484.76 181.29,483.87C177.95,483.45 174.67,482.77 171.6,481.34C165.3,478.42 162,473 162.28,466.07C162.32,465.11 162.36,464.15 162.47,463.2C162.55,462.45 162.47,461.47 162.91,461.02C164.36,459.53 163.53,458.02 163.32,456.46C162.95,453.71 163.29,451 163.99,448.32C165.93,440.97 169.34,434.41 174.65,428.92C178.21,425.23 182.47,422.75 187.54,421.74C187.77,421.69 188.1,421.76 188.23,421.21C187.53,420.95 186.8,420.67 186.06,420.41C184.19,419.75 182.31,419.12 180.45,418.44C179.28,418.01 178.18,417.45 177.5,416.33C176.68,414.97 176.66,413.59 177.51,412.25C178.36,410.92 179.64,410.3 181.19,410.47C182.2,410.58 183.2,410.9 184.17,411.23C187.53,412.38 190.88,413.6 194.24,414.76C194.73,414.93 195.2,415.35 195.84,415.09C195.7,414.4 195.17,413.95 194.8,413.42C192.14,409.6 189.47,405.78 186.79,401.97C186.19,401.12 185.69,400.22 185.52,399.19C185.25,397.56 185.75,396.18 187.13,395.25C188.45,394.36 189.85,394.45 191.21,395.22C192.19,395.78 192.87,396.63 193.5,397.53C198.01,403.99 202.45,410.49 206.49,417.26C206.67,417.57 206.72,418.09 207.51,418.07L207.51,412.02C207.51,410.99 207.51,409.95 208.13,409.05C208.53,408.47 208.4,407.89 208.28,407.28C206.69,399.54 205.91,391.74 205.91,383.82C205.89,366.9 205.71,349.97 205.6,333.05C205.58,329.36 205.6,325.67 205.6,321.99C205.31,322.01 205.26,322.46 205.08,322.8C204.28,324.35 203.22,325.7 201.71,326.59C200.85,327.1 200.7,327.71 200.79,328.62C201.08,331.7 201.04,334.78 200.66,337.85C200.15,341.95 198.67,345.67 196.09,348.9C190.62,355.74 181.54,356.96 174.45,351.8C171.11,349.37 168.7,346.15 166.93,342.45C165.26,338.96 164.15,335.3 163.98,331.41C163.92,330.17 163.57,329.5 162.28,329.06C159.46,328.09 157.72,325.9 156.58,323.2C155.02,319.49 154.46,315.55 154.2,311.58C153.29,297.72 153.95,283.92 155.86,270.17C157.42,258.92 161.56,248.67 168.13,239.38C173.33,232.03 179.38,225.41 185.55,218.89C189.04,215.21 192.54,211.55 195.92,207.77C196.65,206.96 196.77,206.38 196.3,205.29C195.02,202.32 194.55,199.11 194.09,195.93C193.36,190.94 193.57,185.96 194.36,180.99C194.52,180 194.75,179.03 194.59,177.96C194.22,175.46 195.88,173.55 198.41,173.39C199.57,173.32 200.74,173.42 201.9,173.41C202.57,173.41 203.27,173.59 204.02,173.21C203.68,170.4 203.33,167.55 203,164.71C201.5,151.75 201.09,138.76 201.79,125.73C202.61,110.56 204.84,95.63 209.25,81.07C212.4,70.67 216.59,60.73 222.72,51.69C226.36,46.33 230.64,41.57 235.83,37.63C248.53,27.99 266.1,27.92 278.88,37.5C284.21,41.49 288.57,46.36 292.28,51.85C298.24,60.67 302.33,70.35 305.47,80.47C308.78,91.16 310.85,102.11 312.1,113.23C313.71,127.51 313.79,141.81 312.77,156.12C312.39,161.45 311.78,166.76 310.97,172.04C310.91,172.44 310.9,172.84 310.86,173.3C312.13,173.59 313.36,173.36 314.58,173.39C315.33,173.41 316.09,173.34 316.84,173.43C318.99,173.68 320.46,175.33 320.34,177.5C320.28,178.6 320.34,179.66 320.52,180.75C321.82,188.5 321.35,196.17 319.23,203.74C319.16,204 319.13,204.31 318.98,204.52C317.64,206.24 318.58,207.41 319.79,208.69C324.88,214.06 329.93,219.47 334.94,224.91C339.87,230.25 344.48,235.85 348.49,241.94C354.48,251.04 357.89,261.05 359.3,271.8C360.92,284.13 361.34,296.51 360.91,308.92C360.77,312.82 360.33,316.71 359.29,320.49C358.89,321.95 358.37,323.36 357.62,324.68C356.43,326.78 354.77,328.41 352.47,329.15C351.32,329.52 351.09,330.09 351,331.19C350.55,336.98 348.71,342.29 345.25,347C343.78,349 342.05,350.75 339.99,352.15C333.1,356.82 324.46,355.64 319.11,349.25C315.97,345.5 314.42,341.1 314.1,336.25C313.93,333.65 314,331.04 314.11,328.44C314.14,327.73 314.13,327.15 313.37,326.71C311.54,325.64 310.36,323.97 309.4,321.93C308.9,322.55 309.12,323.17 309.13,323.71C309.35,344.4 309.12,365.09 308.99,385.78C308.95,392.72 308.17,399.58 306.8,406.38C306.57,407.52 306.37,408.61 307.08,409.71C307.57,410.47 307.46,411.43 307.45,412.32L307.45,418.08C308.19,418.05 308.26,417.48 308.48,417.12C312.55,410.37 316.96,403.85 321.49,397.4C322.09,396.55 322.74,395.76 323.64,395.23C324.98,394.45 326.37,394.32 327.72,395.18C329.07,396.04 329.55,397.32 329.4,398.89C329.29,400.1 328.71,401.09 328.03,402.05C325.32,405.92 322.6,409.79 319.9,413.66C319.6,414.09 319.15,414.45 319.09,415.05C319.84,415.28 320.42,414.79 321.03,414.58C324.4,413.43 327.74,412.22 331.1,411.07C331.87,410.8 332.67,410.58 333.48,410.46C335.37,410.18 337.12,411.22 337.76,412.92C338.37,414.55 337.8,416.39 336.28,417.45C335.67,417.87 334.97,418.2 334.27,418.45C331.83,419.33 329.36,420.16 326.91,421.01C326.58,421.46 327.03,421.52 327.25,421.69L327.25,421.74Z" style="fill:rgb(16,18,17);fill-rule:nonzero;"/>
                    <path d="M327.25,421.74C326.88,421.81 326.4,421.96 326.27,421.52C326.16,421.15 326.54,421.01 326.91,421.06C327.02,421.29 327.14,421.52 327.25,421.74Z" style="fill:rgb(134,139,139);fill-rule:nonzero;"/>
                    <path d="M207.12,207.07C208.54,208.64 210.38,208.89 212.37,208.8C213.94,208.73 215.52,208.74 217.1,208.79C229.29,209.14 241.44,208.02 253.61,207.91C255.06,207.9 256.45,207.05 257.78,207.3C259.12,207.54 260.44,207.87 261.81,207.91C266.47,208.06 271.13,208.02 275.77,208.36C284.86,209.04 293.96,208.62 303.05,208.79C304.84,208.82 306.46,208.54 307.68,207.08C307.9,207.21 308.12,207.27 308.24,207.41C314.06,214.8 320.75,221.39 327.14,228.27C331.57,233.04 335.81,237.96 339.66,243.23C346.46,252.52 350.26,262.93 351.52,274.32C352.86,286.46 353.49,298.62 352.71,310.83C352.53,313.63 352.18,316.42 351.31,319.11C350.53,321.52 349.98,321.87 347.45,321.93C344.63,321.99 341.84,321.6 339.05,321.4C334.05,321.04 329.05,321.11 324.06,321.05C322.48,321.03 320.91,320.89 319.36,320.59C317.48,320.23 316.89,319.54 316.55,317.56C316.23,315.66 316.18,313.74 316.24,311.82C316.48,304.7 316.71,297.58 317,290.46C317.35,282.15 316.6,273.9 315.92,265.64C315.79,264.07 315.69,262.49 315.42,260.95C314.99,258.55 313.29,257.18 311.18,257.35C309.01,257.52 307.44,259.3 307.57,261.8C307.77,265.7 308.17,269.58 308.47,273.47C308.94,279.48 309.25,285.49 308.94,291.53C308.65,297.21 308.5,302.89 308.29,308.57C308.23,310.13 308.23,310.17 306.7,310.23C302.59,310.4 298.49,310.54 294.38,310.69C282.95,311.1 271.52,311.53 260.09,311.91C254.2,312.1 248.32,311.59 242.43,311.46C237.5,311.35 232.58,311.07 227.65,310.89C221.56,310.67 215.46,310.49 209.37,310.29C208.96,310.28 208.55,310.27 208.14,310.24C206.72,310.14 206.7,310.14 206.63,308.7C206.42,304.12 206.25,299.53 206.03,294.94C205.55,285.13 206.08,275.36 207.05,265.6C207.17,264.37 207.27,263.14 207.29,261.91C207.35,259.26 205.88,257.47 203.62,257.33C201.37,257.2 199.68,258.78 199.37,261.42C199.1,263.8 198.88,266.19 198.7,268.58C198.1,276.64 197.49,284.69 197.93,292.8C198.28,299.3 198.42,305.8 198.6,312.31C198.65,314.15 198.63,316 198.3,317.84C197.99,319.52 197.02,320.35 195.45,320.6C193.89,320.85 192.33,321.02 190.75,321.03C185.2,321.07 179.65,321.03 174.12,321.5C171.8,321.7 169.49,321.98 167.15,321.91C165,321.84 164.39,321.45 163.69,319.4C162.53,315.99 162.18,312.43 162.05,308.88C161.6,296.54 162.01,284.23 163.69,271.98C165.09,261.76 168.72,252.41 174.71,243.98C179.09,237.82 184.08,232.18 189.24,226.69C195.15,220.4 201.24,214.28 206.6,207.49C206.72,207.34 206.91,207.24 207.14,207.06L207.12,207.07Z" style="fill:rgb(247,254,237);fill-rule:nonzero;"/>
                    <path d="M257.23,174.98C246.74,174.68 236.07,174.36 225.39,174.06C221.63,173.95 217.86,173.9 214.09,173.81C212.33,173.77 212.31,173.75 212.05,172.06C209.96,158.49 209.21,144.83 209.62,131.11C210.12,114.34 212.38,97.84 217.44,81.79C220.04,73.53 223.39,65.6 228.02,58.26C231.11,53.36 234.72,48.91 239.21,45.22C240.01,44.56 240.8,43.99 241.9,43.85C242.71,43.75 243.4,43.22 244.11,42.81C247.15,41.05 250.32,39.68 253.8,38.98C257.62,38.21 261.29,38.76 264.9,40.01C266.71,40.64 268.45,41.45 270.12,42.41C271.3,43.09 272.42,43.87 273.85,44.04C274.62,44.13 275.15,44.77 275.73,45.25C280.73,49.33 284.6,54.36 287.88,59.87C293.61,69.49 297.31,79.91 300,90.72C302.45,100.57 303.93,110.58 304.74,120.69C305.59,131.29 305.66,141.89 304.97,152.5C304.55,158.99 303.87,165.46 302.93,171.89C302.66,173.74 302.65,173.75 300.77,173.8C293.38,173.99 285.98,174.17 278.59,174.36C271.54,174.55 264.49,174.76 257.25,174.96L257.23,174.98Z" style="fill:rgb(214,185,125);fill-rule:nonzero;"/>
                    <path d="M213.69,356.38C213.69,348.92 213.73,341.45 213.67,333.99C213.63,329.4 213.43,324.82 213.33,320.24C213.29,318.57 213.33,318.52 215.01,318.58C223.22,318.85 231.43,319.14 239.64,319.44C240.97,319.49 241.03,319.53 240.94,320.88C240.61,325.86 240.15,330.84 239.91,335.83C239.75,339.19 239.84,342.53 239.93,345.89C240.15,353.83 240.24,361.77 240.54,369.7C240.85,377.98 241.28,386.25 241.82,394.51C242.06,398.26 242.68,401.98 243.15,405.72C243.36,407.35 243.39,407.42 241.71,407.6C237.69,408.04 233.66,408.41 229.62,408.13C225.8,407.87 221.97,407.69 218.19,407C216.3,406.65 216.3,406.66 215.91,404.72C214.53,397.85 213.93,390.91 213.92,383.91C213.9,374.74 213.92,365.56 213.92,356.39L213.7,356.39L213.69,356.38Z" style="fill:rgb(217,41,158);fill-rule:nonzero;"/>
                    <path d="M300.92,359.83L300.92,387.25C300.92,393.37 299.95,399.38 298.88,405.38C298.7,406.4 298.14,406.77 297.26,406.9C295.43,407.16 293.6,407.44 291.77,407.64C285.76,408.3 279.75,408.37 273.74,407.68C273.33,407.63 272.93,407.51 272.52,407.49C271.78,407.45 271.61,407.03 271.7,406.39C271.75,405.98 271.76,405.57 271.83,405.16C272.87,398.52 273.39,391.84 273.71,385.14C274.39,370.84 274.89,356.54 275.08,342.23C275.17,335.3 274.54,328.42 274,321.52C273.99,321.38 273.95,321.25 273.94,321.11C273.79,319.51 273.81,319.49 275.37,319.42C277.42,319.33 279.47,319.23 281.53,319.16C287.62,318.96 293.71,318.75 299.8,318.57C301.68,318.51 301.73,318.55 301.64,320.49C301.07,332.26 301.4,344.04 300.93,359.83L300.92,359.83Z" style="fill:rgb(217,41,158);fill-rule:nonzero;"/>
                    <path d="M218.69,461.21C211.47,461.36 204.5,460.92 197.52,460.72C191.93,460.56 186.32,460.27 180.76,459.55C178.4,459.24 176.02,458.88 173.78,457.99C171.67,457.15 171,455.96 171.25,453.67C172.04,446.47 175.17,440.32 179.92,435.01C184.58,429.81 190.52,428.35 197.27,429.76C199.69,430.27 201.99,431.12 204.32,431.91C205.43,432.29 206.54,432.55 207.73,432.56C211.32,432.59 213.79,430.62 214.59,427.07C214.97,425.39 215.06,423.69 215.03,421.98C215,419.72 214.93,417.46 214.93,415.2C214.93,414.02 215.17,413.78 216.25,414.07C219.69,414.98 223.22,415.38 226.73,415.88C229.11,416.21 231.51,416.06 233.91,416.08C235.64,416.1 235.65,416.1 235.97,417.81C237.34,425.26 238.43,432.76 239.32,440.28C239.8,444.29 240.15,448.3 240.04,452.34C240,453.79 239.69,455.19 239.25,456.55C238.68,458.3 237.53,459.47 235.76,460.02C234.45,460.42 233.13,460.71 231.75,460.83C227.31,461.19 222.87,461.29 218.67,461.2L218.69,461.21Z" style="fill:rgb(104,106,106);fill-rule:nonzero;"/>
                    <path d="M297.67,461.21C291.94,461.26 287.49,461.28 283.06,460.83C282.38,460.76 281.71,460.62 281.04,460.49C276.88,459.71 275.28,457.97 275.03,453.73C274.73,448.73 275.05,443.76 275.71,438.8C276.4,433.65 277.1,428.51 277.92,423.39C278.22,421.5 278.55,419.62 278.93,417.74C279.26,416.11 279.29,416.11 280.86,416.09L282.3,416.09C287.6,416.23 292.78,415.33 297.94,414.24C298.34,414.15 298.74,414.04 299.14,413.99C299.72,413.91 300.07,414.15 300.06,414.77C300.06,415.66 300.11,416.56 299.99,417.44C299.6,420.31 299.64,423.17 300.09,426.02C300.34,427.61 300.84,429.09 301.87,430.33C304.02,432.91 306.82,432.96 309.75,432.17C312.32,431.47 314.77,430.37 317.39,429.8C322.8,428.64 327.89,429.23 332.39,432.65C334.92,434.57 336.96,437 338.59,439.72C340.82,443.43 342.62,447.34 343.42,451.64C343.43,451.71 343.47,451.77 343.48,451.84C344.1,456.12 343.6,457.46 339.33,458.56C336.14,459.38 332.88,459.74 329.61,459.99C322.31,460.54 314.99,460.79 307.67,460.98C303.91,461.08 300.15,461.14 297.66,461.2L297.67,461.21Z" style="fill:rgb(104,106,106);fill-rule:nonzero;"/>
                    <path d="M313.48,186.76C313.35,190.91 313.06,194.31 312.39,197.68C312.3,198.13 312.33,198.51 311.62,198.81C308.18,200.27 304.44,200.09 300.92,201.01C299.12,201.48 297.43,200.96 295.69,200.89C288.24,200.59 280.78,200.41 273.32,200.19C269.49,200.08 265.65,199.96 261.82,199.84C260.45,199.8 259.14,199.96 257.79,200.32C256.54,200.66 255.25,199.72 253.84,199.78C245.02,200.14 236.19,200.38 227.36,200.67C224.69,200.76 222.02,200.55 219.36,200.85L219.16,200.85C214.52,201.93 210.15,199.94 205.63,199.68C204.63,199.62 204.04,198.32 202.87,198.78C202.78,198.53 202.67,198.29 202.62,198.04C201.63,193.05 201.2,188.01 201.61,182.93C201.73,181.5 201.8,181.6 203.24,181.5C204.76,181.4 206.08,182.28 207.61,182.14C209.03,182.01 210.48,182.07 211.9,182.36C212.58,182.5 213.29,182.8 213.97,182.06C214.45,181.54 215.45,181.59 215.87,182.01C216.59,182.74 217.37,182.54 218.15,182.58C221.57,182.79 224.99,183.15 228.4,183.11C231.89,183.07 235.38,183.09 238.86,183C243.48,182.89 247.98,183.64 252.48,184.51C252.61,184.54 252.75,184.61 252.88,184.6C256.28,184.48 259.68,184.9 263.09,184.34C267.33,183.65 271.56,182.88 275.91,182.99C283.09,183.17 290.27,183.09 297.44,182.57C297.84,182.54 298.37,182.61 298.62,182.38C299.54,181.55 300.35,181.57 301.29,182.34C301.73,182.7 302.36,182.51 302.88,182.39C304.16,182.08 305.48,181.98 306.76,182.13C308.5,182.33 310.05,181.45 311.75,181.51C313.17,181.56 313.2,181.51 313.3,182.96C313.4,184.46 313.45,185.97 313.49,186.75L313.48,186.76Z" style="fill:rgb(235,253,141);fill-rule:nonzero;"/>
                    <path d="M276.19,467.64C282.92,469.48 289.5,469.17 296.05,469.18C306.73,469.21 317.4,468.91 328.05,468.17C333.84,467.77 339.64,467.3 345.16,465.07C345.72,469.1 344.04,471.8 340.73,473.65C338.04,475.15 335.07,475.72 332.08,475.98C317.14,477.23 302.28,476.83 287.58,473.6C284.64,472.95 281.71,472.23 279.05,470.76C277.87,470.11 276.63,469.46 276.19,467.64Z" style="fill:rgb(217,218,219);fill-rule:nonzero;"/>
                    <path d="M169.81,465.13C176.5,467.62 183.41,467.94 190.3,468.36C202.74,469.12 215.2,469.31 227.66,469.11C231.35,469.05 235,468.66 238.74,467.61C238.47,468.98 237.63,469.64 236.73,470.23C234.88,471.45 232.81,472.16 230.69,472.74C224.47,474.45 218.11,475.4 211.7,476C203.85,476.73 195.97,476.71 188.1,476.4C184.82,476.27 181.54,475.96 178.33,475.2C176.79,474.84 175.3,474.34 173.95,473.51C171.24,471.84 169.18,469.77 169.81,465.11L169.81,465.13Z" style="fill:rgb(217,218,219);fill-rule:nonzero;"/>
                    <path d="M330.9,329.03C334.74,329.19 338.56,329.36 342.38,329.73C343.73,329.86 343.81,329.91 343.58,331.22C342.74,336.14 340.59,340.42 337.2,344.09C336.45,344.9 335.57,345.55 334.59,346.06C331.56,347.64 328.35,347.18 325.9,344.79C323.92,342.85 322.85,340.43 322.36,337.75C321.92,335.31 321.98,332.85 322.02,330.38C322.04,329.29 322.45,328.98 323.51,329.01C325.97,329.08 328.44,329.03 330.9,329.03Z" style="fill:rgb(214,185,125);fill-rule:nonzero;"/>
                    <path d="M184.11,329.03C186.57,329.03 189.04,329.07 191.5,329.01C192.47,328.99 192.85,329.26 192.84,330.26C192.8,332.93 193.04,335.6 192.44,338.24C191.88,340.69 190.89,342.92 189.08,344.71C186.59,347.18 183.3,347.65 180.22,346.01C178.93,345.32 177.84,344.37 176.93,343.26C174.08,339.75 172.03,335.84 171.37,331.31C171.16,329.85 171.18,329.85 172.62,329.72C176.44,329.36 180.27,329.19 184.11,329.03Z" style="fill:rgb(214,185,125);fill-rule:nonzero;"/>
                    <path d="M257.41,119.46C254.81,119.46 252.21,119.41 249.61,119.47C244.53,119.59 239.48,119.47 234.49,118.42C232.74,118.05 231.05,117.51 229.49,116.62C224.62,113.85 224.11,108.58 228.37,104.92C229.95,103.56 231.8,102.66 233.73,101.94C239.51,99.77 245.5,98.81 251.65,99C255.42,99.12 259.18,99.04 262.94,98.96C268.81,98.84 274.54,99.65 280.11,101.55C281.4,101.99 282.65,102.57 283.88,103.16C285.25,103.82 286.46,104.71 287.49,105.84C290.36,108.98 290.05,113.09 286.73,115.75C285.31,116.88 283.68,117.56 281.95,118.03C276.47,119.53 270.86,119.58 265.24,119.47C262.64,119.42 260.04,119.47 257.44,119.47L257.41,119.46Z" style="fill:rgb(16,18,17);fill-rule:nonzero;"/>
                    <path d="M257.49,64.18C262.5,64.29 267.48,64.78 272.36,65.85C275.48,66.53 278.62,67.31 281.55,68.71C283.28,69.54 284.96,70.46 286.31,71.87C289.49,75.17 288.89,79.61 284.92,81.92C282.74,83.19 280.3,83.56 277.85,83.88C274.11,84.36 270.34,84.34 266.58,84.61C264.13,84.78 261.66,84.7 259.25,85.41C258.14,85.73 256.89,85.73 255.78,85.43C251.95,84.39 248.03,84.69 244.15,84.41C240.94,84.18 237.72,84.08 234.55,83.5C232.86,83.19 231.22,82.71 229.74,81.79C226.1,79.52 225.49,75.33 228.35,72.13C229.8,70.51 231.64,69.45 233.61,68.63C238.06,66.78 242.69,65.61 247.46,65.02C250.79,64.61 254.11,64.16 257.48,64.19L257.49,64.18Z" style="fill:rgb(16,18,17);fill-rule:nonzero;"/>
                    <path d="M247.44,131.65C250.46,131.7 253.37,132.13 256.2,132.96C257.11,133.23 257.88,133.19 258.77,132.94C265.48,131.06 272.15,131.25 278.73,133.58C280.09,134.06 281.36,134.74 282.49,135.64C286.68,138.95 286.56,144.13 282.21,147.23C279.98,148.81 277.42,149.55 274.78,150.02C272.76,150.38 270.72,150.6 268.68,150.79C267.19,150.93 265.73,150.96 264.32,151.67C263.14,152.26 261.77,152.12 260.48,151.91C258.43,151.58 256.4,151.61 254.35,151.91C252.71,152.16 251.07,152.15 249.57,151.26C248.88,150.85 248.12,150.92 247.38,150.87C243.9,150.61 240.43,150.31 237.07,149.28C235.02,148.65 233.1,147.79 231.55,146.26C228.67,143.42 228.61,139.47 231.41,136.56C233.69,134.18 236.69,133.18 239.77,132.49C242.3,131.92 244.9,131.69 247.44,131.65Z" style="fill:rgb(16,18,17);fill-rule:nonzero;"/>
                    <path d="M234.95,110.21C237.17,109.02 239.15,108.56 241.1,107.99C243.2,107.37 245.34,106.93 247.5,106.59C248.71,106.4 249.94,106.23 251.16,106.59C251.48,106.69 251.84,106.74 252.17,106.71C256.69,106.29 261.2,107.09 265.69,106.9C270.09,106.71 274.01,108.09 278.04,109.31C278.43,109.43 278.8,109.61 279.18,109.78C279.3,109.83 279.39,109.95 279.49,110.04C279.31,110.66 278.74,110.54 278.31,110.63C276.23,111.07 274.12,111.32 272,111.36C267.35,111.45 262.71,111.44 258.06,111.08C256.1,110.93 254.11,111.28 252.13,111.33C247.69,111.43 243.24,111.6 238.81,111.02C237.66,110.87 236.54,110.67 234.94,110.2L234.95,110.21Z" style="fill:rgb(249,239,206);fill-rule:nonzero;"/>
                    <path d="M277.8,75.45C276.83,76.11 275.92,76 275.05,76.05C270.61,76.32 266.16,76.44 261.74,76.84C258.87,77.1 256.04,77.1 253.17,76.84C248.74,76.44 244.3,76.31 239.86,76.05C238.99,76 238.09,76.05 237.17,75.56C238.19,74.73 239.33,74.4 240.42,74.09C242.72,73.46 245.05,72.94 247.39,72.45C248.12,72.3 248.95,72.17 249.63,72.38C251.55,72.95 253.43,72.55 255.33,72.43C256.69,72.34 258.07,72.33 259.43,72.43C261.4,72.56 263.38,72.43 265.32,72.47C269.59,72.55 273.78,73.5 277.81,75.45L277.8,75.45Z" style="fill:rgb(249,239,206);fill-rule:nonzero;"/>
                    <path d="M276.08,141.15C271.26,143.86 245.07,143.98 238.85,141.24C241.22,140.07 243.67,139.7 246.11,139.43C248.55,139.16 251.02,139.16 253.46,139.68C254.65,139.93 255.94,139.7 257.08,139.84C259.8,140.19 262.35,139.31 264.99,139.28C268.79,139.23 272.46,139.77 276.08,141.15Z" style="fill:rgb(249,239,206);fill-rule:nonzero;"/>
                </g>
            </g>
        </g>
    </g>
</svg>
