<?xml version="1.0" encoding="UTF-8" standalone="no"?>
<!DOCTYPE svg PUBLIC "-//W3C//DTD SVG 1.1//EN" "http://www.w3.org/Graphics/SVG/1.1/DTD/svg11.dtd">
<svg width="100%" height="100%" viewBox="0 0 1024 1024" version="1.1" xmlns="http://www.w3.org/2000/svg" xmlns:xlink="http://www.w3.org/1999/xlink" xml:space="preserve" xmlns:serif="http://www.serif.com/" style="fill-rule:evenodd;clip-rule:evenodd;stroke-linejoin:round;stroke-miterlimit:2;">
    <g transform="matrix(2.23024,0,0,2.23024,-63.1851,-52.6531)">
        <g id="b">
            <g id="c">
                <g>
                    <path d="M209.38,422.73C208.69,418.83 208,414.93 207.29,411.03C207.22,410.64 207.06,410.2 206.79,409.93C205.56,408.67 205.53,407.13 205.55,405.52C205.81,380.58 206.06,355.64 206.31,330.71C206.41,320.64 206.5,310.57 206.6,300.5C206.6,300.29 206.56,300.08 206.61,299.89C207.34,297.39 206,296.13 203.83,295.33C203.34,295.72 203.59,296.3 203.59,296.79C203.53,303.71 203.62,310.63 203.1,317.54C202.52,325.28 201.4,332.92 198.57,340.21C197.49,342.97 196.15,345.58 194.02,347.7C189.38,352.32 183.31,351.74 179.66,346.3C177.32,342.81 176.35,338.81 175.57,334.77C174.49,329.24 174.07,323.63 173.95,318.02C173.69,305.62 173.65,293.22 174.35,280.83C174.55,277.34 174.89,273.86 175.17,270.38C175.18,270.24 175.15,270.08 175.22,269.98C176.41,268.18 175.26,267.15 174.12,265.88C170.97,262.32 170.57,258 171.24,253.51C171.85,249.42 173.24,245.54 174.86,241.76C178.37,233.58 182.21,225.56 186.38,217.69C186.89,216.72 187.47,215.79 188,214.83C190.08,211.09 193.27,209.06 197.48,208.4C200.86,207.87 204.25,207.37 207.55,206.45C210.74,205.56 213.74,204.26 216.51,202.44C217.65,201.69 218.76,200.89 219.5,199.59C216.83,197.63 214.61,195.33 213.87,192C213.13,188.67 214.19,185.67 216.05,182.7C211.83,181.94 207.87,181.23 203.92,180.53C196.17,179.15 188.41,177.83 180.97,175.13C176.77,173.61 172.74,171.76 169.03,169.23C161.35,164 156.84,156.63 154.49,147.78C152.43,140.02 151.93,132.11 152.26,124.14C152.75,112.39 154.7,100.85 157.89,89.55C158.89,85.99 159.28,82.61 158.88,78.91C158.18,72.56 158.7,66.18 159.52,59.85C160.44,52.7 161.99,45.69 164.86,39.03C166.46,35.31 168.27,31.7 170.86,28.55C174.38,24.27 178.9,22.84 184.27,24C185.61,24.29 186.91,24.71 188.17,25.26C193.89,27.75 198.9,31.3 203.39,35.59C207.38,39.41 210.58,43.84 213.34,48.61C214.16,50.03 215.01,51.44 215.88,52.83C216.65,54.06 217.79,54.57 219.22,54.32C220.3,54.13 221.38,53.93 222.42,53.61C233.29,50.36 244.38,48.34 255.69,47.54C259.69,47.26 263.68,47.81 267.67,48.26C276.34,49.24 284.81,51.14 293.18,53.54C294.17,53.82 295.16,54.06 296.17,54.27C297.91,54.64 299.26,54.08 300.17,52.51C301.24,50.68 302.33,48.86 303.42,47.04C308.37,38.75 315,32.16 323.4,27.37C325.78,26.01 328.25,24.85 330.93,24.16C336.89,22.63 341.76,24.28 345.46,29.17C348.76,33.53 350.97,38.46 352.71,43.61C354.69,49.47 355.84,55.51 356.5,61.66C357.17,67.87 357.64,74.11 356.81,80.31C356.4,83.35 356.93,86.07 357.78,88.92C360.14,96.81 361.55,104.9 362.62,113.05C363.57,120.27 363.91,127.51 363.41,134.78C363.08,139.64 362.32,144.43 360.95,149.12C357.78,160.03 351.04,167.84 340.76,172.66C334.45,175.61 327.82,177.51 321.01,178.8C314.02,180.13 307,181.34 299.99,182.61C299.79,182.65 299.6,182.73 299.19,182.86C300.6,185.76 301.91,188.65 301.1,192C300.3,195.33 298.09,197.58 295.47,199.61C296.5,201.18 297.92,202.12 299.38,203C302.88,205.1 306.67,206.43 310.68,207.19C313.64,207.75 316.61,208.25 319.55,208.88C322.21,209.44 324.29,210.94 325.86,213.15C326.3,213.76 326.75,214.37 327.11,215.03C332.65,225.12 337.71,235.43 341.82,246.19C342.85,248.88 343.54,251.67 343.87,254.55C344.43,259.46 343.32,263.81 339.54,267.23C338.89,267.82 338.81,268.26 339.03,269.13C339.73,271.93 339.76,274.83 339.94,277.7C340.87,292.48 341.06,307.27 340.37,322.07C340.08,328.23 339.42,334.36 337.58,340.29C336.95,342.33 336.16,344.29 334.99,346.08C331.25,351.8 324.95,352.36 320.22,347.4C318.4,345.49 317.16,343.2 316.17,340.78C313.94,335.36 312.76,329.67 312.03,323.88C310.97,315.5 310.94,307.07 310.88,298.64L310.88,295.67C309.86,295.78 309.26,296.51 308.48,296.86C307.89,297.12 307.83,297.57 307.84,298.19C307.98,307.85 308.09,317.51 308.18,327.17C308.44,353.34 308.68,379.51 308.94,405.68C308.95,407.21 308.9,408.69 307.72,409.89C307.41,410.21 307.22,410.73 307.14,411.18C306.44,415.06 305.78,418.94 305.1,422.91C305.98,422.68 306.33,422.05 306.8,421.57C309.96,418.34 313.1,415.08 316.25,411.84C316.82,411.25 317.38,410.64 318.1,410.23C319.59,409.38 321.28,409.53 322.48,410.63C323.73,411.78 324.01,413.57 323.16,415.14C322.53,416.31 321.47,417.11 320.61,418.08C320.07,418.69 319.39,419.17 318.98,419.94C319.48,420.37 319.87,419.93 320.24,419.77C323.4,418.47 326.56,417.15 329.72,415.84C330.48,415.53 331.22,415.18 332.06,415.09C333.77,414.9 335.23,415.73 335.88,417.25C336.52,418.77 336.12,420.43 334.74,421.47C334.09,421.96 333.33,422.3 332.58,422.63C327.82,424.72 323.05,426.78 318.06,428.3C317.62,428.43 317.09,428.42 316.82,429.04C321.34,429.84 325.76,430.9 330.05,432.47C334.51,434.1 338.75,436.14 342.51,439.08C344.3,440.48 345.91,442.06 347.22,443.93C350.99,449.3 350.75,455.21 346.42,460.14C345.56,461.12 345.31,461.91 345.55,463.21C346.01,465.7 346.03,468.25 345.73,470.79C345.13,475.83 342.46,479.24 337.72,481.02C334.93,482.07 332.01,482.43 329.06,482.57C322,482.9 314.96,482.54 307.92,481.98C301.57,481.47 295.23,480.91 288.9,480.16C283.53,479.52 278.16,478.91 272.86,477.76C272.39,477.66 271.93,477.53 271.47,477.4C267.04,476.13 265.25,473.27 266.16,468.71C266.6,466.5 267.21,464.32 267.77,462.13C267.9,461.61 268.23,461.15 267.9,460.57C267.26,459.44 267.38,458.2 267.42,456.96C267.76,446.62 268.09,436.28 268.42,425.94C269.28,398.95 268.42,371.96 268.53,344.96C268.56,338.11 268.49,331.26 268.47,324.41C268.47,322.66 268.64,322.68 266.86,322.67C263.78,322.65 260.69,322.45 257.62,322.44C254.07,322.44 250.51,322.66 246.95,322.67C246.28,322.67 245.92,322.9 245.96,323.62C245.98,324.1 245.96,324.58 245.96,325.06C245.87,354.32 245.71,383.57 245.71,412.83C245.71,421.12 246.17,429.4 246.42,437.69C246.62,444.26 246.84,450.84 247.05,457.41C247.09,458.51 247.15,459.62 246.55,460.61C246.3,461.02 246.42,461.35 246.54,461.76C247.06,463.6 247.52,465.46 248,467.32C248.1,467.72 248.21,468.12 248.27,468.52C249.14,473.62 247.4,476.37 242.39,477.59C237.99,478.66 233.5,479.19 229.02,479.76C219.23,481 209.41,481.9 199.57,482.47C193.76,482.81 187.93,482.95 182.12,482.27C180.89,482.13 179.69,481.89 178.5,481.57C172.1,479.84 168.86,475.79 168.57,469.14C168.47,466.87 168.61,464.61 169.05,462.39C169.19,461.69 169.07,461.24 168.6,460.76C163.47,455.5 162.85,448.17 169.22,441.56C172.36,438.3 176.17,436.04 180.24,434.17C183.04,432.88 185.95,431.86 188.91,431.02C191.79,430.2 194.71,429.57 197.71,429.05C197.27,428.28 196.49,428.32 195.88,428.14C190.89,426.63 186.15,424.48 181.38,422.43C180.76,422.16 180.14,421.82 179.62,421.39C178.38,420.38 178,418.73 178.57,417.3C179.14,415.86 180.55,415 182.16,415.07C183.07,415.11 183.88,415.49 184.7,415.83C187.67,417.07 190.62,418.33 193.6,419.56C194.21,419.81 194.81,420.17 195.86,420.15C194.67,418.92 193.67,417.92 192.71,416.88C192.2,416.33 191.68,415.76 191.31,415.12C190.42,413.57 190.74,411.79 192.01,410.63C193.21,409.53 194.88,409.39 196.39,410.24C197.06,410.62 197.57,411.17 198.1,411.71C201.15,414.86 204.2,418.01 207.25,421.16C207.81,421.74 208.39,422.31 208.96,422.89L209.38,422.74L209.38,422.73Z" style="fill:rgb(16,18,17);fill-rule:nonzero;"/>
                    <path d="M352.73,74.87C352.7,77.81 352.82,80.76 352.2,83.67C352.03,84.48 352.07,85.35 352.37,86.11C354.11,90.4 354.67,94.97 355.65,99.44C357.05,105.8 358.19,112.21 358.67,118.7C359.39,128.57 359.45,138.41 356.45,148.01C353.87,156.28 348.78,162.41 341.14,166.47C335.1,169.68 328.63,171.69 321.96,173C313.09,174.74 304.22,176.45 295.29,177.81C291.79,178.35 288.39,179.33 284.86,179.67C281.39,180.01 277.94,180.6 274.48,181.06C273.19,181.23 271.88,181.27 270.6,181.48C269.52,181.66 268.7,181.69 268.02,180.53C267.45,179.55 266.48,179.39 265.5,180.05C261.9,182.49 257.93,181.97 253.98,181.64C252.86,181.55 251.9,181.03 250.95,180.45C249.12,179.33 248.68,179.36 247.36,181.05C246.79,181.78 246.2,181.59 245.55,181.53C239.75,180.98 233.98,180.23 228.25,179.23C216.87,177.23 205.49,175.19 194.14,173.07C188.88,172.09 183.79,170.51 178.82,168.5C166.85,163.67 160.05,154.8 157.84,142.18C156.43,134.15 156.4,126.09 157.15,118.02C158.06,108.25 160.11,98.68 162.38,89.15C162.58,88.29 162.86,87.43 163.22,86.62C163.63,85.7 163.77,84.74 163.6,83.81C162.69,78.7 163.04,73.56 163.27,68.44C163.59,61.38 164.61,54.41 166.65,47.61C167.85,43.59 169.46,39.75 171.55,36.12C172.23,34.94 173,33.79 173.83,32.71C176.25,29.53 179.51,28.62 183.33,29.41C185.56,29.88 187.62,30.8 189.61,31.88C197.62,36.24 203.95,42.34 208.65,50.15C209.74,51.97 210.76,53.84 211.9,55.63C214.42,59.58 216.93,60.65 221.48,59.5C225.79,58.42 230.07,57.21 234.4,56.19C240.08,54.85 245.84,54.11 251.63,53.47C253.6,53.25 255.58,53.23 257.51,52.66C258.46,52.38 259.34,53.02 260.3,53.11C264.32,53.5 268.34,53.95 272.34,54.49C279.07,55.41 285.63,57.11 292.16,58.93C293.41,59.28 294.68,59.6 295.95,59.82C298.42,60.25 300.54,59.52 302.29,57.7C303.58,56.35 304.47,54.72 305.38,53.11C308.07,48.31 311.16,43.8 315.15,39.97C318.93,36.33 323.14,33.3 327.87,31.03C330.17,29.93 332.54,29.1 335.16,29.16C337.4,29.21 339.29,29.99 340.89,31.53C342.19,32.78 343.15,34.27 344.05,35.81C347.58,41.85 349.69,48.41 350.96,55.25C352.17,61.73 352.68,68.28 352.72,74.86L352.73,74.87Z" style="fill:rgb(221,223,223);fill-rule:nonzero;"/>
                    <path d="M278.6,297.44L270.79,297.44C269.95,297.44 269.38,297.34 269.09,296.2C268.56,294.11 266.27,293.42 264.74,294.94C263.43,296.25 261.99,296.46 260.32,296.62C257.77,296.87 255.26,296.59 252.73,296.47C252.06,296.44 251.57,296.14 251.11,295.7C250.72,295.32 250.33,294.91 249.87,294.63C248.45,293.76 246.39,294.16 246.07,295.66C245.68,297.52 244.54,297.45 243.26,297.49C234.54,297.7 225.87,297.4 217.36,295.2C214.97,294.58 212.64,293.8 210.41,292.72C208.74,291.91 207.18,290.93 205.89,289.56C204.29,287.85 203.28,285.96 203.48,283.48C203.69,280.82 203.68,278.14 203.77,275.47C203.81,274.17 203.92,272.86 203.39,271.62C203.25,271.3 203.22,270.97 203.33,270.63C204.16,268.07 203.78,265.34 204.34,262.74C204.4,262.48 204.39,262.19 204.38,261.92C204.31,260.59 203.51,259.65 202.32,259.5C201.22,259.36 200.14,259.94 199.78,261.14C199.35,262.58 199.13,264.07 198.84,265.55C198.35,268.03 197.35,269.03 194.79,268.84C189.39,268.43 184.29,266.94 179.82,263.76C177.53,262.13 176.51,259.82 176.49,257.04C176.48,254.97 176.88,252.96 177.42,250.97C178.4,247.39 179.83,243.99 181.35,240.61C184.1,234.49 186.99,228.44 190.07,222.48C190.82,221.02 191.68,219.61 192.42,218.15C193.73,215.55 195.8,214.2 198.69,213.79C202.21,213.29 205.73,212.72 209.16,211.74C212.74,210.72 216.13,209.3 219.17,207.11C220.73,205.98 222.22,204.75 223.28,203.13C223.84,202.28 224.35,202.13 225.3,202.51C229.13,204.04 233.14,204.93 237.2,205.57C245.76,206.93 254.37,207.12 263.01,206.88C270.08,206.68 277.08,206.01 283.96,204.3C285.95,203.81 287.92,203.23 289.82,202.43C290.47,202.16 290.94,202.18 291.4,202.81C294.71,207.34 299.43,209.7 304.6,211.38C308.33,212.59 312.19,213.19 316.05,213.75C318.99,214.18 321.1,215.49 322.53,218.15C327.71,227.81 332.56,237.62 336.52,247.85C337.48,250.34 338.13,252.93 338.39,255.61C338.79,259.75 337.17,262.76 333.57,264.81C330.25,266.7 326.68,267.81 322.97,268.53C321.89,268.74 320.8,269 319.71,268.85C317.61,268.57 316.24,267.94 316.1,265.72C316.02,264.37 315.65,263.02 315.32,261.7C314.92,260.12 313.87,259.33 312.57,259.51C311.2,259.7 310.21,260.98 310.52,262.56C311.02,265.11 310.86,267.73 311.45,270.26C311.51,270.51 311.52,270.85 311.39,271.04C310.44,272.48 310.72,274.08 310.74,275.64C310.78,278.72 310.77,281.81 310.94,284.88C311.05,286.76 310.34,288.18 309.12,289.48C307.48,291.2 305.48,292.36 303.32,293.28C298.87,295.17 294.19,296.14 289.43,296.8C285.83,297.3 282.19,297.33 278.57,297.46L278.6,297.44Z" style="fill:rgb(250,238,105);fill-rule:nonzero;"/>
                    <path d="M214.16,300.06C217.73,301.05 221.2,301.78 224.74,302.22C228.76,302.72 232.78,302.96 236.83,303.03C242.38,303.13 247.93,302.82 253.47,302.53C257.66,302.32 261.83,302.5 266,302.74C273.33,303.16 280.66,303.2 287.97,302.51C292.13,302.12 296.23,301.35 300.34,300.19C300.68,300.97 300.53,301.72 300.54,302.44C300.87,335.26 301.19,368.07 301.51,400.89C301.52,402.19 301.58,403.49 301.56,404.79C301.55,406.52 300.68,407.52 298.95,407.87C294.77,408.72 290.51,408.77 286.27,408.94C283.6,409.05 280.93,408.97 278.25,408.94C276.22,408.91 276.21,408.88 276.2,406.88C276.14,394.27 276.08,381.67 276.03,369.06C275.97,353.03 275.91,336.99 275.85,320.96C275.83,316.78 273.93,314.85 269.68,314.84C261.39,314.81 253.1,314.83 244.81,314.84C243.85,314.84 242.93,314.9 242,315.29C239.45,316.36 238.56,318.21 238.56,320.95C238.53,349.32 238.41,377.68 238.32,406.05C238.32,407.977 237.36,408.953 235.44,408.98C229.54,409.07 223.66,408.96 217.8,408.26C217.05,408.17 216.31,408.04 215.57,407.89C213.73,407.53 212.92,406.56 212.93,404.65C213.01,395.47 213.11,386.29 213.2,377.11C213.43,352.31 213.66,327.51 213.91,302.71C213.91,301.9 213.79,301.08 214.15,300.08L214.16,300.06Z" style="fill:rgb(250,234,187);fill-rule:nonzero;"/>
                    <path d="M298.97,414.93C298.42,418.22 297.93,421.18 297.42,424.13C297.13,425.82 296.82,427.5 296.52,429.18C296.1,431.5 297.29,433.28 298.61,434.95C299.42,435.97 300.67,435.84 301.86,435.74C313.88,434.77 325.09,437.47 335.59,443.27C337.27,444.2 338.76,445.42 340.08,446.84C340.83,447.65 341.47,448.53 341.95,449.52C342.69,451.05 342.64,452.56 341.79,454.04C340.77,455.82 339.24,457.06 337.45,457.99C334.73,459.4 331.8,460.06 328.79,460.39C323.32,461 317.84,460.65 312.38,460.26C306.78,459.86 301.2,459.3 295.61,458.79C289.41,458.22 283.21,457.64 277.01,457.05C276.67,457.02 276.34,456.9 276,456.89C275.1,456.84 274.84,456.33 274.93,455.52C274.96,455.25 274.95,454.97 274.96,454.7C275.3,443.06 275.64,431.42 275.99,419.79C276.09,416.36 276.11,416.32 279.62,416.4C286,416.55 292.34,416.23 298.98,414.94L298.97,414.93Z" style="fill:rgb(190,155,78);fill-rule:nonzero;"/>
                    <path d="M215.55,415.07C218.36,415.43 220.79,415.76 223.23,416.05C226.98,416.5 230.75,416.41 234.52,416.39C235.34,416.39 236.17,416.42 236.98,416.35C238.03,416.26 238.43,416.64 238.44,417.73C238.48,420.6 238.63,423.48 238.72,426.35C239.01,435.59 239.3,444.83 239.59,454.07C239.6,454.48 239.56,454.9 239.63,455.3C239.82,456.47 239.23,456.85 238.17,456.95C235.1,457.24 232.05,457.63 228.98,457.91C221.69,458.59 214.4,459.32 207.1,459.87C200.35,460.38 193.59,461.06 186.8,460.47C183.43,460.18 180.16,459.56 177.12,458C175.89,457.37 174.77,456.6 173.82,455.58C171.65,453.25 171.43,450.95 173.2,448.33C174.37,446.61 175.92,445.26 177.62,444.08C181.43,441.44 185.67,439.71 190.08,438.37C195.21,436.82 200.46,435.91 205.79,435.44C208.04,435.24 210.3,435.22 212.54,435.69C214.72,436.14 216.11,435.13 217.01,433.36C217.99,431.45 218.06,429.64 217.69,427.62C216.93,423.54 216.28,419.43 215.54,415.06L215.55,415.07Z" style="fill:rgb(190,155,78);fill-rule:nonzero;"/>
                    <path d="M257.55,201.4C249.19,201.09 240.97,201.04 232.93,199.05C230.07,198.34 227.27,197.49 224.64,196.13C223.23,195.41 221.91,194.57 220.81,193.42C219.16,191.72 218.71,189.79 219.69,187.59C219.94,187.03 220.27,186.51 220.56,185.97C221.41,184.37 222.46,183.73 224.49,184.12C231.95,185.54 239.47,186.63 247.05,187.18C255.53,187.8 264.01,187.76 272.47,186.86C278.66,186.2 284.83,185.34 290.95,184.21C292.44,183.93 293.46,184.22 294.16,185.58C294.53,186.31 295.03,186.98 295.33,187.74C296.14,189.76 295.84,191.63 294.34,193.25C293.21,194.47 291.84,195.37 290.37,196.12C286.61,198.03 282.58,199.04 278.47,199.8C271.51,201.1 264.45,201.11 257.57,201.4L257.55,201.4Z" style="fill:rgb(253,254,250);fill-rule:nonzero;"/>
                    <path d="M332.65,271.7C332.95,272.75 332.9,273.72 332.91,274.66C333.07,285.96 333.22,297.26 333.35,308.56C333.41,313.42 333.13,318.28 332.92,323.14C332.88,324.1 332.74,325.05 332.64,326C332.6,326.39 332.42,326.46 331.99,326.5C330.56,326.63 330.3,326.94 330.49,328.26C330.68,329.54 330.98,330.81 331.32,332.07C331.88,334.18 331.15,336.04 330.21,337.91C330.16,337.13 330.17,336.34 330.06,335.57C329.95,334.84 329.57,334.23 328.73,334.29C327.89,334.34 327.57,334.98 327.58,335.73C327.61,337.51 327.71,339.29 327.78,341.07C327.8,341.48 327.85,341.89 327.84,342.3C327.81,343.26 327.3,343.63 326.57,343.1C324.98,341.95 323.71,340.53 323.67,338.41C323.64,337.25 323.72,336.08 323.69,334.92C323.66,333.94 323.36,333.11 322.12,333.3C321.13,333.45 321.22,332.65 321.08,332.12C320.02,328.07 319.37,323.95 319.01,319.78C318.29,311.58 318.23,303.36 318.29,295.14C318.33,288.77 318.32,282.4 318.17,276.03C318.13,274.35 318.15,274.36 319.75,274.35C323.5,274.33 327.05,273.32 330.57,272.19C331.2,271.99 331.78,271.56 332.65,271.67L332.65,271.7Z" style="fill:rgb(221,223,223);fill-rule:nonzero;"/>
                    <path d="M184.1,338.27C183.17,335.75 182.53,333.57 183.36,331.22C183.61,330.52 183.7,329.76 183.86,329.02C184.3,326.85 184.12,326.6 181.76,326.32C180.62,308.07 181.45,289.8 181.67,271.6C182.4,271.23 182.87,271.67 183.34,271.84C187.22,273.23 191.16,274.35 195.32,274.37C196.12,274.37 196.47,274.63 196.38,275.43C196.36,275.57 196.38,275.7 196.37,275.84C195.84,287.07 196.37,298.3 196.07,309.53C195.87,316.79 195.38,324.03 193.66,331.12C193.55,331.58 193.39,332.04 193.3,332.51C193.18,333.16 192.93,333.4 192.19,333.3C191.11,333.16 190.78,333.95 190.76,334.86C190.73,336.02 190.76,337.19 190.77,338.35C190.81,340.42 189.58,341.79 188.11,342.96C187.21,343.68 186.61,343.31 186.64,342.14C186.69,340.36 186.83,338.59 186.92,336.81C187,335.19 186.64,334.39 185.8,334.28C184.93,334.16 184.52,334.81 184.33,336.54C184.28,337.01 184.19,337.47 184.07,338.27L184.1,338.27Z" style="fill:rgb(221,223,223);fill-rule:nonzero;"/>
                    <path d="M339.01,465.45C339.3,467.41 339.06,469.22 338.57,470.99C338.2,472.32 337.25,473.17 336.01,473.76C333.72,474.83 331.27,475.07 328.81,475.19C322.17,475.53 315.54,475.19 308.92,474.68C302.3,474.16 295.7,473.57 289.11,472.77C284.43,472.2 279.74,471.63 275.11,470.72C273.34,470.37 273.34,470.36 273.76,468.61C274.03,467.48 274.37,466.36 274.57,465.22C274.73,464.31 275.19,464.2 276.01,464.29C288.39,465.63 300.79,466.76 313.2,467.69C319.27,468.15 325.36,468.37 331.43,467.45C334,467.06 336.47,466.3 339.02,465.45L339.01,465.45Z" style="fill:rgb(250,244,220);fill-rule:nonzero;"/>
                    <path d="M175.64,465.51C178.15,466.35 180.7,467.1 183.34,467.49C186.54,467.96 189.75,468.08 192.97,468.03C202.43,467.89 211.82,466.85 221.22,465.96C227.01,465.42 232.82,465.06 238.59,464.28C239.36,464.17 239.74,464.4 239.91,465.13C240.2,466.4 240.56,467.65 240.84,468.92C241.14,470.29 241.08,470.4 239.65,470.68C236.09,471.4 232.5,471.88 228.9,472.34C219.12,473.59 209.31,474.5 199.47,475.08C193.87,475.41 188.25,475.64 182.66,474.87C176.17,473.98 175.31,471.81 175.45,465.94C175.45,465.82 175.56,465.7 175.65,465.52L175.64,465.51Z" style="fill:rgb(250,244,220);fill-rule:nonzero;"/>
                    <path d="M250.13,142.19C249.47,142.19 248.81,142.23 248.16,142.19C246.46,142.08 244.79,141.96 243.17,141.19C242.02,140.64 240.67,140.53 239.41,140.22C237.74,139.81 236.13,139.26 234.59,138.51C233.42,137.94 232.32,137.24 231.42,136.28C229.08,133.8 229.05,130.48 231.36,127.97C232.83,126.37 234.72,125.4 236.7,124.6C240.85,122.92 245.21,122.02 249.61,121.4C259.22,120.05 268.56,121.26 277.66,124.55C278.95,125.02 280.17,125.64 281.31,126.41C286.22,129.71 286.07,134.87 280.99,137.95C279.99,138.55 278.92,139 277.83,139.42C275.15,140.46 272.28,140.81 269.58,141.83C267.95,142.44 266.1,142.23 264.14,142.28C264.49,142.99 265.02,143.19 265.44,143.47C267.16,144.59 269,145.5 270.86,146.37C274.29,147.97 277.91,148.5 281.66,148.21C283.43,148.07 285.21,148.04 286.97,147.72C287.93,147.54 288.89,147.69 289.79,148.08C292.37,149.18 292.74,152.39 290.49,154.07C289.93,154.48 289.31,154.82 288.64,154.92C283.89,155.64 279.11,156.09 274.34,155.2C268.46,154.1 263.51,151.1 258.92,147.44C257.26,146.12 257.28,146.12 255.65,147.41C251.11,151.03 246.23,154 240.44,155.15C235.6,156.1 230.76,155.64 225.94,154.93C225.2,154.82 224.51,154.46 223.92,153.97C221.82,152.25 222.22,149.19 224.71,148.1C225.81,147.62 226.95,147.65 228.14,147.78C230.18,148.01 232.23,148.19 234.28,148.27C237.47,148.39 240.53,147.8 243.46,146.47C245.83,145.39 248.13,144.2 250.26,142.71L250.17,142.23L250.13,142.19Z" style="fill:rgb(16,18,17);fill-rule:nonzero;"/>
                    <path d="M304.64,120.59C304.5,117.71 305.25,114.9 306.71,112.27C306.91,111.91 307.25,111.57 307.3,111.2C307.52,109.29 308.78,109.08 310.37,109.05C317.69,108.92 325.01,108.75 332.32,108.5C333.9,108.45 335.04,108.88 336.09,110.05C340.12,114.54 342.61,119.64 342.58,125.78C342.55,134.16 336.82,141.02 328.57,142.65C318.26,144.68 308.28,138.18 305.54,127.62C304.95,125.37 304.57,123.07 304.64,120.59Z" style="fill:rgb(16,18,17);fill-rule:nonzero;"/>
                    <path d="M192.83,109.08L204.32,109.08C205.72,109.08 206.95,109.24 207.11,111.03C207.14,111.34 207.44,111.62 207.6,111.92C213.06,122.21 208.42,136.21 197.91,141.19C189.6,145.13 179.64,142.62 174.74,135.28C171.61,130.6 171.16,125.47 172.67,120.14C173.8,116.11 175.9,112.63 178.83,109.64C179.6,108.85 180.43,108.48 181.55,108.53C185.31,108.68 189.07,108.75 192.83,108.85L192.83,109.1L192.83,109.08Z" style="fill:rgb(16,18,17);fill-rule:nonzero;"/>
                    <path d="M183.26,62.1C183.29,62.57 183.31,62.83 183.32,63.1C183.43,65.54 182.93,66.52 180.69,67.39C178.02,68.43 175.29,69.35 172.56,70.24C171.24,70.67 170.65,70.25 170.57,69.06C170.35,65.92 170.09,62.79 169.94,59.64C169.74,55.45 170.07,51.31 171.31,47.25C172.34,43.89 174.31,41.13 176.61,38.56C177.27,37.82 178.04,37.53 178.99,37.76C179.72,37.94 180.47,38.08 181.16,38.37C188.77,41.61 194.63,46.67 197.75,54.52C198.54,56.51 198.43,57.18 196.87,58.71C195.94,59.62 195,60.52 194.02,61.38C193.15,62.14 192.18,62.52 191,62.07C189.74,61.58 188.26,62.12 187.05,61.26C186.81,61.09 186.5,61.21 186.32,61.43C185.54,62.35 184.47,62.1 183.26,62.08L183.26,62.1Z" style="fill:rgb(17,19,18);fill-rule:nonzero;"/>
                    <path d="M331.26,62.06C329.98,62.16 328.86,62.33 328.02,61.35C327.92,61.24 327.58,61.18 327.47,61.26C326.21,62.15 324.65,61.59 323.32,62.11C322.4,62.47 321.57,62.23 320.82,61.65C319.41,60.56 318.13,59.32 316.94,58C316.22,57.2 316.04,56.25 316.46,55.15C319.71,46.68 325.88,41.25 334.21,38.06C335.93,37.4 337.2,37.71 338.53,39.22C342.43,43.65 344.17,48.83 344.49,54.59C344.73,58.91 344.41,63.2 343.99,67.5C343.95,67.9 343.89,68.31 343.88,68.71C343.84,70.26 343.36,70.68 341.88,70.21C339.54,69.47 337.22,68.65 334.9,67.82C331.5,66.61 330.95,65.74 331.26,62.04L331.26,62.06Z" style="fill:rgb(17,19,18);fill-rule:nonzero;"/>
                    <path d="M217.7,93.49C217.7,95.2 216.04,96.35 214.5,97.58C214.27,97.76 213.98,97.69 213.72,97.6C211.39,96.79 210.04,93.94 210.86,91.58C211.51,89.7 213.26,88.55 214.92,88.91C216.6,89.27 217.81,91.01 217.71,93.49L217.7,93.49Z" style="fill:rgb(18,20,19);fill-rule:nonzero;"/>
                    <path d="M303.87,92.58C303.91,94.88 302.41,97.08 300.75,97.61C300.47,97.7 300.18,97.72 299.97,97.55C298.65,96.49 297.19,95.53 296.87,93.69C296.58,92.04 296.94,90.56 298.34,89.5C299.34,88.74 300.46,88.61 301.6,89.19C303.15,89.98 303.82,91.31 303.88,92.58L303.87,92.58Z" style="fill:rgb(18,19,18);fill-rule:nonzero;"/>
                    <path d="M323.11,111.31L332.72,111.31C333.35,111.31 333.93,111.33 334.39,111.87C338.87,117.26 341.13,123.22 339.17,130.28C339.14,130.4 339.05,130.51 338.83,130.93C335.86,122.49 331.09,115.73 322.9,111.87L323.12,111.32L323.11,111.31Z" style="fill:rgb(253,254,254);fill-rule:nonzero;"/>
                    <path d="M175.74,130.72C174.93,129.91 174.9,128.91 174.79,128C174.06,121.92 176.03,116.7 179.91,112.09C180.39,111.52 180.93,111.28 181.68,111.29C184.94,111.32 188.2,111.3 191.55,111.55C187.82,113.72 184.45,116.19 181.77,119.51C179.08,122.85 177.22,126.63 175.73,130.72L175.74,130.72Z" style="fill:rgb(253,254,254);fill-rule:nonzero;"/>
                    <path d="M173.25,67.33C173.13,67.11 173.02,67 173,66.88C172.4,60.93 172.15,54.99 173.6,49.11C174.35,46.04 175.98,43.46 177.99,41.08C178.57,40.4 179.09,40.23 179.93,40.6C186.8,43.56 192.09,48.15 195.08,55.16C195.43,55.99 195.39,56.59 194.68,57.13C194.46,57.3 194.28,57.51 194.08,57.69C193.41,58.27 192.87,59.4 192.06,59.31C190.74,59.16 189.32,59.5 188.06,58.74C186.99,58.09 185.85,57.91 184.86,58.9C184.39,59.37 183.89,59.24 183.34,59.2C181.1,59.05 180.3,59.85 180.4,62.01C180.44,62.82 181.05,63.65 180.53,64.4C179.96,65.23 178.91,65.38 178.02,65.71C176.43,66.3 174.82,66.81 173.24,67.35L173.25,67.33Z" style="fill:rgb(251,191,154);fill-rule:nonzero;"/>
                    <path d="M341.5,67.46C339.18,66.62 337.07,65.85 334.96,65.11C333.93,64.75 333.61,64.07 333.89,63.03C334.01,62.57 334.12,62.09 334.13,61.62C334.17,59.97 333.26,59.02 331.61,59.14C330.7,59.21 329.94,59.25 329.17,58.55C328.52,57.95 327.52,58.03 326.85,58.52C325.56,59.46 324.04,58.92 322.69,59.36C322.13,59.55 321.74,58.93 321.34,58.57C318.78,56.27 318.76,56.26 320.34,53.2C323.39,47.28 328.28,43.39 334.24,40.69C335.28,40.22 335.93,40.37 336.69,41.26C339.61,44.65 341.08,48.6 341.64,52.98C342.24,57.7 341.91,62.4 341.5,67.45L341.5,67.46Z" style="fill:rgb(251,191,154);fill-rule:nonzero;"/>
                </g>
            </g>
        </g>
    </g>
</svg>
