<?xml version="1.0" encoding="UTF-8" standalone="no"?>
<!DOCTYPE svg PUBLIC "-//W3C//DTD SVG 1.1//EN" "http://www.w3.org/Graphics/SVG/1.1/DTD/svg11.dtd">
<svg width="100%" height="100%" viewBox="0 0 1024 1024" version="1.1" xmlns="http://www.w3.org/2000/svg" xmlns:xlink="http://www.w3.org/1999/xlink" xml:space="preserve" xmlns:serif="http://www.serif.com/" style="fill-rule:evenodd;clip-rule:evenodd;stroke-linejoin:round;stroke-miterlimit:2;">
    <g transform="matrix(0.260573,0,0,0.260573,-106.425,-132.293)">
        <g>
            <path d="M1290.5,2584.73C1234.8,2598.96 1179.11,2613.19 1123.42,2627.42C1090.53,2635.84 1057.81,2644.98 1024.72,2652.52C1010.41,2655.77 995.43,2655.57 982.19,2646.64C965.45,2635.35 962.19,2612.34 976.25,2597.53C1005.15,2567.05 1034.53,2537.03 1063.79,2506.89C1089.12,2480.79 1114.51,2454.73 1139.96,2428.72C1165.55,2402.46 1191.59,2376.63 1216.56,2349.79C1232.94,2332.19 1247.39,2312.79 1263.41,2294.79C1284.26,2271.41 1305.78,2248.64 1327.07,2225.66C1342.94,2208.53 1358.95,2191.55 1374.79,2174.4C1380.67,2168.04 1386.23,2161.4 1390.66,2152.96C1367.1,2158.38 1343.6,2164.02 1319.99,2169.16C1269.4,2180.16 1218.82,2191.27 1168.08,2201.57C1152.75,2204.68 1136.87,2207.87 1121.74,2199.04C1102.93,2188.04 1100.53,2167.12 1115.88,2151.38C1142.88,2123.72 1169.38,2095.67 1195.99,2067.68C1226.53,2035.58 1257.01,2003.42 1287.42,1971.19C1317.66,1939.19 1348.15,1907.48 1378,1875.19C1406.25,1844.59 1433.77,1813.31 1461.69,1782.41C1491.62,1749.27 1521.91,1716.41 1551.55,1683.03C1568.05,1664.44 1583.23,1644.67 1599.55,1625.92C1620.1,1602.32 1641.24,1579.25 1662.1,1555.92C1681.97,1533.69 1701.8,1511.42 1721.58,1489.11C1723.76,1486.64 1725.01,1483.36 1727.51,1479.04C1710.22,1480.89 1694.57,1483.35 1678.83,1484.04C1634.35,1486.12 1589.83,1487.04 1545.33,1489.33C1522.33,1490.52 1506.48,1477.8 1492.81,1462.74C1488.74,1458.25 1488.7,1444.74 1492.53,1439.43C1504.85,1422.49 1519.65,1407.32 1533.84,1391.78C1550.05,1374.05 1566.7,1356.7 1583.05,1339.09C1604.87,1315.59 1626.63,1292.03 1648.33,1268.41C1664.33,1250.9 1679.94,1233.01 1695.98,1215.53C1717.14,1192.45 1738.63,1169.69 1759.82,1146.64C1775.36,1129.75 1790.58,1112.56 1806.06,1095.64C1824.06,1075.88 1842.3,1056.27 1860.33,1036.5C1875.8,1019.5 1891.02,1002.34 1906.54,985.43C1928.22,961.81 1950.17,938.43 1971.84,914.78C1987.35,897.87 2002.47,880.61 2017.97,863.68C2039.64,840.02 2061.55,816.59 2083.25,792.96C2098.78,776.04 2114.05,758.88 2129.58,741.96C2151.27,718.33 2173.19,694.9 2194.85,671.25C2210.61,654.04 2226,636.49 2241.78,619.25C2263.2,595.9 2285.78,573.51 2306.07,549.25C2318.62,534.276 2334.07,521.99 2351.49,513.13C2366.67,505.21 2380.26,506.51 2395.55,513.44C2426.35,527.39 2444.08,554.91 2466.1,578C2487.44,600.37 2508.36,623.15 2529.32,645.89C2544.89,662.77 2560.15,679.89 2575.68,696.83C2597.37,720.45 2619.23,743.9 2640.9,767.54C2656.4,784.45 2671.6,801.65 2687.12,818.54C2709.07,842.46 2731.32,866.13 2753.21,890.12C2769.47,907.93 2785.21,926.25 2801.47,944.02C2822.37,966.81 2843.77,989.14 2864.67,1011.92C2885.36,1034.46 2905.55,1057.45 2926.23,1080C2947.37,1103.07 2968.94,1125.75 2990.11,1148.8C3006.16,1166.27 3021.73,1184.19 3037.76,1201.68C3058.92,1224.76 3080.41,1247.55 3101.61,1270.6C3117.15,1287.49 3132.36,1304.68 3147.88,1321.6C3169.57,1345.21 3191.54,1368.6 3213.15,1392.25C3227.08,1407.51 3241.62,1422.4 3253.68,1439.05C3257.59,1444.44 3257.99,1458.1 3253.99,1462.45C3240.28,1477.38 3224.67,1490.68 3201.58,1489.29C3144.79,1485.85 3087.97,1483.07 3031.16,1480.03C3027.72,1479.84 3024.27,1479.63 3017.61,1479.24C3027.04,1490.99 3034.54,1501.24 3043.01,1510.71C3069.57,1540.26 3096.81,1569.2 3123.2,1598.89C3153.88,1633.41 3183.93,1668.49 3214.3,1703.28C3234.94,1726.92 3255.46,1750.65 3276.39,1774.01C3301.87,1802.45 3327.54,1830.7 3353.39,1858.77C3374.08,1881.34 3394.8,1903.89 3415.89,1926.09C3445.89,1957.66 3476.4,1988.75 3506.36,2020.35C3527.43,2042.56 3547.83,2065.35 3568.75,2087.74C3588.08,2108.41 3607.59,2128.91 3627.27,2149.26C3640.4,2162.91 3643.85,2175.08 3637.58,2187.36C3631.91,2198.45 3612.65,2207.19 3597.16,2204.21C3558.85,2196.83 3520.64,2188.95 3482.47,2180.88C3440.22,2171.94 3398.06,2162.58 3353.04,2152.78C3362.1,2163.51 3369.27,2172.78 3377.2,2181.25C3403.76,2209.77 3431.04,2237.65 3457.2,2266.52C3481.58,2293.4 3504.05,2322.03 3528.88,2348.47C3562.61,2384.39 3597.88,2418.89 3632.32,2454.11C3653.21,2475.46 3673.77,2497.11 3694.66,2518.49C3715.22,2539.49 3736.17,2560.13 3756.66,2581.26C3762.76,2587.56 3768.66,2594.4 3773.03,2601.96C3787.95,2627.96 3773.03,2654.4 3741.85,2652.96C3716.31,2651.8 3690.73,2645.82 3665.73,2639.68C3599.02,2623.27 3532.62,2605.6 3466.07,2588.5C3462.39,2587.56 3458.57,2587.19 3452.57,2586.16C3460.33,2595.73 3466.62,2603.79 3473.22,2611.57C3495.97,2638.36 3518.49,2665.35 3541.75,2691.7C3561.94,2714.58 3583.22,2736.5 3603.65,2759.18C3619.27,2776.51 3634.15,2794.51 3649.65,2811.96C3666.65,2831.08 3683.9,2849.96 3701.07,2868.88C3716.73,2886.16 3732.18,2903.66 3748.18,2920.62C3769.4,2943.12 3791.18,2965.14 3812.54,2987.49C3828.68,3004.35 3844.71,3021.32 3860.62,3038.41C3876.95,3056.07 3893.28,3073.74 3908.97,3091.95C3915.54,3099.43 3921.08,3107.75 3925.42,3116.71C3933.84,3134.71 3925.93,3152.84 3906.95,3159.71C3898.73,3162.71 3889.66,3165.16 3881.05,3164.95C3819.5,3163.42 3757.94,3161.82 3696.44,3158.95C3593.87,3154.16 3491.3,3150.56 3388.64,3155.12C3322.88,3158.04 3257.16,3161.75 3191.44,3165.33C3168.25,3166.59 3145.09,3168.57 3121.92,3170.07C3114.75,3170.54 3111.47,3172.98 3111.01,3181.2C3108.31,3229.53 3105.17,3277.83 3101.58,3326.11C3097.3,3383.5 3092.38,3440.84 3087.74,3498.21C3083.07,3555.96 3078.41,3613.72 3073.74,3671.47C3069.11,3728.8 3064.47,3786.16 3059.82,3843.55C3055.15,3901.3 3050.63,3959.06 3045.77,4016.8C3042.54,4055.24 3038.83,4093.65 3035.38,4132.08C3035.15,4134.7 3035.38,4137.35 3035.38,4141.23C3053.9,4140.3 3071.96,4139.78 3089.95,4138.42C3173.53,4132.11 3257.12,4130.54 3340.57,4139.56C3413.92,4147.48 3483.33,4169.49 3548.26,4204.19C3576.69,4219.38 3602.93,4239.46 3617.13,4269.58C3629.13,4295.12 3629.03,4322.97 3616.13,4348.26C3608.36,4363.53 3596.44,4377.09 3584.63,4389.78C3566.58,4409.19 3540.94,4416.19 3518.05,4427.88C3487.22,4443.63 3455.7,4434.37 3424.68,4433.73C3385.33,4432.93 3346.1,4426.96 3306.74,4425.73C3226.49,4423.29 3147.14,4412.37 3067.59,4403.04C2994.59,4394.48 2921.45,4386.9 2848.41,4378.57C2778.46,4370.57 2708.55,4362.22 2638.64,4353.95C2624.31,4352.25 2611.05,4346.35 2595.76,4347.22C2578.7,4348.22 2566.52,4330.51 2566.62,4316.13C2567.05,4255.69 2566.62,4195.25 2567,4134.8C2567,4129.09 2570.56,4123.47 2571.69,4117.66C2574.26,4104.44 2576.93,4091.21 2578.53,4077.85C2584.42,4028.44 2589.77,3978.96 2595.53,3929.53C2599.95,3891.62 2604.73,3853.75 2609.31,3815.86C2614.03,3776.82 2618.73,3737.78 2623.42,3698.74C2627.96,3661.24 2632.53,3623.74 2637.13,3586.24C2641.89,3546.81 2646.62,3507.37 2651.32,3467.94C2655.86,3430.45 2660.51,3392.94 2665.04,3355.48C2669.8,3316.05 2674.25,3276.58 2679.33,3237.19C2681.07,3223.61 2684.33,3210.19 2686.82,3196.8L2059.72,3196.8C2062.72,3216.32 2066.13,3236.26 2068.81,3256.29C2071.06,3273.16 2072.56,3290.13 2074.24,3307.08C2076.04,3325.18 2077.35,3343.34 2079.43,3361.41C2083.89,3400.09 2088.71,3438.73 2093.43,3477.41C2098.06,3515.67 2102.7,3553.93 2107.33,3592.2C2112,3630.87 2116.66,3669.53 2121.33,3708.2C2125.96,3746.47 2130.6,3784.74 2135.25,3823C2139.92,3861.67 2144.58,3900.33 2149.25,3939C2153.87,3977.28 2157.96,4015.64 2163.36,4053.8C2166.63,4076.93 2172.03,4099.8 2176.25,4122.8C2177.08,4127.76 2177.45,4132.78 2177.38,4137.8C2177.45,4196.31 2176.85,4254.8 2177.69,4313.32C2178.02,4336.01 2165.92,4350.21 2139.69,4347.32C2133.97,4346.68 2127.91,4350.01 2121.92,4350.86C2077.53,4357.21 2033.23,4364.33 1988.7,4369.43C1890.3,4380.69 1791.76,4390.7 1693.31,4401.59C1608.71,4410.94 1524.47,4423.53 1439.15,4425.9C1399.79,4426.99 1360.54,4431.6 1321.23,4434.37C1300.78,4435.81 1280.23,4438.28 1259.85,4437.26C1248.03,4436.67 1236.31,4430.57 1224.85,4426.09C1201.14,4416.79 1178.01,4406.44 1159.3,4388.27C1127.79,4357.67 1111.1,4318.83 1128,4273.32C1136.1,4251.51 1152.73,4234.59 1172.07,4221.75C1253.27,4167.86 1343.97,4143.93 1440.23,4136.68C1526.71,4130.16 1612.84,4135.37 1699.04,4141.08C1702.81,4141.33 1706.62,4141.08 1711.51,4141.08C1709.78,4114.18 1708.36,4088.03 1706.36,4061.92C1701.34,3996.04 1696.17,3930.17 1690.84,3864.31C1686.84,3815.05 1682.48,3765.82 1678.51,3716.56C1673.21,3650.71 1668.18,3584.83 1662.95,3518.97C1658.31,3460.44 1653.77,3401.91 1648.79,3343.4C1643.97,3286.85 1638.66,3230.33 1633.37,3171.56C1619.95,3170.35 1605.18,3168.61 1590.37,3167.77C1509.19,3163.15 1428.04,3157.31 1346.8,3154.72C1282.18,3152.72 1217.41,3153.52 1152.8,3155.16C1057.57,3157.57 962.39,3162.02 867.18,3165.16C851.59,3165.66 836.62,3162.85 825.54,3149.16C817.54,3139.29 814.54,3122.88 822.79,3113.04C846.79,3084.46 871.15,3056.04 896.24,3028.43C920.92,3001.24 946.66,2975.01 971.99,2948.43C993.06,2926.32 1014.49,2904.54 1035.21,2882.12C1051.57,2864.43 1067.01,2845.9 1083.02,2827.89C1104.02,2804.21 1125.28,2780.69 1146.39,2757.08C1161.69,2739.98 1177.03,2722.92 1192.19,2705.69C1214.4,2680.45 1236.61,2655.23 1258.5,2629.69C1270.16,2616.09 1281.12,2601.91 1292.4,2587.99L1290.5,2584.73ZM3531.31,2138.53L3532.31,2135.71C3523.57,2126.01 3514.99,2116.17 3506.06,2106.65C3484.63,2083.82 3462.98,2061.19 3441.52,2038.38C3425.52,2021.38 3409.9,2004.05 3393.77,1987.18C3372.64,1965.1 3350.93,1943.58 3329.95,1921.37C3313.95,1904.37 3298.68,1886.73 3283.01,1869.44C3262.01,1846.26 3240.76,1823.28 3219.88,1799.97C3203.54,1781.73 3187.63,1763.11 3171.49,1744.69C3149.61,1719.69 3127.59,1694.85 3105.84,1669.76C3094.57,1656.76 3083.97,1643.18 3072.66,1630.21C3056.35,1611.52 3039.56,1593.21 3023.17,1574.6C3011.08,1560.85 2998.67,1547.32 2987.54,1532.81C2974.77,1516.16 2963.09,1498.65 2951.26,1481.28C2944.19,1470.89 2938.13,1459.81 2930.95,1449.51C2922.77,1437.8 2924.3,1427.04 2935.9,1418.74C2948.74,1409.54 2963.18,1409.29 2977.08,1413.45C3034.71,1430.7 3093.99,1435.27 3153.58,1437.96C3159.93,1438.24 3166.27,1438.67 3174.65,1439.14L3161.97,1425.06C3146.34,1407.72 3130.84,1390.26 3115.06,1373.06C3098.55,1355.06 3081.65,1337.45 3065.16,1319.46C3049.16,1301.97 3033.53,1284.1 3017.53,1266.6C3000.79,1248.29 2983.72,1230.28 2966.94,1212.01C2951.16,1194.81 2935.65,1177.37 2919.87,1160.17C2898.44,1136.82 2876.77,1113.67 2855.36,1090.29C2839.6,1073.08 2824.23,1055.52 2808.46,1038.29C2787.04,1014.94 2765.32,991.87 2743.89,968.52C2728.11,951.32 2712.7,933.79 2696.89,916.58C2675.23,892.92 2653.34,869.48 2631.65,845.85C2616.12,828.93 2600.84,811.77 2585.29,794.85C2563.83,771.52 2542.12,748.42 2520.72,725.04C2504.96,707.83 2489.62,690.24 2473.89,673.04C2456.63,654.15 2439.08,635.54 2421.76,616.71C2407,600.71 2392.52,584.38 2377.53,568.57C2376.1,567.07 2370.53,566.91 2369.19,568.32C2354.63,583.47 2340.45,599 2326.34,614.57C2310.4,632.15 2294.77,650 2278.76,667.51C2256.85,691.51 2234.64,715.16 2212.68,739.08C2197.17,755.98 2181.97,773.17 2166.45,790.08C2145.28,813.08 2123.87,835.93 2102.71,858.97C2086.71,876.45 2070.97,894.25 2054.93,911.73C2033.76,934.79 2012.32,957.6 1991.17,980.67C1975.17,998.17 1959.5,1016.03 1943.46,1033.52C1922.03,1056.89 1900.29,1079.98 1878.87,1103.35C1863.11,1120.54 1847.73,1138.08 1832,1155.35C1809.85,1179.6 1787.48,1203.65 1765.31,1227.88C1749.31,1245.37 1733.55,1263.09 1717.52,1280.57C1696.36,1303.63 1675.12,1326.63 1653.8,1349.57C1637.2,1367.49 1620.45,1385.25 1603.97,1403.27C1593.58,1414.64 1583.57,1426.35 1571.97,1439.48C1592.2,1438.12 1610.26,1436.34 1628.36,1435.79C1675.36,1434.35 1721.26,1426.24 1766.76,1414.54C1777.85,1411.68 1790.76,1412.1 1802.02,1414.54C1817.32,1417.82 1825.17,1433.16 1818.7,1443.16C1801.94,1469.04 1785.96,1495.54 1767.55,1520.23C1747.93,1546.54 1726.08,1571.23 1704.84,1596.31C1682.63,1622.54 1659.96,1648.38 1637.55,1674.45C1627.34,1686.33 1617.49,1698.53 1607.09,1710.25C1585.09,1735.11 1562.67,1759.68 1540.56,1784.48C1525.3,1801.61 1510.45,1819.1 1495.07,1836.12C1474.07,1859.34 1452.84,1882.32 1431.57,1905.29C1415.44,1922.7 1399.2,1940 1382.85,1957.2C1361.49,1979.59 1339.85,2001.69 1318.47,2024.07C1301.86,2041.47 1285.47,2059.07 1269.03,2076.65C1250.57,2096.44 1232.2,2116.31 1213.03,2136.98C1244.23,2130.35 1274.19,2124.68 1303.79,2117.53C1351.47,2106.02 1398.91,2093.53 1446.45,2081.46C1460.45,2077.89 1474.53,2075.46 1488.51,2081.62C1507.86,2090.06 1510.58,2113.62 1493.76,2126.46C1490.64,2128.68 1487.74,2131.21 1485.11,2133.99C1463.22,2158.99 1441.57,2184.16 1419.66,2209.11C1394.17,2238.11 1368.48,2267.03 1342.88,2295.97C1311.49,2331.44 1280.29,2367.08 1248.61,2402.29C1233.52,2419.07 1217.7,2435.2 1201.85,2451.29C1185.25,2468.14 1168.14,2484.51 1151.39,2501.22C1134.88,2517.69 1118.46,2534.25 1102.14,2550.9C1091.14,2562.07 1080.3,2573.39 1067.03,2587.08C1074.56,2585.14 1078.65,2584.15 1082.7,2583.08C1118.05,2573.36 1153.21,2562.91 1188.77,2554.08C1238.26,2541.79 1287.99,2530.45 1337.77,2519.28C1351.91,2516.1 1366.51,2513.34 1380.9,2513.35C1390.9,2513.35 1401.23,2519.57 1402.55,2530.86C1403.44,2538.5 1402.19,2550.14 1397.24,2553.95C1385.93,2562.68 1375.11,2571.15 1367.61,2583.52C1364.04,2589.45 1360.1,2595.15 1355.83,2600.59C1338.34,2622.75 1320.64,2644.73 1303.05,2666.81C1292.58,2679.96 1282.71,2693.64 1271.61,2706.23C1251.16,2729.41 1229.8,2751.79 1209.2,2774.83C1192.88,2793.09 1177.38,2812.07 1161.07,2830.32C1135.64,2858.79 1110,2887.06 1084.14,2915.14C1058.79,2942.79 1033.46,2970.46 1007.62,2997.63C977.88,3028.89 947.52,3059.55 917.62,3090.63C911.71,3096.76 906.47,3103.55 900.02,3111.09C911.22,3111.09 920.41,3111.42 929.57,3111.09C1010.83,3107.7 1092.07,3103.69 1173.36,3100.85C1304.36,3096.25 1435.12,3104.66 1565.78,3112.77C1677.46,3119.7 1788.96,3130.06 1900.7,3135.38C1998.88,3140.06 2097.3,3139.86 2195.61,3141.82C2237.74,3142.66 2279.87,3144.3 2322,3144.17C2398.23,3143.94 2474.45,3142.59 2550.68,3141.9C2561.49,3141.8 2572.31,3143.42 2583.11,3143.23C2638.5,3142.23 2693.89,3141.51 2749.25,3139.66C2807.3,3137.73 2865.38,3135.46 2923.35,3131.83C2990.58,3127.63 3057.68,3121.32 3124.89,3116.83C3195.21,3112.1 3265.6,3108.48 3335.96,3104.25C3444.76,3097.7 3553.55,3099.25 3662.34,3104.25C3719.99,3106.92 3777.65,3109.47 3835.34,3111.91C3838.53,3112.04 3841.76,3111.49 3846.4,3111.16C3843.62,3107.39 3842.07,3104.77 3840.03,3102.62C3823.74,3085.46 3807.33,3068.42 3791.03,3051.28C3774.94,3034.36 3759.03,3017.28 3742.89,3000.42C3721.27,2977.75 3699.34,2955.37 3677.95,2932.48C3662.02,2915.43 3646.71,2897.79 3631.15,2880.4C3609.77,2856.51 3588.4,2832.6 3567.05,2808.69C3551.05,2790.69 3535.24,2772.49 3519.25,2754.47C3502.25,2735.34 3484.96,2716.52 3468.25,2697.17C3456.06,2683.05 3444.41,2668.45 3432.91,2653.76C3416.17,2632.4 3399.82,2610.76 3383.23,2589.24C3373.96,2577.24 3365.87,2564.51 3352.18,2556.24C3338.49,2547.97 3339.27,2528.92 3351.95,2519.38C3362.57,2511.38 3373.95,2510.58 3386.09,2513.5C3416.09,2520.75 3446.09,2528.32 3476.09,2535.64C3526.75,2548 3577.46,2560.1 3628.09,2572.64C3644.36,2576.64 3660.34,2581.86 3676.46,2586.52L3678.21,2583.83C3673.92,2580.12 3669.34,2576.7 3665.39,2572.66C3644.78,2551.57 3624.52,2530.13 3603.74,2509.2C3582.74,2488.06 3560.94,2467.77 3540.2,2446.41C3519.2,2424.74 3498.79,2402.41 3478.54,2380C3456.79,2355.91 3435.54,2331.34 3414.05,2307C3398.32,2289.24 3382.36,2271.68 3366.69,2253.86C3344.77,2228.93 3323.28,2203.61 3301.13,2178.86C3284.85,2160.69 3268.33,2142.66 3250.93,2125.58C3236.69,2111.58 3239.47,2089.88 3257.79,2081.78C3272.17,2075.42 3286.53,2078.14 3300.96,2081.72C3377.71,2100.65 3454.5,2119.58 3531.31,2138.53ZM2631.88,4295.12C2638.23,4295.67 2643.32,4295.51 2648.12,4296.63C2663.83,4300.29 2679.23,4306.14 2695.12,4308.05C2754.67,4315.2 2814.38,4320.96 2874,4327.56C2952.45,4336.25 3030.84,4345.43 3109.3,4354.03C3166.59,4360.31 3223.94,4366.12 3281.3,4371.93C3326.71,4376.52 3372.1,4381.63 3417.62,4384.84C3437.19,4386.23 3456.23,4396.51 3477.02,4385.45C3500.55,4372.93 3527.46,4367.14 3546.5,4346.02C3561.89,4328.94 3565.1,4290.02 3548.5,4276.2C3531.2,4261.86 3512.79,4247.67 3492.61,4238.2C3424.67,4206.41 3352.61,4189.55 3277.51,4188.52C3208.6,4187.57 3139.66,4187.96 3070.75,4188.86C3049.82,4189.14 3028.8,4189.11 3008.23,4197.5C2987.01,4206.16 2965.91,4187.87 2968.02,4164.88C2970.51,4137.64 2973.84,4110.48 2976.17,4083.22C2981.05,4025.89 2985.69,3968.54 2990.1,3911.17C2991.98,3887.24 2993.41,3863.27 2994.93,3839.31C2995.62,3828.31 2996.03,3817.25 2996.55,3806.69L2679.24,3781.22C2678.69,3783.79 2677.74,3787.11 2677.31,3790.5C2673.25,3822.6 2669.25,3854.71 2665.31,3886.83C2660.58,3925.48 2655.99,3964.15 2651.31,4002.83C2646.73,4040.72 2641.6,4078.54 2637.68,4116.49C2634.93,4143.02 2633.03,4169.69 2632.16,4196.34C2631.23,4224.98 2631.96,4253.68 2631.96,4282.34L2631.88,4295.12ZM1749.78,3806.71C1749.94,3809.98 1749.98,3813.03 1750.25,3816.07C1753.61,3853.71 1757.18,3891.33 1760.34,3928.98C1765.14,3986.31 1769.78,4043.65 1774.25,4100.98C1775.98,4122.98 1777.99,4144.98 1778.32,4167.03C1778.21,4174.82 1775.52,4182.37 1770.69,4188.48C1759.04,4202.42 1743.89,4201.22 1728.4,4194.69C1723.91,4192.8 1719.03,4190.99 1714.25,4190.75C1622.17,4186.19 1530.06,4183.1 1437.98,4190.56C1357.72,4197.05 1280.86,4215.93 1213.92,4262.56C1177.17,4288.15 1176.78,4312.56 1198.74,4343.72C1218.16,4371.25 1252.39,4376.39 1281.12,4389.61C1291.78,4394.51 1300.4,4387.82 1310,4386.87C1352.33,4382.67 1394.68,4378.6 1437,4374.25C1515.87,4366.15 1594.75,4358.11 1673.58,4349.64C1753.58,4341.04 1833.46,4331.31 1913.52,4323.26C1980.63,4316.5 2047.91,4311.47 2114.19,4292.56C2114.42,4290.51 2114.55,4288.44 2114.56,4286.38C2113.4,4228.96 2117.98,4171.43 2106.92,4114.26C2100.35,4080.26 2097.63,4045.57 2093.44,4011.15C2088.51,3970.58 2083.75,3929.99 2079.15,3889.39C2076.27,3863.62 2074.15,3837.77 2071.25,3812.01C2070.05,3801.25 2067.79,3790.62 2066.25,3781.32L1749.78,3806.71ZM2999.22,3757.91C3001.1,3749.38 3003.5,3742.38 3004.09,3735.25C3009.45,3669.8 3014.38,3604.33 3019.66,3538.88C3023.66,3489.63 3028.26,3440.43 3031.99,3391.16C3034.99,3351.02 3037.12,3310.81 3039.76,3270.63C3040.63,3257.52 3041.66,3244.41 3043.05,3231.34C3044.95,3213.54 3047.27,3195.78 3049.5,3177.24L2750.35,3194.56C2745.2,3233.28 2739.88,3271.78 2734.98,3310.34C2730.12,3348.58 2725.67,3386.86 2721.04,3425.13C2716.37,3463.8 2711.71,3502.44 2707.04,3541.07C2701.74,3585.49 2696.41,3629.91 2691.33,3674.36C2689.33,3691.88 2687.96,3709.48 2686.33,3726.93L2999.22,3757.91ZM1697.89,3177.29C1698.26,3183.4 1698.35,3188.39 1698.89,3193.29C1700.72,3209.29 1703.26,3225.29 1704.58,3241.29C1709.95,3306.73 1714.87,3372.2 1720.16,3437.65C1724.16,3486.89 1728.71,3536.08 1732.43,3585.34C1735.43,3625.09 1737.37,3664.92 1740.2,3704.69C1741.44,3722.14 1743.74,3739.5 1745.67,3757.97L2061.41,3726.67C2058.12,3706.25 2054.35,3686.3 2051.78,3666.2C2046.6,3625.68 2042.15,3585.06 2037.25,3544.5C2032.87,3508.16 2028.12,3471.87 2023.81,3435.5C2018.08,3387.24 2012.6,3338.95 2007.07,3290.66C2003.35,3258.29 1999.72,3225.91 1996.16,3194.52L1697.89,3177.29Z" style="fill-rule:nonzero;"/>
            <path d="M3531.31,2138.53C3454.5,2119.55 3377.69,2100.55 3300.87,2081.53C3286.44,2077.95 3272.08,2075.23 3257.7,2081.59C3239.38,2089.69 3236.6,2111.41 3250.84,2125.39C3268.24,2142.47 3284.76,2160.5 3301.04,2178.67C3323.19,2203.39 3344.68,2228.67 3366.6,2253.67C3382.27,2271.49 3398.23,2289.05 3413.96,2306.81C3435.49,2331.11 3456.7,2355.68 3478.45,2379.81C3498.7,2402.23 3519.08,2424.55 3540.11,2446.22C3560.85,2467.58 3582.68,2487.87 3603.65,2509.01C3624.43,2529.94 3644.65,2551.38 3665.3,2572.47C3669.25,2576.47 3673.83,2579.93 3678.12,2583.64L3676.37,2586.33C3660.25,2581.67 3644.27,2576.5 3628,2572.45C3577.39,2559.89 3526.68,2547.79 3476,2535.45C3446,2528.13 3416,2520.56 3386,2513.31C3373.9,2510.39 3362.48,2511.21 3351.86,2519.19C3339.18,2528.73 3338.34,2547.75 3352.09,2556.05C3365.84,2564.35 3373.87,2577.05 3383.14,2589.05C3399.73,2610.54 3416.08,2632.21 3432.82,2653.57C3444.32,2668.26 3455.97,2682.86 3468.16,2696.98C3484.86,2716.33 3502.16,2735.15 3519.16,2754.28C3535.16,2772.28 3550.96,2790.49 3566.96,2808.5C3588.29,2832.46 3609.66,2856.36 3631.06,2880.21C3646.62,2897.6 3661.93,2915.21 3677.86,2932.29C3699.25,2955.18 3721.18,2977.56 3742.8,3000.23C3758.91,3017.12 3774.8,3034.17 3790.94,3051.09C3807.25,3068.23 3823.66,3085.27 3839.94,3102.43C3841.94,3104.58 3843.53,3107.2 3846.31,3110.97C3841.67,3111.3 3838.44,3111.85 3835.25,3111.72C3777.59,3109.22 3719.92,3106.67 3662.25,3104.06C3553.46,3099.06 3444.67,3097.5 3335.87,3104.06C3265.51,3108.29 3195.12,3111.91 3124.8,3116.64C3057.59,3121.16 2990.49,3127.47 2923.26,3131.64C2865.26,3135.27 2807.26,3137.54 2749.16,3139.47C2693.8,3141.32 2638.41,3142.08 2583.02,3143.04C2572.22,3143.23 2561.4,3141.61 2550.59,3141.71C2474.36,3142.4 2398.14,3143.71 2321.91,3143.98C2279.78,3144.11 2237.65,3142.47 2195.52,3141.63C2097.21,3139.63 1998.79,3139.87 1900.61,3135.19C1788.87,3129.87 1677.37,3119.51 1565.69,3112.58C1435.03,3104.47 1304.31,3096.06 1173.27,3100.66C1091.98,3103.5 1010.74,3107.51 929.48,3110.9C920.32,3111.28 911.13,3110.9 899.93,3110.9C906.38,3103.36 911.62,3096.57 917.53,3090.44C947.47,3059.37 977.83,3028.71 1007.53,2997.44C1033.37,2970.27 1058.7,2942.6 1084.05,2914.95C1109.85,2886.82 1135.49,2858.55 1160.98,2830.13C1177.29,2811.88 1192.79,2792.9 1209.11,2774.64C1229.71,2751.64 1251.11,2729.22 1271.52,2706.04C1282.62,2693.45 1292.52,2679.77 1302.96,2666.62C1320.55,2644.54 1338.25,2622.56 1355.74,2600.4C1360.01,2594.96 1363.95,2589.26 1367.52,2583.33C1375.02,2570.96 1385.84,2562.49 1397.15,2553.76C1402.15,2549.95 1403.35,2538.31 1402.46,2530.67C1401.14,2519.38 1390.79,2513.17 1380.81,2513.16C1366.42,2513.16 1351.81,2515.91 1337.68,2519.09C1287.92,2530.26 1238.19,2541.6 1188.68,2553.89C1153.12,2562.72 1117.96,2573.17 1082.61,2582.89C1078.61,2584 1074.47,2584.99 1066.94,2586.89C1080.21,2573.2 1091.05,2561.89 1102.05,2550.71C1118.4,2534.09 1134.81,2517.53 1151.3,2501.03C1168.05,2484.32 1185.16,2467.95 1201.76,2451.1C1217.61,2435.02 1233.43,2418.89 1248.52,2402.1C1280.2,2366.89 1311.4,2331.25 1342.79,2295.78C1368.39,2266.84 1394.08,2237.96 1419.57,2208.92C1441.48,2183.92 1463.13,2158.79 1485.02,2133.8C1487.65,2131.02 1490.55,2128.49 1493.67,2126.27C1510.49,2113.41 1507.77,2089.87 1488.42,2081.43C1474.42,2075.32 1460.42,2077.7 1446.36,2081.27C1398.82,2093.35 1351.36,2105.83 1303.7,2117.34C1274.1,2124.49 1244.14,2130.16 1212.94,2136.79C1232.12,2116.12 1250.49,2096.25 1268.94,2076.46C1285.35,2058.88 1301.77,2041.28 1318.38,2023.88C1339.74,2001.5 1361.38,1979.4 1382.76,1957.01C1399.14,1939.84 1415.38,1922.54 1431.48,1905.1C1452.75,1882.1 1473.99,1859.1 1494.98,1835.93C1510.36,1818.93 1525.21,1801.42 1540.47,1784.29C1562.58,1759.49 1584.95,1734.92 1607,1710.06C1617.4,1698.34 1627.25,1686.14 1637.46,1674.26C1659.87,1648.19 1682.54,1622.35 1704.75,1596.12C1725.99,1571.03 1747.84,1546.35 1767.46,1520.04C1785.87,1495.35 1801.85,1468.85 1818.61,1442.97C1825.08,1432.97 1817.23,1417.63 1801.93,1414.35C1790.63,1411.93 1777.76,1411.51 1766.67,1414.35C1721.17,1426.05 1675.31,1434.16 1628.27,1435.6C1610.17,1436.15 1592.11,1437.93 1571.88,1439.29C1583.45,1426.16 1593.46,1414.45 1603.88,1403.08C1620.36,1385.08 1637.11,1367.3 1653.71,1349.38C1674.98,1326.43 1696.22,1303.43 1717.43,1280.38C1733.43,1262.9 1749.21,1245.18 1765.22,1227.69C1787.39,1203.46 1809.76,1179.41 1831.91,1155.16C1847.64,1137.93 1863.02,1120.39 1878.78,1103.16C1900.2,1079.79 1921.94,1056.7 1943.37,1033.33C1959.37,1015.84 1975.04,997.98 1991.08,980.48C2012.23,957.41 2033.67,934.6 2054.84,911.54C2070.84,894.06 2086.58,876.26 2102.62,858.78C2123.78,835.78 2145.19,812.93 2166.36,789.89C2181.88,772.99 2197.08,755.8 2212.59,738.89C2234.59,714.97 2256.76,691.28 2278.67,667.32C2294.67,649.81 2310.31,631.96 2326.25,614.38C2340.36,598.81 2354.54,583.28 2369.1,568.13C2370.45,566.72 2376.01,566.88 2377.44,568.38C2392.44,584.19 2406.91,600.48 2421.67,616.52C2438.99,635.35 2456.54,653.96 2473.8,672.85C2489.53,690.08 2504.87,707.67 2520.63,724.85C2542.03,748.23 2563.74,771.33 2585.2,794.66C2600.75,811.57 2616.03,828.73 2631.56,845.66C2653.25,869.29 2675.14,892.73 2696.8,916.39C2712.56,933.6 2727.97,951.13 2743.8,968.33C2765.23,991.68 2786.95,1014.75 2808.37,1038.1C2824.14,1055.3 2839.51,1072.86 2855.27,1090.1C2876.68,1113.48 2898.35,1136.63 2919.78,1159.98C2935.56,1177.18 2951.07,1194.62 2966.85,1211.82C2983.63,1230.09 3000.7,1248.1 3017.44,1266.41C3033.44,1283.91 3049.05,1301.78 3065.07,1319.27C3081.56,1337.27 3098.46,1354.88 3114.97,1372.87C3130.75,1390.06 3146.25,1407.52 3161.88,1424.87L3174.56,1438.95C3166.18,1438.48 3159.84,1438.05 3153.49,1437.77C3093.9,1435.08 3034.62,1430.51 2976.99,1413.26C2963.09,1409.1 2948.65,1409.35 2935.81,1418.55C2924.21,1426.85 2922.68,1437.61 2930.86,1449.32C2938.04,1459.62 2944.1,1470.7 2951.17,1481.09C2963,1498.46 2974.68,1515.97 2987.45,1532.62C2998.58,1547.13 3010.99,1560.62 3023.08,1574.41C3039.47,1593.04 3056.26,1611.33 3072.57,1630.02C3083.88,1643.02 3094.48,1656.57 3105.75,1669.57C3127.5,1694.66 3149.52,1719.57 3171.4,1744.5C3187.54,1762.92 3203.4,1781.5 3219.79,1799.78C3240.67,1823.09 3261.9,1846.07 3282.92,1869.25C3298.59,1886.54 3313.84,1904.25 3329.86,1921.18C3350.86,1943.39 3372.55,1964.91 3393.68,1986.99C3409.81,2003.86 3425.44,2021.19 3441.43,2038.19C3462.89,2061 3484.54,2083.63 3505.97,2106.46C3514.9,2115.98 3523.48,2125.82 3532.22,2135.52L3531.31,2138.53ZM2969.63,2100.72C2967.11,2070.43 2965.81,2042.54 2961.89,2015.03C2960.69,2006.61 2954.02,1995.56 2946.81,1992.15C2934.24,1986.15 2923.51,1978.33 2912.49,1970.42C2909.63,1968.48 2906.52,1966.93 2903.24,1965.84C2871.66,1954.38 2844.31,1969.56 2828.13,1995.26C2817.75,2011.76 2809.39,2030.63 2805,2049.56C2797,2083.94 2788.78,2118.69 2790.81,2154.56C2791.35,2164.03 2793.86,2173.37 2795.18,2182.82C2799.97,2217.01 2804.1,2251.31 2825.1,2280.65C2838.65,2299.61 2862.38,2308.62 2885.1,2303.43C2911.61,2297.23 2925.65,2276.72 2934.96,2254.75C2946.67,2227.12 2955.35,2197.88 2962.05,2168.58C2967.24,2145.74 2967.44,2121.78 2969.63,2100.72ZM1776.33,2106.72C1779.44,2125.94 1782.9,2153.72 1788.7,2181.09C1793.3,2202.74 1800.33,2223.91 1807.11,2245.03C1812.67,2262.23 1822.61,2277.7 1835.94,2289.91C1861.81,2313.98 1899.47,2307.56 1920.68,2281.72C1934.85,2264.47 1939.78,2243.25 1944.46,2222.72C1958.81,2159.81 1956.46,2097.25 1936.73,2035.33C1930.05,2014.39 1921.25,1995.33 1905.39,1980.14C1886.34,1961.9 1859.1,1955.14 1834.34,1970.04C1823.7,1976.44 1813.82,1984.34 1802.7,1989.66C1791.1,1995.2 1785.85,2005.44 1784.42,2015.78C1780.66,2043 1779.35,2070.51 1776.33,2106.76L1776.33,2106.72ZM2480.56,2266.65C2479.56,2257.83 2479.27,2248.86 2477.46,2240.21C2469.64,2202.8 2451.83,2170.49 2427.58,2141.11C2413.46,2124 2397.89,2113.42 2374.74,2118.84C2371.92,2119.5 2368.63,2118.39 2365.6,2117.84C2350.6,2115.24 2337.95,2120.58 2327.74,2130.67C2303.39,2154.58 2285.17,2184.03 2274.65,2216.5C2259.74,2262.7 2261.75,2307.5 2297.74,2345.73C2311.94,2360.81 2330.47,2367.4 2349.15,2371.83C2362.79,2375.06 2378.21,2374.32 2392.15,2371.72C2406.91,2368.98 2422.75,2364.64 2434.8,2356.24C2465.29,2335.06 2480,2304.19 2480.56,2266.69L2480.56,2266.65ZM2373,2633.1C2430.08,2632.85 2486.51,2625.21 2541.17,2606.55C2562.78,2599.17 2582.69,2588.55 2599.51,2572.77C2610.36,2562.56 2614.12,2543.54 2607.36,2531.88C2598.65,2516.88 2569.78,2514.41 2561.7,2529.51C2550.78,2549.93 2532.1,2556.81 2512.56,2562.34C2481.69,2571.07 2450.47,2576.46 2417.8,2575.09C2380.09,2573.51 2342.15,2577.25 2304.45,2575.52C2270.11,2573.94 2236.25,2566.52 2205.03,2551.14C2198.11,2547.75 2193.97,2539.14 2187.75,2533.81C2181.53,2528.48 2174.98,2522.81 2167.55,2520.36C2156.39,2516.72 2141.61,2523.64 2135.99,2534.36C2131.06,2543.78 2133.05,2552.63 2139.34,2562.17C2155.76,2587.05 2180.93,2598.17 2207.15,2607.17C2260.62,2625.6 2316.05,2632.82 2373,2633.1Z" style="fill:rgb(80,142,109);fill-rule:nonzero;"/>
            <path d="M2631.88,4295.12L2631.88,4282.34C2631.88,4253.68 2631.15,4224.98 2632.08,4196.34C2632.95,4169.69 2634.85,4143.02 2637.6,4116.49C2641.52,4078.54 2646.65,4040.72 2651.23,4002.83C2655.91,3964.18 2660.5,3925.51 2665.23,3886.83C2669.15,3854.71 2673.15,3822.6 2677.23,3790.5C2677.66,3787.11 2678.61,3783.79 2679.16,3781.22L2996.47,3806.69C2995.95,3817.25 2995.54,3828.29 2994.85,3839.31C2993.33,3863.31 2991.85,3887.24 2990.02,3911.17C2985.53,3968.5 2980.88,4025.85 2976.09,4083.22C2973.76,4110.48 2970.43,4137.64 2967.94,4164.88C2965.83,4187.88 2986.94,4206.16 3008.15,4197.5C3028.72,4189.11 3049.74,4189.14 3070.67,4188.86C3139.58,4187.96 3208.52,4187.57 3277.43,4188.52C3352.54,4189.52 3424.59,4206.41 3492.53,4238.2C3512.71,4247.64 3531.12,4261.83 3548.42,4276.2C3565.06,4290 3561.85,4328.94 3546.42,4346.02C3527.42,4367.14 3500.47,4372.93 3476.94,4385.45C3456.15,4396.51 3437.11,4386.23 3417.54,4384.84C3372.02,4381.63 3326.63,4376.52 3281.22,4371.93C3223.87,4366.12 3166.52,4360.31 3109.22,4354.03C3030.76,4345.43 2952.37,4336.25 2873.92,4327.56C2814.3,4320.96 2754.59,4315.2 2695.04,4308.05C2679.15,4306.14 2663.75,4300.29 2648.04,4296.63C2643.32,4295.51 2638.23,4295.67 2631.88,4295.12Z" style="fill:rgb(204,41,41);fill-rule:nonzero;"/>
            <path d="M1749.78,3806.71L2066.24,3781.34C2067.79,3790.64 2070.05,3801.27 2071.24,3812.03C2074.12,3837.79 2076.24,3863.64 2079.14,3889.41C2083.7,3930.02 2088.46,3970.6 2093.43,4011.17C2097.62,4045.59 2100.34,4080.31 2106.91,4114.28C2117.97,4171.45 2113.39,4228.98 2114.55,4286.4C2114.53,4288.47 2114.41,4290.53 2114.18,4292.58C2047.9,4311.49 1980.62,4316.52 1913.51,4323.28C1833.45,4331.33 1753.57,4341.06 1673.57,4349.66C1594.74,4358.13 1515.86,4366.17 1436.99,4374.27C1394.67,4378.62 1352.32,4382.69 1309.99,4386.89C1300.39,4387.84 1291.77,4394.53 1281.11,4389.63C1252.38,4376.41 1218.11,4371.27 1198.73,4343.74C1176.73,4312.62 1177.16,4288.17 1213.91,4262.58C1280.85,4215.96 1357.71,4197.08 1437.97,4190.58C1530.05,4183.12 1622.16,4186.21 1714.24,4190.77C1719.02,4191.01 1723.9,4192.82 1728.39,4194.71C1743.88,4201.24 1759.03,4202.44 1770.68,4188.5C1775.51,4182.39 1778.2,4174.84 1778.31,4167.05C1777.98,4145.05 1775.97,4123 1774.24,4101C1769.72,4043.67 1765.08,3986.33 1760.33,3929C1757.17,3891.35 1753.6,3853.73 1750.24,3816.09C1750,3813 1749.94,3810 1749.78,3806.71Z" style="fill:rgb(204,41,41);fill-rule:nonzero;"/>
            <path d="M2999.22,3757.91L2686.33,3726.91C2687.98,3709.46 2689.33,3691.91 2691.33,3674.34C2696.41,3629.89 2701.74,3585.47 2707.04,3541.05C2711.65,3502.38 2716.32,3463.74 2721.04,3425.11C2725.67,3386.84 2730.12,3348.56 2734.98,3310.32C2739.88,3271.76 2745.2,3233.26 2750.35,3194.54L3049.5,3177.22C3047.27,3195.76 3044.95,3213.52 3043.05,3231.32C3041.66,3244.39 3040.63,3257.5 3039.76,3270.61C3037.12,3310.79 3035.03,3351 3031.99,3391.14C3028.26,3440.41 3023.64,3489.61 3019.66,3538.86C3014.38,3604.31 3009.45,3669.78 3004.09,3735.23C3003.5,3742.38 3001.1,3749.38 2999.22,3757.91Z" style="fill:rgb(184,227,255);fill-rule:nonzero;"/>
            <path d="M1697.89,3177.29L1996.19,3194.62C1999.75,3226.01 2003.38,3258.39 2007.1,3290.76C2012.63,3339.05 2018.1,3387.34 2023.84,3435.6C2028.15,3471.94 2032.9,3508.23 2037.28,3544.6C2042.18,3585.16 2046.63,3625.78 2051.81,3666.3C2054.38,3686.4 2058.15,3706.35 2061.44,3726.77L1745.7,3758C1743.77,3739.53 1741.47,3722.17 1740.23,3704.72C1737.4,3664.95 1735.47,3625.12 1732.46,3585.37C1728.74,3536.11 1724.16,3486.92 1720.19,3437.68C1714.9,3372.23 1709.98,3306.76 1704.61,3241.32C1703.29,3225.26 1700.75,3209.32 1698.92,3193.32C1698.35,3188.39 1698.26,3183.4 1697.89,3177.29Z" style="fill:rgb(184,227,255);fill-rule:nonzero;"/>
            <path d="M2969.63,2100.72C2967.44,2121.78 2967.24,2145.72 2962.02,2168.54C2955.32,2197.84 2946.64,2227.08 2934.93,2254.71C2925.62,2276.71 2911.58,2297.19 2885.07,2303.39C2862.35,2308.58 2838.62,2299.57 2825.07,2280.61C2804.07,2251.27 2799.94,2216.97 2795.15,2182.78C2793.83,2173.33 2791.32,2163.99 2790.78,2154.52C2788.78,2118.69 2797,2083.94 2804.97,2049.52C2809.36,2030.59 2817.72,2011.72 2828.1,1995.22C2844.28,1969.52 2871.63,1954.34 2903.21,1965.8C2906.49,1966.89 2909.6,1968.44 2912.46,1970.38C2923.46,1978.29 2934.21,1986.16 2946.78,1992.11C2953.99,1995.52 2960.66,2006.57 2961.86,2014.99C2965.81,2042.54 2967.11,2070.43 2969.63,2100.72Z" style="fill-rule:nonzero;"/>
            <path d="M1776.33,2106.76C1779.33,2070.51 1780.66,2043.01 1784.42,2015.84C1785.85,2005.5 1791.1,1995.26 1802.7,1989.72C1813.82,1984.4 1823.7,1976.5 1834.34,1970.1C1859.1,1955.18 1886.34,1961.96 1905.39,1980.2C1921.25,1995.39 1930.05,2014.45 1936.73,2035.39C1956.5,2097.31 1958.81,2159.87 1944.46,2222.78C1939.78,2243.29 1934.85,2264.51 1920.68,2281.78C1899.47,2307.62 1861.81,2314.04 1835.94,2289.97C1822.61,2277.76 1812.67,2262.29 1807.11,2245.09C1800.33,2223.97 1793.3,2202.8 1788.7,2181.15C1782.9,2153.81 1779.44,2126 1776.33,2106.76Z" style="fill-rule:nonzero;"/>
            <path d="M2480.56,2266.69C2479.97,2304.19 2465.29,2335.06 2434.8,2356.3C2422.75,2364.7 2406.91,2369.04 2392.15,2371.78C2378.21,2374.38 2362.79,2375.12 2349.15,2371.89C2330.47,2367.46 2311.94,2360.89 2297.74,2345.79C2261.74,2307.58 2259.74,2262.79 2274.65,2216.56C2285.17,2184.09 2303.39,2154.64 2327.74,2130.73C2337.95,2120.64 2350.64,2115.3 2365.6,2117.9C2368.6,2118.43 2371.92,2119.54 2374.74,2118.9C2397.89,2113.48 2413.46,2124.06 2427.58,2141.17C2451.83,2170.55 2469.64,2202.86 2477.46,2240.27C2479.27,2248.9 2479.57,2257.87 2480.56,2266.69ZM2327.33,2262C2329.49,2283.57 2335.42,2303.27 2353.17,2316.51C2359.75,2321.42 2370.02,2326.38 2377.01,2324.7C2391.7,2321.16 2403.84,2311.37 2409.41,2296.17C2415.98,2278.26 2420.41,2261.32 2414.79,2240.72C2407.46,2213.72 2395.1,2190.35 2379.68,2167.84C2374.89,2160.84 2370.68,2161.62 2366.54,2168.26C2360.48,2177.99 2354.54,2187.81 2348.41,2197.47C2335.81,2217.28 2330,2239.19 2327.33,2262Z" style="fill-rule:nonzero;"/>
            <path d="M2373,2633.1C2316.06,2632.82 2260.63,2625.6 2207.15,2607.22C2180.93,2598.22 2155.76,2587.08 2139.34,2562.22C2133.05,2552.68 2131.06,2543.83 2135.99,2534.41C2141.61,2523.66 2156.39,2516.74 2167.55,2520.41C2174.98,2522.84 2181.55,2528.62 2187.75,2533.86C2193.95,2539.1 2198.11,2547.8 2205.03,2551.19C2236.25,2566.53 2270.11,2573.99 2304.45,2575.57C2342.15,2577.3 2380.09,2573.57 2417.8,2575.14C2450.47,2576.51 2481.69,2571.14 2512.56,2562.39C2532.1,2556.86 2550.78,2549.98 2561.7,2529.56C2569.78,2514.46 2598.65,2516.91 2607.36,2531.93C2614.12,2543.59 2610.36,2562.61 2599.51,2572.82C2582.69,2588.65 2562.78,2599.22 2541.17,2606.6C2486.5,2625.21 2430.07,2632.85 2373,2633.1Z" style="fill-rule:nonzero;"/>
            <path d="M2327.33,2262C2330.03,2239.17 2335.81,2217.26 2348.41,2197.47C2354.57,2187.81 2360.48,2177.99 2366.54,2168.26C2370.68,2161.62 2374.89,2160.84 2379.68,2167.84C2395.1,2190.35 2407.46,2213.7 2414.79,2240.72C2420.38,2261.32 2415.98,2278.26 2409.41,2296.17C2403.84,2311.37 2391.7,2321.17 2377.01,2324.7C2370.01,2326.38 2359.75,2321.42 2353.17,2316.51C2335.42,2303.29 2329.49,2283.59 2327.33,2262Z" style="fill:rgb(204,41,41);fill-rule:nonzero;"/>
            <path d="M1481.16,2879.45C1480.66,2868.34 1472.16,2858.95 1460.66,2858.95C1449.94,2858.95 1439.66,2868.38 1440.16,2879.45C1440.66,2890.52 1449.16,2899.95 1460.66,2899.95C1471.38,2900 1481.66,2890.52 1481.16,2879.45Z" style="fill:rgb(74,74,74);fill-rule:nonzero;"/>
            <path d="M1514.26,2656.05C1513.76,2644.94 1505.26,2635.55 1493.76,2635.55C1483.03,2635.55 1472.76,2644.98 1473.26,2656.05C1473.76,2667.12 1482.26,2676.55 1493.76,2676.55C1504.48,2676.55 1514.75,2667.12 1514.26,2656.05Z" style="fill:rgb(74,74,74);fill-rule:nonzero;"/>
            <path d="M1671.46,2829.8C1670.97,2818.7 1662.46,2809.3 1650.96,2809.3C1640.24,2809.3 1629.96,2818.73 1630.46,2829.8C1630.96,2840.87 1639.46,2850.3 1650.96,2850.3C1661.69,2850.3 1672,2840.87 1671.46,2829.8Z" style="fill:rgb(74,74,74);fill-rule:nonzero;"/>
            <path d="M1563.9,2515.39C1563.4,2504.29 1554.9,2494.89 1543.4,2494.89C1532.68,2494.89 1522.4,2504.32 1522.9,2515.39C1523.4,2526.46 1531.9,2535.89 1543.4,2535.89C1554.12,2535.89 1564.4,2526.46 1563.9,2515.39Z" style="fill:rgb(74,74,74);fill-rule:nonzero;"/>
            <path d="M2631.24,1183.28C2630.75,1172.18 2622.24,1162.78 2610.74,1162.78C2600.02,1162.78 2589.74,1172.21 2590.24,1183.28C2590.74,1194.35 2599.24,1203.78 2610.74,1203.78C2621.47,1203.78 2631.74,1194.35 2631.24,1183.28Z" style="fill:rgb(74,74,74);fill-rule:nonzero;"/>
            <path d="M2631.24,1323.94C2630.75,1312.83 2622.24,1303.44 2610.74,1303.44C2600.02,1303.44 2589.74,1312.87 2590.24,1323.94C2590.74,1335.01 2599.24,1344.44 2610.74,1344.44C2621.47,1344.44 2631.74,1335 2631.24,1323.94Z" style="fill:rgb(74,74,74);fill-rule:nonzero;"/>
            <path d="M2829.82,1282.57C2829.32,1271.46 2820.82,1262.07 2809.32,1262.07C2798.6,1262.07 2788.32,1271.5 2788.82,1282.57C2789.32,1293.64 2797.82,1303.07 2809.32,1303.07C2820,1303.07 2830.31,1293.64 2829.82,1282.57Z" style="fill:rgb(74,74,74);fill-rule:nonzero;"/>
            <path d="M2763.63,1158.46C2763.13,1147.35 2754.63,1137.96 2743.13,1137.96C2732.4,1137.96 2722.13,1147.39 2722.63,1158.46C2723.13,1169.53 2731.63,1178.96 2743.13,1178.96C2753.85,1179 2764.12,1169.53 2763.63,1158.46Z" style="fill:rgb(74,74,74);fill-rule:nonzero;"/>
        </g>
    </g>
</svg>
