<?xml version="1.0" encoding="UTF-8" standalone="no"?>
<!DOCTYPE svg PUBLIC "-//W3C//DTD SVG 1.1//EN" "http://www.w3.org/Graphics/SVG/1.1/DTD/svg11.dtd">
<svg width="100%" height="100%" viewBox="0 0 1024 1024" version="1.1" xmlns="http://www.w3.org/2000/svg" xmlns:xlink="http://www.w3.org/1999/xlink" xml:space="preserve" xmlns:serif="http://www.serif.com/" style="fill-rule:evenodd;clip-rule:evenodd;stroke-linejoin:round;stroke-miterlimit:2;">
    <g transform="matrix(0.217797,0,0,0.217797,-26.9461,-31.8786)">
        <path d="M3843.03,526.49C3842.11,507.29 3828.41,496.12 3809.77,491.65C3790.71,487.08 3775.01,493.76 3763.65,508.32C3749.01,527.09 3736.77,547.73 3722.27,566.61C3707.51,585.82 3693.44,606.47 3675.17,621.85C3644.98,647.24 3613.04,671.22 3579.23,691.42C3550.77,708.42 3519.51,722.19 3487.83,732.02C3443.15,745.89 3397.06,755.43 3351.31,765.61C3324.49,771.58 3297.15,775.21 3270.78,779.76C3267.05,769.95 3263.66,761.75 3260.8,753.36C3251.08,724.9 3230.8,704.51 3207.6,687.46C3173.56,662.44 3135.11,647.25 3093.34,639.23C3034.77,627.98 2980.33,636.13 2930.23,668.96C2922.22,674.21 2919.3,670.94 2916.11,664.25C2895.81,621.55 2859.94,597.06 2817.78,579.55C2776.49,562.4 2733.3,560.26 2689.73,563.17C2642.88,566.3 2597.47,575.92 2556.95,601.46C2537.12,613.96 2517.68,627.07 2496.56,640.89C2490.26,634.12 2483.82,625.63 2475.88,618.93C2435.4,584.76 2389.63,568.24 2335.91,576.7C2257.92,588.99 2193.48,622.05 2152.41,692.58C2150.22,696.34 2146.73,699.33 2144.47,701.96C2131.89,694.05 2120.42,687.19 2109.39,679.68C2106.01,677.38 2102.55,673.68 2101.4,669.93C2098.31,659.83 2093.06,652.7 2082.88,648.58C2068.3,642.69 2053.87,636.26 2039.87,629.1C1987.18,602.14 1940.62,565.84 1893.03,531.2C1869.88,514.34 1846.98,497.05 1824.97,478.74C1792.49,451.71 1760.32,424.22 1729.17,395.67C1712.5,380.39 1698.24,362.48 1682.93,345.73C1653.16,313.17 1631.05,275.43 1609.7,237.21C1597.34,215.08 1585.87,192.43 1573.07,170.56C1562.5,152.5 1542.97,143.6 1525.44,147.13C1507.07,150.83 1492.26,165.15 1490.48,186.58C1487.44,223.14 1485.06,259.95 1485.8,296.59C1487.21,366.69 1486.77,436.9 1499.39,506.48C1507.22,549.69 1504.98,594.58 1519.54,636.8C1527.95,661.17 1536.06,685.74 1546.25,709.37C1553.96,727.25 1563.95,744.32 1574.44,760.78C1582.56,773.53 1593.06,784.76 1602.45,796.7C1612.05,808.9 1621.6,821.14 1631.49,833.77C1626.91,837.3 1623.63,840.13 1620.06,842.55C1581.65,868.54 1556.09,903.29 1548.2,949.59C1545.07,967.97 1546.94,986.85 1557.19,1002.28C1569.74,1021.17 1585.38,1038.01 1599.27,1055.22C1587.06,1061.16 1572.21,1067.31 1558.45,1075.32C1532.1,1090.67 1508.39,1110.01 1492.53,1136.1C1477.47,1160.87 1469.31,1188.59 1474.19,1218.42C1475.19,1224.52 1477.74,1230.35 1478.96,1236.43C1484.9,1266.07 1497.93,1291.99 1519.53,1313.24C1535.62,1329.06 1552.21,1344.36 1569.24,1360.52C1567.19,1362.4 1563.13,1365.94 1559.27,1369.69C1543.42,1385.11 1526.61,1400.68 1525.19,1424.25C1524.31,1438.88 1525.25,1454.84 1530.32,1468.35C1538.99,1491.44 1551.54,1513.06 1562.92,1536.24C1561.69,1536.99 1557.26,1538.88 1553.86,1541.92C1519.75,1572.49 1484.38,1601.83 1452.32,1634.43C1429.71,1657.42 1410.31,1683.96 1391.93,1710.61C1369.98,1742.43 1349.84,1775.59 1330.42,1809.04C1315.74,1834.33 1302.52,1860.57 1290.29,1887.14C1275.94,1918.31 1262.09,1949.84 1250.31,1982.05C1235.53,2022.45 1222.64,2063.57 1209.78,2104.64C1202.05,2129.31 1195.61,2154.41 1189.14,2179.45C1181.97,2207.21 1174.98,2235.02 1168.72,2263C1161.69,2294.41 1155,2325.93 1149.19,2357.59C1142.09,2396.27 1135.92,2435.12 1129.66,2473.94C1127.33,2488.36 1125.56,2502.89 1124.1,2517.42C1118.18,2576.24 1110.27,2634.96 1107.18,2693.94C1101.52,2802.09 1106.12,2910.22 1114.6,3018.16C1115.78,3033.12 1115.83,3048.17 1116.8,3063.16C1122.68,3154.11 1129.04,3245.04 1134.52,3336.01C1141.18,3446.72 1146.68,3557.5 1153.51,3668.2C1160.1,3774.91 1167.23,3881.59 1175.11,3988.21C1180.46,4060.54 1187.06,4132.78 1193.96,4204.98C1200.48,4273.24 1207.53,4341.47 1215.48,4409.58C1221.55,4461.58 1229.3,4513.39 1236.47,4565.27C1243.64,4617.14 1250.97,4669 1258.32,4720.85C1261.97,4746.65 1264.84,4772.61 1269.95,4798.12C1272.65,4811.6 1280.5,4824.2 1294.77,4828.49C1310.39,4833.19 1326.58,4837.67 1342.73,4838.59C1401.1,4841.92 1459.57,4845.9 1517.98,4845.61C1619.52,4845.11 1721.07,4842.35 1822.58,4839.2C1964.37,4834.8 2106.11,4829.21 2247.88,4824.02C2261.48,4823.52 2273.62,4819.72 2285.12,4811.18C2302.7,4798.13 2309.36,4778.41 2313.59,4759.98C2318.68,4737.84 2320.36,4713.04 2315.77,4691.01C2310.05,4663.55 2297.4,4637.3 2285.84,4611.38C2278.89,4595.8 2269.01,4581.34 2259.12,4567.31C2250.57,4555.17 2241.46,4542.81 2230.28,4533.27C2205.58,4512.19 2180.58,4491.07 2153.54,4473.24C2125.12,4454.51 2094.81,4438.31 2064.15,4423.41C2038.15,4410.78 2010.49,4401.59 1982.95,4390.63C1978.37,4051.44 1973.78,3711.77 1969.18,3371.68C2064.94,3364.58 2158.62,3357.64 2254.27,3350.55C2255.54,3372.66 2256.71,3393.08 2257.88,3413.5C2262.28,3489.92 2266.75,3566.33 2271.07,3642.75C2273.15,3679.44 2274.5,3716.18 2277,3752.84C2281.69,3821.68 2286.59,3890.5 2292.12,3959.27C2298.75,4041.8 2305.68,4124.32 2313.34,4206.77C2318.95,4267.19 2325.39,4327.54 2332.46,4387.8C2338.75,4441.36 2346.26,4494.77 2353.54,4548.21C2359.81,4594.23 2366.63,4640.17 2372.97,4686.17C2377.83,4721.38 2381.36,4756.8 2387.38,4791.81C2390.36,4809.15 2397.46,4826.35 2417.15,4831.89C2431.74,4835.99 2446.74,4840.13 2461.74,4840.96C2519.72,4844.17 2577.78,4848.06 2635.81,4847.99C2731.04,4847.87 2826.29,4845.82 2921.48,4842.82C3069.98,4838.14 3218.44,4832.19 3366.88,4826.05C3378.48,4825.57 3390.5,4820.72 3401.16,4815.51C3420.59,4806.01 3426.68,4785.42 3432.04,4767.42C3442.71,4731.63 3440.09,4696.06 3426.29,4660.04C3413.81,4627.45 3399.36,4596.65 3378.3,4569.03C3369.28,4557.2 3360.43,4544.7 3349.23,4535.17C3324.51,4514.13 3299.16,4493.63 3272.53,4475.12C3250.7,4459.95 3227.4,4446.38 3203.38,4435C3173.92,4421.04 3142.98,4410.23 3112.84,4397.66C3109.59,4396.3 3105.39,4392.5 3105.11,4389.5C3103.27,4369.92 3101.7,4350.27 3101.33,4330.62C3100.06,4263.43 3099.26,4196.24 3098.41,4129.05C3095.76,3918.38 3093.2,3707.71 3090.56,3497.04C3089.99,3451.59 3090.19,3406.1 3088.35,3360.7C3086.31,3310.32 3081.4,3260.05 3079.44,3209.66C3075.85,3117.24 3073.76,3024.77 3070.59,2932.34C3067.33,2837.27 3063.33,2742.22 3060.05,2647.15C3057.17,2563.8 3055.1,2480.43 3052.2,2397.08C3047.92,2273.95 3043.26,2150.84 3038.7,2027.72C3037.4,1992.72 3035.91,1957.74 3034.48,1922.11C3112.94,1907.62 3161.99,1856.35 3192.39,1783.84C3208.14,1788.09 3223.84,1793.63 3240.02,1796.42C3276.89,1802.77 3312.29,1799.59 3343.93,1776.6C3361.37,1763.93 3375.22,1748.72 3385.66,1729.65C3403.93,1696.28 3416.26,1661.63 3410.06,1623.15C3407.3,1606.02 3401.17,1589.43 3396.92,1573.86C3414.08,1568.37 3431.47,1564.4 3447.49,1557.34C3484.61,1540.97 3505.94,1511.4 3513.63,1471.84C3520.08,1438.68 3513.23,1407.37 3497.56,1378.32C3489.14,1362.71 3478.05,1348.36 3466.85,1334.49C3456.59,1321.78 3444.58,1310.49 3432.68,1297.88C3436.88,1295.1 3440.96,1292.06 3445.35,1289.56C3473.11,1273.74 3488.22,1249.18 3494.55,1218.57C3500.29,1190.78 3492.41,1165.39 3479.21,1141.58C3470.73,1126.28 3460.2,1112.12 3450.3,1097C3452.05,1096.6 3453.47,1096.23 3454.92,1095.95C3505.04,1086.23 3551.45,1066.79 3594.03,1039.21C3643.23,1007.34 3683.15,964.98 3717.64,918.16C3739.11,889.01 3758.13,857.64 3774.79,825.47C3791.46,793.31 3806.32,759.71 3817.38,725.27C3828.62,690.28 3836.64,653.82 3841.59,617.4C3845.66,587.51 3844.48,556.72 3843.03,526.49ZM1614.08,693.01C1596.8,659.12 1584.88,623.4 1580.79,585.38C1574.1,523.14 1567.05,460.93 1561.11,398.61C1557.57,361.4 1555.86,324.02 1553.32,286.71C1554.77,285.78 1556.22,284.85 1557.66,283.93C1559.29,286.8 1560.84,289.72 1562.57,292.53C1572.63,308.89 1581.32,326.34 1593.13,341.32C1614.84,368.87 1637.85,395.47 1661.39,421.48C1676.08,437.71 1692.05,452.97 1708.69,467.21C1739.93,493.93 1771.77,519.98 1803.96,545.56C1827.31,564.11 1851,582.36 1875.66,599.1C1905.82,619.58 1937.15,638.34 1967.97,657.87C1970.61,659.54 1973.14,661.38 1975.71,663.14C1958.94,671.58 1942.95,678.95 1927.62,687.49C1897.26,704.42 1876.24,729.21 1866.19,762.93C1862.02,776.92 1857.5,790.84 1852.47,804.54C1848.87,814.35 1839.48,817.28 1831.02,815.18C1810.17,810.01 1789.82,802.86 1769.19,796.78C1765.13,795.58 1760.63,794.75 1756.49,795.2C1739.3,797.06 1722.11,799.04 1705.07,801.9C1697.51,803.17 1692.96,802.91 1687.62,795.69C1672.1,774.69 1654.38,755.32 1638.81,734.35C1629.27,721.5 1621.36,707.29 1614.08,693.01ZM3131.79,4472.03C3180.87,4491.35 3225.33,4518.83 3266.82,4550.64C3286.76,4565.93 3303.5,4585.84 3319.95,4605.13C3342.95,4632.11 3354.27,4664.87 3364.83,4698.47C3371.59,4719.97 3366.81,4738.34 3360.74,4757.57C3359.89,4760.26 3354.49,4763.02 3351.08,4763.17C3291.86,4765.77 3232.63,4768.05 3173.4,4770.22C3045.44,4774.92 2917.51,4780.83 2789.52,4783.74C2685.63,4786.1 2581.66,4784.86 2477.73,4785.08C2465.96,4785.1 2457.44,4777.22 2455.74,4765.4C2448.53,4715.53 2441.34,4665.67 2434.32,4615.77C2427.02,4563.93 2419.42,4512.13 2412.87,4460.2C2405.97,4405.54 2400.02,4350.75 2393.88,4296C2388.62,4249.05 2383.41,4202.09 2378.72,4155.08C2376.21,4129.93 2375.06,4104.64 2372.92,4079.45C2368.62,4028.82 2363.86,3978.22 2359.7,3927.58C2357.44,3900.02 2356.06,3872.38 2354.2,3844.79C2350.68,3792.49 2346.68,3740.23 2343.68,3687.9C2340.27,3628.33 2338.12,3568.68 2334.74,3509.11C2331.57,3453.23 2327.49,3397.4 2323.86,3341.54C2323.09,3329.75 2322.53,3317.94 2322.03,3308.78C2314.91,3303.41 2310.05,3298.1 2304.03,3295.57C2294.19,3291.45 2283.4,3285.96 2273.35,3286.58C2196.46,3291.37 2119.66,3297.46 2042.83,3303.21C2010.13,3305.66 1977.44,3308.15 1944.76,3310.83C1928.5,3312.17 1918.43,3320.43 1907.99,3334.09C1895.5,3350.44 1896.21,3366.61 1896.43,3384.02C1898.04,3510.89 1899.42,3637.77 1901.59,3764.64C1904.93,3960.56 1908.84,4156.48 1912.49,4352.39C1912.64,4360.19 1912.51,4368 1912.51,4375.95C1886.24,4374.46 1861.1,4371.77 1835.97,4371.87C1786.6,4372.06 1737.23,4373.84 1687.85,4374.84C1681.59,4374.97 1675.25,4374.86 1669.06,4374.01C1647.75,4371.1 1631.5,4381.24 1628.94,4399.44C1626.45,4417.09 1640.48,4435.05 1659.44,4437.96C1664.85,4438.79 1670.46,4438.64 1675.97,4438.56C1738.74,4437.62 1801.53,4435.4 1864.29,4435.98C1917.36,4436.48 1967.63,4451.34 2016.61,4471.52C2065.02,4491.46 2109.21,4518.54 2149.96,4550.62C2170.59,4566.87 2187.48,4588.27 2204.44,4608.69C2226.6,4635.4 2240.24,4666.94 2244.95,4701.09C2247.31,4718.17 2243.65,4736.18 2241.65,4753.66C2241.33,4756.44 2235.51,4760.58 2232.1,4760.72C2104.57,4765.94 1977.05,4771.72 1849.46,4775.38C1709.63,4779.39 1569.74,4781.52 1429.86,4784.12C1405.78,4784.57 1381.66,4783.3 1357.56,4782.72C1347.45,4782.48 1338.15,4774.65 1336.47,4764.64C1332.44,4740.65 1328.33,4716.66 1324.89,4692.58C1317.09,4638.01 1309.65,4583.39 1302.12,4528.78C1300.02,4513.52 1297.99,4498.26 1296.17,4482.96C1289.58,4427.46 1282.51,4372 1276.7,4316.41C1269,4242.71 1261.99,4168.94 1255.29,4095.14C1249.01,4026.04 1242.68,3956.94 1237.88,3887.73C1231.11,3790.12 1225.59,3692.42 1219.84,3594.74C1217.73,3558.84 1216.94,3522.87 1214.8,3486.97C1207.85,3370.35 1202.42,3253.6 1192.88,3137.18C1182.65,3012.32 1176.9,2887.33 1177.85,2762.19C1178.37,2694.35 1183.81,2626.41 1189.94,2558.78C1194.37,2509.84 1202.93,2461.23 1210.85,2412.66C1216.86,2375.83 1224.36,2339.22 1231.95,2302.66C1237.61,2275.41 1244.18,2248.33 1250.86,2221.31C1257.35,2195.06 1263.75,2168.75 1271.56,2142.88C1284.47,2100.12 1297.51,2057.35 1312.36,2015.24C1323.91,1982.49 1336.74,1949.98 1351.8,1918.72C1370.97,1878.95 1391.79,1839.84 1414.14,1801.77C1431.71,1771.86 1451.73,1743.25 1472.38,1715.33C1502.2,1674.99 1535.76,1637.66 1573.16,1604.2C1587.75,1591.15 1601.87,1574.43 1623.6,1573.97C1639.87,1573.62 1656.22,1576.97 1673.5,1578.77C1667.8,1596.05 1661.01,1611.35 1658.09,1627.35C1656.16,1637.87 1658.37,1649.79 1661.19,1660.43C1672.59,1703.33 1704.29,1728.12 1742.55,1744.43C1791.93,1765.48 1824.04,1770.43 1877.11,1768.05C1877.33,1770.22 1877.88,1772.45 1877.72,1774.63C1874.44,1818.24 1895.62,1849.81 1926.66,1877.38C1960.23,1907.19 1999.24,1924.18 2043.32,1929.62C2099.28,1936.53 2152.7,1928.02 2202.53,1900.65C2215.57,1893.49 2228.47,1886.08 2243.35,1877.71C2279.96,1940.11 2338.89,1964.82 2408.49,1968.8C2478.33,1972.79 2539.18,1953.46 2584.53,1896.95C2685.3,1987.06 2810.7,1975.49 2876,1866.87C2890.79,1877.37 2904.77,1889.23 2920.51,1897.91C2936.51,1906.73 2954.24,1912.39 2969.13,1918.57C2968.2,1932.32 2966.12,1946.27 2966.51,1960.15C2970.1,2088.16 2973.75,2216.17 2978.1,2344.15C2982.8,2482.68 2988.36,2621.18 2993.36,2759.7C2995.3,2813.42 2996.52,2867.16 2998.43,2920.88C3001.8,3015.95 3006.02,3110.99 3008.83,3206.07C3012.58,3333.27 3015.94,3460.5 3018.38,3587.73C3023.28,3842.92 3027.45,4098.13 3031.9,4353.33C3032.04,4361.54 3031.92,4369.76 3031.92,4378.29C3005.03,4376.78 2979.12,4374.03 2953.23,4374.13C2904.25,4374.32 2855.28,4376.23 2806.3,4377.22C2799.27,4377.36 2792.18,4376.66 2785.17,4375.89C2771.78,4374.43 2760.77,4379.71 2753.01,4389.67C2745.59,4399.19 2746.26,4411.02 2752.19,4421.09C2758.27,4431.41 2767.29,4439.74 2780.11,4440.33C2793.09,4440.93 2806.16,4440.42 2819.15,4439.64C2883.5,4435.77 2947.81,4433.44 3012.14,4440.27C3053.7,4444.73 3093.07,4456.79 3131.79,4472.03ZM3441.53,1468.26C3437.03,1490.61 3420.8,1504.58 3394.86,1508.45C3382.01,1510.36 3368.95,1510.88 3355.98,1512.02C3355.9,1511.35 3355.83,1510.68 3355.75,1510.01C3346.42,1511.16 3336.84,1511.34 3327.8,1513.66C3306.52,1519.11 3296.63,1544.18 3307.97,1562.66C3316.15,1575.99 3326.9,1588.27 3332.43,1602.59C3343.84,1632.13 3342.27,1662.68 3328.92,1691.37C3323.29,1703.46 3314.61,1715.09 3304.7,1724.03C3285.2,1741.62 3261.58,1738.94 3238.81,1731.37C3223.55,1726.3 3208.38,1720.16 3194.35,1712.37C3170.57,1699.17 3133.55,1710.62 3128.31,1742.81C3125.35,1760.96 3118.85,1779.73 3109.28,1795.36C3090.78,1825.58 3066.49,1851.29 3029.44,1858.13C2999.38,1863.68 2970.83,1856.66 2947,1837.54C2928.17,1822.42 2911.21,1804.89 2894.03,1787.82C2881.71,1775.58 2867.55,1772.58 2851.67,1777.34C2835.76,1782.1 2826.95,1792.48 2822.88,1809.61C2809.12,1867.49 2759.04,1909.82 2696.37,1889.75C2662.58,1878.93 2632.84,1860.68 2619.12,1823.03C2608.63,1794.23 2573.46,1792.59 2558.18,1810.43C2552.93,1816.56 2547.57,1823.08 2544.26,1830.34C2521.9,1879.45 2484.49,1905.91 2430.19,1906.91C2403.13,1907.41 2376.45,1903.63 2351.64,1892.46C2341.86,1888.06 2332.27,1881.29 2325.2,1873.3C2314.91,1861.66 2305.72,1848.63 2298.28,1834.98C2278.28,1798.32 2245.23,1791.83 2213.99,1816.35C2185.26,1838.9 2154.29,1857.57 2118.08,1865.08C2069.31,1875.2 2023.15,1869.31 1982.03,1838.93C1955.88,1819.62 1943.97,1794.52 1951.78,1761.73C1952.69,1757.91 1952.66,1753.87 1953.43,1750C1959.18,1720.93 1940.27,1701.54 1912.21,1701.17C1900.84,1701.02 1889.39,1702.65 1878.08,1704.23C1835.43,1710.18 1795.42,1701.41 1758.33,1680.82C1724.26,1661.91 1719.55,1629.47 1744.83,1599.98C1753.24,1590.17 1761.98,1580.6 1770.01,1570.49C1779.09,1559.06 1780.98,1546.36 1775.03,1532.66C1768.7,1518.1 1756.29,1512.26 1741.92,1511.8C1728.6,1511.38 1715.19,1513.64 1701.83,1514.86C1681.66,1516.7 1661.11,1518.62 1642.6,1508.86C1632.19,1503.37 1621.74,1495.73 1614.79,1486.45C1606.74,1475.7 1601.52,1462.45 1596.86,1449.63C1590.28,1431.52 1595.66,1421.67 1617.37,1406.02C1631.99,1395.48 1646.63,1384.94 1660.84,1373.85C1674.12,1363.49 1673.06,1335.33 1658.34,1325.85C1647.94,1319.15 1636.33,1313.35 1624.46,1310.11C1602.72,1304.16 1587.3,1289.97 1573.31,1274.06C1557.19,1255.73 1547.51,1234.39 1545.22,1209.33C1542.46,1179.18 1556.37,1158.68 1578.37,1140.75C1607.48,1117.02 1643.76,1108.62 1676.64,1092.97C1700.95,1081.4 1704.41,1047.35 1682.81,1031.63C1667.3,1020.34 1650.8,1009.92 1637.34,996.5C1628.3,987.49 1617.73,973.41 1618.65,962.52C1620.06,945.89 1627.53,927.31 1638.28,914.45C1661.38,886.8 1692.7,869.47 1727.86,860.91C1752.19,854.99 1774.46,857.23 1797.44,872.35C1821.98,888.49 1851.31,898.23 1881.62,885.86C1888.26,883.15 1894.81,875.51 1897.42,868.63C1902.23,855.92 1904.26,842.13 1907.13,828.72C1914.05,796.43 1928.26,767.3 1953.37,746.29C1985.38,719.51 2032.82,710.11 2075.93,735.55C2089.67,743.66 2102.32,753.86 2114.55,764.19C2144.6,789.55 2172.53,782.97 2193.36,754.6C2202.38,742.31 2209.97,728.97 2218.09,716.03C2244.6,673.8 2283.89,650.34 2331.79,641.45C2348.88,638.28 2367.34,637.78 2384.45,640.53C2407.79,644.27 2424.82,660.59 2439.85,678.12C2450.86,690.95 2461.29,703.97 2477.79,710.62C2494.53,717.36 2509.7,714.17 2523.79,704.72C2535.81,696.66 2547.3,687.72 2558.52,678.55C2623.75,625.24 2698.29,613.9 2777.85,632.99C2810.47,640.82 2838.36,659.26 2853.43,692.03C2856.97,699.73 2863.02,706.38 2865.98,714.24C2880.99,754.21 2920.8,758.51 2950.32,734.33C2981.72,708.62 3017.01,692.82 3059.12,697.72C3108.27,703.45 3152.26,719.8 3186.15,757.73C3198.98,772.09 3198.33,793.99 3184.94,812.3C3166.45,837.58 3176.87,861.77 3204.88,871.55C3224.53,878.41 3245.44,881.96 3264.6,889.87C3302.02,905.33 3330.87,931.45 3349.14,967.88C3358.29,986.12 3349.16,1008.48 3329.99,1018.84C3321.69,1023.33 3313.2,1027.45 3304.7,1031.56C3292.38,1037.52 3283.71,1048.23 3284.2,1060.69C3284.68,1072.75 3292.14,1084.78 3304.93,1089.83C3318.05,1095.01 3332.24,1097.62 3345.04,1103.4C3367.76,1113.67 3388.27,1127.47 3402.43,1148.78C3408.65,1158.14 3415.75,1167.38 3419.71,1177.72C3432.04,1209.89 3419.81,1234.9 3388.2,1248.14C3374.57,1253.85 3361.45,1261.31 3349.18,1269.59C3331.95,1281.22 3332.18,1304.73 3348.27,1317.74C3368.06,1333.74 3389.1,1348.59 3406.88,1366.61C3434.27,1394.36 3449.69,1427.78 3441.53,1468.26ZM3751.26,698.94C3749.95,703.89 3748.12,708.7 3746.75,713.63C3735.31,754.79 3714.87,792.1 3694.21,828.85C3678.05,857.6 3658.22,884.68 3637.23,910.21C3598.98,956.74 3553.83,995.29 3496.79,1017.64C3483.28,1022.93 3469.33,1027.13 3455.46,1031.43C3452.21,1032.44 3448.37,1032.39 3444.96,1031.85C3435.07,1030.3 3425.25,1028.25 3417.99,1026.88C3418.38,1006.42 3420.2,984.99 3418.84,963.75C3417.21,938.33 3402.6,918.41 3385.33,900.89C3371.1,886.45 3356.46,872.22 3340.68,859.54C3328.57,849.81 3314.41,842.65 3300.78,834.1C3349.59,825.9 3398.62,818.43 3447.33,809.26C3492.72,800.71 3535.81,784.61 3577.74,765.34C3628.41,742.06 3673.98,710.87 3715.97,674.62C3734.8,658.36 3751.09,639.17 3771.52,621.7C3764.79,647.46 3758.07,673.21 3751.26,698.94Z" style="fill-rule:nonzero;"/>
        <path d="M1673.52,1578.81C1667.82,1596.09 1661.03,1611.39 1658.11,1627.39C1656.18,1637.91 1658.39,1649.83 1661.21,1660.47C1672.61,1703.37 1704.31,1728.16 1742.57,1744.47C1791.95,1765.52 1824.06,1770.47 1877.13,1768.09C1877.35,1770.26 1877.9,1772.49 1877.74,1774.67C1874.46,1818.28 1895.64,1849.85 1926.68,1877.42C1960.25,1907.23 1999.26,1924.22 2043.34,1929.66C2099.3,1936.57 2152.72,1928.06 2202.55,1900.69C2215.59,1893.53 2228.49,1886.12 2243.37,1877.75C2279.98,1940.15 2338.91,1964.86 2408.51,1968.84C2478.35,1972.83 2539.2,1953.5 2584.55,1896.99C2685.33,1987.1 2810.72,1975.53 2876.02,1866.91C2890.81,1877.41 2904.79,1889.27 2920.53,1897.95C2936.53,1906.77 2954.26,1912.43 2969.15,1918.61C2968.22,1932.36 2966.14,1946.31 2966.53,1960.19C2970.12,2088.2 2973.77,2216.21 2978.12,2344.19C2982.82,2482.72 2988.38,2621.22 2993.38,2759.74C2995.32,2813.46 2996.54,2867.2 2998.45,2920.92C3001.82,3015.99 3006.04,3111.03 3008.85,3206.11C3012.6,3333.31 3015.96,3460.54 3018.4,3587.77C3023.3,3842.96 3027.47,4098.17 3031.92,4353.37C3032.06,4361.58 3031.94,4369.8 3031.94,4378.33C3005.05,4376.82 2979.14,4374.07 2953.25,4374.17C2904.27,4374.36 2855.3,4376.27 2806.32,4377.26C2799.29,4377.4 2792.2,4376.7 2785.19,4375.93C2771.8,4374.47 2760.79,4379.75 2753.03,4389.71C2745.61,4399.23 2746.28,4411.06 2752.21,4421.13C2758.29,4431.45 2767.31,4439.78 2780.13,4440.37C2793.11,4440.97 2806.18,4440.46 2819.17,4439.68C2883.52,4435.81 2947.83,4433.48 3012.16,4440.31C3053.73,4444.73 3093.1,4456.78 3131.82,4472.02C3180.9,4491.34 3225.36,4518.82 3266.85,4550.63C3286.79,4565.92 3303.53,4585.83 3319.98,4605.12C3342.98,4632.1 3354.3,4664.86 3364.86,4698.46C3371.62,4719.96 3366.84,4738.33 3360.77,4757.56C3359.92,4760.25 3354.52,4763.01 3351.11,4763.16C3291.89,4765.76 3232.66,4768.04 3173.43,4770.21C3045.47,4774.91 2917.54,4780.82 2789.55,4783.73C2685.66,4786.09 2581.69,4784.85 2477.76,4785.07C2465.99,4785.09 2457.47,4777.21 2455.77,4765.39C2448.56,4715.52 2441.37,4665.66 2434.35,4615.76C2427.05,4563.92 2419.45,4512.12 2412.9,4460.19C2406,4405.53 2400.05,4350.74 2393.91,4295.99C2388.65,4249.04 2383.44,4202.08 2378.75,4155.07C2376.24,4129.92 2375.09,4104.63 2372.95,4079.44C2368.65,4028.81 2363.89,3978.21 2359.73,3927.57C2357.47,3900.01 2356.09,3872.37 2354.23,3844.78C2350.71,3792.48 2346.71,3740.22 2343.71,3687.89C2340.3,3628.32 2338.15,3568.67 2334.77,3509.1C2331.6,3453.22 2327.52,3397.39 2323.89,3341.53C2323.12,3329.74 2322.56,3317.93 2322.06,3308.77C2314.94,3303.4 2310.08,3298.09 2304.06,3295.56C2294.22,3291.44 2283.43,3285.95 2273.38,3286.57C2196.49,3291.36 2119.69,3297.45 2042.86,3303.2C2010.16,3305.65 1977.47,3308.14 1944.79,3310.82C1928.53,3312.16 1918.46,3320.42 1908.02,3334.08C1895.53,3350.43 1896.24,3366.6 1896.46,3384.01C1898.07,3510.88 1899.45,3637.76 1901.62,3764.63C1904.96,3960.55 1908.87,4156.47 1912.52,4352.38C1912.67,4360.18 1912.54,4367.99 1912.54,4375.94C1886.27,4374.45 1861.13,4371.76 1836,4371.86C1786.63,4372.05 1737.26,4373.83 1687.88,4374.83C1681.62,4374.96 1675.28,4374.85 1669.09,4374C1647.78,4371.09 1631.53,4381.23 1628.97,4399.43C1626.48,4417.08 1640.51,4435.04 1659.47,4437.95C1664.88,4438.78 1670.49,4438.63 1676,4438.55C1738.77,4437.61 1801.56,4435.39 1864.32,4435.97C1917.39,4436.47 1967.66,4451.33 2016.64,4471.51C2065.05,4491.45 2109.24,4518.53 2149.99,4550.61C2170.62,4566.86 2187.51,4588.26 2204.47,4608.68C2226.63,4635.39 2240.27,4666.93 2244.98,4701.08C2247.34,4718.16 2243.68,4736.17 2241.68,4753.65C2241.36,4756.43 2235.54,4760.57 2232.13,4760.71C2104.6,4765.93 1977.08,4771.71 1849.49,4775.37C1709.66,4779.38 1569.77,4781.51 1429.89,4784.11C1405.81,4784.56 1381.69,4783.29 1357.59,4782.71C1347.48,4782.47 1338.18,4774.64 1336.5,4764.63C1332.47,4740.64 1328.36,4716.65 1324.92,4692.57C1317.12,4638 1309.68,4583.38 1302.15,4528.77C1300.05,4513.51 1298.02,4498.25 1296.2,4482.95C1289.61,4427.45 1282.54,4371.99 1276.73,4316.4C1269.03,4242.7 1262.02,4168.93 1255.32,4095.14C1249.04,4026.04 1242.71,3956.94 1237.91,3887.73C1231.14,3790.12 1225.62,3692.42 1219.87,3594.74C1217.76,3558.84 1216.97,3522.87 1214.83,3486.97C1207.88,3370.35 1202.45,3253.6 1192.91,3137.18C1182.68,3012.32 1176.93,2887.33 1177.88,2762.19C1178.4,2694.35 1183.84,2626.41 1189.97,2558.78C1194.4,2509.84 1202.96,2461.23 1210.88,2412.66C1216.89,2375.83 1224.39,2339.22 1231.98,2302.66C1237.64,2275.41 1244.21,2248.33 1250.89,2221.31C1257.38,2195.06 1263.78,2168.75 1271.59,2142.88C1284.5,2100.12 1297.54,2057.35 1312.39,2015.24C1323.94,1982.49 1336.77,1949.98 1351.83,1918.72C1371,1878.95 1391.82,1839.84 1414.17,1801.77C1431.74,1771.86 1451.76,1743.25 1472.41,1715.33C1502.23,1674.99 1535.79,1637.66 1573.19,1604.2C1587.78,1591.15 1601.9,1574.43 1623.63,1573.97C1639.89,1573.66 1656.24,1577 1673.52,1578.81ZM2061.93,2682.13C2058.55,2622.43 2058.83,2553.7 2043.27,2486.29C2036.13,2455.36 2031.43,2423.84 2023.74,2393.07C2014.03,2354.22 2002.7,2315.75 1991.36,2277.33C1988.19,2266.57 1983.37,2256.06 1977.7,2246.37C1974.59,2241.06 1968.69,2236.63 1963.06,2233.69C1947.89,2225.77 1933.18,2229.66 1921.41,2240.32C1910.52,2250.18 1911.7,2263.6 1916.24,2276.75C1926.19,2305.55 1937.06,2334.1 1945.49,2363.34C1954.07,2393.13 1961.73,2423.37 1967,2453.9C1975.3,2502.01 1983.82,2550.33 1987.6,2598.92C1992.67,2664.09 1995.24,2729.46 1984.59,2794.79C1977.89,2835.91 1973.59,2877.12 1959.01,2916.73C1948.55,2945.15 1935.23,2971.08 1914.4,2993.06C1897.22,3011.18 1873.78,3016.04 1850.57,3006.89C1819.46,2994.63 1796.38,2971.69 1777.19,2946.21C1754.71,2916.35 1734.71,2884.25 1716.99,2851.31C1701.3,2822.14 1689.52,2790.77 1677.34,2759.85C1668.88,2738.37 1662.19,2716.15 1655.58,2694.01C1648.96,2671.86 1642.35,2649.62 1637.63,2627.02C1629.6,2588.55 1622.15,2549.91 1616.21,2511.07C1611.86,2482.61 1609.53,2453.78 1607.71,2425.02C1603.82,2363.41 1602.85,2301.67 1610.85,2240.37C1615.11,2207.75 1623.1,2175.6 1629.82,2143.32C1632.63,2129.83 1633.48,2116.48 1621.52,2107.48C1609.21,2098.21 1595.42,2096.53 1580.24,2103.27C1563.4,2110.76 1560.28,2127.27 1557.35,2140.8C1548.29,2182.66 1539.85,2225.02 1536.26,2267.62C1531,2330.07 1529.71,2392.84 1539.88,2455.28C1547.83,2504.14 1553.56,2553.37 1561.93,2602.15C1566.69,2629.91 1574.19,2657.26 1581.5,2684.52C1587.78,2707.94 1594.48,2731.34 1602.87,2754.06C1615.44,2788.11 1628.5,2822.08 1643.54,2855.09C1655.49,2881.33 1670.52,2906.19 1684.53,2931.47C1701.34,2961.8 1723.05,2988.35 1747.41,3012.97C1771.84,3037.67 1799.23,3057.57 1832.65,3068C1875.53,3081.38 1915.49,3074.41 1951.53,3047.98C1976.6,3029.59 1994.39,3004.41 2008.57,2977.34C2027.93,2940.37 2039.39,2900.19 2047.8,2859.56C2059.3,2804.05 2061.19,2747.47 2061.93,2682.13Z" style="fill:rgb(255,246,230);fill-rule:nonzero;"/>
        <path d="M3406.87,1366.59C3389.08,1348.57 3368.05,1333.72 3348.26,1317.72C3332.17,1304.71 3331.94,1281.21 3349.17,1269.57C3361.43,1261.29 3374.56,1253.83 3388.19,1248.12C3419.8,1234.88 3432.03,1209.87 3419.7,1177.7C3415.74,1167.36 3408.64,1158.13 3402.42,1148.76C3388.26,1127.46 3367.75,1113.65 3345.03,1103.38C3332.23,1097.6 3318.04,1094.99 3304.92,1089.81C3292.13,1084.76 3284.67,1072.74 3284.19,1060.67C3283.7,1048.21 3292.37,1037.5 3304.69,1031.54C3313.18,1027.43 3321.68,1023.3 3329.98,1018.82C3349.15,1008.46 3358.28,986.1 3349.13,967.86C3330.86,931.43 3302.01,905.31 3264.59,889.85C3245.43,881.93 3224.52,878.39 3204.87,871.53C3176.86,861.75 3166.44,837.56 3184.93,812.28C3198.32,793.98 3198.97,772.07 3186.14,757.71C3152.25,719.78 3108.26,703.43 3059.11,697.7C3017.01,692.79 2981.71,708.59 2950.31,734.31C2920.79,758.49 2880.98,754.19 2865.97,714.22C2863.02,706.36 2856.97,699.71 2853.42,692.01C2838.35,659.24 2810.46,640.8 2777.84,632.97C2698.28,613.87 2623.74,625.22 2558.51,678.53C2547.29,687.7 2535.8,696.64 2523.78,704.7C2509.69,714.15 2494.52,717.34 2477.78,710.6C2461.28,703.96 2450.85,690.93 2439.84,678.1C2424.81,660.58 2407.78,644.26 2384.44,640.51C2367.32,637.77 2348.87,638.26 2331.78,641.43C2283.88,650.32 2244.6,673.78 2218.08,716.01C2209.96,728.95 2202.37,742.3 2193.35,754.58C2172.52,782.95 2144.59,789.53 2114.54,764.17C2102.31,753.84 2089.65,743.63 2075.92,735.53C2032.81,710.09 1985.37,719.48 1953.36,746.27C1928.25,767.28 1914.04,796.41 1907.12,828.7C1904.25,842.11 1902.22,855.9 1897.41,868.61C1894.81,875.49 1888.26,883.13 1881.61,885.84C1851.3,898.21 1821.97,888.47 1797.43,872.33C1774.45,857.21 1752.19,854.96 1727.85,860.89C1692.69,869.45 1661.37,886.78 1638.27,914.43C1627.52,927.29 1620.05,945.87 1618.64,962.5C1617.72,973.39 1628.28,987.47 1637.33,996.48C1650.79,1009.89 1667.29,1020.32 1682.8,1031.61C1704.4,1047.33 1700.95,1081.38 1676.63,1092.95C1643.75,1108.59 1607.48,1116.99 1578.36,1140.73C1556.36,1158.66 1542.45,1179.17 1545.21,1209.31C1547.5,1234.37 1557.18,1255.71 1573.3,1274.04C1587.28,1289.94 1602.7,1304.14 1624.45,1310.09C1636.32,1313.34 1647.93,1319.13 1658.33,1325.83C1673.05,1335.31 1674.11,1363.47 1660.83,1373.83C1646.62,1384.91 1631.99,1395.46 1617.36,1406C1595.64,1421.65 1590.27,1431.5 1596.85,1449.61C1601.51,1462.43 1606.73,1475.68 1614.78,1486.43C1621.73,1495.71 1632.17,1503.35 1642.59,1508.84C1661.1,1518.6 1681.65,1516.68 1701.82,1514.84C1715.18,1513.62 1728.59,1511.36 1741.91,1511.78C1756.28,1512.24 1768.69,1518.08 1775.02,1532.64C1780.98,1546.34 1779.09,1559.04 1770,1570.47C1761.96,1580.58 1753.23,1590.15 1744.82,1599.96C1719.54,1629.45 1724.25,1661.88 1758.32,1680.8C1795.41,1701.39 1835.42,1710.16 1878.07,1704.21C1889.38,1702.63 1900.84,1701 1912.2,1701.15C1940.26,1701.52 1959.17,1720.9 1953.42,1749.98C1952.66,1753.85 1952.68,1757.88 1951.77,1761.71C1943.96,1794.49 1955.87,1819.59 1982.02,1838.91C2023.15,1869.28 2069.3,1875.17 2118.07,1865.06C2154.28,1857.55 2185.25,1838.88 2213.98,1816.33C2245.22,1791.81 2278.27,1798.3 2298.27,1834.96C2305.71,1848.61 2314.9,1861.64 2325.19,1873.28C2332.26,1881.27 2341.85,1888.04 2351.63,1892.44C2376.44,1903.61 2403.12,1907.39 2430.18,1906.89C2484.48,1905.89 2521.89,1879.43 2544.25,1830.32C2547.55,1823.06 2552.91,1816.55 2558.17,1810.41C2573.45,1792.58 2608.61,1794.21 2619.11,1823.01C2632.83,1860.66 2662.57,1878.9 2696.36,1889.73C2759.04,1909.81 2809.12,1867.47 2822.87,1809.59C2826.94,1792.45 2835.75,1782.08 2851.66,1777.32C2867.55,1772.56 2881.71,1775.56 2894.02,1787.8C2911.2,1804.87 2928.16,1822.41 2946.99,1837.52C2970.82,1856.65 2999.37,1863.67 3029.43,1858.11C3066.48,1851.26 3090.76,1825.56 3109.27,1795.34C3118.84,1779.71 3125.34,1760.94 3128.3,1742.79C3133.54,1710.6 3170.56,1699.14 3194.34,1712.35C3208.37,1720.14 3223.54,1726.28 3238.8,1731.35C3261.58,1738.92 3285.2,1741.6 3304.69,1724.01C3314.6,1715.07 3323.28,1703.44 3328.91,1691.35C3342.27,1662.66 3343.83,1632.11 3332.42,1602.57C3326.89,1588.25 3316.13,1575.97 3307.96,1562.64C3296.63,1544.16 3306.51,1519.09 3327.79,1513.64C3336.82,1511.33 3346.41,1511.14 3355.74,1509.99C3355.82,1510.66 3355.89,1511.33 3355.97,1512C3368.94,1510.85 3382,1510.34 3394.85,1508.43C3420.8,1504.57 3437.02,1490.59 3441.52,1468.24C3449.69,1427.78 3434.27,1394.36 3406.87,1366.59ZM1907.27,1105.04C1903.49,1104.63 1900.43,1103.27 1897.9,1101.3C1896.89,1106.01 1895.55,1110.62 1893.76,1115.05C1893.15,1120.03 1892.61,1125.02 1892.28,1130.02C1891.85,1136.39 1882.31,1136.51 1882.28,1130.02C1882.26,1125.29 1882.04,1120.57 1881.74,1115.85C1880.29,1116.03 1878.78,1115.71 1877.7,1114.84C1877.34,1115.26 1876.98,1115.69 1876.62,1116.1C1876.55,1116.43 1876.46,1116.75 1876.4,1117.08C1875.96,1119.41 1874.22,1120.51 1872.33,1120.64C1872.3,1120.67 1872.28,1120.69 1872.25,1120.72C1869.2,1123.81 1863.71,1121.49 1863.71,1117.18C1863.71,1111.21 1863.75,1105.24 1863.92,1099.27C1861.64,1099.03 1859.53,1097.44 1859.53,1094.48L1859.53,1086.25C1858.24,1088.3 1857.01,1090.4 1855.89,1092.57C1853.59,1097.03 1846.49,1094.87 1846.57,1090.05C1846.62,1086.95 1847.02,1084.07 1847.71,1081.31C1843.63,1075.7 1844.86,1066.22 1846.75,1060.16C1847.36,1058.21 1849.36,1056.27 1851.57,1056.49C1854.57,1056.79 1857.2,1057.59 1859.53,1058.77L1859.53,991.06C1859.53,987.23 1862.58,985.79 1865.37,986.43C1865.01,982.15 1865.62,978.43 1867.76,975.67C1867.78,973.91 1867.8,972.14 1867.8,970.38C1867.81,963.84 1877.24,964.07 1877.8,970.38C1877.82,970.56 1877.83,970.74 1877.84,970.92C1878.13,970.89 1878.4,970.84 1878.7,970.82C1882.26,970.51 1883.99,974.25 1883.52,977.15C1881.98,986.79 1881.61,996.61 1881.41,1006.46C1885.15,1015.98 1890.21,1027.09 1887.81,1037.12C1887.78,1037.26 1887.73,1037.39 1887.69,1037.52C1889.01,1035.6 1890.53,1033.82 1892.3,1032.25C1895.62,1029.31 1900.55,1031.37 1900.84,1035.79C1901.71,1049.28 1901.84,1062.85 1900.97,1076.34C1900.7,1080.52 1900.36,1084.76 1899.87,1089C1901.68,1092.24 1904.05,1094.69 1907.26,1095.04C1913.61,1095.73 1913.66,1105.74 1907.27,1105.04ZM2370.29,1360.87C2369.75,1362.32 2368.66,1363.64 2368.42,1365.11C2363.18,1397.18 2339.75,1411.5 2312.47,1421.14C2300.01,1425.54 2286.62,1427.31 2273.65,1430.28C2248.16,1428.95 2226.05,1420.94 2207.03,1404.77C2189.32,1389.71 2189.28,1348.44 2206.83,1330.76C2226.17,1311.27 2249.1,1298.62 2276.53,1294.49C2293.29,1291.97 2309.4,1293.05 2325.04,1300.26C2329.95,1302.52 2335.5,1304 2340.88,1304.51C2368.59,1307.15 2377.87,1340.57 2370.29,1360.87ZM2616.72,1337.02C2626.22,1319.58 2634.22,1300.71 2646.7,1285.63C2681.22,1243.92 2724.38,1216.89 2780.96,1219.71C2801.31,1220.72 2822.56,1222.84 2836.4,1241.17C2852.31,1262.25 2870.1,1282.51 2882.29,1305.65C2896.8,1333.19 2892.66,1362.98 2880.17,1391.26C2879.07,1393.74 2877.69,1396.11 2876.76,1398.64C2857.02,1452.58 2800.9,1490.07 2729.78,1489.97C2702.07,1489.64 2665.01,1475.67 2633.77,1447.11C2606.19,1421.9 2598.29,1370.85 2616.72,1337.02ZM2992.06,1578.72C2977.9,1601.6 2963.92,1625.01 2946.58,1645.4C2925.07,1670.71 2894.5,1683.9 2862.86,1690.82C2826.79,1698.72 2789.78,1702.36 2753.18,1707.85C2753.03,1706.78 2752.89,1705.71 2752.74,1704.64C2683.9,1703.12 2616.73,1692.84 2553.47,1664.33C2524.96,1651.48 2499.43,1633.74 2478.84,1609.9C2468.96,1598.46 2460,1586.13 2451.49,1573.62C2441.02,1558.22 2446.59,1538.33 2463.14,1529.13C2478.4,1520.65 2499.93,1527.99 2507.2,1543.86C2516.99,1565.22 2533.81,1580.19 2552.78,1593.16C2598.73,1624.58 2652.15,1631.85 2705.2,1638.92C2749.65,1644.84 2794.26,1642.99 2838.19,1632.54C2872.37,1624.41 2898.37,1606.55 2915.58,1574.54C2923.19,1560.39 2928.73,1543.31 2945.32,1534.88C2958.87,1527.99 2977.24,1528.95 2987.54,1538.51C2998.23,1548.43 3001.08,1564.16 2992.06,1578.72ZM3191.6,1505.96C3144.42,1504.45 3105.16,1477.28 3105.28,1432.79C3105.4,1386.52 3152.73,1349.9 3196.02,1349.85C3236.75,1345.82 3265.37,1397.91 3266.26,1428.9C3267.5,1472.62 3233.56,1507.3 3191.6,1505.96Z" style="fill:white;fill-rule:nonzero;"/>
        <path d="M1975.7,663.13C1958.93,671.57 1942.94,678.94 1927.61,687.48C1897.25,704.41 1876.23,729.2 1866.18,762.92C1862.01,776.91 1857.49,790.83 1852.46,804.53C1848.86,814.34 1839.47,817.27 1831.01,815.17C1810.16,810 1789.81,802.86 1769.18,796.77C1765.12,795.57 1760.62,794.74 1756.48,795.19C1739.29,797.05 1722.1,799.03 1705.06,801.89C1697.5,803.16 1692.95,802.9 1687.61,795.68C1672.09,774.68 1654.37,755.31 1638.8,734.34C1629.28,721.51 1621.37,707.3 1614.09,693.02C1596.81,659.13 1584.89,623.41 1580.8,585.39C1574.11,523.15 1567.06,460.94 1561.12,398.62C1557.58,361.41 1555.87,324.03 1553.33,286.72C1554.78,285.79 1556.23,284.86 1557.67,283.94C1559.3,286.81 1560.85,289.73 1562.58,292.54C1572.64,308.9 1581.33,326.35 1593.14,341.33C1614.85,368.88 1637.86,395.48 1661.4,421.49C1676.09,437.72 1692.06,452.98 1708.7,467.22C1739.94,493.94 1771.78,519.99 1803.97,545.57C1827.32,564.12 1851.01,582.37 1875.67,599.11C1905.83,619.59 1937.16,638.35 1967.98,657.88C1970.61,659.53 1973.14,661.37 1975.7,663.13Z" style="fill:rgb(230,255,255);fill-rule:nonzero;"/>
        <path d="M3300.8,834.11C3349.61,825.91 3398.64,818.44 3447.35,809.27C3492.74,800.72 3535.83,784.62 3577.76,765.35C3628.43,742.07 3674,710.88 3715.99,674.63C3734.82,658.37 3751.1,639.18 3771.54,621.71C3764.79,647.46 3758.07,673.21 3751.25,698.94C3749.94,703.89 3748.11,708.7 3746.74,713.63C3735.3,754.79 3714.86,792.1 3694.2,828.85C3678.04,857.6 3658.21,884.68 3637.22,910.21C3598.97,956.74 3553.82,995.29 3496.78,1017.64C3483.27,1022.93 3469.32,1027.13 3455.45,1031.43C3452.2,1032.44 3448.36,1032.39 3444.95,1031.85C3435.06,1030.3 3425.24,1028.25 3417.98,1026.88C3418.37,1006.42 3420.19,984.99 3418.83,963.75C3417.2,938.33 3402.59,918.41 3385.32,900.89C3371.09,886.45 3356.45,872.22 3340.67,859.54C3328.59,849.82 3314.43,842.65 3300.8,834.11Z" style="fill:rgb(230,255,255);fill-rule:nonzero;"/>
        <path d="M2061.93,2682.13C2061.2,2747.47 2059.31,2804.05 2047.82,2859.56C2039.41,2900.18 2027.95,2940.37 2008.59,2977.34C1994.41,3004.41 1976.62,3029.6 1951.55,3047.98C1915.51,3074.41 1875.55,3081.38 1832.67,3068C1799.25,3057.57 1771.87,3037.67 1747.43,3012.97C1723.08,2988.35 1701.37,2961.8 1684.55,2931.47C1670.54,2906.19 1655.51,2881.33 1643.56,2855.09C1628.52,2822.08 1615.46,2788.11 1602.89,2754.06C1594.5,2731.34 1587.8,2707.94 1581.52,2684.52C1574.21,2657.26 1566.71,2629.91 1561.95,2602.15C1553.59,2553.37 1547.86,2504.14 1539.9,2455.28C1529.73,2392.83 1531.02,2330.07 1536.28,2267.62C1539.87,2225.02 1548.31,2182.66 1557.37,2140.8C1560.3,2127.27 1563.42,2110.76 1580.26,2103.27C1595.43,2096.52 1609.22,2098.21 1621.54,2107.48C1633.49,2116.48 1632.65,2129.83 1629.84,2143.32C1623.12,2175.6 1615.12,2207.75 1610.87,2240.37C1602.87,2301.68 1603.84,2363.42 1607.73,2425.02C1609.54,2453.78 1611.88,2482.61 1616.23,2511.07C1622.17,2549.91 1629.62,2588.55 1637.65,2627.02C1642.36,2649.62 1648.98,2671.87 1655.6,2694.01C1662.22,2716.16 1668.9,2738.38 1677.36,2759.85C1689.54,2790.77 1701.32,2822.14 1717.01,2851.31C1734.73,2884.25 1754.73,2916.35 1777.21,2946.21C1796.39,2971.69 1819.47,2994.63 1850.59,3006.89C1873.8,3016.04 1897.23,3011.18 1914.42,2993.06C1935.26,2971.08 1948.57,2945.14 1959.03,2916.73C1973.61,2877.12 1977.91,2835.9 1984.61,2794.79C1995.25,2729.46 1992.68,2664.08 1987.62,2598.92C1983.84,2550.33 1975.32,2502.01 1967.02,2453.9C1961.75,2423.37 1954.09,2393.13 1945.51,2363.34C1937.08,2334.09 1926.21,2305.55 1916.26,2276.75C1911.72,2263.61 1910.54,2250.18 1921.43,2240.32C1933.2,2229.66 1947.91,2225.77 1963.08,2233.69C1968.71,2236.63 1974.61,2241.06 1977.72,2246.37C1983.39,2256.05 1988.2,2266.57 1991.38,2277.33C2002.71,2315.76 2014.04,2354.22 2023.76,2393.07C2031.46,2423.85 2036.15,2455.36 2043.29,2486.29C2058.82,2553.69 2058.55,2622.43 2061.93,2682.13Z" style="fill-rule:nonzero;"/>
        <path d="M2729.78,1489.97C2702.07,1489.64 2665.01,1475.67 2633.77,1447.11C2606.19,1421.9 2598.3,1370.86 2616.72,1337.02C2626.22,1319.58 2634.22,1300.71 2646.7,1285.63C2681.22,1243.92 2724.38,1216.89 2780.96,1219.71C2801.31,1220.72 2822.56,1222.84 2836.4,1241.17C2852.31,1262.25 2870.1,1282.51 2882.29,1305.65C2896.8,1333.19 2892.66,1362.98 2880.17,1391.26C2879.07,1393.74 2877.69,1396.11 2876.76,1398.64C2857.02,1452.58 2800.9,1490.07 2729.78,1489.97ZM2747.79,1427.47C2760.83,1426.53 2776.48,1419.67 2790.94,1407.16C2808.94,1391.6 2811.99,1369.43 2820.39,1349.61C2821.93,1345.98 2822.03,1340.06 2820.06,1336.93C2811.23,1322.91 2803.33,1307.46 2791.5,1296.36C2772.96,1278.97 2746.91,1274.88 2726.63,1296.32C2716.22,1307.33 2706.8,1319.28 2696.71,1330.61C2683.69,1345.24 2678.67,1363.23 2679.43,1381.72C2679.83,1391.35 2685.08,1403.2 2692.16,1409.61C2705.72,1421.9 2723.4,1427.36 2747.79,1427.47Z" style="fill-rule:nonzero;"/>
        <path d="M2752.75,1704.65C2683.91,1703.13 2616.74,1692.85 2553.48,1664.34C2524.97,1651.49 2499.44,1633.75 2478.85,1609.91C2468.97,1598.47 2460.01,1586.14 2451.5,1573.63C2441.03,1558.23 2446.6,1538.34 2463.15,1529.14C2478.41,1520.66 2499.94,1528 2507.21,1543.87C2517,1565.23 2533.82,1580.2 2552.79,1593.17C2598.74,1624.59 2652.16,1631.86 2705.21,1638.93C2749.66,1644.85 2794.27,1643 2838.2,1632.55C2872.38,1624.42 2898.38,1606.56 2915.59,1574.55C2923.2,1560.4 2928.74,1543.32 2945.33,1534.89C2958.88,1528 2977.25,1528.96 2987.55,1538.52C2998.23,1548.43 3001.09,1564.16 2992.07,1578.72C2977.91,1601.6 2963.93,1625.01 2946.59,1645.4C2925.08,1670.71 2894.51,1683.9 2862.87,1690.82C2826.8,1698.72 2789.79,1702.36 2753.19,1707.85C2753.04,1706.79 2752.89,1705.72 2752.75,1704.65Z" style="fill-rule:nonzero;"/>
        <path d="M3196.01,1349.85C3236.74,1345.82 3265.36,1397.91 3266.25,1428.9C3267.5,1472.62 3233.55,1507.3 3191.59,1505.96C3144.41,1504.45 3105.15,1477.28 3105.27,1432.79C3105.39,1386.52 3152.72,1349.9 3196.01,1349.85Z" style="fill-rule:nonzero;"/>
        <path d="M2273.65,1430.28C2248.16,1428.95 2226.05,1420.94 2207.03,1404.77C2189.32,1389.71 2189.28,1348.44 2206.83,1330.76C2226.17,1311.27 2249.1,1298.62 2276.53,1294.49C2293.29,1291.97 2309.4,1293.05 2325.04,1300.26C2329.95,1302.52 2335.5,1304 2340.88,1304.51C2368.59,1307.16 2377.88,1340.57 2370.3,1360.87C2369.76,1362.32 2368.67,1363.64 2368.43,1365.11C2363.19,1397.18 2339.76,1411.5 2312.48,1421.14C2300.01,1425.54 2286.62,1427.31 2273.65,1430.28Z" style="fill-rule:nonzero;"/>
        <path d="M2747.79,1427.47C2723.4,1427.36 2705.72,1421.9 2692.18,1409.62C2685.1,1403.21 2679.85,1391.36 2679.45,1381.73C2678.69,1363.24 2683.71,1345.25 2696.73,1330.62C2706.82,1319.29 2716.24,1307.35 2726.65,1296.33C2746.92,1274.88 2772.98,1278.97 2791.52,1296.37C2803.35,1307.47 2811.25,1322.92 2820.08,1336.94C2822.05,1340.07 2821.95,1346 2820.41,1349.62C2812,1369.45 2808.96,1391.61 2790.96,1407.17C2776.48,1419.67 2760.83,1426.54 2747.79,1427.47Z" style="fill:rgb(255,68,31);fill-rule:nonzero;"/>
        <path d="M1846.8,998.2C1835.21,998.72 1826.91,1007.21 1826.3,1018.7C1824.29,1056.73 1823.06,1094.79 1822.63,1132.87C1822.51,1143.6 1832.15,1153.86 1843.13,1153.37C1854.34,1152.87 1863.5,1144.36 1863.63,1132.87C1864.07,1094.79 1865.29,1056.73 1867.3,1018.7C1867.87,1007.97 1857.46,997.72 1846.8,998.2Z" style="fill:rgb(180,176,175);fill-rule:nonzero;"/>
        <path d="M1922.98,1003.86C1911.87,1004.36 1902.48,1012.87 1902.48,1024.36L1902.48,1130.02C1902.48,1140.74 1911.91,1151.02 1922.98,1150.52C1934.09,1150.02 1943.48,1141.51 1943.48,1130.02L1943.48,1024.36C1943.48,1013.64 1934.05,1003.37 1922.98,1003.86Z" style="fill:rgb(180,176,175);fill-rule:nonzero;"/>
        <path d="M1426.27,3199.4C1415.16,3199.9 1405.77,3208.41 1405.77,3219.9L1405.77,3434.39C1405.77,3445.11 1415.2,3455.39 1426.27,3454.89C1437.38,3454.39 1446.77,3445.88 1446.77,3434.39L1446.77,3219.9C1446.77,3209.17 1437.34,3198.9 1426.27,3199.4Z" style="fill:rgb(180,176,175);fill-rule:nonzero;"/>
        <path d="M1550.44,3210.69C1539.33,3211.19 1529.94,3219.7 1529.94,3231.19L1529.94,3389.23C1529.94,3399.95 1539.37,3410.23 1550.44,3409.73C1561.55,3409.23 1570.94,3400.72 1570.94,3389.23L1570.94,3231.19C1570.94,3220.46 1561.51,3210.19 1550.44,3210.69Z" style="fill:rgb(180,176,175);fill-rule:nonzero;"/>
        <path d="M2775.29,2019.71C2764.18,2020.21 2754.79,2028.72 2754.79,2040.21L2754.79,2170.03C2754.79,2180.75 2764.22,2191.03 2775.29,2190.53C2786.4,2190.03 2795.79,2181.52 2795.79,2170.03L2795.79,2040.21C2795.79,2029.48 2786.36,2019.21 2775.29,2019.71Z" style="fill:rgb(180,176,175);fill-rule:nonzero;"/>
        <g>
            <path d="M1750.58,606C1742.2,598.31 1729.93,598.13 1721.59,606C1718.38,609.03 1715.09,611.97 1711.69,614.78C1710.84,615.48 1709.98,616.17 1709.12,616.87C1709.06,616.92 1709.03,616.94 1708.98,616.98C1707.32,618.19 1705.68,619.43 1704,620.61C1696.56,625.85 1688.74,630.57 1680.64,634.72C1678.68,635.73 1676.69,636.7 1674.7,637.64C1673.7,638.11 1672.7,638.57 1671.69,639.02C1671.55,639.08 1671.07,639.3 1670.59,639.51C1670,639.76 1669.17,640.11 1668.97,640.19C1667.95,640.6 1666.92,641 1665.89,641.39C1663.83,642.17 1661.75,642.92 1659.66,643.64C1653.41,645.78 1647.06,647.57 1640.63,649.05C1639.95,648.98 1639.26,648.94 1638.55,648.94C1627.83,648.94 1617.55,658.37 1618.05,669.44C1618.07,669.89 1618.12,670.34 1618.17,670.79C1618.18,672.51 1618.44,674.21 1618.96,675.83C1622.6,687.07 1632.87,692.33 1644.18,690.15C1684.01,682.44 1721.12,662.76 1750.58,634.98C1758.4,627.62 1758.58,613.34 1750.58,606Z" style="fill:rgb(138,221,198);fill-rule:nonzero;"/>
            <path d="M1845.54,688.51C1842.47,679.02 1830.93,669.79 1820.32,674.19C1801.29,682.09 1781.57,688.23 1761.38,692.39C1756.56,693.38 1751.72,694.27 1746.87,695.04C1745.66,695.23 1744.44,695.42 1743.22,695.6C1743.01,695.63 1741.94,695.78 1741.23,695.87C1740.26,695.99 1738.87,696.15 1738.62,696.18C1737.4,696.32 1736.18,696.45 1734.95,696.58C1724.55,697.65 1714.11,698.19 1703.66,698.27C1692.94,698.35 1682.66,707.64 1683.16,718.77C1683.65,729.81 1692.17,739.36 1703.66,739.27C1747.27,738.94 1790.92,730.45 1831.22,713.72C1836.38,711.58 1840.53,709.32 1843.47,704.3C1846.04,699.92 1847.13,693.44 1845.54,688.51Z" style="fill:rgb(138,221,198);fill-rule:nonzero;"/>
        </g>
        <path d="M3503.82,935.69C3501.28,931.86 3498.97,927.91 3496.96,923.78C3496.56,922.96 3496.19,922.12 3495.8,921.29C3495.74,921.14 3495.68,920.98 3495.61,920.78C3494.73,918.35 3493.87,915.93 3493.14,913.45C3492.49,911.25 3491.92,909.03 3491.43,906.79C3491.18,905.67 3490.96,904.55 3490.75,903.42C3490.72,903.26 3490.62,902.71 3490.53,902.18C3490.45,901.53 3490.32,900.59 3490.3,900.36C3490.19,899.22 3490.1,898.08 3490.03,896.93C3489.88,894.35 3489.85,891.78 3489.88,889.19C3490.01,878.46 3480.36,868.2 3469.38,868.69C3458.16,869.19 3449.02,877.7 3448.88,889.19C3448.59,912.83 3455.35,936.65 3468.42,956.39C3474.33,965.32 3486.8,969.98 3496.47,963.74C3505.37,957.99 3510.15,945.25 3503.82,935.69Z" style="fill:rgb(138,221,198);fill-rule:nonzero;"/>
        <path d="M3599.19,872.49C3598.77,872.02 3598.36,871.54 3597.96,871.06C3597.89,870.96 3597.83,870.88 3597.75,870.76C3596.83,869.29 3595.84,867.87 3595,866.34C3594.85,866.07 3594.31,865.23 3593.87,864.42C3593.86,864.38 3593.71,864 3593.41,863.22C3593.1,862.41 3592.82,861.59 3592.55,860.76C3592.02,859.11 3591.57,857.43 3591.2,855.73C3591.12,855.34 3590.89,854.53 3590.71,853.93C3590.19,850.98 3590.59,847.47 3590.82,844.62C3591.5,835.92 3582.68,827.6 3574.18,827.98C3564.59,828.41 3558.27,835.3 3557.54,844.62C3556.06,863.52 3563.25,881.95 3575.66,896C3581.44,902.55 3593.37,902.34 3599.19,896C3605.6,889.03 3605.36,879.47 3599.19,872.49Z" style="fill:rgb(138,221,198);fill-rule:nonzero;"/>
    </g>
</svg>
